G04 EAGLE Gerber RS-274X export*
G75*
%MOMM*%
%FSLAX34Y34*%
%LPD*%
%INTop Copper*%
%IPPOS*%
%AMOC8*
5,1,8,0,0,1.08239X$1,22.5*%
G01*
%ADD10C,4.316000*%

G36*
X1300022Y2543D02*
X1300022Y2543D01*
X1300100Y2545D01*
X1304197Y2867D01*
X1304264Y2881D01*
X1304333Y2885D01*
X1304489Y2925D01*
X1312282Y5457D01*
X1312390Y5508D01*
X1312500Y5551D01*
X1312551Y5584D01*
X1312570Y5593D01*
X1312586Y5606D01*
X1312636Y5638D01*
X1319265Y10454D01*
X1319352Y10535D01*
X1319443Y10611D01*
X1319482Y10658D01*
X1319497Y10672D01*
X1319508Y10689D01*
X1319546Y10735D01*
X1324362Y17364D01*
X1324420Y17468D01*
X1324483Y17568D01*
X1324506Y17625D01*
X1324516Y17643D01*
X1324521Y17662D01*
X1324543Y17718D01*
X1327075Y25511D01*
X1327088Y25579D01*
X1327110Y25644D01*
X1327133Y25803D01*
X1327455Y29900D01*
X1327454Y29922D01*
X1327459Y30000D01*
X1327459Y53835D01*
X1327447Y53929D01*
X1327445Y54024D01*
X1327428Y54086D01*
X1327419Y54151D01*
X1327385Y54239D01*
X1327359Y54330D01*
X1327326Y54386D01*
X1327302Y54447D01*
X1327247Y54523D01*
X1327199Y54605D01*
X1327154Y54651D01*
X1327116Y54704D01*
X1327043Y54764D01*
X1326976Y54832D01*
X1326921Y54865D01*
X1326871Y54907D01*
X1326785Y54947D01*
X1326704Y54996D01*
X1326642Y55015D01*
X1326583Y55042D01*
X1326490Y55060D01*
X1326399Y55087D01*
X1326334Y55090D01*
X1326271Y55102D01*
X1326176Y55096D01*
X1326082Y55100D01*
X1326018Y55086D01*
X1325953Y55082D01*
X1325863Y55053D01*
X1325771Y55033D01*
X1325668Y54990D01*
X1325651Y54984D01*
X1325642Y54979D01*
X1325622Y54971D01*
X1311689Y48004D01*
X1311587Y47935D01*
X1311480Y47873D01*
X1311441Y47838D01*
X1311425Y47827D01*
X1311411Y47811D01*
X1311359Y47766D01*
X1311052Y47459D01*
X1310899Y47459D01*
X1310845Y47452D01*
X1310791Y47455D01*
X1310688Y47433D01*
X1310584Y47419D01*
X1310533Y47399D01*
X1310480Y47388D01*
X1310332Y47325D01*
X1310195Y47257D01*
X1309783Y47394D01*
X1309662Y47418D01*
X1309542Y47449D01*
X1309490Y47452D01*
X1309471Y47456D01*
X1309450Y47455D01*
X1309382Y47459D01*
X1308948Y47459D01*
X1308839Y47567D01*
X1308796Y47601D01*
X1308759Y47641D01*
X1308671Y47698D01*
X1308588Y47762D01*
X1308538Y47784D01*
X1308492Y47814D01*
X1308343Y47874D01*
X1308198Y47922D01*
X1308004Y48311D01*
X1307935Y48413D01*
X1307873Y48520D01*
X1307838Y48559D01*
X1307827Y48575D01*
X1307811Y48589D01*
X1307766Y48641D01*
X1307459Y48948D01*
X1307459Y49101D01*
X1307452Y49155D01*
X1307455Y49209D01*
X1307433Y49312D01*
X1307419Y49416D01*
X1307399Y49467D01*
X1307388Y49520D01*
X1307325Y49668D01*
X1307257Y49805D01*
X1307394Y50217D01*
X1307418Y50338D01*
X1307449Y50458D01*
X1307452Y50510D01*
X1307456Y50529D01*
X1307455Y50550D01*
X1307459Y50618D01*
X1307459Y144382D01*
X1307444Y144504D01*
X1307435Y144627D01*
X1307422Y144678D01*
X1307419Y144697D01*
X1307412Y144717D01*
X1307394Y144783D01*
X1307257Y145195D01*
X1307325Y145332D01*
X1307343Y145383D01*
X1307370Y145431D01*
X1307396Y145533D01*
X1307431Y145632D01*
X1307435Y145686D01*
X1307449Y145739D01*
X1307459Y145899D01*
X1307459Y146052D01*
X1307766Y146359D01*
X1307842Y146457D01*
X1307923Y146550D01*
X1307949Y146596D01*
X1307961Y146611D01*
X1307970Y146630D01*
X1308004Y146689D01*
X1308198Y147078D01*
X1308343Y147126D01*
X1308392Y147149D01*
X1308445Y147165D01*
X1308535Y147218D01*
X1308630Y147263D01*
X1308672Y147299D01*
X1308719Y147326D01*
X1308839Y147433D01*
X1308948Y147541D01*
X1309382Y147541D01*
X1309504Y147556D01*
X1309627Y147565D01*
X1309678Y147578D01*
X1309697Y147581D01*
X1309717Y147588D01*
X1309783Y147606D01*
X1310195Y147743D01*
X1310332Y147675D01*
X1310383Y147657D01*
X1310431Y147630D01*
X1310533Y147604D01*
X1310632Y147569D01*
X1310686Y147565D01*
X1310739Y147551D01*
X1310899Y147541D01*
X1311052Y147541D01*
X1311359Y147234D01*
X1311457Y147158D01*
X1311550Y147077D01*
X1311596Y147051D01*
X1311611Y147039D01*
X1311630Y147030D01*
X1311689Y146996D01*
X1325622Y140029D01*
X1325712Y139998D01*
X1325797Y139958D01*
X1325861Y139946D01*
X1325922Y139924D01*
X1326017Y139916D01*
X1326110Y139898D01*
X1326174Y139902D01*
X1326239Y139896D01*
X1326333Y139912D01*
X1326427Y139918D01*
X1326489Y139938D01*
X1326553Y139948D01*
X1326640Y139987D01*
X1326729Y140016D01*
X1326784Y140051D01*
X1326844Y140077D01*
X1326918Y140135D01*
X1326998Y140186D01*
X1327043Y140233D01*
X1327094Y140274D01*
X1327151Y140349D01*
X1327216Y140418D01*
X1327247Y140474D01*
X1327287Y140526D01*
X1327324Y140613D01*
X1327370Y140696D01*
X1327386Y140759D01*
X1327411Y140819D01*
X1327425Y140913D01*
X1327449Y141004D01*
X1327456Y141115D01*
X1327459Y141133D01*
X1327458Y141143D01*
X1327459Y141165D01*
X1327459Y211335D01*
X1327447Y211429D01*
X1327445Y211524D01*
X1327428Y211586D01*
X1327419Y211651D01*
X1327385Y211739D01*
X1327359Y211830D01*
X1327326Y211886D01*
X1327302Y211947D01*
X1327247Y212023D01*
X1327199Y212105D01*
X1327154Y212151D01*
X1327116Y212204D01*
X1327043Y212264D01*
X1326976Y212332D01*
X1326921Y212365D01*
X1326871Y212407D01*
X1326785Y212447D01*
X1326704Y212496D01*
X1326642Y212515D01*
X1326583Y212542D01*
X1326490Y212560D01*
X1326399Y212587D01*
X1326334Y212590D01*
X1326271Y212602D01*
X1326176Y212596D01*
X1326082Y212600D01*
X1326018Y212586D01*
X1325953Y212582D01*
X1325863Y212553D01*
X1325771Y212533D01*
X1325668Y212490D01*
X1325651Y212484D01*
X1325642Y212479D01*
X1325622Y212471D01*
X1311689Y205504D01*
X1311630Y205465D01*
X1311628Y205464D01*
X1311619Y205457D01*
X1311587Y205435D01*
X1311480Y205373D01*
X1311441Y205338D01*
X1311425Y205327D01*
X1311411Y205311D01*
X1311374Y205279D01*
X1311371Y205277D01*
X1311370Y205275D01*
X1311359Y205266D01*
X1311052Y204959D01*
X1310899Y204959D01*
X1310845Y204952D01*
X1310791Y204955D01*
X1310688Y204933D01*
X1310584Y204919D01*
X1310533Y204899D01*
X1310480Y204888D01*
X1310332Y204825D01*
X1310195Y204757D01*
X1309783Y204894D01*
X1309662Y204918D01*
X1309542Y204949D01*
X1309490Y204952D01*
X1309471Y204956D01*
X1309450Y204955D01*
X1309382Y204959D01*
X1308948Y204959D01*
X1308839Y205067D01*
X1308796Y205101D01*
X1308759Y205141D01*
X1308671Y205198D01*
X1308588Y205262D01*
X1308538Y205284D01*
X1308492Y205314D01*
X1308343Y205374D01*
X1308198Y205422D01*
X1308004Y205811D01*
X1307935Y205913D01*
X1307873Y206020D01*
X1307838Y206059D01*
X1307827Y206075D01*
X1307811Y206089D01*
X1307766Y206141D01*
X1307459Y206448D01*
X1307459Y206601D01*
X1307452Y206655D01*
X1307455Y206709D01*
X1307433Y206812D01*
X1307419Y206916D01*
X1307399Y206967D01*
X1307388Y207020D01*
X1307325Y207168D01*
X1307257Y207305D01*
X1307394Y207717D01*
X1307418Y207838D01*
X1307449Y207958D01*
X1307452Y208010D01*
X1307456Y208029D01*
X1307455Y208050D01*
X1307459Y208118D01*
X1307459Y301882D01*
X1307444Y302004D01*
X1307435Y302127D01*
X1307422Y302178D01*
X1307419Y302197D01*
X1307412Y302217D01*
X1307394Y302283D01*
X1307257Y302695D01*
X1307325Y302832D01*
X1307343Y302883D01*
X1307370Y302931D01*
X1307396Y303033D01*
X1307431Y303132D01*
X1307435Y303186D01*
X1307449Y303239D01*
X1307459Y303399D01*
X1307459Y303552D01*
X1307766Y303859D01*
X1307842Y303957D01*
X1307923Y304050D01*
X1307949Y304096D01*
X1307961Y304111D01*
X1307970Y304130D01*
X1308004Y304189D01*
X1308198Y304578D01*
X1308343Y304626D01*
X1308392Y304649D01*
X1308445Y304665D01*
X1308535Y304718D01*
X1308630Y304763D01*
X1308672Y304798D01*
X1308719Y304826D01*
X1308839Y304933D01*
X1308948Y305041D01*
X1309382Y305041D01*
X1309504Y305056D01*
X1309627Y305065D01*
X1309678Y305078D01*
X1309697Y305081D01*
X1309717Y305088D01*
X1309783Y305106D01*
X1310195Y305243D01*
X1310332Y305175D01*
X1310383Y305157D01*
X1310431Y305130D01*
X1310533Y305104D01*
X1310632Y305069D01*
X1310686Y305065D01*
X1310739Y305051D01*
X1310899Y305041D01*
X1311052Y305041D01*
X1311359Y304734D01*
X1311457Y304658D01*
X1311550Y304577D01*
X1311596Y304551D01*
X1311611Y304539D01*
X1311630Y304530D01*
X1311689Y304496D01*
X1325622Y297529D01*
X1325712Y297498D01*
X1325797Y297458D01*
X1325861Y297446D01*
X1325922Y297424D01*
X1326017Y297416D01*
X1326110Y297398D01*
X1326174Y297402D01*
X1326239Y297396D01*
X1326333Y297412D01*
X1326427Y297418D01*
X1326489Y297438D01*
X1326553Y297448D01*
X1326640Y297487D01*
X1326729Y297516D01*
X1326784Y297551D01*
X1326844Y297577D01*
X1326918Y297635D01*
X1326998Y297686D01*
X1327043Y297733D01*
X1327094Y297774D01*
X1327151Y297849D01*
X1327216Y297918D01*
X1327247Y297974D01*
X1327287Y298026D01*
X1327324Y298113D01*
X1327370Y298196D01*
X1327386Y298259D01*
X1327411Y298319D01*
X1327425Y298413D01*
X1327449Y298504D01*
X1327456Y298615D01*
X1327459Y298633D01*
X1327458Y298643D01*
X1327459Y298665D01*
X1327459Y320000D01*
X1327457Y320022D01*
X1327455Y320100D01*
X1327133Y324197D01*
X1327119Y324264D01*
X1327115Y324333D01*
X1327075Y324489D01*
X1324543Y332282D01*
X1324492Y332390D01*
X1324449Y332500D01*
X1324416Y332551D01*
X1324407Y332570D01*
X1324394Y332586D01*
X1324362Y332636D01*
X1319546Y339265D01*
X1319465Y339352D01*
X1319389Y339443D01*
X1319342Y339482D01*
X1319328Y339497D01*
X1319311Y339508D01*
X1319265Y339546D01*
X1312636Y344362D01*
X1312532Y344420D01*
X1312432Y344483D01*
X1312375Y344506D01*
X1312357Y344516D01*
X1312338Y344521D01*
X1312282Y344543D01*
X1304489Y347075D01*
X1304421Y347088D01*
X1304356Y347110D01*
X1304197Y347133D01*
X1300100Y347455D01*
X1300078Y347454D01*
X1300000Y347459D01*
X30000Y347459D01*
X29978Y347457D01*
X29900Y347455D01*
X25803Y347133D01*
X25736Y347119D01*
X25667Y347115D01*
X25511Y347075D01*
X17718Y344543D01*
X17610Y344492D01*
X17500Y344449D01*
X17449Y344416D01*
X17430Y344407D01*
X17414Y344394D01*
X17364Y344362D01*
X10735Y339546D01*
X10648Y339465D01*
X10557Y339389D01*
X10518Y339342D01*
X10503Y339328D01*
X10492Y339311D01*
X10454Y339265D01*
X5638Y332636D01*
X5580Y332532D01*
X5517Y332432D01*
X5494Y332375D01*
X5484Y332357D01*
X5479Y332338D01*
X5457Y332282D01*
X2925Y324489D01*
X2912Y324421D01*
X2890Y324356D01*
X2867Y324197D01*
X2545Y320100D01*
X2546Y320078D01*
X2541Y320000D01*
X2541Y298665D01*
X2553Y298571D01*
X2555Y298476D01*
X2572Y298414D01*
X2581Y298349D01*
X2615Y298261D01*
X2641Y298170D01*
X2674Y298114D01*
X2698Y298053D01*
X2753Y297977D01*
X2801Y297895D01*
X2846Y297849D01*
X2884Y297796D01*
X2957Y297736D01*
X3024Y297668D01*
X3079Y297635D01*
X3129Y297593D01*
X3215Y297553D01*
X3296Y297504D01*
X3358Y297485D01*
X3417Y297458D01*
X3510Y297440D01*
X3601Y297413D01*
X3666Y297410D01*
X3729Y297398D01*
X3824Y297404D01*
X3918Y297400D01*
X3982Y297414D01*
X4047Y297418D01*
X4137Y297447D01*
X4229Y297467D01*
X4332Y297510D01*
X4349Y297516D01*
X4358Y297521D01*
X4378Y297529D01*
X18311Y304496D01*
X18413Y304565D01*
X18520Y304627D01*
X18559Y304662D01*
X18575Y304673D01*
X18589Y304689D01*
X18641Y304734D01*
X18948Y305041D01*
X19101Y305041D01*
X19155Y305048D01*
X19209Y305045D01*
X19312Y305067D01*
X19416Y305081D01*
X19467Y305101D01*
X19520Y305112D01*
X19668Y305175D01*
X19805Y305243D01*
X20217Y305106D01*
X20338Y305082D01*
X20458Y305051D01*
X20510Y305048D01*
X20529Y305044D01*
X20550Y305045D01*
X20618Y305041D01*
X21052Y305041D01*
X21161Y304933D01*
X21204Y304899D01*
X21241Y304859D01*
X21329Y304802D01*
X21412Y304738D01*
X21462Y304716D01*
X21508Y304686D01*
X21657Y304626D01*
X21802Y304578D01*
X21996Y304189D01*
X22064Y304087D01*
X22127Y303980D01*
X22162Y303941D01*
X22173Y303925D01*
X22189Y303911D01*
X22234Y303859D01*
X22541Y303552D01*
X22541Y303399D01*
X22548Y303345D01*
X22545Y303291D01*
X22567Y303188D01*
X22581Y303084D01*
X22601Y303033D01*
X22612Y302980D01*
X22675Y302832D01*
X22743Y302695D01*
X22606Y302283D01*
X22582Y302162D01*
X22551Y302042D01*
X22548Y301990D01*
X22544Y301971D01*
X22545Y301950D01*
X22541Y301882D01*
X22541Y208118D01*
X22556Y207996D01*
X22565Y207873D01*
X22578Y207822D01*
X22581Y207803D01*
X22588Y207783D01*
X22606Y207717D01*
X22743Y207305D01*
X22675Y207168D01*
X22657Y207117D01*
X22630Y207069D01*
X22604Y206968D01*
X22569Y206868D01*
X22565Y206814D01*
X22551Y206761D01*
X22541Y206601D01*
X22541Y206448D01*
X22234Y206141D01*
X22158Y206043D01*
X22077Y205950D01*
X22050Y205904D01*
X22039Y205889D01*
X22030Y205870D01*
X21996Y205811D01*
X21802Y205422D01*
X21657Y205374D01*
X21608Y205351D01*
X21555Y205335D01*
X21465Y205282D01*
X21370Y205237D01*
X21328Y205202D01*
X21281Y205174D01*
X21161Y205067D01*
X21052Y204959D01*
X20618Y204959D01*
X20496Y204944D01*
X20373Y204935D01*
X20322Y204922D01*
X20303Y204919D01*
X20283Y204912D01*
X20217Y204894D01*
X19805Y204757D01*
X19668Y204825D01*
X19617Y204843D01*
X19569Y204870D01*
X19468Y204896D01*
X19368Y204931D01*
X19314Y204935D01*
X19261Y204949D01*
X19101Y204959D01*
X18948Y204959D01*
X18641Y205266D01*
X18556Y205332D01*
X18507Y205378D01*
X18493Y205386D01*
X18450Y205423D01*
X18404Y205449D01*
X18389Y205461D01*
X18370Y205470D01*
X18311Y205504D01*
X4378Y212471D01*
X4288Y212502D01*
X4203Y212542D01*
X4139Y212554D01*
X4078Y212576D01*
X3983Y212584D01*
X3890Y212602D01*
X3826Y212598D01*
X3761Y212604D01*
X3667Y212588D01*
X3573Y212582D01*
X3511Y212562D01*
X3447Y212552D01*
X3360Y212513D01*
X3271Y212484D01*
X3216Y212449D01*
X3156Y212423D01*
X3082Y212365D01*
X3002Y212314D01*
X2957Y212267D01*
X2906Y212226D01*
X2849Y212151D01*
X2784Y212082D01*
X2753Y212026D01*
X2713Y211974D01*
X2676Y211886D01*
X2630Y211804D01*
X2614Y211741D01*
X2589Y211681D01*
X2575Y211587D01*
X2551Y211496D01*
X2544Y211385D01*
X2541Y211367D01*
X2542Y211357D01*
X2541Y211335D01*
X2541Y141165D01*
X2553Y141071D01*
X2555Y140976D01*
X2572Y140914D01*
X2581Y140849D01*
X2615Y140761D01*
X2641Y140670D01*
X2674Y140614D01*
X2698Y140553D01*
X2753Y140477D01*
X2801Y140395D01*
X2846Y140349D01*
X2884Y140296D01*
X2957Y140236D01*
X3024Y140168D01*
X3079Y140135D01*
X3129Y140093D01*
X3215Y140053D01*
X3296Y140004D01*
X3358Y139985D01*
X3417Y139958D01*
X3510Y139940D01*
X3601Y139913D01*
X3666Y139910D01*
X3729Y139898D01*
X3824Y139904D01*
X3918Y139900D01*
X3982Y139914D01*
X4047Y139918D01*
X4137Y139947D01*
X4229Y139967D01*
X4332Y140010D01*
X4349Y140016D01*
X4358Y140021D01*
X4378Y140029D01*
X18311Y146996D01*
X18413Y147065D01*
X18520Y147127D01*
X18559Y147162D01*
X18575Y147173D01*
X18589Y147189D01*
X18641Y147234D01*
X18948Y147541D01*
X19101Y147541D01*
X19155Y147548D01*
X19209Y147545D01*
X19312Y147567D01*
X19416Y147581D01*
X19467Y147601D01*
X19520Y147612D01*
X19668Y147675D01*
X19805Y147743D01*
X20217Y147606D01*
X20338Y147582D01*
X20458Y147551D01*
X20510Y147548D01*
X20529Y147544D01*
X20550Y147545D01*
X20618Y147541D01*
X21052Y147541D01*
X21161Y147433D01*
X21204Y147399D01*
X21241Y147359D01*
X21329Y147302D01*
X21412Y147238D01*
X21462Y147216D01*
X21508Y147186D01*
X21657Y147126D01*
X21802Y147078D01*
X21996Y146689D01*
X22065Y146587D01*
X22127Y146480D01*
X22162Y146441D01*
X22173Y146425D01*
X22189Y146411D01*
X22234Y146359D01*
X22541Y146052D01*
X22541Y145899D01*
X22548Y145845D01*
X22545Y145791D01*
X22567Y145688D01*
X22581Y145584D01*
X22601Y145533D01*
X22612Y145480D01*
X22675Y145332D01*
X22743Y145195D01*
X22606Y144783D01*
X22582Y144662D01*
X22551Y144542D01*
X22548Y144490D01*
X22544Y144471D01*
X22545Y144450D01*
X22541Y144382D01*
X22541Y50618D01*
X22556Y50496D01*
X22565Y50373D01*
X22578Y50322D01*
X22581Y50303D01*
X22588Y50283D01*
X22606Y50217D01*
X22743Y49805D01*
X22675Y49668D01*
X22657Y49617D01*
X22630Y49569D01*
X22604Y49468D01*
X22569Y49368D01*
X22565Y49314D01*
X22551Y49261D01*
X22541Y49101D01*
X22541Y48948D01*
X22234Y48641D01*
X22158Y48543D01*
X22077Y48450D01*
X22050Y48404D01*
X22039Y48389D01*
X22030Y48370D01*
X21996Y48311D01*
X21802Y47922D01*
X21657Y47874D01*
X21608Y47851D01*
X21555Y47835D01*
X21465Y47782D01*
X21370Y47737D01*
X21328Y47702D01*
X21281Y47674D01*
X21161Y47567D01*
X21052Y47459D01*
X20618Y47459D01*
X20496Y47444D01*
X20373Y47435D01*
X20322Y47422D01*
X20303Y47419D01*
X20283Y47412D01*
X20217Y47394D01*
X19805Y47257D01*
X19668Y47325D01*
X19617Y47343D01*
X19569Y47370D01*
X19468Y47396D01*
X19368Y47431D01*
X19314Y47435D01*
X19261Y47449D01*
X19101Y47459D01*
X18948Y47459D01*
X18641Y47766D01*
X18543Y47842D01*
X18450Y47923D01*
X18404Y47949D01*
X18389Y47961D01*
X18370Y47970D01*
X18311Y48004D01*
X4378Y54971D01*
X4288Y55002D01*
X4203Y55042D01*
X4139Y55054D01*
X4078Y55076D01*
X3983Y55084D01*
X3890Y55102D01*
X3826Y55098D01*
X3761Y55104D01*
X3667Y55088D01*
X3573Y55082D01*
X3511Y55062D01*
X3447Y55052D01*
X3360Y55013D01*
X3271Y54984D01*
X3216Y54949D01*
X3156Y54923D01*
X3082Y54865D01*
X3002Y54814D01*
X2957Y54767D01*
X2906Y54726D01*
X2849Y54651D01*
X2784Y54582D01*
X2753Y54526D01*
X2713Y54474D01*
X2676Y54387D01*
X2630Y54304D01*
X2614Y54241D01*
X2589Y54181D01*
X2575Y54087D01*
X2551Y53996D01*
X2544Y53885D01*
X2541Y53867D01*
X2542Y53857D01*
X2541Y53835D01*
X2541Y30000D01*
X2543Y29978D01*
X2545Y29900D01*
X2867Y25803D01*
X2881Y25736D01*
X2885Y25667D01*
X2925Y25511D01*
X5457Y17718D01*
X5508Y17610D01*
X5551Y17500D01*
X5584Y17449D01*
X5593Y17430D01*
X5606Y17414D01*
X5638Y17364D01*
X10454Y10735D01*
X10535Y10648D01*
X10611Y10557D01*
X10658Y10518D01*
X10672Y10503D01*
X10689Y10492D01*
X10735Y10454D01*
X10810Y10399D01*
X17364Y5638D01*
X17468Y5580D01*
X17568Y5517D01*
X17625Y5494D01*
X17643Y5484D01*
X17662Y5479D01*
X17718Y5457D01*
X25511Y2925D01*
X25579Y2912D01*
X25644Y2890D01*
X25803Y2867D01*
X29900Y2545D01*
X29922Y2546D01*
X30000Y2541D01*
X1300000Y2541D01*
X1300022Y2543D01*
G37*
%LPC*%
G36*
X642348Y120759D02*
X642348Y120759D01*
X630555Y123105D01*
X619446Y127706D01*
X609449Y134387D01*
X600947Y142889D01*
X594266Y152886D01*
X589665Y163995D01*
X587319Y175788D01*
X587319Y187812D01*
X589665Y199605D01*
X594266Y210714D01*
X600947Y220711D01*
X609449Y229213D01*
X619446Y235894D01*
X630555Y240495D01*
X642348Y242841D01*
X654372Y242841D01*
X666165Y240495D01*
X677274Y235894D01*
X687271Y229213D01*
X695773Y220711D01*
X702454Y210714D01*
X707055Y199605D01*
X709401Y187812D01*
X709401Y175788D01*
X707055Y163995D01*
X702454Y152886D01*
X695773Y142889D01*
X687271Y134387D01*
X677274Y127706D01*
X666165Y123105D01*
X654372Y120759D01*
X642348Y120759D01*
G37*
%LPD*%
%LPC*%
G36*
X139548Y120759D02*
X139548Y120759D01*
X127755Y123105D01*
X116646Y127706D01*
X106649Y134387D01*
X98147Y142889D01*
X91466Y152886D01*
X86865Y163995D01*
X84519Y175788D01*
X84519Y187812D01*
X86865Y199605D01*
X91466Y210714D01*
X98147Y220711D01*
X106649Y229213D01*
X116646Y235894D01*
X127755Y240495D01*
X139548Y242841D01*
X151572Y242841D01*
X163365Y240495D01*
X174474Y235894D01*
X184471Y229213D01*
X192973Y220711D01*
X199654Y210714D01*
X204255Y199605D01*
X206601Y187812D01*
X206601Y175788D01*
X204255Y163995D01*
X199654Y152886D01*
X192973Y142889D01*
X184471Y134387D01*
X174474Y127706D01*
X163365Y123105D01*
X151572Y120759D01*
X139548Y120759D01*
G37*
%LPD*%
%LPC*%
G36*
X474708Y120759D02*
X474708Y120759D01*
X462915Y123105D01*
X451806Y127706D01*
X441809Y134387D01*
X433307Y142889D01*
X426626Y152886D01*
X422025Y163995D01*
X419679Y175788D01*
X419679Y187812D01*
X422025Y199605D01*
X426626Y210714D01*
X433307Y220711D01*
X441809Y229213D01*
X451806Y235894D01*
X462915Y240495D01*
X474708Y242841D01*
X486732Y242841D01*
X498525Y240495D01*
X509634Y235894D01*
X519631Y229213D01*
X528133Y220711D01*
X534814Y210714D01*
X539415Y199605D01*
X541761Y187812D01*
X541761Y175788D01*
X539415Y163995D01*
X534814Y152886D01*
X528133Y142889D01*
X519631Y134387D01*
X509634Y127706D01*
X498525Y123105D01*
X486732Y120759D01*
X474708Y120759D01*
G37*
%LPD*%
%LPC*%
G36*
X307068Y120759D02*
X307068Y120759D01*
X295275Y123105D01*
X284166Y127706D01*
X274169Y134387D01*
X265667Y142889D01*
X258986Y152886D01*
X254385Y163995D01*
X252039Y175788D01*
X252039Y187812D01*
X254385Y199605D01*
X258986Y210714D01*
X265667Y220711D01*
X274169Y229213D01*
X284166Y235894D01*
X295275Y240495D01*
X307068Y242841D01*
X319092Y242841D01*
X330885Y240495D01*
X341994Y235894D01*
X351991Y229213D01*
X360493Y220711D01*
X367174Y210714D01*
X371775Y199605D01*
X374121Y187812D01*
X374121Y175788D01*
X371775Y163995D01*
X367174Y152886D01*
X360493Y142889D01*
X351991Y134387D01*
X341994Y127706D01*
X330885Y123105D01*
X319092Y120759D01*
X307068Y120759D01*
G37*
%LPD*%
%LPC*%
G36*
X809988Y120759D02*
X809988Y120759D01*
X798195Y123105D01*
X787086Y127706D01*
X777089Y134387D01*
X768587Y142889D01*
X761906Y152886D01*
X757305Y163995D01*
X754959Y175788D01*
X754959Y187812D01*
X757305Y199605D01*
X761906Y210714D01*
X768587Y220711D01*
X777089Y229213D01*
X787086Y235894D01*
X798195Y240495D01*
X809988Y242841D01*
X822012Y242841D01*
X833805Y240495D01*
X844914Y235894D01*
X854911Y229213D01*
X863413Y220711D01*
X870094Y210714D01*
X874695Y199605D01*
X877041Y187812D01*
X877041Y175788D01*
X874695Y163995D01*
X870094Y152886D01*
X863413Y142889D01*
X854911Y134387D01*
X844914Y127706D01*
X833805Y123105D01*
X822012Y120759D01*
X809988Y120759D01*
G37*
%LPD*%
%LPC*%
G36*
X1212491Y195059D02*
X1212491Y195059D01*
X1206044Y197730D01*
X1201110Y202664D01*
X1198439Y209111D01*
X1198439Y216089D01*
X1201110Y222536D01*
X1206044Y227470D01*
X1212491Y230141D01*
X1219469Y230141D01*
X1225916Y227470D01*
X1230850Y222536D01*
X1233521Y216089D01*
X1233521Y209111D01*
X1230850Y202664D01*
X1225916Y197730D01*
X1219469Y195059D01*
X1212491Y195059D01*
G37*
%LPD*%
%LPC*%
G36*
X1159151Y195059D02*
X1159151Y195059D01*
X1152704Y197730D01*
X1147770Y202664D01*
X1145099Y209111D01*
X1145099Y216089D01*
X1147770Y222536D01*
X1152704Y227470D01*
X1159151Y230141D01*
X1166129Y230141D01*
X1172576Y227470D01*
X1177510Y222536D01*
X1180181Y216089D01*
X1180181Y209111D01*
X1177510Y202664D01*
X1172576Y197730D01*
X1166129Y195059D01*
X1159151Y195059D01*
G37*
%LPD*%
%LPC*%
G36*
X1105811Y195059D02*
X1105811Y195059D01*
X1099364Y197730D01*
X1094430Y202664D01*
X1091759Y209111D01*
X1091759Y216089D01*
X1094430Y222536D01*
X1099364Y227470D01*
X1105811Y230141D01*
X1112789Y230141D01*
X1119236Y227470D01*
X1124170Y222536D01*
X1126841Y216089D01*
X1126841Y209111D01*
X1124170Y202664D01*
X1119236Y197730D01*
X1112789Y195059D01*
X1105811Y195059D01*
G37*
%LPD*%
%LPC*%
G36*
X1052511Y195059D02*
X1052511Y195059D01*
X1046064Y197730D01*
X1041130Y202664D01*
X1038459Y209111D01*
X1038459Y216089D01*
X1041130Y222536D01*
X1046064Y227470D01*
X1052511Y230141D01*
X1059489Y230141D01*
X1065936Y227470D01*
X1070870Y222536D01*
X1073541Y216089D01*
X1073541Y209111D01*
X1070870Y202664D01*
X1065936Y197730D01*
X1059489Y195059D01*
X1052511Y195059D01*
G37*
%LPD*%
%LPC*%
G36*
X999211Y195059D02*
X999211Y195059D01*
X992764Y197730D01*
X987830Y202664D01*
X985159Y209111D01*
X985159Y216089D01*
X987830Y222536D01*
X992764Y227470D01*
X999211Y230141D01*
X1006189Y230141D01*
X1012636Y227470D01*
X1017570Y222536D01*
X1020241Y216089D01*
X1020241Y209111D01*
X1017570Y202664D01*
X1012636Y197730D01*
X1006189Y195059D01*
X999211Y195059D01*
G37*
%LPD*%
%LPC*%
G36*
X945911Y195059D02*
X945911Y195059D01*
X939464Y197730D01*
X934530Y202664D01*
X931859Y209111D01*
X931859Y216089D01*
X934530Y222536D01*
X939464Y227470D01*
X945911Y230141D01*
X952889Y230141D01*
X959336Y227470D01*
X964270Y222536D01*
X966941Y216089D01*
X966941Y209111D01*
X964270Y202664D01*
X959336Y197730D01*
X952889Y195059D01*
X945911Y195059D01*
G37*
%LPD*%
%LPC*%
G36*
X1212491Y149359D02*
X1212491Y149359D01*
X1206044Y152030D01*
X1201110Y156964D01*
X1198439Y163411D01*
X1198439Y170389D01*
X1201110Y176836D01*
X1206044Y181770D01*
X1212491Y184441D01*
X1219469Y184441D01*
X1225916Y181770D01*
X1230850Y176836D01*
X1233521Y170389D01*
X1233521Y163411D01*
X1230850Y156964D01*
X1225916Y152030D01*
X1219469Y149359D01*
X1212491Y149359D01*
G37*
%LPD*%
%LPC*%
G36*
X1159151Y149359D02*
X1159151Y149359D01*
X1152704Y152030D01*
X1147770Y156964D01*
X1145099Y163411D01*
X1145099Y170389D01*
X1147770Y176836D01*
X1152704Y181770D01*
X1159151Y184441D01*
X1166129Y184441D01*
X1172576Y181770D01*
X1177510Y176836D01*
X1180181Y170389D01*
X1180181Y163411D01*
X1177510Y156964D01*
X1172576Y152030D01*
X1166129Y149359D01*
X1159151Y149359D01*
G37*
%LPD*%
%LPC*%
G36*
X1105811Y149359D02*
X1105811Y149359D01*
X1099364Y152030D01*
X1094430Y156964D01*
X1091759Y163411D01*
X1091759Y170389D01*
X1094430Y176836D01*
X1099364Y181770D01*
X1105811Y184441D01*
X1112789Y184441D01*
X1119236Y181770D01*
X1124170Y176836D01*
X1126841Y170389D01*
X1126841Y163411D01*
X1124170Y156964D01*
X1119236Y152030D01*
X1112789Y149359D01*
X1105811Y149359D01*
G37*
%LPD*%
%LPC*%
G36*
X1052511Y149359D02*
X1052511Y149359D01*
X1046064Y152030D01*
X1041130Y156964D01*
X1038459Y163411D01*
X1038459Y170389D01*
X1041130Y176836D01*
X1046064Y181770D01*
X1052511Y184441D01*
X1059489Y184441D01*
X1065936Y181770D01*
X1070870Y176836D01*
X1073541Y170389D01*
X1073541Y163411D01*
X1070870Y156964D01*
X1065936Y152030D01*
X1059489Y149359D01*
X1052511Y149359D01*
G37*
%LPD*%
%LPC*%
G36*
X999211Y149359D02*
X999211Y149359D01*
X992764Y152030D01*
X987830Y156964D01*
X985159Y163411D01*
X985159Y170389D01*
X987830Y176836D01*
X992764Y181770D01*
X999211Y184441D01*
X1006189Y184441D01*
X1012636Y181770D01*
X1017570Y176836D01*
X1020241Y170389D01*
X1020241Y163411D01*
X1017570Y156964D01*
X1012636Y152030D01*
X1006189Y149359D01*
X999211Y149359D01*
G37*
%LPD*%
%LPC*%
G36*
X945911Y149359D02*
X945911Y149359D01*
X939464Y152030D01*
X934530Y156964D01*
X931859Y163411D01*
X931859Y170389D01*
X934530Y176836D01*
X939464Y181770D01*
X945911Y184441D01*
X952889Y184441D01*
X959336Y181770D01*
X964270Y176836D01*
X966941Y170389D01*
X966941Y163411D01*
X964270Y156964D01*
X959336Y152030D01*
X952889Y149359D01*
X945911Y149359D01*
G37*
%LPD*%
D10*
X59210Y306600D03*
X59210Y56700D03*
X1269210Y56700D03*
X1269210Y306600D03*
M02*
