G04 EAGLE Gerber RS-274X export*
G75*
%MOMM*%
%FSLAX34Y34*%
%LPD*%
%IN*%
%IPPOS*%
%AMOC8*
5,1,8,0,0,1.08239X$1,22.5*%
G01*
%ADD10C,0.254000*%


D10*
X0Y30000D02*
X114Y27385D01*
X456Y24791D01*
X1022Y22235D01*
X1809Y19739D01*
X2811Y17321D01*
X4019Y15000D01*
X5425Y12793D01*
X7019Y10716D01*
X8787Y8787D01*
X10716Y7019D01*
X12793Y5425D01*
X15000Y4019D01*
X17321Y2811D01*
X19739Y1809D01*
X22235Y1022D01*
X24791Y456D01*
X27385Y114D01*
X30000Y0D01*
X1300000Y0D01*
X1302615Y114D01*
X1305209Y456D01*
X1307765Y1022D01*
X1310261Y1809D01*
X1312679Y2811D01*
X1315000Y4019D01*
X1317207Y5425D01*
X1319284Y7019D01*
X1321213Y8787D01*
X1322981Y10716D01*
X1324575Y12793D01*
X1325981Y15000D01*
X1327189Y17321D01*
X1328191Y19739D01*
X1328978Y22235D01*
X1329544Y24791D01*
X1329886Y27385D01*
X1330000Y30000D01*
X1330000Y60000D01*
X1310000Y50000D01*
X1310000Y145000D01*
X1330000Y135000D01*
X1330000Y217500D01*
X1310000Y207500D01*
X1310000Y302500D01*
X1330000Y292500D01*
X1330000Y320000D01*
X1329886Y322615D01*
X1329544Y325209D01*
X1328978Y327765D01*
X1328191Y330261D01*
X1327189Y332679D01*
X1325981Y335000D01*
X1324575Y337207D01*
X1322981Y339284D01*
X1321213Y341213D01*
X1319284Y342981D01*
X1317207Y344575D01*
X1315000Y345981D01*
X1312679Y347189D01*
X1310261Y348191D01*
X1307765Y348978D01*
X1305209Y349544D01*
X1302615Y349886D01*
X1300000Y350000D01*
X30000Y350000D01*
X27385Y349886D01*
X24791Y349544D01*
X22235Y348978D01*
X19739Y348191D01*
X17321Y347189D01*
X15000Y345981D01*
X12793Y344575D01*
X10716Y342981D01*
X8787Y341213D01*
X7019Y339284D01*
X5425Y337207D01*
X4019Y335000D01*
X2811Y332679D01*
X1809Y330261D01*
X1022Y327765D01*
X456Y325209D01*
X114Y322615D01*
X0Y320000D01*
X0Y292500D01*
X20000Y302500D01*
X20000Y207500D01*
X0Y217500D01*
X0Y135000D01*
X20000Y145000D01*
X20000Y50000D01*
X0Y60000D01*
X0Y30000D01*
X204060Y180756D02*
X203985Y178668D01*
X203836Y176585D01*
X203613Y174508D01*
X203316Y172441D01*
X202945Y170385D01*
X202501Y168344D01*
X201985Y166321D01*
X201396Y164317D01*
X200737Y162335D01*
X200007Y160378D01*
X199207Y158448D01*
X198340Y156548D01*
X197405Y154681D01*
X196404Y152847D01*
X195338Y151051D01*
X194209Y149294D01*
X193018Y147578D01*
X191766Y145906D01*
X190455Y144280D01*
X189087Y142701D01*
X187664Y141173D01*
X186187Y139696D01*
X184659Y138273D01*
X183080Y136905D01*
X181454Y135594D01*
X179782Y134343D01*
X178066Y133151D01*
X176309Y132022D01*
X174513Y130956D01*
X172679Y129955D01*
X170812Y129020D01*
X168912Y128153D01*
X166982Y127353D01*
X165025Y126623D01*
X163043Y125964D01*
X161039Y125375D01*
X159016Y124859D01*
X156975Y124415D01*
X154919Y124044D01*
X152852Y123747D01*
X150775Y123524D01*
X148692Y123375D01*
X146604Y123300D01*
X144516Y123300D01*
X142428Y123375D01*
X140345Y123524D01*
X138268Y123747D01*
X136201Y124044D01*
X134145Y124415D01*
X132104Y124859D01*
X130081Y125375D01*
X128077Y125964D01*
X126095Y126623D01*
X124138Y127353D01*
X122208Y128153D01*
X120308Y129020D01*
X118441Y129955D01*
X116607Y130956D01*
X114811Y132022D01*
X113054Y133151D01*
X111338Y134343D01*
X109666Y135594D01*
X108040Y136905D01*
X106461Y138273D01*
X104933Y139696D01*
X103456Y141173D01*
X102033Y142701D01*
X100665Y144280D01*
X99354Y145906D01*
X98103Y147578D01*
X96911Y149294D01*
X95782Y151051D01*
X94716Y152847D01*
X93715Y154681D01*
X92780Y156548D01*
X91913Y158448D01*
X91113Y160378D01*
X90383Y162335D01*
X89724Y164317D01*
X89135Y166321D01*
X88619Y168344D01*
X88175Y170385D01*
X87804Y172441D01*
X87507Y174508D01*
X87284Y176585D01*
X87135Y178668D01*
X87060Y180756D01*
X87060Y182844D01*
X87135Y184932D01*
X87284Y187015D01*
X87507Y189092D01*
X87804Y191159D01*
X88175Y193215D01*
X88619Y195256D01*
X89135Y197279D01*
X89724Y199283D01*
X90383Y201265D01*
X91113Y203222D01*
X91913Y205152D01*
X92780Y207052D01*
X93715Y208919D01*
X94716Y210753D01*
X95782Y212549D01*
X96911Y214306D01*
X98103Y216022D01*
X99354Y217694D01*
X100665Y219320D01*
X102033Y220899D01*
X103456Y222427D01*
X104933Y223904D01*
X106461Y225327D01*
X108040Y226695D01*
X109666Y228006D01*
X111338Y229258D01*
X113054Y230449D01*
X114811Y231578D01*
X116607Y232644D01*
X118441Y233645D01*
X120308Y234580D01*
X122208Y235447D01*
X124138Y236247D01*
X126095Y236977D01*
X128077Y237636D01*
X130081Y238225D01*
X132104Y238741D01*
X134145Y239185D01*
X136201Y239556D01*
X138268Y239853D01*
X140345Y240076D01*
X142428Y240225D01*
X144516Y240300D01*
X146604Y240300D01*
X148692Y240225D01*
X150775Y240076D01*
X152852Y239853D01*
X154919Y239556D01*
X156975Y239185D01*
X159016Y238741D01*
X161039Y238225D01*
X163043Y237636D01*
X165025Y236977D01*
X166982Y236247D01*
X168912Y235447D01*
X170812Y234580D01*
X172679Y233645D01*
X174513Y232644D01*
X176309Y231578D01*
X178066Y230449D01*
X179782Y229258D01*
X181454Y228006D01*
X183080Y226695D01*
X184659Y225327D01*
X186187Y223904D01*
X187664Y222427D01*
X189087Y220899D01*
X190455Y219320D01*
X191766Y217694D01*
X193018Y216022D01*
X194209Y214306D01*
X195338Y212549D01*
X196404Y210753D01*
X197405Y208919D01*
X198340Y207052D01*
X199207Y205152D01*
X200007Y203222D01*
X200737Y201265D01*
X201396Y199283D01*
X201985Y197279D01*
X202501Y195256D01*
X202945Y193215D01*
X203316Y191159D01*
X203613Y189092D01*
X203836Y187015D01*
X203985Y184932D01*
X204060Y182844D01*
X204060Y180756D01*
X874500Y180756D02*
X874425Y178668D01*
X874276Y176585D01*
X874053Y174508D01*
X873756Y172441D01*
X873385Y170385D01*
X872941Y168344D01*
X872425Y166321D01*
X871836Y164317D01*
X871177Y162335D01*
X870447Y160378D01*
X869647Y158448D01*
X868780Y156548D01*
X867845Y154681D01*
X866844Y152847D01*
X865778Y151051D01*
X864649Y149294D01*
X863458Y147578D01*
X862206Y145906D01*
X860895Y144280D01*
X859527Y142701D01*
X858104Y141173D01*
X856627Y139696D01*
X855099Y138273D01*
X853520Y136905D01*
X851894Y135594D01*
X850222Y134343D01*
X848506Y133151D01*
X846749Y132022D01*
X844953Y130956D01*
X843119Y129955D01*
X841252Y129020D01*
X839352Y128153D01*
X837422Y127353D01*
X835465Y126623D01*
X833483Y125964D01*
X831479Y125375D01*
X829456Y124859D01*
X827415Y124415D01*
X825359Y124044D01*
X823292Y123747D01*
X821215Y123524D01*
X819132Y123375D01*
X817044Y123300D01*
X814956Y123300D01*
X812868Y123375D01*
X810785Y123524D01*
X808708Y123747D01*
X806641Y124044D01*
X804585Y124415D01*
X802544Y124859D01*
X800521Y125375D01*
X798517Y125964D01*
X796535Y126623D01*
X794578Y127353D01*
X792648Y128153D01*
X790748Y129020D01*
X788881Y129955D01*
X787047Y130956D01*
X785251Y132022D01*
X783494Y133151D01*
X781778Y134343D01*
X780106Y135594D01*
X778480Y136905D01*
X776901Y138273D01*
X775373Y139696D01*
X773896Y141173D01*
X772473Y142701D01*
X771105Y144280D01*
X769794Y145906D01*
X768543Y147578D01*
X767351Y149294D01*
X766222Y151051D01*
X765156Y152847D01*
X764155Y154681D01*
X763220Y156548D01*
X762353Y158448D01*
X761553Y160378D01*
X760823Y162335D01*
X760164Y164317D01*
X759575Y166321D01*
X759059Y168344D01*
X758615Y170385D01*
X758244Y172441D01*
X757947Y174508D01*
X757724Y176585D01*
X757575Y178668D01*
X757500Y180756D01*
X757500Y182844D01*
X757575Y184932D01*
X757724Y187015D01*
X757947Y189092D01*
X758244Y191159D01*
X758615Y193215D01*
X759059Y195256D01*
X759575Y197279D01*
X760164Y199283D01*
X760823Y201265D01*
X761553Y203222D01*
X762353Y205152D01*
X763220Y207052D01*
X764155Y208919D01*
X765156Y210753D01*
X766222Y212549D01*
X767351Y214306D01*
X768543Y216022D01*
X769794Y217694D01*
X771105Y219320D01*
X772473Y220899D01*
X773896Y222427D01*
X775373Y223904D01*
X776901Y225327D01*
X778480Y226695D01*
X780106Y228006D01*
X781778Y229258D01*
X783494Y230449D01*
X785251Y231578D01*
X787047Y232644D01*
X788881Y233645D01*
X790748Y234580D01*
X792648Y235447D01*
X794578Y236247D01*
X796535Y236977D01*
X798517Y237636D01*
X800521Y238225D01*
X802544Y238741D01*
X804585Y239185D01*
X806641Y239556D01*
X808708Y239853D01*
X810785Y240076D01*
X812868Y240225D01*
X814956Y240300D01*
X817044Y240300D01*
X819132Y240225D01*
X821215Y240076D01*
X823292Y239853D01*
X825359Y239556D01*
X827415Y239185D01*
X829456Y238741D01*
X831479Y238225D01*
X833483Y237636D01*
X835465Y236977D01*
X837422Y236247D01*
X839352Y235447D01*
X841252Y234580D01*
X843119Y233645D01*
X844953Y232644D01*
X846749Y231578D01*
X848506Y230449D01*
X850222Y229258D01*
X851894Y228006D01*
X853520Y226695D01*
X855099Y225327D01*
X856627Y223904D01*
X858104Y222427D01*
X859527Y220899D01*
X860895Y219320D01*
X862206Y217694D01*
X863458Y216022D01*
X864649Y214306D01*
X865778Y212549D01*
X866844Y210753D01*
X867845Y208919D01*
X868780Y207052D01*
X869647Y205152D01*
X870447Y203222D01*
X871177Y201265D01*
X871836Y199283D01*
X872425Y197279D01*
X872941Y195256D01*
X873385Y193215D01*
X873756Y191159D01*
X874053Y189092D01*
X874276Y187015D01*
X874425Y184932D01*
X874500Y182844D01*
X874500Y180756D01*
X371580Y180756D02*
X371505Y178668D01*
X371356Y176585D01*
X371133Y174508D01*
X370836Y172441D01*
X370465Y170385D01*
X370021Y168344D01*
X369505Y166321D01*
X368916Y164317D01*
X368257Y162335D01*
X367527Y160378D01*
X366727Y158448D01*
X365860Y156548D01*
X364925Y154681D01*
X363924Y152847D01*
X362858Y151051D01*
X361729Y149294D01*
X360538Y147578D01*
X359286Y145906D01*
X357975Y144280D01*
X356607Y142701D01*
X355184Y141173D01*
X353707Y139696D01*
X352179Y138273D01*
X350600Y136905D01*
X348974Y135594D01*
X347302Y134343D01*
X345586Y133151D01*
X343829Y132022D01*
X342033Y130956D01*
X340199Y129955D01*
X338332Y129020D01*
X336432Y128153D01*
X334502Y127353D01*
X332545Y126623D01*
X330563Y125964D01*
X328559Y125375D01*
X326536Y124859D01*
X324495Y124415D01*
X322439Y124044D01*
X320372Y123747D01*
X318295Y123524D01*
X316212Y123375D01*
X314124Y123300D01*
X312036Y123300D01*
X309948Y123375D01*
X307865Y123524D01*
X305788Y123747D01*
X303721Y124044D01*
X301665Y124415D01*
X299624Y124859D01*
X297601Y125375D01*
X295597Y125964D01*
X293615Y126623D01*
X291658Y127353D01*
X289728Y128153D01*
X287828Y129020D01*
X285961Y129955D01*
X284127Y130956D01*
X282331Y132022D01*
X280574Y133151D01*
X278858Y134343D01*
X277186Y135594D01*
X275560Y136905D01*
X273981Y138273D01*
X272453Y139696D01*
X270976Y141173D01*
X269553Y142701D01*
X268185Y144280D01*
X266874Y145906D01*
X265623Y147578D01*
X264431Y149294D01*
X263302Y151051D01*
X262236Y152847D01*
X261235Y154681D01*
X260300Y156548D01*
X259433Y158448D01*
X258633Y160378D01*
X257903Y162335D01*
X257244Y164317D01*
X256655Y166321D01*
X256139Y168344D01*
X255695Y170385D01*
X255324Y172441D01*
X255027Y174508D01*
X254804Y176585D01*
X254655Y178668D01*
X254580Y180756D01*
X254580Y182844D01*
X254655Y184932D01*
X254804Y187015D01*
X255027Y189092D01*
X255324Y191159D01*
X255695Y193215D01*
X256139Y195256D01*
X256655Y197279D01*
X257244Y199283D01*
X257903Y201265D01*
X258633Y203222D01*
X259433Y205152D01*
X260300Y207052D01*
X261235Y208919D01*
X262236Y210753D01*
X263302Y212549D01*
X264431Y214306D01*
X265623Y216022D01*
X266874Y217694D01*
X268185Y219320D01*
X269553Y220899D01*
X270976Y222427D01*
X272453Y223904D01*
X273981Y225327D01*
X275560Y226695D01*
X277186Y228006D01*
X278858Y229258D01*
X280574Y230449D01*
X282331Y231578D01*
X284127Y232644D01*
X285961Y233645D01*
X287828Y234580D01*
X289728Y235447D01*
X291658Y236247D01*
X293615Y236977D01*
X295597Y237636D01*
X297601Y238225D01*
X299624Y238741D01*
X301665Y239185D01*
X303721Y239556D01*
X305788Y239853D01*
X307865Y240076D01*
X309948Y240225D01*
X312036Y240300D01*
X314124Y240300D01*
X316212Y240225D01*
X318295Y240076D01*
X320372Y239853D01*
X322439Y239556D01*
X324495Y239185D01*
X326536Y238741D01*
X328559Y238225D01*
X330563Y237636D01*
X332545Y236977D01*
X334502Y236247D01*
X336432Y235447D01*
X338332Y234580D01*
X340199Y233645D01*
X342033Y232644D01*
X343829Y231578D01*
X345586Y230449D01*
X347302Y229258D01*
X348974Y228006D01*
X350600Y226695D01*
X352179Y225327D01*
X353707Y223904D01*
X355184Y222427D01*
X356607Y220899D01*
X357975Y219320D01*
X359286Y217694D01*
X360538Y216022D01*
X361729Y214306D01*
X362858Y212549D01*
X363924Y210753D01*
X364925Y208919D01*
X365860Y207052D01*
X366727Y205152D01*
X367527Y203222D01*
X368257Y201265D01*
X368916Y199283D01*
X369505Y197279D01*
X370021Y195256D01*
X370465Y193215D01*
X370836Y191159D01*
X371133Y189092D01*
X371356Y187015D01*
X371505Y184932D01*
X371580Y182844D01*
X371580Y180756D01*
X539220Y180756D02*
X539145Y178668D01*
X538996Y176585D01*
X538773Y174508D01*
X538476Y172441D01*
X538105Y170385D01*
X537661Y168344D01*
X537145Y166321D01*
X536556Y164317D01*
X535897Y162335D01*
X535167Y160378D01*
X534367Y158448D01*
X533500Y156548D01*
X532565Y154681D01*
X531564Y152847D01*
X530498Y151051D01*
X529369Y149294D01*
X528178Y147578D01*
X526926Y145906D01*
X525615Y144280D01*
X524247Y142701D01*
X522824Y141173D01*
X521347Y139696D01*
X519819Y138273D01*
X518240Y136905D01*
X516614Y135594D01*
X514942Y134343D01*
X513226Y133151D01*
X511469Y132022D01*
X509673Y130956D01*
X507839Y129955D01*
X505972Y129020D01*
X504072Y128153D01*
X502142Y127353D01*
X500185Y126623D01*
X498203Y125964D01*
X496199Y125375D01*
X494176Y124859D01*
X492135Y124415D01*
X490079Y124044D01*
X488012Y123747D01*
X485935Y123524D01*
X483852Y123375D01*
X481764Y123300D01*
X479676Y123300D01*
X477588Y123375D01*
X475505Y123524D01*
X473428Y123747D01*
X471361Y124044D01*
X469305Y124415D01*
X467264Y124859D01*
X465241Y125375D01*
X463237Y125964D01*
X461255Y126623D01*
X459298Y127353D01*
X457368Y128153D01*
X455468Y129020D01*
X453601Y129955D01*
X451767Y130956D01*
X449971Y132022D01*
X448214Y133151D01*
X446498Y134343D01*
X444826Y135594D01*
X443200Y136905D01*
X441621Y138273D01*
X440093Y139696D01*
X438616Y141173D01*
X437193Y142701D01*
X435825Y144280D01*
X434514Y145906D01*
X433263Y147578D01*
X432071Y149294D01*
X430942Y151051D01*
X429876Y152847D01*
X428875Y154681D01*
X427940Y156548D01*
X427073Y158448D01*
X426273Y160378D01*
X425543Y162335D01*
X424884Y164317D01*
X424295Y166321D01*
X423779Y168344D01*
X423335Y170385D01*
X422964Y172441D01*
X422667Y174508D01*
X422444Y176585D01*
X422295Y178668D01*
X422220Y180756D01*
X422220Y182844D01*
X422295Y184932D01*
X422444Y187015D01*
X422667Y189092D01*
X422964Y191159D01*
X423335Y193215D01*
X423779Y195256D01*
X424295Y197279D01*
X424884Y199283D01*
X425543Y201265D01*
X426273Y203222D01*
X427073Y205152D01*
X427940Y207052D01*
X428875Y208919D01*
X429876Y210753D01*
X430942Y212549D01*
X432071Y214306D01*
X433263Y216022D01*
X434514Y217694D01*
X435825Y219320D01*
X437193Y220899D01*
X438616Y222427D01*
X440093Y223904D01*
X441621Y225327D01*
X443200Y226695D01*
X444826Y228006D01*
X446498Y229258D01*
X448214Y230449D01*
X449971Y231578D01*
X451767Y232644D01*
X453601Y233645D01*
X455468Y234580D01*
X457368Y235447D01*
X459298Y236247D01*
X461255Y236977D01*
X463237Y237636D01*
X465241Y238225D01*
X467264Y238741D01*
X469305Y239185D01*
X471361Y239556D01*
X473428Y239853D01*
X475505Y240076D01*
X477588Y240225D01*
X479676Y240300D01*
X481764Y240300D01*
X483852Y240225D01*
X485935Y240076D01*
X488012Y239853D01*
X490079Y239556D01*
X492135Y239185D01*
X494176Y238741D01*
X496199Y238225D01*
X498203Y237636D01*
X500185Y236977D01*
X502142Y236247D01*
X504072Y235447D01*
X505972Y234580D01*
X507839Y233645D01*
X509673Y232644D01*
X511469Y231578D01*
X513226Y230449D01*
X514942Y229258D01*
X516614Y228006D01*
X518240Y226695D01*
X519819Y225327D01*
X521347Y223904D01*
X522824Y222427D01*
X524247Y220899D01*
X525615Y219320D01*
X526926Y217694D01*
X528178Y216022D01*
X529369Y214306D01*
X530498Y212549D01*
X531564Y210753D01*
X532565Y208919D01*
X533500Y207052D01*
X534367Y205152D01*
X535167Y203222D01*
X535897Y201265D01*
X536556Y199283D01*
X537145Y197279D01*
X537661Y195256D01*
X538105Y193215D01*
X538476Y191159D01*
X538773Y189092D01*
X538996Y187015D01*
X539145Y184932D01*
X539220Y182844D01*
X539220Y180756D01*
X706860Y180756D02*
X706785Y178668D01*
X706636Y176585D01*
X706413Y174508D01*
X706116Y172441D01*
X705745Y170385D01*
X705301Y168344D01*
X704785Y166321D01*
X704196Y164317D01*
X703537Y162335D01*
X702807Y160378D01*
X702007Y158448D01*
X701140Y156548D01*
X700205Y154681D01*
X699204Y152847D01*
X698138Y151051D01*
X697009Y149294D01*
X695818Y147578D01*
X694566Y145906D01*
X693255Y144280D01*
X691887Y142701D01*
X690464Y141173D01*
X688987Y139696D01*
X687459Y138273D01*
X685880Y136905D01*
X684254Y135594D01*
X682582Y134343D01*
X680866Y133151D01*
X679109Y132022D01*
X677313Y130956D01*
X675479Y129955D01*
X673612Y129020D01*
X671712Y128153D01*
X669782Y127353D01*
X667825Y126623D01*
X665843Y125964D01*
X663839Y125375D01*
X661816Y124859D01*
X659775Y124415D01*
X657719Y124044D01*
X655652Y123747D01*
X653575Y123524D01*
X651492Y123375D01*
X649404Y123300D01*
X647316Y123300D01*
X645228Y123375D01*
X643145Y123524D01*
X641068Y123747D01*
X639001Y124044D01*
X636945Y124415D01*
X634904Y124859D01*
X632881Y125375D01*
X630877Y125964D01*
X628895Y126623D01*
X626938Y127353D01*
X625008Y128153D01*
X623108Y129020D01*
X621241Y129955D01*
X619407Y130956D01*
X617611Y132022D01*
X615854Y133151D01*
X614138Y134343D01*
X612466Y135594D01*
X610840Y136905D01*
X609261Y138273D01*
X607733Y139696D01*
X606256Y141173D01*
X604833Y142701D01*
X603465Y144280D01*
X602154Y145906D01*
X600903Y147578D01*
X599711Y149294D01*
X598582Y151051D01*
X597516Y152847D01*
X596515Y154681D01*
X595580Y156548D01*
X594713Y158448D01*
X593913Y160378D01*
X593183Y162335D01*
X592524Y164317D01*
X591935Y166321D01*
X591419Y168344D01*
X590975Y170385D01*
X590604Y172441D01*
X590307Y174508D01*
X590084Y176585D01*
X589935Y178668D01*
X589860Y180756D01*
X589860Y182844D01*
X589935Y184932D01*
X590084Y187015D01*
X590307Y189092D01*
X590604Y191159D01*
X590975Y193215D01*
X591419Y195256D01*
X591935Y197279D01*
X592524Y199283D01*
X593183Y201265D01*
X593913Y203222D01*
X594713Y205152D01*
X595580Y207052D01*
X596515Y208919D01*
X597516Y210753D01*
X598582Y212549D01*
X599711Y214306D01*
X600903Y216022D01*
X602154Y217694D01*
X603465Y219320D01*
X604833Y220899D01*
X606256Y222427D01*
X607733Y223904D01*
X609261Y225327D01*
X610840Y226695D01*
X612466Y228006D01*
X614138Y229258D01*
X615854Y230449D01*
X617611Y231578D01*
X619407Y232644D01*
X621241Y233645D01*
X623108Y234580D01*
X625008Y235447D01*
X626938Y236247D01*
X628895Y236977D01*
X630877Y237636D01*
X632881Y238225D01*
X634904Y238741D01*
X636945Y239185D01*
X639001Y239556D01*
X641068Y239853D01*
X643145Y240076D01*
X645228Y240225D01*
X647316Y240300D01*
X649404Y240300D01*
X651492Y240225D01*
X653575Y240076D01*
X655652Y239853D01*
X657719Y239556D01*
X659775Y239185D01*
X661816Y238741D01*
X663839Y238225D01*
X665843Y237636D01*
X667825Y236977D01*
X669782Y236247D01*
X671712Y235447D01*
X673612Y234580D01*
X675479Y233645D01*
X677313Y232644D01*
X679109Y231578D01*
X680866Y230449D01*
X682582Y229258D01*
X684254Y228006D01*
X685880Y226695D01*
X687459Y225327D01*
X688987Y223904D01*
X690464Y222427D01*
X691887Y220899D01*
X693255Y219320D01*
X694566Y217694D01*
X695818Y216022D01*
X697009Y214306D01*
X698138Y212549D01*
X699204Y210753D01*
X700205Y208919D01*
X701140Y207052D01*
X702007Y205152D01*
X702807Y203222D01*
X703537Y201265D01*
X704196Y199283D01*
X704785Y197279D01*
X705301Y195256D01*
X705745Y193215D01*
X706116Y191159D01*
X706413Y189092D01*
X706636Y187015D01*
X706785Y184932D01*
X706860Y182844D01*
X706860Y180756D01*
X1230980Y166364D02*
X1230904Y165296D01*
X1230751Y164235D01*
X1230523Y163188D01*
X1230221Y162160D01*
X1229847Y161156D01*
X1229402Y160181D01*
X1228888Y159241D01*
X1228309Y158340D01*
X1227667Y157482D01*
X1226965Y156672D01*
X1226208Y155915D01*
X1225398Y155213D01*
X1224540Y154571D01*
X1223639Y153992D01*
X1222699Y153478D01*
X1221724Y153033D01*
X1220720Y152659D01*
X1219692Y152357D01*
X1218645Y152129D01*
X1217584Y151976D01*
X1216516Y151900D01*
X1215444Y151900D01*
X1214376Y151976D01*
X1213315Y152129D01*
X1212268Y152357D01*
X1211240Y152659D01*
X1210236Y153033D01*
X1209261Y153478D01*
X1208321Y153992D01*
X1207420Y154571D01*
X1206562Y155213D01*
X1205752Y155915D01*
X1204995Y156672D01*
X1204293Y157482D01*
X1203651Y158340D01*
X1203072Y159241D01*
X1202558Y160181D01*
X1202113Y161156D01*
X1201739Y162160D01*
X1201437Y163188D01*
X1201209Y164235D01*
X1201056Y165296D01*
X1200980Y166364D01*
X1200980Y167436D01*
X1201056Y168504D01*
X1201209Y169565D01*
X1201437Y170612D01*
X1201739Y171640D01*
X1202113Y172644D01*
X1202558Y173619D01*
X1203072Y174559D01*
X1203651Y175460D01*
X1204293Y176318D01*
X1204995Y177128D01*
X1205752Y177885D01*
X1206562Y178587D01*
X1207420Y179229D01*
X1208321Y179808D01*
X1209261Y180322D01*
X1210236Y180767D01*
X1211240Y181141D01*
X1212268Y181443D01*
X1213315Y181671D01*
X1214376Y181824D01*
X1215444Y181900D01*
X1216516Y181900D01*
X1217584Y181824D01*
X1218645Y181671D01*
X1219692Y181443D01*
X1220720Y181141D01*
X1221724Y180767D01*
X1222699Y180322D01*
X1223639Y179808D01*
X1224540Y179229D01*
X1225398Y178587D01*
X1226208Y177885D01*
X1226965Y177128D01*
X1227667Y176318D01*
X1228309Y175460D01*
X1228888Y174559D01*
X1229402Y173619D01*
X1229847Y172644D01*
X1230221Y171640D01*
X1230523Y170612D01*
X1230751Y169565D01*
X1230904Y168504D01*
X1230980Y167436D01*
X1230980Y166364D01*
X1230980Y212064D02*
X1230904Y210996D01*
X1230751Y209935D01*
X1230523Y208888D01*
X1230221Y207860D01*
X1229847Y206856D01*
X1229402Y205881D01*
X1228888Y204941D01*
X1228309Y204040D01*
X1227667Y203182D01*
X1226965Y202372D01*
X1226208Y201615D01*
X1225398Y200913D01*
X1224540Y200271D01*
X1223639Y199692D01*
X1222699Y199178D01*
X1221724Y198733D01*
X1220720Y198359D01*
X1219692Y198057D01*
X1218645Y197829D01*
X1217584Y197676D01*
X1216516Y197600D01*
X1215444Y197600D01*
X1214376Y197676D01*
X1213315Y197829D01*
X1212268Y198057D01*
X1211240Y198359D01*
X1210236Y198733D01*
X1209261Y199178D01*
X1208321Y199692D01*
X1207420Y200271D01*
X1206562Y200913D01*
X1205752Y201615D01*
X1204995Y202372D01*
X1204293Y203182D01*
X1203651Y204040D01*
X1203072Y204941D01*
X1202558Y205881D01*
X1202113Y206856D01*
X1201739Y207860D01*
X1201437Y208888D01*
X1201209Y209935D01*
X1201056Y210996D01*
X1200980Y212064D01*
X1200980Y213136D01*
X1201056Y214204D01*
X1201209Y215265D01*
X1201437Y216312D01*
X1201739Y217340D01*
X1202113Y218344D01*
X1202558Y219319D01*
X1203072Y220259D01*
X1203651Y221160D01*
X1204293Y222018D01*
X1204995Y222828D01*
X1205752Y223585D01*
X1206562Y224287D01*
X1207420Y224929D01*
X1208321Y225508D01*
X1209261Y226022D01*
X1210236Y226467D01*
X1211240Y226841D01*
X1212268Y227143D01*
X1213315Y227371D01*
X1214376Y227524D01*
X1215444Y227600D01*
X1216516Y227600D01*
X1217584Y227524D01*
X1218645Y227371D01*
X1219692Y227143D01*
X1220720Y226841D01*
X1221724Y226467D01*
X1222699Y226022D01*
X1223639Y225508D01*
X1224540Y224929D01*
X1225398Y224287D01*
X1226208Y223585D01*
X1226965Y222828D01*
X1227667Y222018D01*
X1228309Y221160D01*
X1228888Y220259D01*
X1229402Y219319D01*
X1229847Y218344D01*
X1230221Y217340D01*
X1230523Y216312D01*
X1230751Y215265D01*
X1230904Y214204D01*
X1230980Y213136D01*
X1230980Y212064D01*
X1177640Y212064D02*
X1177564Y210996D01*
X1177411Y209935D01*
X1177183Y208888D01*
X1176881Y207860D01*
X1176507Y206856D01*
X1176062Y205881D01*
X1175548Y204941D01*
X1174969Y204040D01*
X1174327Y203182D01*
X1173625Y202372D01*
X1172868Y201615D01*
X1172058Y200913D01*
X1171200Y200271D01*
X1170299Y199692D01*
X1169359Y199178D01*
X1168384Y198733D01*
X1167380Y198359D01*
X1166352Y198057D01*
X1165305Y197829D01*
X1164244Y197676D01*
X1163176Y197600D01*
X1162104Y197600D01*
X1161036Y197676D01*
X1159975Y197829D01*
X1158928Y198057D01*
X1157900Y198359D01*
X1156896Y198733D01*
X1155921Y199178D01*
X1154981Y199692D01*
X1154080Y200271D01*
X1153222Y200913D01*
X1152412Y201615D01*
X1151655Y202372D01*
X1150953Y203182D01*
X1150311Y204040D01*
X1149732Y204941D01*
X1149218Y205881D01*
X1148773Y206856D01*
X1148399Y207860D01*
X1148097Y208888D01*
X1147869Y209935D01*
X1147716Y210996D01*
X1147640Y212064D01*
X1147640Y213136D01*
X1147716Y214204D01*
X1147869Y215265D01*
X1148097Y216312D01*
X1148399Y217340D01*
X1148773Y218344D01*
X1149218Y219319D01*
X1149732Y220259D01*
X1150311Y221160D01*
X1150953Y222018D01*
X1151655Y222828D01*
X1152412Y223585D01*
X1153222Y224287D01*
X1154080Y224929D01*
X1154981Y225508D01*
X1155921Y226022D01*
X1156896Y226467D01*
X1157900Y226841D01*
X1158928Y227143D01*
X1159975Y227371D01*
X1161036Y227524D01*
X1162104Y227600D01*
X1163176Y227600D01*
X1164244Y227524D01*
X1165305Y227371D01*
X1166352Y227143D01*
X1167380Y226841D01*
X1168384Y226467D01*
X1169359Y226022D01*
X1170299Y225508D01*
X1171200Y224929D01*
X1172058Y224287D01*
X1172868Y223585D01*
X1173625Y222828D01*
X1174327Y222018D01*
X1174969Y221160D01*
X1175548Y220259D01*
X1176062Y219319D01*
X1176507Y218344D01*
X1176881Y217340D01*
X1177183Y216312D01*
X1177411Y215265D01*
X1177564Y214204D01*
X1177640Y213136D01*
X1177640Y212064D01*
X1177640Y166364D02*
X1177564Y165296D01*
X1177411Y164235D01*
X1177183Y163188D01*
X1176881Y162160D01*
X1176507Y161156D01*
X1176062Y160181D01*
X1175548Y159241D01*
X1174969Y158340D01*
X1174327Y157482D01*
X1173625Y156672D01*
X1172868Y155915D01*
X1172058Y155213D01*
X1171200Y154571D01*
X1170299Y153992D01*
X1169359Y153478D01*
X1168384Y153033D01*
X1167380Y152659D01*
X1166352Y152357D01*
X1165305Y152129D01*
X1164244Y151976D01*
X1163176Y151900D01*
X1162104Y151900D01*
X1161036Y151976D01*
X1159975Y152129D01*
X1158928Y152357D01*
X1157900Y152659D01*
X1156896Y153033D01*
X1155921Y153478D01*
X1154981Y153992D01*
X1154080Y154571D01*
X1153222Y155213D01*
X1152412Y155915D01*
X1151655Y156672D01*
X1150953Y157482D01*
X1150311Y158340D01*
X1149732Y159241D01*
X1149218Y160181D01*
X1148773Y161156D01*
X1148399Y162160D01*
X1148097Y163188D01*
X1147869Y164235D01*
X1147716Y165296D01*
X1147640Y166364D01*
X1147640Y167436D01*
X1147716Y168504D01*
X1147869Y169565D01*
X1148097Y170612D01*
X1148399Y171640D01*
X1148773Y172644D01*
X1149218Y173619D01*
X1149732Y174559D01*
X1150311Y175460D01*
X1150953Y176318D01*
X1151655Y177128D01*
X1152412Y177885D01*
X1153222Y178587D01*
X1154080Y179229D01*
X1154981Y179808D01*
X1155921Y180322D01*
X1156896Y180767D01*
X1157900Y181141D01*
X1158928Y181443D01*
X1159975Y181671D01*
X1161036Y181824D01*
X1162104Y181900D01*
X1163176Y181900D01*
X1164244Y181824D01*
X1165305Y181671D01*
X1166352Y181443D01*
X1167380Y181141D01*
X1168384Y180767D01*
X1169359Y180322D01*
X1170299Y179808D01*
X1171200Y179229D01*
X1172058Y178587D01*
X1172868Y177885D01*
X1173625Y177128D01*
X1174327Y176318D01*
X1174969Y175460D01*
X1175548Y174559D01*
X1176062Y173619D01*
X1176507Y172644D01*
X1176881Y171640D01*
X1177183Y170612D01*
X1177411Y169565D01*
X1177564Y168504D01*
X1177640Y167436D01*
X1177640Y166364D01*
X1124300Y212064D02*
X1124224Y210996D01*
X1124071Y209935D01*
X1123843Y208888D01*
X1123541Y207860D01*
X1123167Y206856D01*
X1122722Y205881D01*
X1122208Y204941D01*
X1121629Y204040D01*
X1120987Y203182D01*
X1120285Y202372D01*
X1119528Y201615D01*
X1118718Y200913D01*
X1117860Y200271D01*
X1116959Y199692D01*
X1116019Y199178D01*
X1115044Y198733D01*
X1114040Y198359D01*
X1113012Y198057D01*
X1111965Y197829D01*
X1110904Y197676D01*
X1109836Y197600D01*
X1108764Y197600D01*
X1107696Y197676D01*
X1106635Y197829D01*
X1105588Y198057D01*
X1104560Y198359D01*
X1103556Y198733D01*
X1102581Y199178D01*
X1101641Y199692D01*
X1100740Y200271D01*
X1099882Y200913D01*
X1099072Y201615D01*
X1098315Y202372D01*
X1097613Y203182D01*
X1096971Y204040D01*
X1096392Y204941D01*
X1095878Y205881D01*
X1095433Y206856D01*
X1095059Y207860D01*
X1094757Y208888D01*
X1094529Y209935D01*
X1094376Y210996D01*
X1094300Y212064D01*
X1094300Y213136D01*
X1094376Y214204D01*
X1094529Y215265D01*
X1094757Y216312D01*
X1095059Y217340D01*
X1095433Y218344D01*
X1095878Y219319D01*
X1096392Y220259D01*
X1096971Y221160D01*
X1097613Y222018D01*
X1098315Y222828D01*
X1099072Y223585D01*
X1099882Y224287D01*
X1100740Y224929D01*
X1101641Y225508D01*
X1102581Y226022D01*
X1103556Y226467D01*
X1104560Y226841D01*
X1105588Y227143D01*
X1106635Y227371D01*
X1107696Y227524D01*
X1108764Y227600D01*
X1109836Y227600D01*
X1110904Y227524D01*
X1111965Y227371D01*
X1113012Y227143D01*
X1114040Y226841D01*
X1115044Y226467D01*
X1116019Y226022D01*
X1116959Y225508D01*
X1117860Y224929D01*
X1118718Y224287D01*
X1119528Y223585D01*
X1120285Y222828D01*
X1120987Y222018D01*
X1121629Y221160D01*
X1122208Y220259D01*
X1122722Y219319D01*
X1123167Y218344D01*
X1123541Y217340D01*
X1123843Y216312D01*
X1124071Y215265D01*
X1124224Y214204D01*
X1124300Y213136D01*
X1124300Y212064D01*
X1124300Y166364D02*
X1124224Y165296D01*
X1124071Y164235D01*
X1123843Y163188D01*
X1123541Y162160D01*
X1123167Y161156D01*
X1122722Y160181D01*
X1122208Y159241D01*
X1121629Y158340D01*
X1120987Y157482D01*
X1120285Y156672D01*
X1119528Y155915D01*
X1118718Y155213D01*
X1117860Y154571D01*
X1116959Y153992D01*
X1116019Y153478D01*
X1115044Y153033D01*
X1114040Y152659D01*
X1113012Y152357D01*
X1111965Y152129D01*
X1110904Y151976D01*
X1109836Y151900D01*
X1108764Y151900D01*
X1107696Y151976D01*
X1106635Y152129D01*
X1105588Y152357D01*
X1104560Y152659D01*
X1103556Y153033D01*
X1102581Y153478D01*
X1101641Y153992D01*
X1100740Y154571D01*
X1099882Y155213D01*
X1099072Y155915D01*
X1098315Y156672D01*
X1097613Y157482D01*
X1096971Y158340D01*
X1096392Y159241D01*
X1095878Y160181D01*
X1095433Y161156D01*
X1095059Y162160D01*
X1094757Y163188D01*
X1094529Y164235D01*
X1094376Y165296D01*
X1094300Y166364D01*
X1094300Y167436D01*
X1094376Y168504D01*
X1094529Y169565D01*
X1094757Y170612D01*
X1095059Y171640D01*
X1095433Y172644D01*
X1095878Y173619D01*
X1096392Y174559D01*
X1096971Y175460D01*
X1097613Y176318D01*
X1098315Y177128D01*
X1099072Y177885D01*
X1099882Y178587D01*
X1100740Y179229D01*
X1101641Y179808D01*
X1102581Y180322D01*
X1103556Y180767D01*
X1104560Y181141D01*
X1105588Y181443D01*
X1106635Y181671D01*
X1107696Y181824D01*
X1108764Y181900D01*
X1109836Y181900D01*
X1110904Y181824D01*
X1111965Y181671D01*
X1113012Y181443D01*
X1114040Y181141D01*
X1115044Y180767D01*
X1116019Y180322D01*
X1116959Y179808D01*
X1117860Y179229D01*
X1118718Y178587D01*
X1119528Y177885D01*
X1120285Y177128D01*
X1120987Y176318D01*
X1121629Y175460D01*
X1122208Y174559D01*
X1122722Y173619D01*
X1123167Y172644D01*
X1123541Y171640D01*
X1123843Y170612D01*
X1124071Y169565D01*
X1124224Y168504D01*
X1124300Y167436D01*
X1124300Y166364D01*
X1071000Y212064D02*
X1070924Y210996D01*
X1070771Y209935D01*
X1070543Y208888D01*
X1070241Y207860D01*
X1069867Y206856D01*
X1069422Y205881D01*
X1068908Y204941D01*
X1068329Y204040D01*
X1067687Y203182D01*
X1066985Y202372D01*
X1066228Y201615D01*
X1065418Y200913D01*
X1064560Y200271D01*
X1063659Y199692D01*
X1062719Y199178D01*
X1061744Y198733D01*
X1060740Y198359D01*
X1059712Y198057D01*
X1058665Y197829D01*
X1057604Y197676D01*
X1056536Y197600D01*
X1055464Y197600D01*
X1054396Y197676D01*
X1053335Y197829D01*
X1052288Y198057D01*
X1051260Y198359D01*
X1050256Y198733D01*
X1049281Y199178D01*
X1048341Y199692D01*
X1047440Y200271D01*
X1046582Y200913D01*
X1045772Y201615D01*
X1045015Y202372D01*
X1044313Y203182D01*
X1043671Y204040D01*
X1043092Y204941D01*
X1042578Y205881D01*
X1042133Y206856D01*
X1041759Y207860D01*
X1041457Y208888D01*
X1041229Y209935D01*
X1041076Y210996D01*
X1041000Y212064D01*
X1041000Y213136D01*
X1041076Y214204D01*
X1041229Y215265D01*
X1041457Y216312D01*
X1041759Y217340D01*
X1042133Y218344D01*
X1042578Y219319D01*
X1043092Y220259D01*
X1043671Y221160D01*
X1044313Y222018D01*
X1045015Y222828D01*
X1045772Y223585D01*
X1046582Y224287D01*
X1047440Y224929D01*
X1048341Y225508D01*
X1049281Y226022D01*
X1050256Y226467D01*
X1051260Y226841D01*
X1052288Y227143D01*
X1053335Y227371D01*
X1054396Y227524D01*
X1055464Y227600D01*
X1056536Y227600D01*
X1057604Y227524D01*
X1058665Y227371D01*
X1059712Y227143D01*
X1060740Y226841D01*
X1061744Y226467D01*
X1062719Y226022D01*
X1063659Y225508D01*
X1064560Y224929D01*
X1065418Y224287D01*
X1066228Y223585D01*
X1066985Y222828D01*
X1067687Y222018D01*
X1068329Y221160D01*
X1068908Y220259D01*
X1069422Y219319D01*
X1069867Y218344D01*
X1070241Y217340D01*
X1070543Y216312D01*
X1070771Y215265D01*
X1070924Y214204D01*
X1071000Y213136D01*
X1071000Y212064D01*
X1071000Y166364D02*
X1070924Y165296D01*
X1070771Y164235D01*
X1070543Y163188D01*
X1070241Y162160D01*
X1069867Y161156D01*
X1069422Y160181D01*
X1068908Y159241D01*
X1068329Y158340D01*
X1067687Y157482D01*
X1066985Y156672D01*
X1066228Y155915D01*
X1065418Y155213D01*
X1064560Y154571D01*
X1063659Y153992D01*
X1062719Y153478D01*
X1061744Y153033D01*
X1060740Y152659D01*
X1059712Y152357D01*
X1058665Y152129D01*
X1057604Y151976D01*
X1056536Y151900D01*
X1055464Y151900D01*
X1054396Y151976D01*
X1053335Y152129D01*
X1052288Y152357D01*
X1051260Y152659D01*
X1050256Y153033D01*
X1049281Y153478D01*
X1048341Y153992D01*
X1047440Y154571D01*
X1046582Y155213D01*
X1045772Y155915D01*
X1045015Y156672D01*
X1044313Y157482D01*
X1043671Y158340D01*
X1043092Y159241D01*
X1042578Y160181D01*
X1042133Y161156D01*
X1041759Y162160D01*
X1041457Y163188D01*
X1041229Y164235D01*
X1041076Y165296D01*
X1041000Y166364D01*
X1041000Y167436D01*
X1041076Y168504D01*
X1041229Y169565D01*
X1041457Y170612D01*
X1041759Y171640D01*
X1042133Y172644D01*
X1042578Y173619D01*
X1043092Y174559D01*
X1043671Y175460D01*
X1044313Y176318D01*
X1045015Y177128D01*
X1045772Y177885D01*
X1046582Y178587D01*
X1047440Y179229D01*
X1048341Y179808D01*
X1049281Y180322D01*
X1050256Y180767D01*
X1051260Y181141D01*
X1052288Y181443D01*
X1053335Y181671D01*
X1054396Y181824D01*
X1055464Y181900D01*
X1056536Y181900D01*
X1057604Y181824D01*
X1058665Y181671D01*
X1059712Y181443D01*
X1060740Y181141D01*
X1061744Y180767D01*
X1062719Y180322D01*
X1063659Y179808D01*
X1064560Y179229D01*
X1065418Y178587D01*
X1066228Y177885D01*
X1066985Y177128D01*
X1067687Y176318D01*
X1068329Y175460D01*
X1068908Y174559D01*
X1069422Y173619D01*
X1069867Y172644D01*
X1070241Y171640D01*
X1070543Y170612D01*
X1070771Y169565D01*
X1070924Y168504D01*
X1071000Y167436D01*
X1071000Y166364D01*
X1017700Y212064D02*
X1017624Y210996D01*
X1017471Y209935D01*
X1017243Y208888D01*
X1016941Y207860D01*
X1016567Y206856D01*
X1016122Y205881D01*
X1015608Y204941D01*
X1015029Y204040D01*
X1014387Y203182D01*
X1013685Y202372D01*
X1012928Y201615D01*
X1012118Y200913D01*
X1011260Y200271D01*
X1010359Y199692D01*
X1009419Y199178D01*
X1008444Y198733D01*
X1007440Y198359D01*
X1006412Y198057D01*
X1005365Y197829D01*
X1004304Y197676D01*
X1003236Y197600D01*
X1002164Y197600D01*
X1001096Y197676D01*
X1000035Y197829D01*
X998988Y198057D01*
X997960Y198359D01*
X996956Y198733D01*
X995981Y199178D01*
X995041Y199692D01*
X994140Y200271D01*
X993282Y200913D01*
X992472Y201615D01*
X991715Y202372D01*
X991013Y203182D01*
X990371Y204040D01*
X989792Y204941D01*
X989278Y205881D01*
X988833Y206856D01*
X988459Y207860D01*
X988157Y208888D01*
X987929Y209935D01*
X987776Y210996D01*
X987700Y212064D01*
X987700Y213136D01*
X987776Y214204D01*
X987929Y215265D01*
X988157Y216312D01*
X988459Y217340D01*
X988833Y218344D01*
X989278Y219319D01*
X989792Y220259D01*
X990371Y221160D01*
X991013Y222018D01*
X991715Y222828D01*
X992472Y223585D01*
X993282Y224287D01*
X994140Y224929D01*
X995041Y225508D01*
X995981Y226022D01*
X996956Y226467D01*
X997960Y226841D01*
X998988Y227143D01*
X1000035Y227371D01*
X1001096Y227524D01*
X1002164Y227600D01*
X1003236Y227600D01*
X1004304Y227524D01*
X1005365Y227371D01*
X1006412Y227143D01*
X1007440Y226841D01*
X1008444Y226467D01*
X1009419Y226022D01*
X1010359Y225508D01*
X1011260Y224929D01*
X1012118Y224287D01*
X1012928Y223585D01*
X1013685Y222828D01*
X1014387Y222018D01*
X1015029Y221160D01*
X1015608Y220259D01*
X1016122Y219319D01*
X1016567Y218344D01*
X1016941Y217340D01*
X1017243Y216312D01*
X1017471Y215265D01*
X1017624Y214204D01*
X1017700Y213136D01*
X1017700Y212064D01*
X1017700Y166364D02*
X1017624Y165296D01*
X1017471Y164235D01*
X1017243Y163188D01*
X1016941Y162160D01*
X1016567Y161156D01*
X1016122Y160181D01*
X1015608Y159241D01*
X1015029Y158340D01*
X1014387Y157482D01*
X1013685Y156672D01*
X1012928Y155915D01*
X1012118Y155213D01*
X1011260Y154571D01*
X1010359Y153992D01*
X1009419Y153478D01*
X1008444Y153033D01*
X1007440Y152659D01*
X1006412Y152357D01*
X1005365Y152129D01*
X1004304Y151976D01*
X1003236Y151900D01*
X1002164Y151900D01*
X1001096Y151976D01*
X1000035Y152129D01*
X998988Y152357D01*
X997960Y152659D01*
X996956Y153033D01*
X995981Y153478D01*
X995041Y153992D01*
X994140Y154571D01*
X993282Y155213D01*
X992472Y155915D01*
X991715Y156672D01*
X991013Y157482D01*
X990371Y158340D01*
X989792Y159241D01*
X989278Y160181D01*
X988833Y161156D01*
X988459Y162160D01*
X988157Y163188D01*
X987929Y164235D01*
X987776Y165296D01*
X987700Y166364D01*
X987700Y167436D01*
X987776Y168504D01*
X987929Y169565D01*
X988157Y170612D01*
X988459Y171640D01*
X988833Y172644D01*
X989278Y173619D01*
X989792Y174559D01*
X990371Y175460D01*
X991013Y176318D01*
X991715Y177128D01*
X992472Y177885D01*
X993282Y178587D01*
X994140Y179229D01*
X995041Y179808D01*
X995981Y180322D01*
X996956Y180767D01*
X997960Y181141D01*
X998988Y181443D01*
X1000035Y181671D01*
X1001096Y181824D01*
X1002164Y181900D01*
X1003236Y181900D01*
X1004304Y181824D01*
X1005365Y181671D01*
X1006412Y181443D01*
X1007440Y181141D01*
X1008444Y180767D01*
X1009419Y180322D01*
X1010359Y179808D01*
X1011260Y179229D01*
X1012118Y178587D01*
X1012928Y177885D01*
X1013685Y177128D01*
X1014387Y176318D01*
X1015029Y175460D01*
X1015608Y174559D01*
X1016122Y173619D01*
X1016567Y172644D01*
X1016941Y171640D01*
X1017243Y170612D01*
X1017471Y169565D01*
X1017624Y168504D01*
X1017700Y167436D01*
X1017700Y166364D01*
X964400Y212064D02*
X964324Y210996D01*
X964171Y209935D01*
X963943Y208888D01*
X963641Y207860D01*
X963267Y206856D01*
X962822Y205881D01*
X962308Y204941D01*
X961729Y204040D01*
X961087Y203182D01*
X960385Y202372D01*
X959628Y201615D01*
X958818Y200913D01*
X957960Y200271D01*
X957059Y199692D01*
X956119Y199178D01*
X955144Y198733D01*
X954140Y198359D01*
X953112Y198057D01*
X952065Y197829D01*
X951004Y197676D01*
X949936Y197600D01*
X948864Y197600D01*
X947796Y197676D01*
X946735Y197829D01*
X945688Y198057D01*
X944660Y198359D01*
X943656Y198733D01*
X942681Y199178D01*
X941741Y199692D01*
X940840Y200271D01*
X939982Y200913D01*
X939172Y201615D01*
X938415Y202372D01*
X937713Y203182D01*
X937071Y204040D01*
X936492Y204941D01*
X935978Y205881D01*
X935533Y206856D01*
X935159Y207860D01*
X934857Y208888D01*
X934629Y209935D01*
X934476Y210996D01*
X934400Y212064D01*
X934400Y213136D01*
X934476Y214204D01*
X934629Y215265D01*
X934857Y216312D01*
X935159Y217340D01*
X935533Y218344D01*
X935978Y219319D01*
X936492Y220259D01*
X937071Y221160D01*
X937713Y222018D01*
X938415Y222828D01*
X939172Y223585D01*
X939982Y224287D01*
X940840Y224929D01*
X941741Y225508D01*
X942681Y226022D01*
X943656Y226467D01*
X944660Y226841D01*
X945688Y227143D01*
X946735Y227371D01*
X947796Y227524D01*
X948864Y227600D01*
X949936Y227600D01*
X951004Y227524D01*
X952065Y227371D01*
X953112Y227143D01*
X954140Y226841D01*
X955144Y226467D01*
X956119Y226022D01*
X957059Y225508D01*
X957960Y224929D01*
X958818Y224287D01*
X959628Y223585D01*
X960385Y222828D01*
X961087Y222018D01*
X961729Y221160D01*
X962308Y220259D01*
X962822Y219319D01*
X963267Y218344D01*
X963641Y217340D01*
X963943Y216312D01*
X964171Y215265D01*
X964324Y214204D01*
X964400Y213136D01*
X964400Y212064D01*
X964400Y166364D02*
X964324Y165296D01*
X964171Y164235D01*
X963943Y163188D01*
X963641Y162160D01*
X963267Y161156D01*
X962822Y160181D01*
X962308Y159241D01*
X961729Y158340D01*
X961087Y157482D01*
X960385Y156672D01*
X959628Y155915D01*
X958818Y155213D01*
X957960Y154571D01*
X957059Y153992D01*
X956119Y153478D01*
X955144Y153033D01*
X954140Y152659D01*
X953112Y152357D01*
X952065Y152129D01*
X951004Y151976D01*
X949936Y151900D01*
X948864Y151900D01*
X947796Y151976D01*
X946735Y152129D01*
X945688Y152357D01*
X944660Y152659D01*
X943656Y153033D01*
X942681Y153478D01*
X941741Y153992D01*
X940840Y154571D01*
X939982Y155213D01*
X939172Y155915D01*
X938415Y156672D01*
X937713Y157482D01*
X937071Y158340D01*
X936492Y159241D01*
X935978Y160181D01*
X935533Y161156D01*
X935159Y162160D01*
X934857Y163188D01*
X934629Y164235D01*
X934476Y165296D01*
X934400Y166364D01*
X934400Y167436D01*
X934476Y168504D01*
X934629Y169565D01*
X934857Y170612D01*
X935159Y171640D01*
X935533Y172644D01*
X935978Y173619D01*
X936492Y174559D01*
X937071Y175460D01*
X937713Y176318D01*
X938415Y177128D01*
X939172Y177885D01*
X939982Y178587D01*
X940840Y179229D01*
X941741Y179808D01*
X942681Y180322D01*
X943656Y180767D01*
X944660Y181141D01*
X945688Y181443D01*
X946735Y181671D01*
X947796Y181824D01*
X948864Y181900D01*
X949936Y181900D01*
X951004Y181824D01*
X952065Y181671D01*
X953112Y181443D01*
X954140Y181141D01*
X955144Y180767D01*
X956119Y180322D01*
X957059Y179808D01*
X957960Y179229D01*
X958818Y178587D01*
X959628Y177885D01*
X960385Y177128D01*
X961087Y176318D01*
X961729Y175460D01*
X962308Y174559D01*
X962822Y173619D01*
X963267Y172644D01*
X963641Y171640D01*
X963943Y170612D01*
X964171Y169565D01*
X964324Y168504D01*
X964400Y167436D01*
X964400Y166364D01*
M02*
