G04 EAGLE Gerber RS-274X export*
G75*
%MOMM*%
%FSLAX34Y34*%
%LPD*%
%IN*%
%IPPOS*%
%AMOC8*
5,1,8,0,0,1.08239X$1,22.5*%
G01*
%ADD10C,0.254000*%


D10*
X0Y30000D02*
X114Y27385D01*
X456Y24791D01*
X1022Y22235D01*
X1809Y19739D01*
X2811Y17321D01*
X4019Y15000D01*
X5425Y12793D01*
X7019Y10716D01*
X8787Y8787D01*
X10716Y7019D01*
X12793Y5425D01*
X15000Y4019D01*
X17321Y2811D01*
X19739Y1809D01*
X22235Y1022D01*
X24791Y456D01*
X27385Y114D01*
X30000Y0D01*
X1300000Y0D01*
X1302615Y114D01*
X1305209Y456D01*
X1307765Y1022D01*
X1310261Y1809D01*
X1312679Y2811D01*
X1315000Y4019D01*
X1317207Y5425D01*
X1319284Y7019D01*
X1321213Y8787D01*
X1322981Y10716D01*
X1324575Y12793D01*
X1325981Y15000D01*
X1327189Y17321D01*
X1328191Y19739D01*
X1328978Y22235D01*
X1329544Y24791D01*
X1329886Y27385D01*
X1330000Y30000D01*
X1330000Y60000D01*
X1310000Y50000D01*
X1310000Y145000D01*
X1330000Y135000D01*
X1330000Y217500D01*
X1310000Y207500D01*
X1310000Y302500D01*
X1330000Y292500D01*
X1330000Y320000D01*
X1329886Y322615D01*
X1329544Y325209D01*
X1328978Y327765D01*
X1328191Y330261D01*
X1327189Y332679D01*
X1325981Y335000D01*
X1324575Y337207D01*
X1322981Y339284D01*
X1321213Y341213D01*
X1319284Y342981D01*
X1317207Y344575D01*
X1315000Y345981D01*
X1312679Y347189D01*
X1310261Y348191D01*
X1307765Y348978D01*
X1305209Y349544D01*
X1302615Y349886D01*
X1300000Y350000D01*
X30000Y350000D01*
X27385Y349886D01*
X24791Y349544D01*
X22235Y348978D01*
X19739Y348191D01*
X17321Y347189D01*
X15000Y345981D01*
X12793Y344575D01*
X10716Y342981D01*
X8787Y341213D01*
X7019Y339284D01*
X5425Y337207D01*
X4019Y335000D01*
X2811Y332679D01*
X1809Y330261D01*
X1022Y327765D01*
X456Y325209D01*
X114Y322615D01*
X0Y320000D01*
X0Y292500D01*
X20000Y302500D01*
X20000Y207500D01*
X0Y217500D01*
X0Y135000D01*
X20000Y145000D01*
X20000Y50000D01*
X0Y60000D01*
X0Y30000D01*
X673430Y147200D02*
X673449Y146764D01*
X673506Y146332D01*
X673600Y145906D01*
X673732Y145490D01*
X673898Y145087D01*
X674100Y144700D01*
X674334Y144332D01*
X674600Y143986D01*
X674894Y143664D01*
X675216Y143370D01*
X675562Y143104D01*
X675930Y142870D01*
X676317Y142668D01*
X676720Y142502D01*
X677136Y142370D01*
X677562Y142276D01*
X677994Y142219D01*
X678430Y142200D01*
X888430Y142200D01*
X888866Y142219D01*
X889298Y142276D01*
X889724Y142370D01*
X890140Y142502D01*
X890543Y142668D01*
X890930Y142870D01*
X891298Y143104D01*
X891644Y143370D01*
X891966Y143664D01*
X892260Y143986D01*
X892526Y144332D01*
X892760Y144700D01*
X892962Y145087D01*
X893128Y145490D01*
X893260Y145906D01*
X893354Y146332D01*
X893411Y146764D01*
X893430Y147200D01*
X893430Y237200D01*
X893411Y237636D01*
X893354Y238068D01*
X893260Y238494D01*
X893128Y238910D01*
X892962Y239313D01*
X892760Y239700D01*
X892526Y240068D01*
X892260Y240414D01*
X891966Y240736D01*
X891644Y241030D01*
X891298Y241296D01*
X890930Y241530D01*
X890543Y241732D01*
X890140Y241898D01*
X889724Y242030D01*
X889298Y242124D01*
X888866Y242181D01*
X888430Y242200D01*
X678430Y242200D01*
X677994Y242181D01*
X677562Y242124D01*
X677136Y242030D01*
X676720Y241898D01*
X676317Y241732D01*
X675930Y241530D01*
X675562Y241296D01*
X675216Y241030D01*
X674894Y240736D01*
X674600Y240414D01*
X674334Y240068D01*
X674100Y239700D01*
X673898Y239313D01*
X673732Y238910D01*
X673600Y238494D01*
X673506Y238068D01*
X673449Y237636D01*
X673430Y237200D01*
X673430Y147200D01*
X112700Y147100D02*
X112719Y146664D01*
X112776Y146232D01*
X112870Y145806D01*
X113002Y145390D01*
X113168Y144987D01*
X113370Y144600D01*
X113604Y144232D01*
X113870Y143886D01*
X114164Y143564D01*
X114486Y143270D01*
X114832Y143004D01*
X115200Y142770D01*
X115587Y142568D01*
X115990Y142402D01*
X116406Y142270D01*
X116832Y142176D01*
X117264Y142119D01*
X117700Y142100D01*
X197700Y142100D01*
X198136Y142119D01*
X198568Y142176D01*
X198994Y142270D01*
X199410Y142402D01*
X199813Y142568D01*
X200200Y142770D01*
X200568Y143004D01*
X200914Y143270D01*
X201236Y143564D01*
X201530Y143886D01*
X201796Y144232D01*
X202030Y144600D01*
X202232Y144987D01*
X202398Y145390D01*
X202530Y145806D01*
X202624Y146232D01*
X202681Y146664D01*
X202700Y147100D01*
X202700Y183100D01*
X202681Y183536D01*
X202624Y183968D01*
X202530Y184394D01*
X202398Y184810D01*
X202232Y185213D01*
X202030Y185600D01*
X201796Y185968D01*
X201530Y186314D01*
X201236Y186636D01*
X200914Y186930D01*
X200568Y187196D01*
X200200Y187430D01*
X199813Y187632D01*
X199410Y187798D01*
X198994Y187930D01*
X198568Y188024D01*
X198136Y188081D01*
X197700Y188100D01*
X117700Y188100D01*
X117264Y188081D01*
X116832Y188024D01*
X116406Y187930D01*
X115990Y187798D01*
X115587Y187632D01*
X115200Y187430D01*
X114832Y187196D01*
X114486Y186930D01*
X114164Y186636D01*
X113870Y186314D01*
X113604Y185968D01*
X113370Y185600D01*
X113168Y185213D01*
X113002Y184810D01*
X112870Y184394D01*
X112776Y183968D01*
X112719Y183536D01*
X112700Y183100D01*
X112700Y147100D01*
X449764Y167064D02*
X449692Y165592D01*
X449547Y164127D01*
X449331Y162670D01*
X449044Y161225D01*
X448686Y159796D01*
X448258Y158387D01*
X447762Y157000D01*
X447199Y155639D01*
X446569Y154308D01*
X445874Y153009D01*
X445117Y151745D01*
X444299Y150521D01*
X443422Y149338D01*
X442487Y148199D01*
X441498Y147108D01*
X440456Y146066D01*
X439365Y145077D01*
X438227Y144142D01*
X437043Y143265D01*
X435819Y142447D01*
X434555Y141690D01*
X433256Y140995D01*
X431925Y140365D01*
X430564Y139802D01*
X429177Y139306D01*
X427768Y138878D01*
X426339Y138520D01*
X424894Y138233D01*
X423437Y138017D01*
X421972Y137872D01*
X420500Y137800D01*
X419028Y137800D01*
X417556Y137872D01*
X416091Y138017D01*
X414634Y138233D01*
X413189Y138520D01*
X411760Y138878D01*
X410351Y139306D01*
X408964Y139802D01*
X407603Y140365D01*
X406272Y140995D01*
X404973Y141690D01*
X403709Y142447D01*
X402485Y143265D01*
X401302Y144142D01*
X400163Y145077D01*
X399072Y146066D01*
X398030Y147108D01*
X397041Y148199D01*
X396106Y149338D01*
X395229Y150521D01*
X394411Y151745D01*
X393654Y153009D01*
X392959Y154308D01*
X392329Y155639D01*
X391766Y157000D01*
X391270Y158387D01*
X390842Y159796D01*
X390484Y161225D01*
X390197Y162670D01*
X389981Y164127D01*
X389836Y165592D01*
X389764Y167064D01*
X389764Y168536D01*
X389836Y170008D01*
X389981Y171473D01*
X390197Y172930D01*
X390484Y174375D01*
X390842Y175804D01*
X391270Y177213D01*
X391766Y178600D01*
X392329Y179961D01*
X392959Y181292D01*
X393654Y182591D01*
X394411Y183855D01*
X395229Y185079D01*
X396106Y186263D01*
X397041Y187401D01*
X398030Y188492D01*
X399072Y189534D01*
X400163Y190523D01*
X401302Y191458D01*
X402485Y192335D01*
X403709Y193153D01*
X404973Y193910D01*
X406272Y194605D01*
X407603Y195235D01*
X408964Y195798D01*
X410351Y196294D01*
X411760Y196722D01*
X413189Y197080D01*
X414634Y197367D01*
X416091Y197583D01*
X417556Y197728D01*
X419028Y197800D01*
X420500Y197800D01*
X421972Y197728D01*
X423437Y197583D01*
X424894Y197367D01*
X426339Y197080D01*
X427768Y196722D01*
X429177Y196294D01*
X430564Y195798D01*
X431925Y195235D01*
X433256Y194605D01*
X434555Y193910D01*
X435819Y193153D01*
X437043Y192335D01*
X438227Y191458D01*
X439365Y190523D01*
X440456Y189534D01*
X441498Y188492D01*
X442487Y187401D01*
X443422Y186263D01*
X444299Y185079D01*
X445117Y183855D01*
X445874Y182591D01*
X446569Y181292D01*
X447199Y179961D01*
X447762Y178600D01*
X448258Y177213D01*
X448686Y175804D01*
X449044Y174375D01*
X449331Y172930D01*
X449547Y171473D01*
X449692Y170008D01*
X449764Y168536D01*
X449764Y167064D01*
X574764Y167064D02*
X574692Y165592D01*
X574547Y164127D01*
X574331Y162670D01*
X574044Y161225D01*
X573686Y159796D01*
X573258Y158387D01*
X572762Y157000D01*
X572199Y155639D01*
X571569Y154308D01*
X570874Y153009D01*
X570117Y151745D01*
X569299Y150521D01*
X568422Y149338D01*
X567487Y148199D01*
X566498Y147108D01*
X565456Y146066D01*
X564365Y145077D01*
X563227Y144142D01*
X562043Y143265D01*
X560819Y142447D01*
X559555Y141690D01*
X558256Y140995D01*
X556925Y140365D01*
X555564Y139802D01*
X554177Y139306D01*
X552768Y138878D01*
X551339Y138520D01*
X549894Y138233D01*
X548437Y138017D01*
X546972Y137872D01*
X545500Y137800D01*
X544028Y137800D01*
X542556Y137872D01*
X541091Y138017D01*
X539634Y138233D01*
X538189Y138520D01*
X536760Y138878D01*
X535351Y139306D01*
X533964Y139802D01*
X532603Y140365D01*
X531272Y140995D01*
X529973Y141690D01*
X528709Y142447D01*
X527485Y143265D01*
X526302Y144142D01*
X525163Y145077D01*
X524072Y146066D01*
X523030Y147108D01*
X522041Y148199D01*
X521106Y149338D01*
X520229Y150521D01*
X519411Y151745D01*
X518654Y153009D01*
X517959Y154308D01*
X517329Y155639D01*
X516766Y157000D01*
X516270Y158387D01*
X515842Y159796D01*
X515484Y161225D01*
X515197Y162670D01*
X514981Y164127D01*
X514836Y165592D01*
X514764Y167064D01*
X514764Y168536D01*
X514836Y170008D01*
X514981Y171473D01*
X515197Y172930D01*
X515484Y174375D01*
X515842Y175804D01*
X516270Y177213D01*
X516766Y178600D01*
X517329Y179961D01*
X517959Y181292D01*
X518654Y182591D01*
X519411Y183855D01*
X520229Y185079D01*
X521106Y186263D01*
X522041Y187401D01*
X523030Y188492D01*
X524072Y189534D01*
X525163Y190523D01*
X526302Y191458D01*
X527485Y192335D01*
X528709Y193153D01*
X529973Y193910D01*
X531272Y194605D01*
X532603Y195235D01*
X533964Y195798D01*
X535351Y196294D01*
X536760Y196722D01*
X538189Y197080D01*
X539634Y197367D01*
X541091Y197583D01*
X542556Y197728D01*
X544028Y197800D01*
X545500Y197800D01*
X546972Y197728D01*
X548437Y197583D01*
X549894Y197367D01*
X551339Y197080D01*
X552768Y196722D01*
X554177Y196294D01*
X555564Y195798D01*
X556925Y195235D01*
X558256Y194605D01*
X559555Y193910D01*
X560819Y193153D01*
X562043Y192335D01*
X563227Y191458D01*
X564365Y190523D01*
X565456Y189534D01*
X566498Y188492D01*
X567487Y187401D01*
X568422Y186263D01*
X569299Y185079D01*
X570117Y183855D01*
X570874Y182591D01*
X571569Y181292D01*
X572199Y179961D01*
X572762Y178600D01*
X573258Y177213D01*
X573686Y175804D01*
X574044Y174375D01*
X574331Y172930D01*
X574547Y171473D01*
X574692Y170008D01*
X574764Y168536D01*
X574764Y167064D01*
M02*
