G04 EAGLE Gerber RS-274X export*
G75*
%MOMM*%
%FSLAX34Y34*%
%LPD*%
%INSilkscreen Top*%
%IPPOS*%
%AMOC8*
5,1,8,0,0,1.08239X$1,22.5*%
G01*
%ADD10C,0.355600*%
%ADD11C,0.279400*%


D10*
X128014Y292539D02*
X128014Y276438D01*
X131234Y273218D01*
X137674Y273218D01*
X140895Y276438D01*
X140895Y292539D01*
X158724Y292539D02*
X161944Y289318D01*
X158724Y292539D02*
X152283Y292539D01*
X149063Y289318D01*
X149063Y286098D01*
X152283Y282878D01*
X158724Y282878D01*
X161944Y279658D01*
X161944Y276438D01*
X158724Y273218D01*
X152283Y273218D01*
X149063Y276438D01*
X170113Y273218D02*
X170113Y292539D01*
X179773Y292539D01*
X182993Y289318D01*
X182993Y286098D01*
X179773Y282878D01*
X182993Y279658D01*
X182993Y276438D01*
X179773Y273218D01*
X170113Y273218D01*
X170113Y282878D02*
X179773Y282878D01*
X694745Y292539D02*
X707625Y292539D01*
X694745Y292539D02*
X694745Y273218D01*
X707625Y273218D01*
X701185Y282878D02*
X694745Y282878D01*
X715794Y292539D02*
X728674Y273218D01*
X715794Y273218D02*
X728674Y292539D01*
X736843Y292539D02*
X736843Y273218D01*
X736843Y292539D02*
X746503Y292539D01*
X749724Y289318D01*
X749724Y282878D01*
X746503Y279658D01*
X736843Y279658D01*
X757892Y273218D02*
X757892Y286098D01*
X764333Y292539D01*
X770773Y286098D01*
X770773Y273218D01*
X770773Y282878D02*
X757892Y282878D01*
X778942Y273218D02*
X778942Y292539D01*
X791822Y273218D01*
X791822Y292539D01*
X809651Y292539D02*
X812871Y289318D01*
X809651Y292539D02*
X803211Y292539D01*
X799991Y289318D01*
X799991Y286098D01*
X803211Y282878D01*
X809651Y282878D01*
X812871Y279658D01*
X812871Y276438D01*
X809651Y273218D01*
X803211Y273218D01*
X799991Y276438D01*
X821040Y273218D02*
X827480Y273218D01*
X824260Y273218D02*
X824260Y292539D01*
X821040Y292539D02*
X827480Y292539D01*
X838293Y292539D02*
X844733Y292539D01*
X838293Y292539D02*
X835073Y289318D01*
X835073Y276438D01*
X838293Y273218D01*
X844733Y273218D01*
X847953Y276438D01*
X847953Y289318D01*
X844733Y292539D01*
X856122Y292539D02*
X856122Y273218D01*
X869002Y273218D02*
X856122Y292539D01*
X869002Y292539D02*
X869002Y273218D01*
X402799Y289408D02*
X399578Y292629D01*
X393138Y292629D01*
X389918Y289408D01*
X389918Y276528D01*
X393138Y273308D01*
X399578Y273308D01*
X402799Y276528D01*
X410967Y273308D02*
X410967Y292629D01*
X410967Y273308D02*
X423848Y273308D01*
X432017Y273308D02*
X432017Y292629D01*
X444897Y292629D02*
X432017Y279748D01*
X435237Y282968D02*
X444897Y273308D01*
X410391Y239018D02*
X403951Y239018D01*
X407171Y239018D02*
X407171Y258339D01*
X403951Y258339D02*
X410391Y258339D01*
X417984Y258339D02*
X417984Y239018D01*
X430864Y239018D02*
X417984Y258339D01*
X430864Y258339D02*
X430864Y239018D01*
X524578Y292629D02*
X527799Y289408D01*
X524578Y292629D02*
X518138Y292629D01*
X514918Y289408D01*
X514918Y276528D01*
X518138Y273308D01*
X524578Y273308D01*
X527799Y276528D01*
X535967Y273308D02*
X535967Y292629D01*
X535967Y273308D02*
X548848Y273308D01*
X557017Y273308D02*
X557017Y292629D01*
X569897Y292629D02*
X557017Y279748D01*
X560237Y282968D02*
X569897Y273308D01*
X524578Y258339D02*
X518138Y258339D01*
X514918Y255118D01*
X514918Y242238D01*
X518138Y239018D01*
X524578Y239018D01*
X527799Y242238D01*
X527799Y255118D01*
X524578Y258339D01*
X535967Y258339D02*
X535967Y242238D01*
X539187Y239018D01*
X545628Y239018D01*
X548848Y242238D01*
X548848Y258339D01*
X563457Y258339D02*
X563457Y239018D01*
X557017Y258339D02*
X569897Y258339D01*
D11*
X485686Y69361D02*
X485686Y52837D01*
X485686Y69361D02*
X496702Y69361D01*
X491194Y61099D02*
X485686Y61099D01*
X506215Y52837D02*
X511723Y52837D01*
X514477Y55591D01*
X514477Y61099D01*
X511723Y63853D01*
X506215Y63853D01*
X503461Y61099D01*
X503461Y55591D01*
X506215Y52837D01*
X521236Y52837D02*
X521236Y63853D01*
X521236Y58345D02*
X526744Y63853D01*
X529498Y63853D01*
X553823Y69361D02*
X553823Y52837D01*
X553823Y69361D02*
X562085Y69361D01*
X564839Y66607D01*
X564839Y61099D01*
X562085Y58345D01*
X553823Y58345D01*
X559331Y58345D02*
X564839Y52837D01*
X574352Y52837D02*
X579860Y52837D01*
X574352Y52837D02*
X571598Y55591D01*
X571598Y61099D01*
X574352Y63853D01*
X579860Y63853D01*
X582614Y61099D01*
X582614Y58345D01*
X571598Y58345D01*
X589372Y52837D02*
X597634Y52837D01*
X600388Y55591D01*
X597634Y58345D01*
X592126Y58345D01*
X589372Y61099D01*
X592126Y63853D01*
X600388Y63853D01*
X609901Y52837D02*
X615409Y52837D01*
X609901Y52837D02*
X607147Y55591D01*
X607147Y61099D01*
X609901Y63853D01*
X615409Y63853D01*
X618163Y61099D01*
X618163Y58345D01*
X607147Y58345D01*
X627676Y63853D02*
X633184Y63853D01*
X635938Y61099D01*
X635938Y52837D01*
X627676Y52837D01*
X624922Y55591D01*
X627676Y58345D01*
X635938Y58345D01*
X642697Y52837D02*
X642697Y63853D01*
X642697Y58345D02*
X648205Y63853D01*
X650959Y63853D01*
X660263Y63853D02*
X668525Y63853D01*
X660263Y63853D02*
X657509Y61099D01*
X657509Y55591D01*
X660263Y52837D01*
X668525Y52837D01*
X675284Y52837D02*
X675284Y69361D01*
X678038Y63853D02*
X675284Y61099D01*
X678038Y63853D02*
X683546Y63853D01*
X686300Y61099D01*
X686300Y52837D01*
X710834Y55591D02*
X710834Y69361D01*
X710834Y55591D02*
X713588Y52837D01*
X719096Y52837D01*
X721850Y55591D01*
X721850Y69361D01*
X728609Y52837D02*
X736871Y52837D01*
X739625Y55591D01*
X736871Y58345D01*
X731363Y58345D01*
X728609Y61099D01*
X731363Y63853D01*
X739625Y63853D01*
X749138Y52837D02*
X754646Y52837D01*
X749138Y52837D02*
X746384Y55591D01*
X746384Y61099D01*
X749138Y63853D01*
X754646Y63853D01*
X757400Y61099D01*
X757400Y58345D01*
X746384Y58345D01*
X784687Y69361D02*
X790195Y69361D01*
X784687Y69361D02*
X781933Y66607D01*
X781933Y55591D01*
X784687Y52837D01*
X790195Y52837D01*
X792949Y55591D01*
X792949Y66607D01*
X790195Y69361D01*
X799708Y63853D02*
X799708Y52837D01*
X799708Y63853D02*
X807970Y63853D01*
X810724Y61099D01*
X810724Y52837D01*
X817483Y69361D02*
X820237Y69361D01*
X820237Y52837D01*
X817483Y52837D02*
X822991Y52837D01*
X829333Y55591D02*
X829333Y63853D01*
X829333Y55591D02*
X832087Y52837D01*
X840349Y52837D01*
X840349Y50083D02*
X840349Y63853D01*
X840349Y50083D02*
X837595Y47329D01*
X834841Y47329D01*
M02*
