  0
SECTION
  2
HEADER
  9
$ACADVER
  1
AC1009
  9
$FILLMODE
 70
1
  9
$EXTMIN
 10
-10.0343
 20
-2.5654
 30
0.0000
  9
$EXTMAX
 10
31.8103
 20
22.1107
 30
0.0000
  0
ENDSEC
  0
SECTION
  2
TABLES
  0
TABLE
  2
LTYPE
 70
1
  0
LTYPE
  2
CONTINUOUS
 70
64
  3
Solid line
 72
65
 73
0
 40
0
  0
ENDTAB
  0
TABLE
  2
LAYER
 70
255
  0
LAYER
  2
20
 70
64
 62
53
  6
CONTINUOUS
  0
LAYER
  2
22
 70
64
 62
253
  6
CONTINUOUS
  0
LAYER
  2
45
 70
64
 62
253
  6
CONTINUOUS
  0
ENDTAB
  0
ENDSEC
  0
SECTION
  2
BLOCKS
  0
BLOCK
  8
0
  2
RECT
 70
64
 10
0.0000
 20
0.0000
 30
0.0000
  3
RECT
  0
SOLID
  8
0
 10
-0.5000
 20
-0.5000
 30
0.0000
 11
0.5000
 21
-0.5000
 31
0.0000
 12
-0.5000
 22
0.5000
 32
0.0000
 13
0.5000
 23
0.5000
 33
0.0000
  0
ENDBLK
  8
0
  0
BLOCK
  8
0
  2
PIE
 70
64
 10
0.0000
 20
0.0000
 30
0.0000
  3
PIE
  0
POLYLINE
  8
0
 66
1
 10
0.0000
 20
0.0000
 30
0.0000
 40
0.5000
 41
0.5000
 70
0
  0
VERTEX
  8
0
 10
0.0000
 20
-0.2500
 30
0.0000
 42
1.0000
  0
VERTEX
  8
0
 10
0.0000
 20
0.2500
 30
0.0000
 42
1.0000
  0
VERTEX
  8
0
 10
0.0000
 20
-0.2500
 30
0.0000
  0
SEQEND
  8
0
  0
ENDBLK
  8
0
  0
BLOCK
  8
0
  2
OCTAGONP
 70
64
 10
0.0000
 20
0.0000
 30
0.0000
  3
OCTAGONP
  0
POLYLINE
  8
0
 66
1
 10
0.0000
 20
0.0000
 30
0.0000
 40
0.5000
 41
0.5000
 70
0
  0
VERTEX
  8
0
 10
-0.2500
 20
-0.1036
 30
0.0000
  0
VERTEX
  8
0
 10
-0.2500
 20
0.1036
 30
0.0000
  0
VERTEX
  8
0
 10
-0.1036
 20
0.2500
 30
0.0000
  0
VERTEX
  8
0
 10
0.1036
 20
0.2500
 30
0.0000
  0
VERTEX
  8
0
 10
0.2500
 20
0.1036
 30
0.0000
  0
VERTEX
  8
0
 10
0.2500
 20
-0.1036
 30
0.0000
  0
VERTEX
  8
0
 10
0.1036
 20
-0.2500
 30
0.0000
  0
VERTEX
  8
0
 10
-0.1036
 20
-0.2500
 30
0.0000
  0
VERTEX
  8
0
 10
-0.2500
 20
-0.1036
 30
0.0000
  0
VERTEX
  8
0
 10
-0.2500
 20
0.1036
 30
0.0000
  0
SEQEND
  8
0
  0
ENDBLK
  8
0
  0
BLOCK
  8
0
  2
SQUAREP
 70
64
 10
0.0000
 20
0.0000
 30
0.0000
  3
SQUAREP
  0
SOLID
  8
0
 10
-0.5000
 20
-0.5000
 30
0.0000
 11
0.5000
 21
-0.5000
 31
0.0000
 12
-0.5000
 22
0.5000
 32
0.0000
 13
0.5000
 23
0.5000
 33
0.0000
  0
ENDBLK
  8
0
  0
BLOCK
  8
0
  2
ROUNDP
 70
64
 10
0.0000
 20
0.0000
 30
0.0000
  3
ROUNDP
  0
POLYLINE
  8
0
 66
1
 10
0.0000
 20
0.0000
 30
0.0000
 40
0.5000
 41
0.5000
 70
0
  0
VERTEX
  8
0
 10
0.0000
 20
-0.2500
 30
0.0000
 42
1.0000
  0
VERTEX
  8
0
 10
0.0000
 20
0.2500
 30
0.0000
 42
1.0000
  0
VERTEX
  8
0
 10
0.0000
 20
-0.2500
 30
0.0000
  0
SEQEND
  8
0
  0
ENDBLK
  8
0
  0
BLOCK
  8
0
  2
ANNULUSP
 70
64
 10
0.0000
 20
0.0000
 30
0.0000
  3
ANNULUSP
  0
POLYLINE
  8
0
 66
1
 10
0.0000
 20
0.0000
 30
0.0000
 40
0.5000
 41
0.5000
 70
0
  0
VERTEX
  8
0
 10
0.0000
 20
-0.2500
 30
0.0000
 42
1.0000
  0
VERTEX
  8
0
 10
0.0000
 20
0.2500
 30
0.0000
 42
1.0000
  0
VERTEX
  8
0
 10
0.0000
 20
-0.2500
 30
0.0000
  0
SEQEND
  8
0
  0
ENDBLK
  8
0
  0
BLOCK
  8
0
  2
THERMALP
 70
64
 10
0.0000
 20
0.0000
 30
0.0000
  3
THERMALP
  0
POLYLINE
  8
0
 66
1
 10
0.0000
 20
0.0000
 30
0.0000
 40
0.1000
 41
0.1000
 70
0
  0
VERTEX
  8
0
 10
-0.2379
 20
0.4500
 30
0.0000
  0
VERTEX
  8
0
 10
0.2379
 20
0.4500
 30
0.0000
  0
SEQEND
  8
0
  0
POLYLINE
  8
0
 66
1
 10
0.0000
 20
0.0000
 30
0.0000
 40
0.0500
 41
0.0500
 70
0
  0
VERTEX
  8
0
 10
0.2379
 20
0.4250
 30
0.0000
 42
1.0000
  0
VERTEX
  8
0
 10
0.2379
 20
0.4750
 30
0.0000
  0
SEQEND
  8
0
  0
POLYLINE
  8
0
 66
1
 10
0.0000
 20
0.0000
 30
0.0000
 40
0.0500
 41
0.0500
 70
0
  0
VERTEX
  8
0
 10
-0.2379
 20
0.4750
 30
0.0000
 42
1.0000
  0
VERTEX
  8
0
 10
-0.2379
 20
0.4250
 30
0.0000
  0
SEQEND
  8
0
  0
POLYLINE
  8
0
 66
1
 10
0.0000
 20
0.0000
 30
0.0000
 40
0.1000
 41
0.1000
 70
0
  0
VERTEX
  8
0
 10
0.4500
 20
0.2379
 30
0.0000
  0
VERTEX
  8
0
 10
0.4500
 20
-0.2379
 30
0.0000
  0
SEQEND
  8
0
  0
POLYLINE
  8
0
 66
1
 10
0.0000
 20
0.0000
 30
0.0000
 40
0.0500
 41
0.0500
 70
0
  0
VERTEX
  8
0
 10
0.4250
 20
-0.2379
 30
0.0000
 42
1.0000
  0
VERTEX
  8
0
 10
0.4750
 20
-0.2379
 30
0.0000
  0
SEQEND
  8
0
  0
POLYLINE
  8
0
 66
1
 10
0.0000
 20
0.0000
 30
0.0000
 40
0.0500
 41
0.0500
 70
0
  0
VERTEX
  8
0
 10
0.4750
 20
0.2379
 30
0.0000
 42
1.0000
  0
VERTEX
  8
0
 10
0.4250
 20
0.2379
 30
0.0000
  0
SEQEND
  8
0
  0
POLYLINE
  8
0
 66
1
 10
0.0000
 20
0.0000
 30
0.0000
 40
0.1000
 41
0.1000
 70
0
  0
VERTEX
  8
0
 10
0.2379
 20
-0.4500
 30
0.0000
  0
VERTEX
  8
0
 10
-0.2379
 20
-0.4500
 30
0.0000
  0
SEQEND
  8
0
  0
POLYLINE
  8
0
 66
1
 10
0.0000
 20
0.0000
 30
0.0000
 40
0.0500
 41
0.0500
 70
0
  0
VERTEX
  8
0
 10
-0.2379
 20
-0.4250
 30
0.0000
 42
1.0000
  0
VERTEX
  8
0
 10
-0.2379
 20
-0.4750
 30
0.0000
  0
SEQEND
  8
0
  0
POLYLINE
  8
0
 66
1
 10
0.0000
 20
0.0000
 30
0.0000
 40
0.0500
 41
0.0500
 70
0
  0
VERTEX
  8
0
 10
0.2379
 20
-0.4750
 30
0.0000
 42
1.0000
  0
VERTEX
  8
0
 10
0.2379
 20
-0.4250
 30
0.0000
  0
SEQEND
  8
0
  0
POLYLINE
  8
0
 66
1
 10
0.0000
 20
0.0000
 30
0.0000
 40
0.1000
 41
0.1000
 70
0
  0
VERTEX
  8
0
 10
-0.4500
 20
-0.2379
 30
0.0000
  0
VERTEX
  8
0
 10
-0.4500
 20
0.2379
 30
0.0000
  0
SEQEND
  8
0
  0
POLYLINE
  8
0
 66
1
 10
0.0000
 20
0.0000
 30
0.0000
 40
0.0500
 41
0.0500
 70
0
  0
VERTEX
  8
0
 10
-0.4250
 20
0.2379
 30
0.0000
 42
1.0000
  0
VERTEX
  8
0
 10
-0.4750
 20
0.2379
 30
0.0000
  0
SEQEND
  8
0
  0
POLYLINE
  8
0
 66
1
 10
0.0000
 20
0.0000
 30
0.0000
 40
0.0500
 41
0.0500
 70
0
  0
VERTEX
  8
0
 10
-0.4750
 20
-0.2379
 30
0.0000
 42
1.0000
  0
VERTEX
  8
0
 10
-0.4250
 20
-0.2379
 30
0.0000
  0
SEQEND
  8
0
  0
ENDBLK
  8
0
  0
BLOCK
  8
0
  2
OCTAGONV
 70
64
 10
0.0000
 20
0.0000
 30
0.0000
  3
OCTAGONV
  0
POLYLINE
  8
0
 66
1
 10
0.0000
 20
0.0000
 30
0.0000
 40
0.5000
 41
0.5000
 70
0
  0
VERTEX
  8
0
 10
-0.2500
 20
-0.1036
 30
0.0000
  0
VERTEX
  8
0
 10
-0.2500
 20
0.1036
 30
0.0000
  0
VERTEX
  8
0
 10
-0.1036
 20
0.2500
 30
0.0000
  0
VERTEX
  8
0
 10
0.1036
 20
0.2500
 30
0.0000
  0
VERTEX
  8
0
 10
0.2500
 20
0.1036
 30
0.0000
  0
VERTEX
  8
0
 10
0.2500
 20
-0.1036
 30
0.0000
  0
VERTEX
  8
0
 10
0.1036
 20
-0.2500
 30
0.0000
  0
VERTEX
  8
0
 10
-0.1036
 20
-0.2500
 30
0.0000
  0
VERTEX
  8
0
 10
-0.2500
 20
-0.1036
 30
0.0000
  0
VERTEX
  8
0
 10
-0.2500
 20
0.1036
 30
0.0000
  0
SEQEND
  8
0
  0
ENDBLK
  8
0
  0
BLOCK
  8
0
  2
SQUAREV
 70
64
 10
0.0000
 20
0.0000
 30
0.0000
  3
SQUAREV
  0
SOLID
  8
0
 10
-0.5000
 20
-0.5000
 30
0.0000
 11
0.5000
 21
-0.5000
 31
0.0000
 12
-0.5000
 22
0.5000
 32
0.0000
 13
0.5000
 23
0.5000
 33
0.0000
  0
ENDBLK
  8
0
  0
BLOCK
  8
0
  2
ROUNDV
 70
64
 10
0.0000
 20
0.0000
 30
0.0000
  3
ROUNDV
  0
POLYLINE
  8
0
 66
1
 10
0.0000
 20
0.0000
 30
0.0000
 40
0.5000
 41
0.5000
 70
0
  0
VERTEX
  8
0
 10
0.0000
 20
-0.2500
 30
0.0000
 42
1.0000
  0
VERTEX
  8
0
 10
0.0000
 20
0.2500
 30
0.0000
 42
1.0000
  0
VERTEX
  8
0
 10
0.0000
 20
-0.2500
 30
0.0000
  0
SEQEND
  8
0
  0
ENDBLK
  8
0
  0
BLOCK
  8
0
  2
ANNULUSV
 70
64
 10
0.0000
 20
0.0000
 30
0.0000
  3
ANNULUSV
  0
POLYLINE
  8
0
 66
1
 10
0.0000
 20
0.0000
 30
0.0000
 40
0.5000
 41
0.5000
 70
0
  0
VERTEX
  8
0
 10
0.0000
 20
-0.2500
 30
0.0000
 42
1.0000
  0
VERTEX
  8
0
 10
0.0000
 20
0.2500
 30
0.0000
 42
1.0000
  0
VERTEX
  8
0
 10
0.0000
 20
-0.2500
 30
0.0000
  0
SEQEND
  8
0
  0
ENDBLK
  8
0
  0
BLOCK
  8
0
  2
THERMALV
 70
64
 10
0.0000
 20
0.0000
 30
0.0000
  3
THERMALV
  0
POLYLINE
  8
0
 66
1
 10
0.0000
 20
0.0000
 30
0.0000
 40
0.1000
 41
0.1000
 70
0
  0
VERTEX
  8
0
 10
-0.2379
 20
0.4500
 30
0.0000
  0
VERTEX
  8
0
 10
0.2379
 20
0.4500
 30
0.0000
  0
SEQEND
  8
0
  0
POLYLINE
  8
0
 66
1
 10
0.0000
 20
0.0000
 30
0.0000
 40
0.0500
 41
0.0500
 70
0
  0
VERTEX
  8
0
 10
0.2379
 20
0.4250
 30
0.0000
 42
1.0000
  0
VERTEX
  8
0
 10
0.2379
 20
0.4750
 30
0.0000
  0
SEQEND
  8
0
  0
POLYLINE
  8
0
 66
1
 10
0.0000
 20
0.0000
 30
0.0000
 40
0.0500
 41
0.0500
 70
0
  0
VERTEX
  8
0
 10
-0.2379
 20
0.4750
 30
0.0000
 42
1.0000
  0
VERTEX
  8
0
 10
-0.2379
 20
0.4250
 30
0.0000
  0
SEQEND
  8
0
  0
POLYLINE
  8
0
 66
1
 10
0.0000
 20
0.0000
 30
0.0000
 40
0.1000
 41
0.1000
 70
0
  0
VERTEX
  8
0
 10
0.4500
 20
0.2379
 30
0.0000
  0
VERTEX
  8
0
 10
0.4500
 20
-0.2379
 30
0.0000
  0
SEQEND
  8
0
  0
POLYLINE
  8
0
 66
1
 10
0.0000
 20
0.0000
 30
0.0000
 40
0.0500
 41
0.0500
 70
0
  0
VERTEX
  8
0
 10
0.4250
 20
-0.2379
 30
0.0000
 42
1.0000
  0
VERTEX
  8
0
 10
0.4750
 20
-0.2379
 30
0.0000
  0
SEQEND
  8
0
  0
POLYLINE
  8
0
 66
1
 10
0.0000
 20
0.0000
 30
0.0000
 40
0.0500
 41
0.0500
 70
0
  0
VERTEX
  8
0
 10
0.4750
 20
0.2379
 30
0.0000
 42
1.0000
  0
VERTEX
  8
0
 10
0.4250
 20
0.2379
 30
0.0000
  0
SEQEND
  8
0
  0
POLYLINE
  8
0
 66
1
 10
0.0000
 20
0.0000
 30
0.0000
 40
0.1000
 41
0.1000
 70
0
  0
VERTEX
  8
0
 10
0.2379
 20
-0.4500
 30
0.0000
  0
VERTEX
  8
0
 10
-0.2379
 20
-0.4500
 30
0.0000
  0
SEQEND
  8
0
  0
POLYLINE
  8
0
 66
1
 10
0.0000
 20
0.0000
 30
0.0000
 40
0.0500
 41
0.0500
 70
0
  0
VERTEX
  8
0
 10
-0.2379
 20
-0.4250
 30
0.0000
 42
1.0000
  0
VERTEX
  8
0
 10
-0.2379
 20
-0.4750
 30
0.0000
  0
SEQEND
  8
0
  0
POLYLINE
  8
0
 66
1
 10
0.0000
 20
0.0000
 30
0.0000
 40
0.0500
 41
0.0500
 70
0
  0
VERTEX
  8
0
 10
0.2379
 20
-0.4750
 30
0.0000
 42
1.0000
  0
VERTEX
  8
0
 10
0.2379
 20
-0.4250
 30
0.0000
  0
SEQEND
  8
0
  0
POLYLINE
  8
0
 66
1
 10
0.0000
 20
0.0000
 30
0.0000
 40
0.1000
 41
0.1000
 70
0
  0
VERTEX
  8
0
 10
-0.4500
 20
-0.2379
 30
0.0000
  0
VERTEX
  8
0
 10
-0.4500
 20
0.2379
 30
0.0000
  0
SEQEND
  8
0
  0
POLYLINE
  8
0
 66
1
 10
0.0000
 20
0.0000
 30
0.0000
 40
0.0500
 41
0.0500
 70
0
  0
VERTEX
  8
0
 10
-0.4250
 20
0.2379
 30
0.0000
 42
1.0000
  0
VERTEX
  8
0
 10
-0.4750
 20
0.2379
 30
0.0000
  0
SEQEND
  8
0
  0
POLYLINE
  8
0
 66
1
 10
0.0000
 20
0.0000
 30
0.0000
 40
0.0500
 41
0.0500
 70
0
  0
VERTEX
  8
0
 10
-0.4750
 20
-0.2379
 30
0.0000
 42
1.0000
  0
VERTEX
  8
0
 10
-0.4250
 20
-0.2379
 30
0.0000
  0
SEQEND
  8
0
  0
ENDBLK
  8
0
  0
ENDSEC
  0
SECTION
  2
ENTITIES
  0
POLYLINE
  8
20
 66
1
 10
0.0000
 20
0.0000
 30
0.0000
 40
0.0762
 41
0.0762
 70
0
  0
VERTEX
  8
20
 10
-3.0000
 20
21.0000
 30
0.0000
  0
VERTEX
  8
20
 10
-3.0000
 20
12.0000
 30
0.0000
  0
SEQEND
  8
0
  0
POLYLINE
  8
20
 66
1
 10
0.0000
 20
0.0000
 30
0.0000
 40
0.0381
 41
0.0381
 70
0
  0
VERTEX
  8
20
 10
-3.0191
 20
12.0000
 30
0.0000
 42
1.0000
  0
VERTEX
  8
20
 10
-2.9809
 20
12.0000
 30
0.0000
  0
SEQEND
  8
0
  0
POLYLINE
  8
20
 66
1
 10
0.0000
 20
0.0000
 30
0.0000
 40
0.0381
 41
0.0381
 70
0
  0
VERTEX
  8
20
 10
-2.9809
 20
21.0000
 30
0.0000
 42
1.0000
  0
VERTEX
  8
20
 10
-3.0191
 20
21.0000
 30
0.0000
  0
SEQEND
  8
0
  0
POLYLINE
  8
20
 66
1
 10
0.0000
 20
0.0000
 30
0.0000
 40
0.0762
 41
0.0762
 70
0
  0
VERTEX
  8
20
 10
-3.0000
 20
12.0000
 30
0.0000
  0
VERTEX
  8
20
 10
7.0000
 20
0.0000
 30
0.0000
  0
SEQEND
  8
0
  0
POLYLINE
  8
20
 66
1
 10
0.0000
 20
0.0000
 30
0.0000
 40
0.0381
 41
0.0381
 70
0
  0
VERTEX
  8
20
 10
6.9854
 20
-0.0122
 30
0.0000
 42
1.0000
  0
VERTEX
  8
20
 10
7.0146
 20
0.0122
 30
0.0000
  0
SEQEND
  8
0
  0
POLYLINE
  8
20
 66
1
 10
0.0000
 20
0.0000
 30
0.0000
 40
0.0381
 41
0.0381
 70
0
  0
VERTEX
  8
20
 10
-2.9854
 20
12.0122
 30
0.0000
 42
1.0000
  0
VERTEX
  8
20
 10
-3.0146
 20
11.9878
 30
0.0000
  0
SEQEND
  8
0
  0
POLYLINE
  8
20
 66
1
 10
0.0000
 20
0.0000
 30
0.0000
 40
0.0762
 41
0.0762
 70
0
  0
VERTEX
  8
20
 10
7.0000
 20
0.0000
 30
0.0000
  0
VERTEX
  8
20
 10
15.0000
 20
0.0000
 30
0.0000
  0
SEQEND
  8
0
  0
POLYLINE
  8
20
 66
1
 10
0.0000
 20
0.0000
 30
0.0000
 40
0.0381
 41
0.0381
 70
0
  0
VERTEX
  8
20
 10
15.0000
 20
-0.0191
 30
0.0000
 42
1.0000
  0
VERTEX
  8
20
 10
15.0000
 20
0.0191
 30
0.0000
  0
SEQEND
  8
0
  0
POLYLINE
  8
20
 66
1
 10
0.0000
 20
0.0000
 30
0.0000
 40
0.0381
 41
0.0381
 70
0
  0
VERTEX
  8
20
 10
7.0000
 20
0.0191
 30
0.0000
 42
1.0000
  0
VERTEX
  8
20
 10
7.0000
 20
-0.0191
 30
0.0000
  0
SEQEND
  8
0
  0
POLYLINE
  8
20
 66
1
 10
0.0000
 20
0.0000
 30
0.0000
 40
0.0762
 41
0.0762
 70
0
  0
VERTEX
  8
20
 10
15.0000
 20
0.0000
 30
0.0000
  0
VERTEX
  8
20
 10
25.0000
 20
12.0000
 30
0.0000
  0
SEQEND
  8
0
  0
POLYLINE
  8
20
 66
1
 10
0.0000
 20
0.0000
 30
0.0000
 40
0.0381
 41
0.0381
 70
0
  0
VERTEX
  8
20
 10
25.0146
 20
11.9878
 30
0.0000
 42
1.0000
  0
VERTEX
  8
20
 10
24.9854
 20
12.0122
 30
0.0000
  0
SEQEND
  8
0
  0
POLYLINE
  8
20
 66
1
 10
0.0000
 20
0.0000
 30
0.0000
 40
0.0381
 41
0.0381
 70
0
  0
VERTEX
  8
20
 10
14.9854
 20
0.0122
 30
0.0000
 42
1.0000
  0
VERTEX
  8
20
 10
15.0146
 20
-0.0122
 30
0.0000
  0
SEQEND
  8
0
  0
POLYLINE
  8
20
 66
1
 10
0.0000
 20
0.0000
 30
0.0000
 40
0.0762
 41
0.0762
 70
0
  0
VERTEX
  8
20
 10
25.0000
 20
12.0000
 30
0.0000
  0
VERTEX
  8
20
 10
25.0000
 20
21.0000
 30
0.0000
  0
SEQEND
  8
0
  0
POLYLINE
  8
20
 66
1
 10
0.0000
 20
0.0000
 30
0.0000
 40
0.0381
 41
0.0381
 70
0
  0
VERTEX
  8
20
 10
25.0191
 20
21.0000
 30
0.0000
 42
1.0000
  0
VERTEX
  8
20
 10
24.9809
 20
21.0000
 30
0.0000
  0
SEQEND
  8
0
  0
POLYLINE
  8
20
 66
1
 10
0.0000
 20
0.0000
 30
0.0000
 40
0.0381
 41
0.0381
 70
0
  0
VERTEX
  8
20
 10
24.9809
 20
12.0000
 30
0.0000
 42
1.0000
  0
VERTEX
  8
20
 10
25.0191
 20
12.0000
 30
0.0000
  0
SEQEND
  8
0
  0
POLYLINE
  8
20
 66
1
 10
0.0000
 20
0.0000
 30
0.0000
 40
0.0762
 41
0.0762
 70
0
  0
VERTEX
  8
20
 10
25.0000
 20
21.0000
 30
0.0000
 42
0.4142
  0
VERTEX
  8
20
 10
24.0000
 20
22.0000
 30
0.0000
  0
SEQEND
  8
0
  0
POLYLINE
  8
20
 66
1
 10
0.0000
 20
0.0000
 30
0.0000
 40
0.0381
 41
0.0381
 70
0
  0
VERTEX
  8
20
 10
24.9809
 20
21.0000
 30
0.0000
 42
1.0000
  0
VERTEX
  8
20
 10
25.0191
 20
21.0000
 30
0.0000
  0
SEQEND
  8
0
  0
POLYLINE
  8
20
 66
1
 10
0.0000
 20
0.0000
 30
0.0000
 40
0.0381
 41
0.0381
 70
0
  0
VERTEX
  8
20
 10
24.0000
 20
22.0191
 30
0.0000
 42
1.0000
  0
VERTEX
  8
20
 10
24.0000
 20
21.9809
 30
0.0000
  0
SEQEND
  8
0
  0
POLYLINE
  8
20
 66
1
 10
0.0000
 20
0.0000
 30
0.0000
 40
0.0762
 41
0.0762
 70
0
  0
VERTEX
  8
20
 10
24.0000
 20
22.0000
 30
0.0000
  0
VERTEX
  8
20
 10
-2.0000
 20
22.0000
 30
0.0000
  0
SEQEND
  8
0
  0
POLYLINE
  8
20
 66
1
 10
0.0000
 20
0.0000
 30
0.0000
 40
0.0381
 41
0.0381
 70
0
  0
VERTEX
  8
20
 10
-2.0000
 20
22.0191
 30
0.0000
 42
1.0000
  0
VERTEX
  8
20
 10
-2.0000
 20
21.9809
 30
0.0000
  0
SEQEND
  8
0
  0
POLYLINE
  8
20
 66
1
 10
0.0000
 20
0.0000
 30
0.0000
 40
0.0381
 41
0.0381
 70
0
  0
VERTEX
  8
20
 10
24.0000
 20
21.9809
 30
0.0000
 42
1.0000
  0
VERTEX
  8
20
 10
24.0000
 20
22.0191
 30
0.0000
  0
SEQEND
  8
0
  0
POLYLINE
  8
20
 66
1
 10
0.0000
 20
0.0000
 30
0.0000
 40
0.0762
 41
0.0762
 70
0
  0
VERTEX
  8
20
 10
-2.0000
 20
22.0000
 30
0.0000
 42
0.4142
  0
VERTEX
  8
20
 10
-3.0000
 20
21.0000
 30
0.0000
  0
SEQEND
  8
0
  0
POLYLINE
  8
20
 66
1
 10
0.0000
 20
0.0000
 30
0.0000
 40
0.0381
 41
0.0381
 70
0
  0
VERTEX
  8
20
 10
-2.0000
 20
21.9809
 30
0.0000
 42
1.0000
  0
VERTEX
  8
20
 10
-2.0000
 20
22.0191
 30
0.0000
  0
SEQEND
  8
0
  0
POLYLINE
  8
20
 66
1
 10
0.0000
 20
0.0000
 30
0.0000
 40
0.0381
 41
0.0381
 70
0
  0
VERTEX
  8
20
 10
-3.0191
 20
21.0000
 30
0.0000
 42
1.0000
  0
VERTEX
  8
20
 10
-2.9809
 20
21.0000
 30
0.0000
  0
SEQEND
  8
0
  0
POLYLINE
  8
22
 66
1
 10
0.0000
 20
0.0000
 30
0.0000
 40
0.1524
 41
0.1524
 70
0
  0
VERTEX
  8
22
 10
3.2500
 20
9.5000
 30
0.0000
  0
VERTEX
  8
22
 10
3.7500
 20
10.0000
 30
0.0000
  0
SEQEND
  8
0
  0
POLYLINE
  8
22
 66
1
 10
0.0000
 20
0.0000
 30
0.0000
 40
0.0762
 41
0.0762
 70
0
  0
VERTEX
  8
22
 10
3.7769
 20
9.9731
 30
0.0000
 42
1.0000
  0
VERTEX
  8
22
 10
3.7231
 20
10.0269
 30
0.0000
  0
SEQEND
  8
0
  0
POLYLINE
  8
22
 66
1
 10
0.0000
 20
0.0000
 30
0.0000
 40
0.0762
 41
0.0762
 70
0
  0
VERTEX
  8
22
 10
3.2231
 20
9.5269
 30
0.0000
 42
1.0000
  0
VERTEX
  8
22
 10
3.2769
 20
9.4731
 30
0.0000
  0
SEQEND
  8
0
  0
POLYLINE
  8
22
 66
1
 10
0.0000
 20
0.0000
 30
0.0000
 40
0.1524
 41
0.1524
 70
0
  0
VERTEX
  8
22
 10
3.2500
 20
9.5000
 30
0.0000
  0
VERTEX
  8
22
 10
3.7500
 20
9.0000
 30
0.0000
  0
SEQEND
  8
0
  0
POLYLINE
  8
22
 66
1
 10
0.0000
 20
0.0000
 30
0.0000
 40
0.0762
 41
0.0762
 70
0
  0
VERTEX
  8
22
 10
3.7231
 20
8.9731
 30
0.0000
 42
1.0000
  0
VERTEX
  8
22
 10
3.7769
 20
9.0269
 30
0.0000
  0
SEQEND
  8
0
  0
POLYLINE
  8
22
 66
1
 10
0.0000
 20
0.0000
 30
0.0000
 40
0.0762
 41
0.0762
 70
0
  0
VERTEX
  8
22
 10
3.2769
 20
9.5269
 30
0.0000
 42
1.0000
  0
VERTEX
  8
22
 10
3.2231
 20
9.4731
 30
0.0000
  0
SEQEND
  8
0
  0
POLYLINE
  8
22
 66
1
 10
0.0000
 20
0.0000
 30
0.0000
 40
0.1524
 41
0.1524
 70
0
  0
VERTEX
  8
22
 10
18.7500
 20
9.5000
 30
0.0000
  0
VERTEX
  8
22
 10
18.2500
 20
10.0000
 30
0.0000
  0
SEQEND
  8
0
  0
POLYLINE
  8
22
 66
1
 10
0.0000
 20
0.0000
 30
0.0000
 40
0.0762
 41
0.0762
 70
0
  0
VERTEX
  8
22
 10
18.2769
 20
10.0269
 30
0.0000
 42
1.0000
  0
VERTEX
  8
22
 10
18.2231
 20
9.9731
 30
0.0000
  0
SEQEND
  8
0
  0
POLYLINE
  8
22
 66
1
 10
0.0000
 20
0.0000
 30
0.0000
 40
0.0762
 41
0.0762
 70
0
  0
VERTEX
  8
22
 10
18.7231
 20
9.4731
 30
0.0000
 42
1.0000
  0
VERTEX
  8
22
 10
18.7769
 20
9.5269
 30
0.0000
  0
SEQEND
  8
0
  0
POLYLINE
  8
22
 66
1
 10
0.0000
 20
0.0000
 30
0.0000
 40
0.1524
 41
0.1524
 70
0
  0
VERTEX
  8
22
 10
18.7500
 20
9.5000
 30
0.0000
  0
VERTEX
  8
22
 10
18.2500
 20
9.0000
 30
0.0000
  0
SEQEND
  8
0
  0
POLYLINE
  8
22
 66
1
 10
0.0000
 20
0.0000
 30
0.0000
 40
0.0762
 41
0.0762
 70
0
  0
VERTEX
  8
22
 10
18.2231
 20
9.0269
 30
0.0000
 42
1.0000
  0
VERTEX
  8
22
 10
18.2769
 20
8.9731
 30
0.0000
  0
SEQEND
  8
0
  0
POLYLINE
  8
22
 66
1
 10
0.0000
 20
0.0000
 30
0.0000
 40
0.0762
 41
0.0762
 70
0
  0
VERTEX
  8
22
 10
18.7769
 20
9.4731
 30
0.0000
 42
1.0000
  0
VERTEX
  8
22
 10
18.7231
 20
9.5269
 30
0.0000
  0
SEQEND
  8
0
  0
POLYLINE
  8
22
 66
1
 10
0.0000
 20
0.0000
 30
0.0000
 40
0.1524
 41
0.1524
 70
0
  0
VERTEX
  8
22
 10
11.0000
 20
2.5000
 30
0.0000
  0
VERTEX
  8
22
 10
11.5000
 20
3.0000
 30
0.0000
  0
SEQEND
  8
0
  0
POLYLINE
  8
22
 66
1
 10
0.0000
 20
0.0000
 30
0.0000
 40
0.0762
 41
0.0762
 70
0
  0
VERTEX
  8
22
 10
11.5269
 20
2.9731
 30
0.0000
 42
1.0000
  0
VERTEX
  8
22
 10
11.4731
 20
3.0269
 30
0.0000
  0
SEQEND
  8
0
  0
POLYLINE
  8
22
 66
1
 10
0.0000
 20
0.0000
 30
0.0000
 40
0.0762
 41
0.0762
 70
0
  0
VERTEX
  8
22
 10
10.9731
 20
2.5269
 30
0.0000
 42
1.0000
  0
VERTEX
  8
22
 10
11.0269
 20
2.4731
 30
0.0000
  0
SEQEND
  8
0
  0
POLYLINE
  8
22
 66
1
 10
0.0000
 20
0.0000
 30
0.0000
 40
0.1524
 41
0.1524
 70
0
  0
VERTEX
  8
22
 10
11.0000
 20
2.5000
 30
0.0000
  0
VERTEX
  8
22
 10
10.5000
 20
3.0000
 30
0.0000
  0
SEQEND
  8
0
  0
POLYLINE
  8
22
 66
1
 10
0.0000
 20
0.0000
 30
0.0000
 40
0.0762
 41
0.0762
 70
0
  0
VERTEX
  8
22
 10
10.5269
 20
3.0269
 30
0.0000
 42
1.0000
  0
VERTEX
  8
22
 10
10.4731
 20
2.9731
 30
0.0000
  0
SEQEND
  8
0
  0
POLYLINE
  8
22
 66
1
 10
0.0000
 20
0.0000
 30
0.0000
 40
0.0762
 41
0.0762
 70
0
  0
VERTEX
  8
22
 10
10.9731
 20
2.4731
 30
0.0000
 42
1.0000
  0
VERTEX
  8
22
 10
11.0269
 20
2.5269
 30
0.0000
  0
SEQEND
  8
0
  0
POLYLINE
  8
22
 66
1
 10
0.0000
 20
0.0000
 30
0.0000
 40
0.1524
 41
0.1524
 70
0
  0
VERTEX
  8
22
 10
11.0000
 20
2.5000
 30
0.0000
  0
VERTEX
  8
22
 10
11.0000
 20
9.5000
 30
0.0000
  0
SEQEND
  8
0
  0
POLYLINE
  8
22
 66
1
 10
0.0000
 20
0.0000
 30
0.0000
 40
0.0762
 41
0.0762
 70
0
  0
VERTEX
  8
22
 10
11.0381
 20
9.5000
 30
0.0000
 42
1.0000
  0
VERTEX
  8
22
 10
10.9619
 20
9.5000
 30
0.0000
  0
SEQEND
  8
0
  0
POLYLINE
  8
22
 66
1
 10
0.0000
 20
0.0000
 30
0.0000
 40
0.0762
 41
0.0762
 70
0
  0
VERTEX
  8
22
 10
10.9619
 20
2.5000
 30
0.0000
 42
1.0000
  0
VERTEX
  8
22
 10
11.0381
 20
2.5000
 30
0.0000
  0
SEQEND
  8
0
  0
POLYLINE
  8
22
 66
1
 10
0.0000
 20
0.0000
 30
0.0000
 40
0.1524
 41
0.1524
 70
0
  0
VERTEX
  8
22
 10
11.0000
 20
9.5000
 30
0.0000
  0
VERTEX
  8
22
 10
10.5000
 20
9.0000
 30
0.0000
  0
SEQEND
  8
0
  0
POLYLINE
  8
22
 66
1
 10
0.0000
 20
0.0000
 30
0.0000
 40
0.0762
 41
0.0762
 70
0
  0
VERTEX
  8
22
 10
10.4731
 20
9.0269
 30
0.0000
 42
1.0000
  0
VERTEX
  8
22
 10
10.5269
 20
8.9731
 30
0.0000
  0
SEQEND
  8
0
  0
POLYLINE
  8
22
 66
1
 10
0.0000
 20
0.0000
 30
0.0000
 40
0.0762
 41
0.0762
 70
0
  0
VERTEX
  8
22
 10
11.0269
 20
9.4731
 30
0.0000
 42
1.0000
  0
VERTEX
  8
22
 10
10.9731
 20
9.5269
 30
0.0000
  0
SEQEND
  8
0
  0
POLYLINE
  8
22
 66
1
 10
0.0000
 20
0.0000
 30
0.0000
 40
0.1524
 41
0.1524
 70
0
  0
VERTEX
  8
22
 10
11.0000
 20
9.5000
 30
0.0000
  0
VERTEX
  8
22
 10
11.5000
 20
9.0000
 30
0.0000
  0
SEQEND
  8
0
  0
POLYLINE
  8
22
 66
1
 10
0.0000
 20
0.0000
 30
0.0000
 40
0.0762
 41
0.0762
 70
0
  0
VERTEX
  8
22
 10
11.4731
 20
8.9731
 30
0.0000
 42
1.0000
  0
VERTEX
  8
22
 10
11.5269
 20
9.0269
 30
0.0000
  0
SEQEND
  8
0
  0
POLYLINE
  8
22
 66
1
 10
0.0000
 20
0.0000
 30
0.0000
 40
0.0762
 41
0.0762
 70
0
  0
VERTEX
  8
22
 10
11.0269
 20
9.5269
 30
0.0000
 42
1.0000
  0
VERTEX
  8
22
 10
10.9731
 20
9.4731
 30
0.0000
  0
SEQEND
  8
0
  0
POLYLINE
  8
22
 66
1
 10
0.0000
 20
0.0000
 30
0.0000
 40
0.1524
 41
0.1524
 70
0
  0
VERTEX
  8
22
 10
3.2500
 20
9.5000
 30
0.0000
  0
VERTEX
  8
22
 10
18.7500
 20
9.5000
 30
0.0000
  0
SEQEND
  8
0
  0
POLYLINE
  8
22
 66
1
 10
0.0000
 20
0.0000
 30
0.0000
 40
0.0762
 41
0.0762
 70
0
  0
VERTEX
  8
22
 10
18.7500
 20
9.4619
 30
0.0000
 42
1.0000
  0
VERTEX
  8
22
 10
18.7500
 20
9.5381
 30
0.0000
  0
SEQEND
  8
0
  0
POLYLINE
  8
22
 66
1
 10
0.0000
 20
0.0000
 30
0.0000
 40
0.0762
 41
0.0762
 70
0
  0
VERTEX
  8
22
 10
3.2500
 20
9.5381
 30
0.0000
 42
1.0000
  0
VERTEX
  8
22
 10
3.2500
 20
9.4619
 30
0.0000
  0
SEQEND
  8
0
  0
POLYLINE
  8
22
 66
1
 10
0.0000
 20
0.0000
 30
0.0000
 40
0.1524
 41
0.1524
 70
0
  0
VERTEX
  8
22
 10
11.0000
 20
2.5000
 30
0.0000
  0
VERTEX
  8
22
 10
10.5000
 20
2.0000
 30
0.0000
  0
SEQEND
  8
0
  0
POLYLINE
  8
22
 66
1
 10
0.0000
 20
0.0000
 30
0.0000
 40
0.0762
 41
0.0762
 70
0
  0
VERTEX
  8
22
 10
10.4731
 20
2.0269
 30
0.0000
 42
1.0000
  0
VERTEX
  8
22
 10
10.5269
 20
1.9731
 30
0.0000
  0
SEQEND
  8
0
  0
POLYLINE
  8
22
 66
1
 10
0.0000
 20
0.0000
 30
0.0000
 40
0.0762
 41
0.0762
 70
0
  0
VERTEX
  8
22
 10
11.0269
 20
2.4731
 30
0.0000
 42
1.0000
  0
VERTEX
  8
22
 10
10.9731
 20
2.5269
 30
0.0000
  0
SEQEND
  8
0
  0
POLYLINE
  8
22
 66
1
 10
0.0000
 20
0.0000
 30
0.0000
 40
0.1524
 41
0.1524
 70
0
  0
VERTEX
  8
22
 10
11.0000
 20
2.5000
 30
0.0000
  0
VERTEX
  8
22
 10
11.5000
 20
2.0000
 30
0.0000
  0
SEQEND
  8
0
  0
POLYLINE
  8
22
 66
1
 10
0.0000
 20
0.0000
 30
0.0000
 40
0.0762
 41
0.0762
 70
0
  0
VERTEX
  8
22
 10
11.4731
 20
1.9731
 30
0.0000
 42
1.0000
  0
VERTEX
  8
22
 10
11.5269
 20
2.0269
 30
0.0000
  0
SEQEND
  8
0
  0
POLYLINE
  8
22
 66
1
 10
0.0000
 20
0.0000
 30
0.0000
 40
0.0762
 41
0.0762
 70
0
  0
VERTEX
  8
22
 10
11.0269
 20
2.5269
 30
0.0000
 42
1.0000
  0
VERTEX
  8
22
 10
10.9731
 20
2.4731
 30
0.0000
  0
SEQEND
  8
0
  0
POLYLINE
  8
22
 66
1
 10
0.0000
 20
0.0000
 30
0.0000
 40
0.1524
 41
0.1524
 70
0
  0
VERTEX
  8
22
 10
12.4245
 20
4.6729
 30
0.0000
  0
VERTEX
  8
22
 10
12.4245
 20
5.2491
 30
0.0000
  0
SEQEND
  8
0
  0
POLYLINE
  8
22
 66
1
 10
0.0000
 20
0.0000
 30
0.0000
 40
0.0762
 41
0.0762
 70
0
  0
VERTEX
  8
22
 10
12.4626
 20
5.2491
 30
0.0000
 42
1.0000
  0
VERTEX
  8
22
 10
12.3864
 20
5.2491
 30
0.0000
  0
SEQEND
  8
0
  0
POLYLINE
  8
22
 66
1
 10
0.0000
 20
0.0000
 30
0.0000
 40
0.0762
 41
0.0762
 70
0
  0
VERTEX
  8
22
 10
12.3864
 20
4.6729
 30
0.0000
 42
1.0000
  0
VERTEX
  8
22
 10
12.4626
 20
4.6729
 30
0.0000
  0
SEQEND
  8
0
  0
POLYLINE
  8
22
 66
1
 10
0.0000
 20
0.0000
 30
0.0000
 40
0.1524
 41
0.1524
 70
0
  0
VERTEX
  8
22
 10
12.4245
 20
5.2491
 30
0.0000
  0
VERTEX
  8
22
 10
12.2805
 20
5.2491
 30
0.0000
  0
SEQEND
  8
0
  0
POLYLINE
  8
22
 66
1
 10
0.0000
 20
0.0000
 30
0.0000
 40
0.0762
 41
0.0762
 70
0
  0
VERTEX
  8
22
 10
12.2805
 20
5.2872
 30
0.0000
 42
1.0000
  0
VERTEX
  8
22
 10
12.2805
 20
5.2110
 30
0.0000
  0
SEQEND
  8
0
  0
POLYLINE
  8
22
 66
1
 10
0.0000
 20
0.0000
 30
0.0000
 40
0.0762
 41
0.0762
 70
0
  0
VERTEX
  8
22
 10
12.4245
 20
5.2110
 30
0.0000
 42
1.0000
  0
VERTEX
  8
22
 10
12.4245
 20
5.2872
 30
0.0000
  0
SEQEND
  8
0
  0
POLYLINE
  8
22
 66
1
 10
0.0000
 20
0.0000
 30
0.0000
 40
0.1524
 41
0.1524
 70
0
  0
VERTEX
  8
22
 10
12.2805
 20
5.2491
 30
0.0000
  0
VERTEX
  8
22
 10
11.7043
 20
4.6729
 30
0.0000
  0
SEQEND
  8
0
  0
POLYLINE
  8
22
 66
1
 10
0.0000
 20
0.0000
 30
0.0000
 40
0.0762
 41
0.0762
 70
0
  0
VERTEX
  8
22
 10
11.6773
 20
4.6999
 30
0.0000
 42
1.0000
  0
VERTEX
  8
22
 10
11.7312
 20
4.6460
 30
0.0000
  0
SEQEND
  8
0
  0
POLYLINE
  8
22
 66
1
 10
0.0000
 20
0.0000
 30
0.0000
 40
0.0762
 41
0.0762
 70
0
  0
VERTEX
  8
22
 10
12.3074
 20
5.2222
 30
0.0000
 42
1.0000
  0
VERTEX
  8
22
 10
12.2535
 20
5.2761
 30
0.0000
  0
SEQEND
  8
0
  0
POLYLINE
  8
22
 66
1
 10
0.0000
 20
0.0000
 30
0.0000
 40
0.1524
 41
0.1524
 70
0
  0
VERTEX
  8
22
 10
11.7043
 20
4.6729
 30
0.0000
  0
VERTEX
  8
22
 10
11.5602
 20
4.6729
 30
0.0000
  0
SEQEND
  8
0
  0
POLYLINE
  8
22
 66
1
 10
0.0000
 20
0.0000
 30
0.0000
 40
0.0762
 41
0.0762
 70
0
  0
VERTEX
  8
22
 10
11.5602
 20
4.7110
 30
0.0000
 42
1.0000
  0
VERTEX
  8
22
 10
11.5602
 20
4.6348
 30
0.0000
  0
SEQEND
  8
0
  0
POLYLINE
  8
22
 66
1
 10
0.0000
 20
0.0000
 30
0.0000
 40
0.0762
 41
0.0762
 70
0
  0
VERTEX
  8
22
 10
11.7043
 20
4.6348
 30
0.0000
 42
1.0000
  0
VERTEX
  8
22
 10
11.7043
 20
4.7110
 30
0.0000
  0
SEQEND
  8
0
  0
POLYLINE
  8
22
 66
1
 10
0.0000
 20
0.0000
 30
0.0000
 40
0.1524
 41
0.1524
 70
0
  0
VERTEX
  8
22
 10
11.5602
 20
5.6084
 30
0.0000
  0
VERTEX
  8
22
 10
12.1364
 20
5.6084
 30
0.0000
  0
SEQEND
  8
0
  0
POLYLINE
  8
22
 66
1
 10
0.0000
 20
0.0000
 30
0.0000
 40
0.0762
 41
0.0762
 70
0
  0
VERTEX
  8
22
 10
12.1364
 20
5.5703
 30
0.0000
 42
1.0000
  0
VERTEX
  8
22
 10
12.1364
 20
5.6465
 30
0.0000
  0
SEQEND
  8
0
  0
POLYLINE
  8
22
 66
1
 10
0.0000
 20
0.0000
 30
0.0000
 40
0.0762
 41
0.0762
 70
0
  0
VERTEX
  8
22
 10
11.5602
 20
5.6465
 30
0.0000
 42
1.0000
  0
VERTEX
  8
22
 10
11.5602
 20
5.5703
 30
0.0000
  0
SEQEND
  8
0
  0
POLYLINE
  8
22
 66
1
 10
0.0000
 20
0.0000
 30
0.0000
 40
0.1524
 41
0.1524
 70
0
  0
VERTEX
  8
22
 10
12.1364
 20
5.6084
 30
0.0000
  0
VERTEX
  8
22
 10
12.1364
 20
5.7525
 30
0.0000
  0
SEQEND
  8
0
  0
POLYLINE
  8
22
 66
1
 10
0.0000
 20
0.0000
 30
0.0000
 40
0.0762
 41
0.0762
 70
0
  0
VERTEX
  8
22
 10
12.1745
 20
5.7525
 30
0.0000
 42
1.0000
  0
VERTEX
  8
22
 10
12.0983
 20
5.7525
 30
0.0000
  0
SEQEND
  8
0
  0
POLYLINE
  8
22
 66
1
 10
0.0000
 20
0.0000
 30
0.0000
 40
0.0762
 41
0.0762
 70
0
  0
VERTEX
  8
22
 10
12.0983
 20
5.6084
 30
0.0000
 42
1.0000
  0
VERTEX
  8
22
 10
12.1745
 20
5.6084
 30
0.0000
  0
SEQEND
  8
0
  0
POLYLINE
  8
22
 66
1
 10
0.0000
 20
0.0000
 30
0.0000
 40
0.1524
 41
0.1524
 70
0
  0
VERTEX
  8
22
 10
12.1364
 20
5.7525
 30
0.0000
  0
VERTEX
  8
22
 10
11.9924
 20
5.8966
 30
0.0000
  0
SEQEND
  8
0
  0
POLYLINE
  8
22
 66
1
 10
0.0000
 20
0.0000
 30
0.0000
 40
0.0762
 41
0.0762
 70
0
  0
VERTEX
  8
22
 10
12.0193
 20
5.9235
 30
0.0000
 42
1.0000
  0
VERTEX
  8
22
 10
11.9654
 20
5.8696
 30
0.0000
  0
SEQEND
  8
0
  0
POLYLINE
  8
22
 66
1
 10
0.0000
 20
0.0000
 30
0.0000
 40
0.0762
 41
0.0762
 70
0
  0
VERTEX
  8
22
 10
12.1095
 20
5.7256
 30
0.0000
 42
1.0000
  0
VERTEX
  8
22
 10
12.1634
 20
5.7794
 30
0.0000
  0
SEQEND
  8
0
  0
POLYLINE
  8
22
 66
1
 10
0.0000
 20
0.0000
 30
0.0000
 40
0.1524
 41
0.1524
 70
0
  0
VERTEX
  8
22
 10
11.9924
 20
5.8966
 30
0.0000
  0
VERTEX
  8
22
 10
11.5602
 20
5.8966
 30
0.0000
  0
SEQEND
  8
0
  0
POLYLINE
  8
22
 66
1
 10
0.0000
 20
0.0000
 30
0.0000
 40
0.0762
 41
0.0762
 70
0
  0
VERTEX
  8
22
 10
11.5602
 20
5.9347
 30
0.0000
 42
1.0000
  0
VERTEX
  8
22
 10
11.5602
 20
5.8585
 30
0.0000
  0
SEQEND
  8
0
  0
POLYLINE
  8
22
 66
1
 10
0.0000
 20
0.0000
 30
0.0000
 40
0.0762
 41
0.0762
 70
0
  0
VERTEX
  8
22
 10
11.9924
 20
5.8585
 30
0.0000
 42
1.0000
  0
VERTEX
  8
22
 10
11.9924
 20
5.9347
 30
0.0000
  0
SEQEND
  8
0
  0
POLYLINE
  8
22
 66
1
 10
0.0000
 20
0.0000
 30
0.0000
 40
0.1524
 41
0.1524
 70
0
  0
VERTEX
  8
22
 10
11.9924
 20
5.8966
 30
0.0000
  0
VERTEX
  8
22
 10
12.1364
 20
6.0406
 30
0.0000
  0
SEQEND
  8
0
  0
POLYLINE
  8
22
 66
1
 10
0.0000
 20
0.0000
 30
0.0000
 40
0.0762
 41
0.0762
 70
0
  0
VERTEX
  8
22
 10
12.1634
 20
6.0137
 30
0.0000
 42
1.0000
  0
VERTEX
  8
22
 10
12.1095
 20
6.0676
 30
0.0000
  0
SEQEND
  8
0
  0
POLYLINE
  8
22
 66
1
 10
0.0000
 20
0.0000
 30
0.0000
 40
0.0762
 41
0.0762
 70
0
  0
VERTEX
  8
22
 10
11.9654
 20
5.9235
 30
0.0000
 42
1.0000
  0
VERTEX
  8
22
 10
12.0193
 20
5.8696
 30
0.0000
  0
SEQEND
  8
0
  0
POLYLINE
  8
22
 66
1
 10
0.0000
 20
0.0000
 30
0.0000
 40
0.1524
 41
0.1524
 70
0
  0
VERTEX
  8
22
 10
12.1364
 20
6.0406
 30
0.0000
  0
VERTEX
  8
22
 10
11.9924
 20
6.1847
 30
0.0000
  0
SEQEND
  8
0
  0
POLYLINE
  8
22
 66
1
 10
0.0000
 20
0.0000
 30
0.0000
 40
0.0762
 41
0.0762
 70
0
  0
VERTEX
  8
22
 10
12.0193
 20
6.2116
 30
0.0000
 42
1.0000
  0
VERTEX
  8
22
 10
11.9654
 20
6.1577
 30
0.0000
  0
SEQEND
  8
0
  0
POLYLINE
  8
22
 66
1
 10
0.0000
 20
0.0000
 30
0.0000
 40
0.0762
 41
0.0762
 70
0
  0
VERTEX
  8
22
 10
12.1095
 20
6.0137
 30
0.0000
 42
1.0000
  0
VERTEX
  8
22
 10
12.1634
 20
6.0676
 30
0.0000
  0
SEQEND
  8
0
  0
POLYLINE
  8
22
 66
1
 10
0.0000
 20
0.0000
 30
0.0000
 40
0.1524
 41
0.1524
 70
0
  0
VERTEX
  8
22
 10
11.9924
 20
6.1847
 30
0.0000
  0
VERTEX
  8
22
 10
11.5602
 20
6.1847
 30
0.0000
  0
SEQEND
  8
0
  0
POLYLINE
  8
22
 66
1
 10
0.0000
 20
0.0000
 30
0.0000
 40
0.0762
 41
0.0762
 70
0
  0
VERTEX
  8
22
 10
11.5602
 20
6.2228
 30
0.0000
 42
1.0000
  0
VERTEX
  8
22
 10
11.5602
 20
6.1466
 30
0.0000
  0
SEQEND
  8
0
  0
POLYLINE
  8
22
 66
1
 10
0.0000
 20
0.0000
 30
0.0000
 40
0.0762
 41
0.0762
 70
0
  0
VERTEX
  8
22
 10
11.9924
 20
6.1466
 30
0.0000
 42
1.0000
  0
VERTEX
  8
22
 10
11.9924
 20
6.2228
 30
0.0000
  0
SEQEND
  8
0
  0
POLYLINE
  8
22
 66
1
 10
0.0000
 20
0.0000
 30
0.0000
 40
0.1524
 41
0.1524
 70
0
  0
VERTEX
  8
22
 10
11.5602
 20
6.5440
 30
0.0000
  0
VERTEX
  8
22
 10
12.1364
 20
6.5440
 30
0.0000
  0
SEQEND
  8
0
  0
POLYLINE
  8
22
 66
1
 10
0.0000
 20
0.0000
 30
0.0000
 40
0.0762
 41
0.0762
 70
0
  0
VERTEX
  8
22
 10
12.1364
 20
6.5059
 30
0.0000
 42
1.0000
  0
VERTEX
  8
22
 10
12.1364
 20
6.5821
 30
0.0000
  0
SEQEND
  8
0
  0
POLYLINE
  8
22
 66
1
 10
0.0000
 20
0.0000
 30
0.0000
 40
0.0762
 41
0.0762
 70
0
  0
VERTEX
  8
22
 10
11.5602
 20
6.5821
 30
0.0000
 42
1.0000
  0
VERTEX
  8
22
 10
11.5602
 20
6.5059
 30
0.0000
  0
SEQEND
  8
0
  0
POLYLINE
  8
22
 66
1
 10
0.0000
 20
0.0000
 30
0.0000
 40
0.1524
 41
0.1524
 70
0
  0
VERTEX
  8
22
 10
12.1364
 20
6.5440
 30
0.0000
  0
VERTEX
  8
22
 10
12.1364
 20
6.6880
 30
0.0000
  0
SEQEND
  8
0
  0
POLYLINE
  8
22
 66
1
 10
0.0000
 20
0.0000
 30
0.0000
 40
0.0762
 41
0.0762
 70
0
  0
VERTEX
  8
22
 10
12.1745
 20
6.6880
 30
0.0000
 42
1.0000
  0
VERTEX
  8
22
 10
12.0983
 20
6.6880
 30
0.0000
  0
SEQEND
  8
0
  0
POLYLINE
  8
22
 66
1
 10
0.0000
 20
0.0000
 30
0.0000
 40
0.0762
 41
0.0762
 70
0
  0
VERTEX
  8
22
 10
12.0983
 20
6.5440
 30
0.0000
 42
1.0000
  0
VERTEX
  8
22
 10
12.1745
 20
6.5440
 30
0.0000
  0
SEQEND
  8
0
  0
POLYLINE
  8
22
 66
1
 10
0.0000
 20
0.0000
 30
0.0000
 40
0.1524
 41
0.1524
 70
0
  0
VERTEX
  8
22
 10
12.1364
 20
6.6880
 30
0.0000
  0
VERTEX
  8
22
 10
11.9924
 20
6.8321
 30
0.0000
  0
SEQEND
  8
0
  0
POLYLINE
  8
22
 66
1
 10
0.0000
 20
0.0000
 30
0.0000
 40
0.0762
 41
0.0762
 70
0
  0
VERTEX
  8
22
 10
12.0193
 20
6.8590
 30
0.0000
 42
1.0000
  0
VERTEX
  8
22
 10
11.9654
 20
6.8051
 30
0.0000
  0
SEQEND
  8
0
  0
POLYLINE
  8
22
 66
1
 10
0.0000
 20
0.0000
 30
0.0000
 40
0.0762
 41
0.0762
 70
0
  0
VERTEX
  8
22
 10
12.1095
 20
6.6611
 30
0.0000
 42
1.0000
  0
VERTEX
  8
22
 10
12.1634
 20
6.7150
 30
0.0000
  0
SEQEND
  8
0
  0
POLYLINE
  8
22
 66
1
 10
0.0000
 20
0.0000
 30
0.0000
 40
0.1524
 41
0.1524
 70
0
  0
VERTEX
  8
22
 10
11.9924
 20
6.8321
 30
0.0000
  0
VERTEX
  8
22
 10
11.5602
 20
6.8321
 30
0.0000
  0
SEQEND
  8
0
  0
POLYLINE
  8
22
 66
1
 10
0.0000
 20
0.0000
 30
0.0000
 40
0.0762
 41
0.0762
 70
0
  0
VERTEX
  8
22
 10
11.5602
 20
6.8702
 30
0.0000
 42
1.0000
  0
VERTEX
  8
22
 10
11.5602
 20
6.7940
 30
0.0000
  0
SEQEND
  8
0
  0
POLYLINE
  8
22
 66
1
 10
0.0000
 20
0.0000
 30
0.0000
 40
0.0762
 41
0.0762
 70
0
  0
VERTEX
  8
22
 10
11.9924
 20
6.7940
 30
0.0000
 42
1.0000
  0
VERTEX
  8
22
 10
11.9924
 20
6.8702
 30
0.0000
  0
SEQEND
  8
0
  0
POLYLINE
  8
22
 66
1
 10
0.0000
 20
0.0000
 30
0.0000
 40
0.1524
 41
0.1524
 70
0
  0
VERTEX
  8
22
 10
11.9924
 20
6.8321
 30
0.0000
  0
VERTEX
  8
22
 10
12.1364
 20
6.9761
 30
0.0000
  0
SEQEND
  8
0
  0
POLYLINE
  8
22
 66
1
 10
0.0000
 20
0.0000
 30
0.0000
 40
0.0762
 41
0.0762
 70
0
  0
VERTEX
  8
22
 10
12.1634
 20
6.9492
 30
0.0000
 42
1.0000
  0
VERTEX
  8
22
 10
12.1095
 20
7.0031
 30
0.0000
  0
SEQEND
  8
0
  0
POLYLINE
  8
22
 66
1
 10
0.0000
 20
0.0000
 30
0.0000
 40
0.0762
 41
0.0762
 70
0
  0
VERTEX
  8
22
 10
11.9654
 20
6.8590
 30
0.0000
 42
1.0000
  0
VERTEX
  8
22
 10
12.0193
 20
6.8051
 30
0.0000
  0
SEQEND
  8
0
  0
POLYLINE
  8
22
 66
1
 10
0.0000
 20
0.0000
 30
0.0000
 40
0.1524
 41
0.1524
 70
0
  0
VERTEX
  8
22
 10
12.1364
 20
6.9761
 30
0.0000
  0
VERTEX
  8
22
 10
11.9924
 20
7.1202
 30
0.0000
  0
SEQEND
  8
0
  0
POLYLINE
  8
22
 66
1
 10
0.0000
 20
0.0000
 30
0.0000
 40
0.0762
 41
0.0762
 70
0
  0
VERTEX
  8
22
 10
12.0193
 20
7.1471
 30
0.0000
 42
1.0000
  0
VERTEX
  8
22
 10
11.9654
 20
7.0932
 30
0.0000
  0
SEQEND
  8
0
  0
POLYLINE
  8
22
 66
1
 10
0.0000
 20
0.0000
 30
0.0000
 40
0.0762
 41
0.0762
 70
0
  0
VERTEX
  8
22
 10
12.1095
 20
6.9492
 30
0.0000
 42
1.0000
  0
VERTEX
  8
22
 10
12.1634
 20
7.0031
 30
0.0000
  0
SEQEND
  8
0
  0
POLYLINE
  8
22
 66
1
 10
0.0000
 20
0.0000
 30
0.0000
 40
0.1524
 41
0.1524
 70
0
  0
VERTEX
  8
22
 10
11.9924
 20
7.1202
 30
0.0000
  0
VERTEX
  8
22
 10
11.5602
 20
7.1202
 30
0.0000
  0
SEQEND
  8
0
  0
POLYLINE
  8
22
 66
1
 10
0.0000
 20
0.0000
 30
0.0000
 40
0.0762
 41
0.0762
 70
0
  0
VERTEX
  8
22
 10
11.5602
 20
7.1583
 30
0.0000
 42
1.0000
  0
VERTEX
  8
22
 10
11.5602
 20
7.0821
 30
0.0000
  0
SEQEND
  8
0
  0
POLYLINE
  8
22
 66
1
 10
0.0000
 20
0.0000
 30
0.0000
 40
0.0762
 41
0.0762
 70
0
  0
VERTEX
  8
22
 10
11.9924
 20
7.0821
 30
0.0000
 42
1.0000
  0
VERTEX
  8
22
 10
11.9924
 20
7.1583
 30
0.0000
  0
SEQEND
  8
0
  0
POLYLINE
  8
22
 66
1
 10
0.0000
 20
0.0000
 30
0.0000
 40
0.1524
 41
0.1524
 70
0
  0
VERTEX
  8
22
 10
12.7948
 20
10.6364
 30
0.0000
  0
VERTEX
  8
22
 10
12.5067
 20
10.9245
 30
0.0000
  0
SEQEND
  8
0
  0
POLYLINE
  8
22
 66
1
 10
0.0000
 20
0.0000
 30
0.0000
 40
0.0762
 41
0.0762
 70
0
  0
VERTEX
  8
22
 10
12.5337
 20
10.9515
 30
0.0000
 42
1.0000
  0
VERTEX
  8
22
 10
12.4798
 20
10.8976
 30
0.0000
  0
SEQEND
  8
0
  0
POLYLINE
  8
22
 66
1
 10
0.0000
 20
0.0000
 30
0.0000
 40
0.0762
 41
0.0762
 70
0
  0
VERTEX
  8
22
 10
12.7679
 20
10.6095
 30
0.0000
 42
1.0000
  0
VERTEX
  8
22
 10
12.8218
 20
10.6634
 30
0.0000
  0
SEQEND
  8
0
  0
POLYLINE
  8
22
 66
1
 10
0.0000
 20
0.0000
 30
0.0000
 40
0.1524
 41
0.1524
 70
0
  0
VERTEX
  8
22
 10
12.5067
 20
10.9245
 30
0.0000
  0
VERTEX
  8
22
 10
12.5067
 20
10.0602
 30
0.0000
  0
SEQEND
  8
0
  0
POLYLINE
  8
22
 66
1
 10
0.0000
 20
0.0000
 30
0.0000
 40
0.0762
 41
0.0762
 70
0
  0
VERTEX
  8
22
 10
12.4686
 20
10.0602
 30
0.0000
 42
1.0000
  0
VERTEX
  8
22
 10
12.5448
 20
10.0602
 30
0.0000
  0
SEQEND
  8
0
  0
POLYLINE
  8
22
 66
1
 10
0.0000
 20
0.0000
 30
0.0000
 40
0.0762
 41
0.0762
 70
0
  0
VERTEX
  8
22
 10
12.5448
 20
10.9245
 30
0.0000
 42
1.0000
  0
VERTEX
  8
22
 10
12.4686
 20
10.9245
 30
0.0000
  0
SEQEND
  8
0
  0
POLYLINE
  8
22
 66
1
 10
0.0000
 20
0.0000
 30
0.0000
 40
0.1524
 41
0.1524
 70
0
  0
VERTEX
  8
22
 10
12.7948
 20
10.0602
 30
0.0000
  0
VERTEX
  8
22
 10
12.2186
 20
10.0602
 30
0.0000
  0
SEQEND
  8
0
  0
POLYLINE
  8
22
 66
1
 10
0.0000
 20
0.0000
 30
0.0000
 40
0.0762
 41
0.0762
 70
0
  0
VERTEX
  8
22
 10
12.2186
 20
10.0983
 30
0.0000
 42
1.0000
  0
VERTEX
  8
22
 10
12.2186
 20
10.0221
 30
0.0000
  0
SEQEND
  8
0
  0
POLYLINE
  8
22
 66
1
 10
0.0000
 20
0.0000
 30
0.0000
 40
0.0762
 41
0.0762
 70
0
  0
VERTEX
  8
22
 10
12.7948
 20
10.0221
 30
0.0000
 42
1.0000
  0
VERTEX
  8
22
 10
12.7948
 20
10.0983
 30
0.0000
  0
SEQEND
  8
0
  0
POLYLINE
  8
22
 66
1
 10
0.0000
 20
0.0000
 30
0.0000
 40
0.1524
 41
0.1524
 70
0
  0
VERTEX
  8
22
 10
11.8593
 20
10.7805
 30
0.0000
  0
VERTEX
  8
22
 10
11.7153
 20
10.9245
 30
0.0000
  0
SEQEND
  8
0
  0
POLYLINE
  8
22
 66
1
 10
0.0000
 20
0.0000
 30
0.0000
 40
0.0762
 41
0.0762
 70
0
  0
VERTEX
  8
22
 10
11.7422
 20
10.9515
 30
0.0000
 42
1.0000
  0
VERTEX
  8
22
 10
11.6883
 20
10.8976
 30
0.0000
  0
SEQEND
  8
0
  0
POLYLINE
  8
22
 66
1
 10
0.0000
 20
0.0000
 30
0.0000
 40
0.0762
 41
0.0762
 70
0
  0
VERTEX
  8
22
 10
11.8324
 20
10.7535
 30
0.0000
 42
1.0000
  0
VERTEX
  8
22
 10
11.8863
 20
10.8074
 30
0.0000
  0
SEQEND
  8
0
  0
POLYLINE
  8
22
 66
1
 10
0.0000
 20
0.0000
 30
0.0000
 40
0.1524
 41
0.1524
 70
0
  0
VERTEX
  8
22
 10
11.7153
 20
10.9245
 30
0.0000
  0
VERTEX
  8
22
 10
11.4272
 20
10.9245
 30
0.0000
  0
SEQEND
  8
0
  0
POLYLINE
  8
22
 66
1
 10
0.0000
 20
0.0000
 30
0.0000
 40
0.0762
 41
0.0762
 70
0
  0
VERTEX
  8
22
 10
11.4272
 20
10.9626
 30
0.0000
 42
1.0000
  0
VERTEX
  8
22
 10
11.4272
 20
10.8864
 30
0.0000
  0
SEQEND
  8
0
  0
POLYLINE
  8
22
 66
1
 10
0.0000
 20
0.0000
 30
0.0000
 40
0.0762
 41
0.0762
 70
0
  0
VERTEX
  8
22
 10
11.7153
 20
10.8864
 30
0.0000
 42
1.0000
  0
VERTEX
  8
22
 10
11.7153
 20
10.9626
 30
0.0000
  0
SEQEND
  8
0
  0
POLYLINE
  8
22
 66
1
 10
0.0000
 20
0.0000
 30
0.0000
 40
0.1524
 41
0.1524
 70
0
  0
VERTEX
  8
22
 10
11.4272
 20
10.9245
 30
0.0000
  0
VERTEX
  8
22
 10
11.2831
 20
10.7805
 30
0.0000
  0
SEQEND
  8
0
  0
POLYLINE
  8
22
 66
1
 10
0.0000
 20
0.0000
 30
0.0000
 40
0.0762
 41
0.0762
 70
0
  0
VERTEX
  8
22
 10
11.2562
 20
10.8074
 30
0.0000
 42
1.0000
  0
VERTEX
  8
22
 10
11.3100
 20
10.7535
 30
0.0000
  0
SEQEND
  8
0
  0
POLYLINE
  8
22
 66
1
 10
0.0000
 20
0.0000
 30
0.0000
 40
0.0762
 41
0.0762
 70
0
  0
VERTEX
  8
22
 10
11.4541
 20
10.8976
 30
0.0000
 42
1.0000
  0
VERTEX
  8
22
 10
11.4002
 20
10.9515
 30
0.0000
  0
SEQEND
  8
0
  0
POLYLINE
  8
22
 66
1
 10
0.0000
 20
0.0000
 30
0.0000
 40
0.1524
 41
0.1524
 70
0
  0
VERTEX
  8
22
 10
11.2831
 20
10.7805
 30
0.0000
  0
VERTEX
  8
22
 10
11.2831
 20
10.6364
 30
0.0000
  0
SEQEND
  8
0
  0
POLYLINE
  8
22
 66
1
 10
0.0000
 20
0.0000
 30
0.0000
 40
0.0762
 41
0.0762
 70
0
  0
VERTEX
  8
22
 10
11.2450
 20
10.6364
 30
0.0000
 42
1.0000
  0
VERTEX
  8
22
 10
11.3212
 20
10.6364
 30
0.0000
  0
SEQEND
  8
0
  0
POLYLINE
  8
22
 66
1
 10
0.0000
 20
0.0000
 30
0.0000
 40
0.0762
 41
0.0762
 70
0
  0
VERTEX
  8
22
 10
11.3212
 20
10.7805
 30
0.0000
 42
1.0000
  0
VERTEX
  8
22
 10
11.2450
 20
10.7805
 30
0.0000
  0
SEQEND
  8
0
  0
POLYLINE
  8
22
 66
1
 10
0.0000
 20
0.0000
 30
0.0000
 40
0.1524
 41
0.1524
 70
0
  0
VERTEX
  8
22
 10
11.2831
 20
10.6364
 30
0.0000
  0
VERTEX
  8
22
 10
11.4272
 20
10.4924
 30
0.0000
  0
SEQEND
  8
0
  0
POLYLINE
  8
22
 66
1
 10
0.0000
 20
0.0000
 30
0.0000
 40
0.0762
 41
0.0762
 70
0
  0
VERTEX
  8
22
 10
11.4002
 20
10.4654
 30
0.0000
 42
1.0000
  0
VERTEX
  8
22
 10
11.4541
 20
10.5193
 30
0.0000
  0
SEQEND
  8
0
  0
POLYLINE
  8
22
 66
1
 10
0.0000
 20
0.0000
 30
0.0000
 40
0.0762
 41
0.0762
 70
0
  0
VERTEX
  8
22
 10
11.3100
 20
10.6634
 30
0.0000
 42
1.0000
  0
VERTEX
  8
22
 10
11.2562
 20
10.6095
 30
0.0000
  0
SEQEND
  8
0
  0
POLYLINE
  8
22
 66
1
 10
0.0000
 20
0.0000
 30
0.0000
 40
0.1524
 41
0.1524
 70
0
  0
VERTEX
  8
22
 10
11.4272
 20
10.4924
 30
0.0000
  0
VERTEX
  8
22
 10
11.2831
 20
10.3483
 30
0.0000
  0
SEQEND
  8
0
  0
POLYLINE
  8
22
 66
1
 10
0.0000
 20
0.0000
 30
0.0000
 40
0.0762
 41
0.0762
 70
0
  0
VERTEX
  8
22
 10
11.2562
 20
10.3753
 30
0.0000
 42
1.0000
  0
VERTEX
  8
22
 10
11.3100
 20
10.3214
 30
0.0000
  0
SEQEND
  8
0
  0
POLYLINE
  8
22
 66
1
 10
0.0000
 20
0.0000
 30
0.0000
 40
0.0762
 41
0.0762
 70
0
  0
VERTEX
  8
22
 10
11.4541
 20
10.4654
 30
0.0000
 42
1.0000
  0
VERTEX
  8
22
 10
11.4002
 20
10.5193
 30
0.0000
  0
SEQEND
  8
0
  0
POLYLINE
  8
22
 66
1
 10
0.0000
 20
0.0000
 30
0.0000
 40
0.1524
 41
0.1524
 70
0
  0
VERTEX
  8
22
 10
11.2831
 20
10.3483
 30
0.0000
  0
VERTEX
  8
22
 10
11.2831
 20
10.2043
 30
0.0000
  0
SEQEND
  8
0
  0
POLYLINE
  8
22
 66
1
 10
0.0000
 20
0.0000
 30
0.0000
 40
0.0762
 41
0.0762
 70
0
  0
VERTEX
  8
22
 10
11.2450
 20
10.2043
 30
0.0000
 42
1.0000
  0
VERTEX
  8
22
 10
11.3212
 20
10.2043
 30
0.0000
  0
SEQEND
  8
0
  0
POLYLINE
  8
22
 66
1
 10
0.0000
 20
0.0000
 30
0.0000
 40
0.0762
 41
0.0762
 70
0
  0
VERTEX
  8
22
 10
11.3212
 20
10.3483
 30
0.0000
 42
1.0000
  0
VERTEX
  8
22
 10
11.2450
 20
10.3483
 30
0.0000
  0
SEQEND
  8
0
  0
POLYLINE
  8
22
 66
1
 10
0.0000
 20
0.0000
 30
0.0000
 40
0.1524
 41
0.1524
 70
0
  0
VERTEX
  8
22
 10
11.2831
 20
10.2043
 30
0.0000
  0
VERTEX
  8
22
 10
11.4272
 20
10.0602
 30
0.0000
  0
SEQEND
  8
0
  0
POLYLINE
  8
22
 66
1
 10
0.0000
 20
0.0000
 30
0.0000
 40
0.0762
 41
0.0762
 70
0
  0
VERTEX
  8
22
 10
11.4002
 20
10.0333
 30
0.0000
 42
1.0000
  0
VERTEX
  8
22
 10
11.4541
 20
10.0871
 30
0.0000
  0
SEQEND
  8
0
  0
POLYLINE
  8
22
 66
1
 10
0.0000
 20
0.0000
 30
0.0000
 40
0.0762
 41
0.0762
 70
0
  0
VERTEX
  8
22
 10
11.3100
 20
10.2312
 30
0.0000
 42
1.0000
  0
VERTEX
  8
22
 10
11.2562
 20
10.1773
 30
0.0000
  0
SEQEND
  8
0
  0
POLYLINE
  8
22
 66
1
 10
0.0000
 20
0.0000
 30
0.0000
 40
0.1524
 41
0.1524
 70
0
  0
VERTEX
  8
22
 10
11.4272
 20
10.0602
 30
0.0000
  0
VERTEX
  8
22
 10
11.7153
 20
10.0602
 30
0.0000
  0
SEQEND
  8
0
  0
POLYLINE
  8
22
 66
1
 10
0.0000
 20
0.0000
 30
0.0000
 40
0.0762
 41
0.0762
 70
0
  0
VERTEX
  8
22
 10
11.7153
 20
10.0221
 30
0.0000
 42
1.0000
  0
VERTEX
  8
22
 10
11.7153
 20
10.0983
 30
0.0000
  0
SEQEND
  8
0
  0
POLYLINE
  8
22
 66
1
 10
0.0000
 20
0.0000
 30
0.0000
 40
0.0762
 41
0.0762
 70
0
  0
VERTEX
  8
22
 10
11.4272
 20
10.0983
 30
0.0000
 42
1.0000
  0
VERTEX
  8
22
 10
11.4272
 20
10.0221
 30
0.0000
  0
SEQEND
  8
0
  0
POLYLINE
  8
22
 66
1
 10
0.0000
 20
0.0000
 30
0.0000
 40
0.1524
 41
0.1524
 70
0
  0
VERTEX
  8
22
 10
11.7153
 20
10.0602
 30
0.0000
  0
VERTEX
  8
22
 10
11.8593
 20
10.2043
 30
0.0000
  0
SEQEND
  8
0
  0
POLYLINE
  8
22
 66
1
 10
0.0000
 20
0.0000
 30
0.0000
 40
0.0762
 41
0.0762
 70
0
  0
VERTEX
  8
22
 10
11.8863
 20
10.1773
 30
0.0000
 42
1.0000
  0
VERTEX
  8
22
 10
11.8324
 20
10.2312
 30
0.0000
  0
SEQEND
  8
0
  0
POLYLINE
  8
22
 66
1
 10
0.0000
 20
0.0000
 30
0.0000
 40
0.0762
 41
0.0762
 70
0
  0
VERTEX
  8
22
 10
11.6883
 20
10.0871
 30
0.0000
 42
1.0000
  0
VERTEX
  8
22
 10
11.7422
 20
10.0333
 30
0.0000
  0
SEQEND
  8
0
  0
POLYLINE
  8
22
 66
1
 10
0.0000
 20
0.0000
 30
0.0000
 40
0.1524
 41
0.1524
 70
0
  0
VERTEX
  8
22
 10
11.8593
 20
10.2043
 30
0.0000
  0
VERTEX
  8
22
 10
11.8593
 20
10.3483
 30
0.0000
  0
SEQEND
  8
0
  0
POLYLINE
  8
22
 66
1
 10
0.0000
 20
0.0000
 30
0.0000
 40
0.0762
 41
0.0762
 70
0
  0
VERTEX
  8
22
 10
11.8974
 20
10.3483
 30
0.0000
 42
1.0000
  0
VERTEX
  8
22
 10
11.8212
 20
10.3483
 30
0.0000
  0
SEQEND
  8
0
  0
POLYLINE
  8
22
 66
1
 10
0.0000
 20
0.0000
 30
0.0000
 40
0.0762
 41
0.0762
 70
0
  0
VERTEX
  8
22
 10
11.8212
 20
10.2043
 30
0.0000
 42
1.0000
  0
VERTEX
  8
22
 10
11.8974
 20
10.2043
 30
0.0000
  0
SEQEND
  8
0
  0
POLYLINE
  8
22
 66
1
 10
0.0000
 20
0.0000
 30
0.0000
 40
0.1524
 41
0.1524
 70
0
  0
VERTEX
  8
22
 10
11.8593
 20
10.3483
 30
0.0000
  0
VERTEX
  8
22
 10
11.7153
 20
10.4924
 30
0.0000
  0
SEQEND
  8
0
  0
POLYLINE
  8
22
 66
1
 10
0.0000
 20
0.0000
 30
0.0000
 40
0.0762
 41
0.0762
 70
0
  0
VERTEX
  8
22
 10
11.7422
 20
10.5193
 30
0.0000
 42
1.0000
  0
VERTEX
  8
22
 10
11.6883
 20
10.4654
 30
0.0000
  0
SEQEND
  8
0
  0
POLYLINE
  8
22
 66
1
 10
0.0000
 20
0.0000
 30
0.0000
 40
0.0762
 41
0.0762
 70
0
  0
VERTEX
  8
22
 10
11.8324
 20
10.3214
 30
0.0000
 42
1.0000
  0
VERTEX
  8
22
 10
11.8863
 20
10.3753
 30
0.0000
  0
SEQEND
  8
0
  0
POLYLINE
  8
22
 66
1
 10
0.0000
 20
0.0000
 30
0.0000
 40
0.1524
 41
0.1524
 70
0
  0
VERTEX
  8
22
 10
11.7153
 20
10.4924
 30
0.0000
  0
VERTEX
  8
22
 10
11.8593
 20
10.6364
 30
0.0000
  0
SEQEND
  8
0
  0
POLYLINE
  8
22
 66
1
 10
0.0000
 20
0.0000
 30
0.0000
 40
0.0762
 41
0.0762
 70
0
  0
VERTEX
  8
22
 10
11.8863
 20
10.6095
 30
0.0000
 42
1.0000
  0
VERTEX
  8
22
 10
11.8324
 20
10.6634
 30
0.0000
  0
SEQEND
  8
0
  0
POLYLINE
  8
22
 66
1
 10
0.0000
 20
0.0000
 30
0.0000
 40
0.0762
 41
0.0762
 70
0
  0
VERTEX
  8
22
 10
11.6883
 20
10.5193
 30
0.0000
 42
1.0000
  0
VERTEX
  8
22
 10
11.7422
 20
10.4654
 30
0.0000
  0
SEQEND
  8
0
  0
POLYLINE
  8
22
 66
1
 10
0.0000
 20
0.0000
 30
0.0000
 40
0.1524
 41
0.1524
 70
0
  0
VERTEX
  8
22
 10
11.8593
 20
10.6364
 30
0.0000
  0
VERTEX
  8
22
 10
11.8593
 20
10.7805
 30
0.0000
  0
SEQEND
  8
0
  0
POLYLINE
  8
22
 66
1
 10
0.0000
 20
0.0000
 30
0.0000
 40
0.0762
 41
0.0762
 70
0
  0
VERTEX
  8
22
 10
11.8974
 20
10.7805
 30
0.0000
 42
1.0000
  0
VERTEX
  8
22
 10
11.8212
 20
10.7805
 30
0.0000
  0
SEQEND
  8
0
  0
POLYLINE
  8
22
 66
1
 10
0.0000
 20
0.0000
 30
0.0000
 40
0.0762
 41
0.0762
 70
0
  0
VERTEX
  8
22
 10
11.8212
 20
10.6364
 30
0.0000
 42
1.0000
  0
VERTEX
  8
22
 10
11.8974
 20
10.6364
 30
0.0000
  0
SEQEND
  8
0
  0
POLYLINE
  8
22
 66
1
 10
0.0000
 20
0.0000
 30
0.0000
 40
0.1524
 41
0.1524
 70
0
  0
VERTEX
  8
22
 10
11.7153
 20
10.4924
 30
0.0000
  0
VERTEX
  8
22
 10
11.4272
 20
10.4924
 30
0.0000
  0
SEQEND
  8
0
  0
POLYLINE
  8
22
 66
1
 10
0.0000
 20
0.0000
 30
0.0000
 40
0.0762
 41
0.0762
 70
0
  0
VERTEX
  8
22
 10
11.4272
 20
10.5305
 30
0.0000
 42
1.0000
  0
VERTEX
  8
22
 10
11.4272
 20
10.4543
 30
0.0000
  0
SEQEND
  8
0
  0
POLYLINE
  8
22
 66
1
 10
0.0000
 20
0.0000
 30
0.0000
 40
0.0762
 41
0.0762
 70
0
  0
VERTEX
  8
22
 10
11.7153
 20
10.4543
 30
0.0000
 42
1.0000
  0
VERTEX
  8
22
 10
11.7153
 20
10.5305
 30
0.0000
  0
SEQEND
  8
0
  0
POLYLINE
  8
22
 66
1
 10
0.0000
 20
0.0000
 30
0.0000
 40
0.1524
 41
0.1524
 70
0
  0
VERTEX
  8
22
 10
10.9238
 20
10.0602
 30
0.0000
  0
VERTEX
  8
22
 10
10.9238
 20
10.6364
 30
0.0000
  0
SEQEND
  8
0
  0
POLYLINE
  8
22
 66
1
 10
0.0000
 20
0.0000
 30
0.0000
 40
0.0762
 41
0.0762
 70
0
  0
VERTEX
  8
22
 10
10.9619
 20
10.6364
 30
0.0000
 42
1.0000
  0
VERTEX
  8
22
 10
10.8857
 20
10.6364
 30
0.0000
  0
SEQEND
  8
0
  0
POLYLINE
  8
22
 66
1
 10
0.0000
 20
0.0000
 30
0.0000
 40
0.0762
 41
0.0762
 70
0
  0
VERTEX
  8
22
 10
10.8857
 20
10.0602
 30
0.0000
 42
1.0000
  0
VERTEX
  8
22
 10
10.9619
 20
10.0602
 30
0.0000
  0
SEQEND
  8
0
  0
POLYLINE
  8
22
 66
1
 10
0.0000
 20
0.0000
 30
0.0000
 40
0.1524
 41
0.1524
 70
0
  0
VERTEX
  8
22
 10
10.9238
 20
10.6364
 30
0.0000
  0
VERTEX
  8
22
 10
10.7797
 20
10.6364
 30
0.0000
  0
SEQEND
  8
0
  0
POLYLINE
  8
22
 66
1
 10
0.0000
 20
0.0000
 30
0.0000
 40
0.0762
 41
0.0762
 70
0
  0
VERTEX
  8
22
 10
10.7797
 20
10.6745
 30
0.0000
 42
1.0000
  0
VERTEX
  8
22
 10
10.7797
 20
10.5983
 30
0.0000
  0
SEQEND
  8
0
  0
POLYLINE
  8
22
 66
1
 10
0.0000
 20
0.0000
 30
0.0000
 40
0.0762
 41
0.0762
 70
0
  0
VERTEX
  8
22
 10
10.9238
 20
10.5983
 30
0.0000
 42
1.0000
  0
VERTEX
  8
22
 10
10.9238
 20
10.6745
 30
0.0000
  0
SEQEND
  8
0
  0
POLYLINE
  8
22
 66
1
 10
0.0000
 20
0.0000
 30
0.0000
 40
0.1524
 41
0.1524
 70
0
  0
VERTEX
  8
22
 10
10.7797
 20
10.6364
 30
0.0000
  0
VERTEX
  8
22
 10
10.6357
 20
10.4924
 30
0.0000
  0
SEQEND
  8
0
  0
POLYLINE
  8
22
 66
1
 10
0.0000
 20
0.0000
 30
0.0000
 40
0.0762
 41
0.0762
 70
0
  0
VERTEX
  8
22
 10
10.6087
 20
10.5193
 30
0.0000
 42
1.0000
  0
VERTEX
  8
22
 10
10.6626
 20
10.4654
 30
0.0000
  0
SEQEND
  8
0
  0
POLYLINE
  8
22
 66
1
 10
0.0000
 20
0.0000
 30
0.0000
 40
0.0762
 41
0.0762
 70
0
  0
VERTEX
  8
22
 10
10.8067
 20
10.6095
 30
0.0000
 42
1.0000
  0
VERTEX
  8
22
 10
10.7528
 20
10.6634
 30
0.0000
  0
SEQEND
  8
0
  0
POLYLINE
  8
22
 66
1
 10
0.0000
 20
0.0000
 30
0.0000
 40
0.1524
 41
0.1524
 70
0
  0
VERTEX
  8
22
 10
10.6357
 20
10.4924
 30
0.0000
  0
VERTEX
  8
22
 10
10.6357
 20
10.0602
 30
0.0000
  0
SEQEND
  8
0
  0
POLYLINE
  8
22
 66
1
 10
0.0000
 20
0.0000
 30
0.0000
 40
0.0762
 41
0.0762
 70
0
  0
VERTEX
  8
22
 10
10.5976
 20
10.0602
 30
0.0000
 42
1.0000
  0
VERTEX
  8
22
 10
10.6738
 20
10.0602
 30
0.0000
  0
SEQEND
  8
0
  0
POLYLINE
  8
22
 66
1
 10
0.0000
 20
0.0000
 30
0.0000
 40
0.0762
 41
0.0762
 70
0
  0
VERTEX
  8
22
 10
10.6738
 20
10.4924
 30
0.0000
 42
1.0000
  0
VERTEX
  8
22
 10
10.5976
 20
10.4924
 30
0.0000
  0
SEQEND
  8
0
  0
POLYLINE
  8
22
 66
1
 10
0.0000
 20
0.0000
 30
0.0000
 40
0.1524
 41
0.1524
 70
0
  0
VERTEX
  8
22
 10
10.6357
 20
10.4924
 30
0.0000
  0
VERTEX
  8
22
 10
10.4916
 20
10.6364
 30
0.0000
  0
SEQEND
  8
0
  0
POLYLINE
  8
22
 66
1
 10
0.0000
 20
0.0000
 30
0.0000
 40
0.0762
 41
0.0762
 70
0
  0
VERTEX
  8
22
 10
10.5186
 20
10.6634
 30
0.0000
 42
1.0000
  0
VERTEX
  8
22
 10
10.4647
 20
10.6095
 30
0.0000
  0
SEQEND
  8
0
  0
POLYLINE
  8
22
 66
1
 10
0.0000
 20
0.0000
 30
0.0000
 40
0.0762
 41
0.0762
 70
0
  0
VERTEX
  8
22
 10
10.6087
 20
10.4654
 30
0.0000
 42
1.0000
  0
VERTEX
  8
22
 10
10.6626
 20
10.5193
 30
0.0000
  0
SEQEND
  8
0
  0
POLYLINE
  8
22
 66
1
 10
0.0000
 20
0.0000
 30
0.0000
 40
0.1524
 41
0.1524
 70
0
  0
VERTEX
  8
22
 10
10.4916
 20
10.6364
 30
0.0000
  0
VERTEX
  8
22
 10
10.3476
 20
10.4924
 30
0.0000
  0
SEQEND
  8
0
  0
POLYLINE
  8
22
 66
1
 10
0.0000
 20
0.0000
 30
0.0000
 40
0.0762
 41
0.0762
 70
0
  0
VERTEX
  8
22
 10
10.3206
 20
10.5193
 30
0.0000
 42
1.0000
  0
VERTEX
  8
22
 10
10.3745
 20
10.4654
 30
0.0000
  0
SEQEND
  8
0
  0
POLYLINE
  8
22
 66
1
 10
0.0000
 20
0.0000
 30
0.0000
 40
0.0762
 41
0.0762
 70
0
  0
VERTEX
  8
22
 10
10.5186
 20
10.6095
 30
0.0000
 42
1.0000
  0
VERTEX
  8
22
 10
10.4647
 20
10.6634
 30
0.0000
  0
SEQEND
  8
0
  0
POLYLINE
  8
22
 66
1
 10
0.0000
 20
0.0000
 30
0.0000
 40
0.1524
 41
0.1524
 70
0
  0
VERTEX
  8
22
 10
10.3476
 20
10.4924
 30
0.0000
  0
VERTEX
  8
22
 10
10.3476
 20
10.0602
 30
0.0000
  0
SEQEND
  8
0
  0
POLYLINE
  8
22
 66
1
 10
0.0000
 20
0.0000
 30
0.0000
 40
0.0762
 41
0.0762
 70
0
  0
VERTEX
  8
22
 10
10.3095
 20
10.0602
 30
0.0000
 42
1.0000
  0
VERTEX
  8
22
 10
10.3857
 20
10.0602
 30
0.0000
  0
SEQEND
  8
0
  0
POLYLINE
  8
22
 66
1
 10
0.0000
 20
0.0000
 30
0.0000
 40
0.0762
 41
0.0762
 70
0
  0
VERTEX
  8
22
 10
10.3857
 20
10.4924
 30
0.0000
 42
1.0000
  0
VERTEX
  8
22
 10
10.3095
 20
10.4924
 30
0.0000
  0
SEQEND
  8
0
  0
POLYLINE
  8
22
 66
1
 10
0.0000
 20
0.0000
 30
0.0000
 40
0.1524
 41
0.1524
 70
0
  0
VERTEX
  8
22
 10
9.9883
 20
10.0602
 30
0.0000
  0
VERTEX
  8
22
 10
9.9883
 20
10.6364
 30
0.0000
  0
SEQEND
  8
0
  0
POLYLINE
  8
22
 66
1
 10
0.0000
 20
0.0000
 30
0.0000
 40
0.0762
 41
0.0762
 70
0
  0
VERTEX
  8
22
 10
10.0264
 20
10.6364
 30
0.0000
 42
1.0000
  0
VERTEX
  8
22
 10
9.9502
 20
10.6364
 30
0.0000
  0
SEQEND
  8
0
  0
POLYLINE
  8
22
 66
1
 10
0.0000
 20
0.0000
 30
0.0000
 40
0.0762
 41
0.0762
 70
0
  0
VERTEX
  8
22
 10
9.9502
 20
10.0602
 30
0.0000
 42
1.0000
  0
VERTEX
  8
22
 10
10.0264
 20
10.0602
 30
0.0000
  0
SEQEND
  8
0
  0
POLYLINE
  8
22
 66
1
 10
0.0000
 20
0.0000
 30
0.0000
 40
0.1524
 41
0.1524
 70
0
  0
VERTEX
  8
22
 10
9.9883
 20
10.6364
 30
0.0000
  0
VERTEX
  8
22
 10
9.8442
 20
10.6364
 30
0.0000
  0
SEQEND
  8
0
  0
POLYLINE
  8
22
 66
1
 10
0.0000
 20
0.0000
 30
0.0000
 40
0.0762
 41
0.0762
 70
0
  0
VERTEX
  8
22
 10
9.8442
 20
10.6745
 30
0.0000
 42
1.0000
  0
VERTEX
  8
22
 10
9.8442
 20
10.5983
 30
0.0000
  0
SEQEND
  8
0
  0
POLYLINE
  8
22
 66
1
 10
0.0000
 20
0.0000
 30
0.0000
 40
0.0762
 41
0.0762
 70
0
  0
VERTEX
  8
22
 10
9.9883
 20
10.5983
 30
0.0000
 42
1.0000
  0
VERTEX
  8
22
 10
9.9883
 20
10.6745
 30
0.0000
  0
SEQEND
  8
0
  0
POLYLINE
  8
22
 66
1
 10
0.0000
 20
0.0000
 30
0.0000
 40
0.1524
 41
0.1524
 70
0
  0
VERTEX
  8
22
 10
9.8442
 20
10.6364
 30
0.0000
  0
VERTEX
  8
22
 10
9.7002
 20
10.4924
 30
0.0000
  0
SEQEND
  8
0
  0
POLYLINE
  8
22
 66
1
 10
0.0000
 20
0.0000
 30
0.0000
 40
0.0762
 41
0.0762
 70
0
  0
VERTEX
  8
22
 10
9.6732
 20
10.5193
 30
0.0000
 42
1.0000
  0
VERTEX
  8
22
 10
9.7271
 20
10.4654
 30
0.0000
  0
SEQEND
  8
0
  0
POLYLINE
  8
22
 66
1
 10
0.0000
 20
0.0000
 30
0.0000
 40
0.0762
 41
0.0762
 70
0
  0
VERTEX
  8
22
 10
9.8712
 20
10.6095
 30
0.0000
 42
1.0000
  0
VERTEX
  8
22
 10
9.8173
 20
10.6634
 30
0.0000
  0
SEQEND
  8
0
  0
POLYLINE
  8
22
 66
1
 10
0.0000
 20
0.0000
 30
0.0000
 40
0.1524
 41
0.1524
 70
0
  0
VERTEX
  8
22
 10
9.7002
 20
10.4924
 30
0.0000
  0
VERTEX
  8
22
 10
9.7002
 20
10.0602
 30
0.0000
  0
SEQEND
  8
0
  0
POLYLINE
  8
22
 66
1
 10
0.0000
 20
0.0000
 30
0.0000
 40
0.0762
 41
0.0762
 70
0
  0
VERTEX
  8
22
 10
9.6621
 20
10.0602
 30
0.0000
 42
1.0000
  0
VERTEX
  8
22
 10
9.7383
 20
10.0602
 30
0.0000
  0
SEQEND
  8
0
  0
POLYLINE
  8
22
 66
1
 10
0.0000
 20
0.0000
 30
0.0000
 40
0.0762
 41
0.0762
 70
0
  0
VERTEX
  8
22
 10
9.7383
 20
10.4924
 30
0.0000
 42
1.0000
  0
VERTEX
  8
22
 10
9.6621
 20
10.4924
 30
0.0000
  0
SEQEND
  8
0
  0
POLYLINE
  8
22
 66
1
 10
0.0000
 20
0.0000
 30
0.0000
 40
0.1524
 41
0.1524
 70
0
  0
VERTEX
  8
22
 10
9.7002
 20
10.4924
 30
0.0000
  0
VERTEX
  8
22
 10
9.5561
 20
10.6364
 30
0.0000
  0
SEQEND
  8
0
  0
POLYLINE
  8
22
 66
1
 10
0.0000
 20
0.0000
 30
0.0000
 40
0.0762
 41
0.0762
 70
0
  0
VERTEX
  8
22
 10
9.5831
 20
10.6634
 30
0.0000
 42
1.0000
  0
VERTEX
  8
22
 10
9.5292
 20
10.6095
 30
0.0000
  0
SEQEND
  8
0
  0
POLYLINE
  8
22
 66
1
 10
0.0000
 20
0.0000
 30
0.0000
 40
0.0762
 41
0.0762
 70
0
  0
VERTEX
  8
22
 10
9.6732
 20
10.4654
 30
0.0000
 42
1.0000
  0
VERTEX
  8
22
 10
9.7271
 20
10.5193
 30
0.0000
  0
SEQEND
  8
0
  0
POLYLINE
  8
22
 66
1
 10
0.0000
 20
0.0000
 30
0.0000
 40
0.1524
 41
0.1524
 70
0
  0
VERTEX
  8
22
 10
9.5561
 20
10.6364
 30
0.0000
  0
VERTEX
  8
22
 10
9.4121
 20
10.4924
 30
0.0000
  0
SEQEND
  8
0
  0
POLYLINE
  8
22
 66
1
 10
0.0000
 20
0.0000
 30
0.0000
 40
0.0762
 41
0.0762
 70
0
  0
VERTEX
  8
22
 10
9.3851
 20
10.5193
 30
0.0000
 42
1.0000
  0
VERTEX
  8
22
 10
9.4390
 20
10.4654
 30
0.0000
  0
SEQEND
  8
0
  0
POLYLINE
  8
22
 66
1
 10
0.0000
 20
0.0000
 30
0.0000
 40
0.0762
 41
0.0762
 70
0
  0
VERTEX
  8
22
 10
9.5831
 20
10.6095
 30
0.0000
 42
1.0000
  0
VERTEX
  8
22
 10
9.5292
 20
10.6634
 30
0.0000
  0
SEQEND
  8
0
  0
POLYLINE
  8
22
 66
1
 10
0.0000
 20
0.0000
 30
0.0000
 40
0.1524
 41
0.1524
 70
0
  0
VERTEX
  8
22
 10
9.4121
 20
10.4924
 30
0.0000
  0
VERTEX
  8
22
 10
9.4121
 20
10.0602
 30
0.0000
  0
SEQEND
  8
0
  0
POLYLINE
  8
22
 66
1
 10
0.0000
 20
0.0000
 30
0.0000
 40
0.0762
 41
0.0762
 70
0
  0
VERTEX
  8
22
 10
9.3740
 20
10.0602
 30
0.0000
 42
1.0000
  0
VERTEX
  8
22
 10
9.4502
 20
10.0602
 30
0.0000
  0
SEQEND
  8
0
  0
POLYLINE
  8
22
 66
1
 10
0.0000
 20
0.0000
 30
0.0000
 40
0.0762
 41
0.0762
 70
0
  0
VERTEX
  8
22
 10
9.4502
 20
10.4924
 30
0.0000
 42
1.0000
  0
VERTEX
  8
22
 10
9.3740
 20
10.4924
 30
0.0000
  0
SEQEND
  8
0
  0
POLYLINE
  8
22
 66
1
 10
0.0000
 20
0.0000
 30
0.0000
 40
0.1270
 41
0.1270
 70
0
  0
VERTEX
  8
22
 10
24.6219
 20
12.1663
 30
0.0000
  0
VERTEX
  8
22
 10
24.0961
 20
12.6075
 30
0.0000
  0
SEQEND
  8
0
  0
POLYLINE
  8
22
 66
1
 10
0.0000
 20
0.0000
 30
0.0000
 40
0.0635
 41
0.0635
 70
0
  0
VERTEX
  8
22
 10
24.1165
 20
12.6318
 30
0.0000
 42
1.0000
  0
VERTEX
  8
22
 10
24.0757
 20
12.5832
 30
0.0000
  0
SEQEND
  8
0
  0
POLYLINE
  8
22
 66
1
 10
0.0000
 20
0.0000
 30
0.0000
 40
0.0635
 41
0.0635
 70
0
  0
VERTEX
  8
22
 10
24.6015
 20
12.1420
 30
0.0000
 42
1.0000
  0
VERTEX
  8
22
 10
24.6423
 20
12.1906
 30
0.0000
  0
SEQEND
  8
0
  0
POLYLINE
  8
22
 66
1
 10
0.0000
 20
0.0000
 30
0.0000
 40
0.1270
 41
0.1270
 70
0
  0
VERTEX
  8
22
 10
24.0961
 20
12.6075
 30
0.0000
  0
VERTEX
  8
22
 10
23.8020
 20
12.2570
 30
0.0000
  0
SEQEND
  8
0
  0
POLYLINE
  8
22
 66
1
 10
0.0000
 20
0.0000
 30
0.0000
 40
0.0635
 41
0.0635
 70
0
  0
VERTEX
  8
22
 10
23.7776
 20
12.2774
 30
0.0000
 42
1.0000
  0
VERTEX
  8
22
 10
23.8263
 20
12.2366
 30
0.0000
  0
SEQEND
  8
0
  0
POLYLINE
  8
22
 66
1
 10
0.0000
 20
0.0000
 30
0.0000
 40
0.0635
 41
0.0635
 70
0
  0
VERTEX
  8
22
 10
24.1204
 20
12.5871
 30
0.0000
 42
1.0000
  0
VERTEX
  8
22
 10
24.0718
 20
12.6279
 30
0.0000
  0
SEQEND
  8
0
  0
POLYLINE
  8
22
 66
1
 10
0.0000
 20
0.0000
 30
0.0000
 40
0.1270
 41
0.1270
 70
0
  0
VERTEX
  8
22
 10
24.3590
 20
12.3869
 30
0.0000
  0
VERTEX
  8
22
 10
24.2119
 20
12.2116
 30
0.0000
  0
SEQEND
  8
0
  0
POLYLINE
  8
22
 66
1
 10
0.0000
 20
0.0000
 30
0.0000
 40
0.0635
 41
0.0635
 70
0
  0
VERTEX
  8
22
 10
24.1876
 20
12.2320
 30
0.0000
 42
1.0000
  0
VERTEX
  8
22
 10
24.2363
 20
12.1912
 30
0.0000
  0
SEQEND
  8
0
  0
POLYLINE
  8
22
 66
1
 10
0.0000
 20
0.0000
 30
0.0000
 40
0.0635
 41
0.0635
 70
0
  0
VERTEX
  8
22
 10
24.3833
 20
12.3665
 30
0.0000
 42
1.0000
  0
VERTEX
  8
22
 10
24.3347
 20
12.4073
 30
0.0000
  0
SEQEND
  8
0
  0
POLYLINE
  8
22
 66
1
 10
0.0000
 20
0.0000
 30
0.0000
 40
0.1270
 41
0.1270
 70
0
  0
VERTEX
  8
22
 10
24.0673
 20
11.5054
 30
0.0000
  0
VERTEX
  8
22
 10
23.9202
 20
11.3301
 30
0.0000
  0
SEQEND
  8
0
  0
POLYLINE
  8
22
 66
1
 10
0.0000
 20
0.0000
 30
0.0000
 40
0.0635
 41
0.0635
 70
0
  0
VERTEX
  8
22
 10
23.8959
 20
11.3505
 30
0.0000
 42
1.0000
  0
VERTEX
  8
22
 10
23.9446
 20
11.3097
 30
0.0000
  0
SEQEND
  8
0
  0
POLYLINE
  8
22
 66
1
 10
0.0000
 20
0.0000
 30
0.0000
 40
0.0635
 41
0.0635
 70
0
  0
VERTEX
  8
22
 10
24.0916
 20
11.4849
 30
0.0000
 42
1.0000
  0
VERTEX
  8
22
 10
24.0430
 20
11.5258
 30
0.0000
  0
SEQEND
  8
0
  0
POLYLINE
  8
22
 66
1
 10
0.0000
 20
0.0000
 30
0.0000
 40
0.1270
 41
0.1270
 70
0
  0
VERTEX
  8
22
 10
23.9202
 20
11.3301
 30
0.0000
  0
VERTEX
  8
22
 10
23.7591
 20
11.3160
 30
0.0000
  0
SEQEND
  8
0
  0
POLYLINE
  8
22
 66
1
 10
0.0000
 20
0.0000
 30
0.0000
 40
0.0635
 41
0.0635
 70
0
  0
VERTEX
  8
22
 10
23.7563
 20
11.3476
 30
0.0000
 42
1.0000
  0
VERTEX
  8
22
 10
23.7618
 20
11.2844
 30
0.0000
  0
SEQEND
  8
0
  0
POLYLINE
  8
22
 66
1
 10
0.0000
 20
0.0000
 30
0.0000
 40
0.0635
 41
0.0635
 70
0
  0
VERTEX
  8
22
 10
23.9230
 20
11.2985
 30
0.0000
 42
1.0000
  0
VERTEX
  8
22
 10
23.9175
 20
11.3617
 30
0.0000
  0
SEQEND
  8
0
  0
POLYLINE
  8
22
 66
1
 10
0.0000
 20
0.0000
 30
0.0000
 40
0.1270
 41
0.1270
 70
0
  0
VERTEX
  8
22
 10
23.7591
 20
11.3160
 30
0.0000
  0
VERTEX
  8
22
 10
23.5838
 20
11.4631
 30
0.0000
  0
SEQEND
  8
0
  0
POLYLINE
  8
22
 66
1
 10
0.0000
 20
0.0000
 30
0.0000
 40
0.0635
 41
0.0635
 70
0
  0
VERTEX
  8
22
 10
23.6042
 20
11.4874
 30
0.0000
 42
1.0000
  0
VERTEX
  8
22
 10
23.5634
 20
11.4387
 30
0.0000
  0
SEQEND
  8
0
  0
POLYLINE
  8
22
 66
1
 10
0.0000
 20
0.0000
 30
0.0000
 40
0.0635
 41
0.0635
 70
0
  0
VERTEX
  8
22
 10
23.7387
 20
11.2917
 30
0.0000
 42
1.0000
  0
VERTEX
  8
22
 10
23.7795
 20
11.3403
 30
0.0000
  0
SEQEND
  8
0
  0
POLYLINE
  8
22
 66
1
 10
0.0000
 20
0.0000
 30
0.0000
 40
0.1270
 41
0.1270
 70
0
  0
VERTEX
  8
22
 10
23.5838
 20
11.4631
 30
0.0000
  0
VERTEX
  8
22
 10
23.5697
 20
11.6242
 30
0.0000
  0
SEQEND
  8
0
  0
POLYLINE
  8
22
 66
1
 10
0.0000
 20
0.0000
 30
0.0000
 40
0.0635
 41
0.0635
 70
0
  0
VERTEX
  8
22
 10
23.6013
 20
11.6270
 30
0.0000
 42
1.0000
  0
VERTEX
  8
22
 10
23.5381
 20
11.6215
 30
0.0000
  0
SEQEND
  8
0
  0
POLYLINE
  8
22
 66
1
 10
0.0000
 20
0.0000
 30
0.0000
 40
0.0635
 41
0.0635
 70
0
  0
VERTEX
  8
22
 10
23.5522
 20
11.4603
 30
0.0000
 42
1.0000
  0
VERTEX
  8
22
 10
23.6154
 20
11.4658
 30
0.0000
  0
SEQEND
  8
0
  0
POLYLINE
  8
22
 66
1
 10
0.0000
 20
0.0000
 30
0.0000
 40
0.1270
 41
0.1270
 70
0
  0
VERTEX
  8
22
 10
23.5697
 20
11.6242
 30
0.0000
  0
VERTEX
  8
22
 10
23.7168
 20
11.7995
 30
0.0000
  0
SEQEND
  8
0
  0
POLYLINE
  8
22
 66
1
 10
0.0000
 20
0.0000
 30
0.0000
 40
0.0635
 41
0.0635
 70
0
  0
VERTEX
  8
22
 10
23.7411
 20
11.7791
 30
0.0000
 42
1.0000
  0
VERTEX
  8
22
 10
23.6924
 20
11.8199
 30
0.0000
  0
SEQEND
  8
0
  0
POLYLINE
  8
22
 66
1
 10
0.0000
 20
0.0000
 30
0.0000
 40
0.0635
 41
0.0635
 70
0
  0
VERTEX
  8
22
 10
23.5454
 20
11.6446
 30
0.0000
 42
1.0000
  0
VERTEX
  8
22
 10
23.5940
 20
11.6038
 30
0.0000
  0
SEQEND
  8
0
  0
POLYLINE
  8
22
 66
1
 10
0.0000
 20
0.0000
 30
0.0000
 40
0.1270
 41
0.1270
 70
0
  0
VERTEX
  8
22
 10
23.7168
 20
11.7995
 30
0.0000
  0
VERTEX
  8
22
 10
23.8779
 20
11.8136
 30
0.0000
  0
SEQEND
  8
0
  0
POLYLINE
  8
22
 66
1
 10
0.0000
 20
0.0000
 30
0.0000
 40
0.0635
 41
0.0635
 70
0
  0
VERTEX
  8
22
 10
23.8807
 20
11.7820
 30
0.0000
 42
1.0000
  0
VERTEX
  8
22
 10
23.8752
 20
11.8452
 30
0.0000
  0
SEQEND
  8
0
  0
POLYLINE
  8
22
 66
1
 10
0.0000
 20
0.0000
 30
0.0000
 40
0.0635
 41
0.0635
 70
0
  0
VERTEX
  8
22
 10
23.7140
 20
11.8311
 30
0.0000
 42
1.0000
  0
VERTEX
  8
22
 10
23.7195
 20
11.7679
 30
0.0000
  0
SEQEND
  8
0
  0
POLYLINE
  8
22
 66
1
 10
0.0000
 20
0.0000
 30
0.0000
 40
0.1270
 41
0.1270
 70
0
  0
VERTEX
  8
22
 10
23.8779
 20
11.8136
 30
0.0000
  0
VERTEX
  8
22
 10
24.0532
 20
11.6665
 30
0.0000
  0
SEQEND
  8
0
  0
POLYLINE
  8
22
 66
1
 10
0.0000
 20
0.0000
 30
0.0000
 40
0.0635
 41
0.0635
 70
0
  0
VERTEX
  8
22
 10
24.0328
 20
11.6422
 30
0.0000
 42
1.0000
  0
VERTEX
  8
22
 10
24.0736
 20
11.6908
 30
0.0000
  0
SEQEND
  8
0
  0
POLYLINE
  8
22
 66
1
 10
0.0000
 20
0.0000
 30
0.0000
 40
0.0635
 41
0.0635
 70
0
  0
VERTEX
  8
22
 10
23.8983
 20
11.8379
 30
0.0000
 42
1.0000
  0
VERTEX
  8
22
 10
23.8575
 20
11.7893
 30
0.0000
  0
SEQEND
  8
0
  0
POLYLINE
  8
22
 66
1
 10
0.0000
 20
0.0000
 30
0.0000
 40
0.1270
 41
0.1270
 70
0
  0
VERTEX
  8
22
 10
24.0532
 20
11.6665
 30
0.0000
  0
VERTEX
  8
22
 10
24.0673
 20
11.5054
 30
0.0000
  0
SEQEND
  8
0
  0
POLYLINE
  8
22
 66
1
 10
0.0000
 20
0.0000
 30
0.0000
 40
0.0635
 41
0.0635
 70
0
  0
VERTEX
  8
22
 10
24.0357
 20
11.5026
 30
0.0000
 42
1.0000
  0
VERTEX
  8
22
 10
24.0989
 20
11.5081
 30
0.0000
  0
SEQEND
  8
0
  0
POLYLINE
  8
22
 66
1
 10
0.0000
 20
0.0000
 30
0.0000
 40
0.0635
 41
0.0635
 70
0
  0
VERTEX
  8
22
 10
24.0848
 20
11.6693
 30
0.0000
 42
1.0000
  0
VERTEX
  8
22
 10
24.0216
 20
11.6638
 30
0.0000
  0
SEQEND
  8
0
  0
POLYLINE
  8
22
 66
1
 10
0.0000
 20
0.0000
 30
0.0000
 40
0.1270
 41
0.1270
 70
0
  0
VERTEX
  8
22
 10
23.6598
 20
11.0197
 30
0.0000
  0
VERTEX
  8
22
 10
23.3092
 20
11.3138
 30
0.0000
  0
SEQEND
  8
0
  0
POLYLINE
  8
22
 66
1
 10
0.0000
 20
0.0000
 30
0.0000
 40
0.0635
 41
0.0635
 70
0
  0
VERTEX
  8
22
 10
23.3296
 20
11.3381
 30
0.0000
 42
1.0000
  0
VERTEX
  8
22
 10
23.2888
 20
11.2895
 30
0.0000
  0
SEQEND
  8
0
  0
POLYLINE
  8
22
 66
1
 10
0.0000
 20
0.0000
 30
0.0000
 40
0.0635
 41
0.0635
 70
0
  0
VERTEX
  8
22
 10
23.6393
 20
10.9953
 30
0.0000
 42
1.0000
  0
VERTEX
  8
22
 10
23.6802
 20
11.0440
 30
0.0000
  0
SEQEND
  8
0
  0
POLYLINE
  8
22
 66
1
 10
0.0000
 20
0.0000
 30
0.0000
 40
0.1270
 41
0.1270
 70
0
  0
VERTEX
  8
22
 10
23.4845
 20
11.1667
 30
0.0000
  0
VERTEX
  8
22
 10
23.1622
 20
11.1385
 30
0.0000
  0
SEQEND
  8
0
  0
POLYLINE
  8
22
 66
1
 10
0.0000
 20
0.0000
 30
0.0000
 40
0.0635
 41
0.0635
 70
0
  0
VERTEX
  8
22
 10
23.1594
 20
11.1702
 30
0.0000
 42
1.0000
  0
VERTEX
  8
22
 10
23.1649
 20
11.1069
 30
0.0000
  0
SEQEND
  8
0
  0
POLYLINE
  8
22
 66
1
 10
0.0000
 20
0.0000
 30
0.0000
 40
0.0635
 41
0.0635
 70
0
  0
VERTEX
  8
22
 10
23.4873
 20
11.1351
 30
0.0000
 42
1.0000
  0
VERTEX
  8
22
 10
23.4817
 20
11.1984
 30
0.0000
  0
SEQEND
  8
0
  0
POLYLINE
  8
22
 66
1
 10
0.0000
 20
0.0000
 30
0.0000
 40
0.1270
 41
0.1270
 70
0
  0
VERTEX
  8
22
 10
23.1622
 20
11.1385
 30
0.0000
  0
VERTEX
  8
22
 10
23.0886
 20
11.0509
 30
0.0000
  0
SEQEND
  8
0
  0
POLYLINE
  8
22
 66
1
 10
0.0000
 20
0.0000
 30
0.0000
 40
0.0635
 41
0.0635
 70
0
  0
VERTEX
  8
22
 10
23.0643
 20
11.0713
 30
0.0000
 42
1.0000
  0
VERTEX
  8
22
 10
23.1129
 20
11.0305
 30
0.0000
  0
SEQEND
  8
0
  0
POLYLINE
  8
22
 66
1
 10
0.0000
 20
0.0000
 30
0.0000
 40
0.0635
 41
0.0635
 70
0
  0
VERTEX
  8
22
 10
23.1865
 20
11.1181
 30
0.0000
 42
1.0000
  0
VERTEX
  8
22
 10
23.1378
 20
11.1589
 30
0.0000
  0
SEQEND
  8
0
  0
POLYLINE
  8
22
 66
1
 10
0.0000
 20
0.0000
 30
0.0000
 40
0.1270
 41
0.1270
 70
0
  0
VERTEX
  8
22
 10
22.7778
 20
9.9686
 30
0.0000
  0
VERTEX
  8
22
 10
22.2520
 20
10.4098
 30
0.0000
  0
SEQEND
  8
0
  0
POLYLINE
  8
22
 66
1
 10
0.0000
 20
0.0000
 30
0.0000
 40
0.0635
 41
0.0635
 70
0
  0
VERTEX
  8
22
 10
22.2724
 20
10.4341
 30
0.0000
 42
1.0000
  0
VERTEX
  8
22
 10
22.2316
 20
10.3855
 30
0.0000
  0
SEQEND
  8
0
  0
POLYLINE
  8
22
 66
1
 10
0.0000
 20
0.0000
 30
0.0000
 40
0.0635
 41
0.0635
 70
0
  0
VERTEX
  8
22
 10
22.7574
 20
9.9443
 30
0.0000
 42
1.0000
  0
VERTEX
  8
22
 10
22.7982
 20
9.9929
 30
0.0000
  0
SEQEND
  8
0
  0
POLYLINE
  8
22
 66
1
 10
0.0000
 20
0.0000
 30
0.0000
 40
0.1270
 41
0.1270
 70
0
  0
VERTEX
  8
22
 10
22.2520
 20
10.4098
 30
0.0000
  0
VERTEX
  8
22
 10
22.0314
 20
10.1469
 30
0.0000
  0
SEQEND
  8
0
  0
POLYLINE
  8
22
 66
1
 10
0.0000
 20
0.0000
 30
0.0000
 40
0.0635
 41
0.0635
 70
0
  0
VERTEX
  8
22
 10
22.0071
 20
10.1673
 30
0.0000
 42
1.0000
  0
VERTEX
  8
22
 10
22.0557
 20
10.1265
 30
0.0000
  0
SEQEND
  8
0
  0
POLYLINE
  8
22
 66
1
 10
0.0000
 20
0.0000
 30
0.0000
 40
0.0635
 41
0.0635
 70
0
  0
VERTEX
  8
22
 10
22.2763
 20
10.3894
 30
0.0000
 42
1.0000
  0
VERTEX
  8
22
 10
22.2277
 20
10.4302
 30
0.0000
  0
SEQEND
  8
0
  0
POLYLINE
  8
22
 66
1
 10
0.0000
 20
0.0000
 30
0.0000
 40
0.1270
 41
0.1270
 70
0
  0
VERTEX
  8
22
 10
22.0314
 20
10.1469
 30
0.0000
  0
VERTEX
  8
22
 10
22.0455
 20
9.9857
 30
0.0000
  0
SEQEND
  8
0
  0
POLYLINE
  8
22
 66
1
 10
0.0000
 20
0.0000
 30
0.0000
 40
0.0635
 41
0.0635
 70
0
  0
VERTEX
  8
22
 10
22.0139
 20
9.9829
 30
0.0000
 42
1.0000
  0
VERTEX
  8
22
 10
22.0771
 20
9.9885
 30
0.0000
  0
SEQEND
  8
0
  0
POLYLINE
  8
22
 66
1
 10
0.0000
 20
0.0000
 30
0.0000
 40
0.0635
 41
0.0635
 70
0
  0
VERTEX
  8
22
 10
22.0630
 20
10.1496
 30
0.0000
 42
1.0000
  0
VERTEX
  8
22
 10
21.9998
 20
10.1441
 30
0.0000
  0
SEQEND
  8
0
  0
POLYLINE
  8
22
 66
1
 10
0.0000
 20
0.0000
 30
0.0000
 40
0.1270
 41
0.1270
 70
0
  0
VERTEX
  8
22
 10
22.0455
 20
9.9857
 30
0.0000
  0
VERTEX
  8
22
 10
22.2208
 20
9.8386
 30
0.0000
  0
SEQEND
  8
0
  0
POLYLINE
  8
22
 66
1
 10
0.0000
 20
0.0000
 30
0.0000
 40
0.0635
 41
0.0635
 70
0
  0
VERTEX
  8
22
 10
22.2004
 20
9.8143
 30
0.0000
 42
1.0000
  0
VERTEX
  8
22
 10
22.2412
 20
9.8630
 30
0.0000
  0
SEQEND
  8
0
  0
POLYLINE
  8
22
 66
1
 10
0.0000
 20
0.0000
 30
0.0000
 40
0.0635
 41
0.0635
 70
0
  0
VERTEX
  8
22
 10
22.0659
 20
10.0100
 30
0.0000
 42
1.0000
  0
VERTEX
  8
22
 10
22.0251
 20
9.9614
 30
0.0000
  0
SEQEND
  8
0
  0
POLYLINE
  8
22
 66
1
 10
0.0000
 20
0.0000
 30
0.0000
 40
0.1270
 41
0.1270
 70
0
  0
VERTEX
  8
22
 10
22.2208
 20
9.8386
 30
0.0000
  0
VERTEX
  8
22
 10
22.3819
 20
9.8527
 30
0.0000
  0
SEQEND
  8
0
  0
POLYLINE
  8
22
 66
1
 10
0.0000
 20
0.0000
 30
0.0000
 40
0.0635
 41
0.0635
 70
0
  0
VERTEX
  8
22
 10
22.3847
 20
9.8211
 30
0.0000
 42
1.0000
  0
VERTEX
  8
22
 10
22.3792
 20
9.8844
 30
0.0000
  0
SEQEND
  8
0
  0
POLYLINE
  8
22
 66
1
 10
0.0000
 20
0.0000
 30
0.0000
 40
0.0635
 41
0.0635
 70
0
  0
VERTEX
  8
22
 10
22.2180
 20
9.8703
 30
0.0000
 42
1.0000
  0
VERTEX
  8
22
 10
22.2235
 20
9.8070
 30
0.0000
  0
SEQEND
  8
0
  0
POLYLINE
  8
22
 66
1
 10
0.0000
 20
0.0000
 30
0.0000
 40
0.1270
 41
0.1270
 70
0
  0
VERTEX
  8
22
 10
22.3819
 20
9.8527
 30
0.0000
  0
VERTEX
  8
22
 10
22.6025
 20
10.1156
 30
0.0000
  0
SEQEND
  8
0
  0
POLYLINE
  8
22
 66
1
 10
0.0000
 20
0.0000
 30
0.0000
 40
0.0635
 41
0.0635
 70
0
  0
VERTEX
  8
22
 10
22.6269
 20
10.0952
 30
0.0000
 42
1.0000
  0
VERTEX
  8
22
 10
22.5782
 20
10.1361
 30
0.0000
  0
SEQEND
  8
0
  0
POLYLINE
  8
22
 66
1
 10
0.0000
 20
0.0000
 30
0.0000
 40
0.0635
 41
0.0635
 70
0
  0
VERTEX
  8
22
 10
22.3576
 20
9.8732
 30
0.0000
 42
1.0000
  0
VERTEX
  8
22
 10
22.4063
 20
9.8323
 30
0.0000
  0
SEQEND
  8
0
  0
POLYLINE
  8
22
 66
1
 10
0.0000
 20
0.0000
 30
0.0000
 40
0.1270
 41
0.1270
 70
0
  0
VERTEX
  8
22
 10
22.4555
 20
9.9404
 30
0.0000
  0
VERTEX
  8
22
 10
22.4837
 20
9.6180
 30
0.0000
  0
SEQEND
  8
0
  0
POLYLINE
  8
22
 66
1
 10
0.0000
 20
0.0000
 30
0.0000
 40
0.0635
 41
0.0635
 70
0
  0
VERTEX
  8
22
 10
22.4520
 20
9.6153
 30
0.0000
 42
1.0000
  0
VERTEX
  8
22
 10
22.5153
 20
9.6208
 30
0.0000
  0
SEQEND
  8
0
  0
POLYLINE
  8
22
 66
1
 10
0.0000
 20
0.0000
 30
0.0000
 40
0.0635
 41
0.0635
 70
0
  0
VERTEX
  8
22
 10
22.4871
 20
9.9431
 30
0.0000
 42
1.0000
  0
VERTEX
  8
22
 10
22.4238
 20
9.9376
 30
0.0000
  0
SEQEND
  8
0
  0
POLYLINE
  8
22
 66
1
 10
0.0000
 20
0.0000
 30
0.0000
 40
0.1270
 41
0.1270
 70
0
  0
VERTEX
  8
22
 10
22.0761
 20
9.1324
 30
0.0000
  0
VERTEX
  8
22
 10
22.2232
 20
9.3076
 30
0.0000
  0
SEQEND
  8
0
  0
POLYLINE
  8
22
 66
1
 10
0.0000
 20
0.0000
 30
0.0000
 40
0.0635
 41
0.0635
 70
0
  0
VERTEX
  8
22
 10
22.2475
 20
9.2872
 30
0.0000
 42
1.0000
  0
VERTEX
  8
22
 10
22.1989
 20
9.3280
 30
0.0000
  0
SEQEND
  8
0
  0
POLYLINE
  8
22
 66
1
 10
0.0000
 20
0.0000
 30
0.0000
 40
0.0635
 41
0.0635
 70
0
  0
VERTEX
  8
22
 10
22.0518
 20
9.1528
 30
0.0000
 42
1.0000
  0
VERTEX
  8
22
 10
22.1004
 20
9.1119
 30
0.0000
  0
SEQEND
  8
0
  0
POLYLINE
  8
22
 66
1
 10
0.0000
 20
0.0000
 30
0.0000
 40
0.1270
 41
0.1270
 70
0
  0
VERTEX
  8
22
 10
22.2232
 20
9.3076
 30
0.0000
  0
VERTEX
  8
22
 10
22.2091
 20
9.4688
 30
0.0000
  0
SEQEND
  8
0
  0
POLYLINE
  8
22
 66
1
 10
0.0000
 20
0.0000
 30
0.0000
 40
0.0635
 41
0.0635
 70
0
  0
VERTEX
  8
22
 10
22.2407
 20
9.4716
 30
0.0000
 42
1.0000
  0
VERTEX
  8
22
 10
22.1775
 20
9.4660
 30
0.0000
  0
SEQEND
  8
0
  0
POLYLINE
  8
22
 66
1
 10
0.0000
 20
0.0000
 30
0.0000
 40
0.0635
 41
0.0635
 70
0
  0
VERTEX
  8
22
 10
22.1916
 20
9.3049
 30
0.0000
 42
1.0000
  0
VERTEX
  8
22
 10
22.2548
 20
9.3104
 30
0.0000
  0
SEQEND
  8
0
  0
POLYLINE
  8
22
 66
1
 10
0.0000
 20
0.0000
 30
0.0000
 40
0.1270
 41
0.1270
 70
0
  0
VERTEX
  8
22
 10
22.2091
 20
9.4688
 30
0.0000
  0
VERTEX
  8
22
 10
22.0338
 20
9.6159
 30
0.0000
  0
SEQEND
  8
0
  0
POLYLINE
  8
22
 66
1
 10
0.0000
 20
0.0000
 30
0.0000
 40
0.0635
 41
0.0635
 70
0
  0
VERTEX
  8
22
 10
22.0542
 20
9.6402
 30
0.0000
 42
1.0000
  0
VERTEX
  8
22
 10
22.0134
 20
9.5915
 30
0.0000
  0
SEQEND
  8
0
  0
POLYLINE
  8
22
 66
1
 10
0.0000
 20
0.0000
 30
0.0000
 40
0.0635
 41
0.0635
 70
0
  0
VERTEX
  8
22
 10
22.1887
 20
9.4445
 30
0.0000
 42
1.0000
  0
VERTEX
  8
22
 10
22.2295
 20
9.4931
 30
0.0000
  0
SEQEND
  8
0
  0
POLYLINE
  8
22
 66
1
 10
0.0000
 20
0.0000
 30
0.0000
 40
0.1270
 41
0.1270
 70
0
  0
VERTEX
  8
22
 10
22.0338
 20
9.6159
 30
0.0000
  0
VERTEX
  8
22
 10
21.8727
 20
9.6018
 30
0.0000
  0
SEQEND
  8
0
  0
POLYLINE
  8
22
 66
1
 10
0.0000
 20
0.0000
 30
0.0000
 40
0.0635
 41
0.0635
 70
0
  0
VERTEX
  8
22
 10
21.8699
 20
9.6334
 30
0.0000
 42
1.0000
  0
VERTEX
  8
22
 10
21.8754
 20
9.5701
 30
0.0000
  0
SEQEND
  8
0
  0
POLYLINE
  8
22
 66
1
 10
0.0000
 20
0.0000
 30
0.0000
 40
0.0635
 41
0.0635
 70
0
  0
VERTEX
  8
22
 10
22.0366
 20
9.5842
 30
0.0000
 42
1.0000
  0
VERTEX
  8
22
 10
22.0311
 20
9.6475
 30
0.0000
  0
SEQEND
  8
0
  0
POLYLINE
  8
22
 66
1
 10
0.0000
 20
0.0000
 30
0.0000
 40
0.1270
 41
0.1270
 70
0
  0
VERTEX
  8
22
 10
21.8727
 20
9.6018
 30
0.0000
  0
VERTEX
  8
22
 10
21.7256
 20
9.4265
 30
0.0000
  0
SEQEND
  8
0
  0
POLYLINE
  8
22
 66
1
 10
0.0000
 20
0.0000
 30
0.0000
 40
0.0635
 41
0.0635
 70
0
  0
VERTEX
  8
22
 10
21.7013
 20
9.4469
 30
0.0000
 42
1.0000
  0
VERTEX
  8
22
 10
21.7499
 20
9.4061
 30
0.0000
  0
SEQEND
  8
0
  0
POLYLINE
  8
22
 66
1
 10
0.0000
 20
0.0000
 30
0.0000
 40
0.0635
 41
0.0635
 70
0
  0
VERTEX
  8
22
 10
21.8970
 20
9.5813
 30
0.0000
 42
1.0000
  0
VERTEX
  8
22
 10
21.8483
 20
9.6222
 30
0.0000
  0
SEQEND
  8
0
  0
POLYLINE
  8
22
 66
1
 10
0.0000
 20
0.0000
 30
0.0000
 40
0.1270
 41
0.1270
 70
0
  0
VERTEX
  8
22
 10
21.7256
 20
9.4265
 30
0.0000
  0
VERTEX
  8
22
 10
21.7397
 20
9.2653
 30
0.0000
  0
SEQEND
  8
0
  0
POLYLINE
  8
22
 66
1
 10
0.0000
 20
0.0000
 30
0.0000
 40
0.0635
 41
0.0635
 70
0
  0
VERTEX
  8
22
 10
21.7081
 20
9.2626
 30
0.0000
 42
1.0000
  0
VERTEX
  8
22
 10
21.7713
 20
9.2681
 30
0.0000
  0
SEQEND
  8
0
  0
POLYLINE
  8
22
 66
1
 10
0.0000
 20
0.0000
 30
0.0000
 40
0.0635
 41
0.0635
 70
0
  0
VERTEX
  8
22
 10
21.7572
 20
9.4293
 30
0.0000
 42
1.0000
  0
VERTEX
  8
22
 10
21.6940
 20
9.4237
 30
0.0000
  0
SEQEND
  8
0
  0
POLYLINE
  8
22
 66
1
 10
0.0000
 20
0.0000
 30
0.0000
 40
0.1270
 41
0.1270
 70
0
  0
VERTEX
  8
22
 10
21.7397
 20
9.2653
 30
0.0000
  0
VERTEX
  8
22
 10
21.8273
 20
9.1918
 30
0.0000
  0
SEQEND
  8
0
  0
POLYLINE
  8
22
 66
1
 10
0.0000
 20
0.0000
 30
0.0000
 40
0.0635
 41
0.0635
 70
0
  0
VERTEX
  8
22
 10
21.8069
 20
9.1675
 30
0.0000
 42
1.0000
  0
VERTEX
  8
22
 10
21.8477
 20
9.2161
 30
0.0000
  0
SEQEND
  8
0
  0
POLYLINE
  8
22
 66
1
 10
0.0000
 20
0.0000
 30
0.0000
 40
0.0635
 41
0.0635
 70
0
  0
VERTEX
  8
22
 10
21.7601
 20
9.2896
 30
0.0000
 42
1.0000
  0
VERTEX
  8
22
 10
21.7193
 20
9.2410
 30
0.0000
  0
SEQEND
  8
0
  0
POLYLINE
  8
22
 66
1
 10
0.0000
 20
0.0000
 30
0.0000
 40
0.1270
 41
0.1270
 70
0
  0
VERTEX
  8
22
 10
21.8273
 20
9.1918
 30
0.0000
  0
VERTEX
  8
22
 10
22.1215
 20
9.5423
 30
0.0000
  0
SEQEND
  8
0
  0
POLYLINE
  8
22
 66
1
 10
0.0000
 20
0.0000
 30
0.0000
 40
0.0635
 41
0.0635
 70
0
  0
VERTEX
  8
22
 10
22.1458
 20
9.5219
 30
0.0000
 42
1.0000
  0
VERTEX
  8
22
 10
22.0971
 20
9.5627
 30
0.0000
  0
SEQEND
  8
0
  0
POLYLINE
  8
22
 66
1
 10
0.0000
 20
0.0000
 30
0.0000
 40
0.0635
 41
0.0635
 70
0
  0
VERTEX
  8
22
 10
21.8030
 20
9.2122
 30
0.0000
 42
1.0000
  0
VERTEX
  8
22
 10
21.8516
 20
9.1714
 30
0.0000
  0
SEQEND
  8
0
  0
POLYLINE
  8
22
 66
1
 10
0.0000
 20
0.0000
 30
0.0000
 40
0.1270
 41
0.1270
 70
0
  0
VERTEX
  8
22
 10
21.8157
 20
8.8219
 30
0.0000
  0
VERTEX
  8
22
 10
21.5951
 20
8.5590
 30
0.0000
  0
SEQEND
  8
0
  0
POLYLINE
  8
22
 66
1
 10
0.0000
 20
0.0000
 30
0.0000
 40
0.0635
 41
0.0635
 70
0
  0
VERTEX
  8
22
 10
21.5707
 20
8.5794
 30
0.0000
 42
1.0000
  0
VERTEX
  8
22
 10
21.6194
 20
8.5386
 30
0.0000
  0
SEQEND
  8
0
  0
POLYLINE
  8
22
 66
1
 10
0.0000
 20
0.0000
 30
0.0000
 40
0.0635
 41
0.0635
 70
0
  0
VERTEX
  8
22
 10
21.8400
 20
8.8015
 30
0.0000
 42
1.0000
  0
VERTEX
  8
22
 10
21.7913
 20
8.8423
 30
0.0000
  0
SEQEND
  8
0
  0
POLYLINE
  8
22
 66
1
 10
0.0000
 20
0.0000
 30
0.0000
 40
0.1270
 41
0.1270
 70
0
  0
VERTEX
  8
22
 10
21.5951
 20
8.5590
 30
0.0000
  0
VERTEX
  8
22
 10
21.4339
 20
8.5449
 30
0.0000
  0
SEQEND
  8
0
  0
POLYLINE
  8
22
 66
1
 10
0.0000
 20
0.0000
 30
0.0000
 40
0.0635
 41
0.0635
 70
0
  0
VERTEX
  8
22
 10
21.4311
 20
8.5766
 30
0.0000
 42
1.0000
  0
VERTEX
  8
22
 10
21.4367
 20
8.5133
 30
0.0000
  0
SEQEND
  8
0
  0
POLYLINE
  8
22
 66
1
 10
0.0000
 20
0.0000
 30
0.0000
 40
0.0635
 41
0.0635
 70
0
  0
VERTEX
  8
22
 10
21.5978
 20
8.5274
 30
0.0000
 42
1.0000
  0
VERTEX
  8
22
 10
21.5923
 20
8.5907
 30
0.0000
  0
SEQEND
  8
0
  0
POLYLINE
  8
22
 66
1
 10
0.0000
 20
0.0000
 30
0.0000
 40
0.1270
 41
0.1270
 70
0
  0
VERTEX
  8
22
 10
21.4339
 20
8.5449
 30
0.0000
  0
VERTEX
  8
22
 10
21.4198
 20
8.7061
 30
0.0000
  0
SEQEND
  8
0
  0
POLYLINE
  8
22
 66
1
 10
0.0000
 20
0.0000
 30
0.0000
 40
0.0635
 41
0.0635
 70
0
  0
VERTEX
  8
22
 10
21.4514
 20
8.7089
 30
0.0000
 42
1.0000
  0
VERTEX
  8
22
 10
21.3882
 20
8.7033
 30
0.0000
  0
SEQEND
  8
0
  0
POLYLINE
  8
22
 66
1
 10
0.0000
 20
0.0000
 30
0.0000
 40
0.0635
 41
0.0635
 70
0
  0
VERTEX
  8
22
 10
21.4023
 20
8.5422
 30
0.0000
 42
1.0000
  0
VERTEX
  8
22
 10
21.4655
 20
8.5477
 30
0.0000
  0
SEQEND
  8
0
  0
POLYLINE
  8
22
 66
1
 10
0.0000
 20
0.0000
 30
0.0000
 40
0.1270
 41
0.1270
 70
0
  0
VERTEX
  8
22
 10
21.4198
 20
8.7061
 30
0.0000
  0
VERTEX
  8
22
 10
21.5669
 20
8.8814
 30
0.0000
  0
SEQEND
  8
0
  0
POLYLINE
  8
22
 66
1
 10
0.0000
 20
0.0000
 30
0.0000
 40
0.0635
 41
0.0635
 70
0
  0
VERTEX
  8
22
 10
21.5912
 20
8.8610
 30
0.0000
 42
1.0000
  0
VERTEX
  8
22
 10
21.5425
 20
8.9018
 30
0.0000
  0
SEQEND
  8
0
  0
POLYLINE
  8
22
 66
1
 10
0.0000
 20
0.0000
 30
0.0000
 40
0.0635
 41
0.0635
 70
0
  0
VERTEX
  8
22
 10
21.3955
 20
8.7265
 30
0.0000
 42
1.0000
  0
VERTEX
  8
22
 10
21.4441
 20
8.6857
 30
0.0000
  0
SEQEND
  8
0
  0
POLYLINE
  8
22
 66
1
 10
0.0000
 20
0.0000
 30
0.0000
 40
0.1270
 41
0.1270
 70
0
  0
VERTEX
  8
22
 10
21.5669
 20
8.8814
 30
0.0000
  0
VERTEX
  8
22
 10
21.5528
 20
9.0425
 30
0.0000
  0
SEQEND
  8
0
  0
POLYLINE
  8
22
 66
1
 10
0.0000
 20
0.0000
 30
0.0000
 40
0.0635
 41
0.0635
 70
0
  0
VERTEX
  8
22
 10
21.5844
 20
9.0453
 30
0.0000
 42
1.0000
  0
VERTEX
  8
22
 10
21.5211
 20
9.0398
 30
0.0000
  0
SEQEND
  8
0
  0
POLYLINE
  8
22
 66
1
 10
0.0000
 20
0.0000
 30
0.0000
 40
0.0635
 41
0.0635
 70
0
  0
VERTEX
  8
22
 10
21.5352
 20
8.8786
 30
0.0000
 42
1.0000
  0
VERTEX
  8
22
 10
21.5985
 20
8.8841
 30
0.0000
  0
SEQEND
  8
0
  0
POLYLINE
  8
22
 66
1
 10
0.0000
 20
0.0000
 30
0.0000
 40
0.1270
 41
0.1270
 70
0
  0
VERTEX
  8
22
 10
21.5528
 20
9.0425
 30
0.0000
  0
VERTEX
  8
22
 10
21.3916
 20
9.0284
 30
0.0000
  0
SEQEND
  8
0
  0
POLYLINE
  8
22
 66
1
 10
0.0000
 20
0.0000
 30
0.0000
 40
0.0635
 41
0.0635
 70
0
  0
VERTEX
  8
22
 10
21.3888
 20
9.0601
 30
0.0000
 42
1.0000
  0
VERTEX
  8
22
 10
21.3944
 20
8.9968
 30
0.0000
  0
SEQEND
  8
0
  0
POLYLINE
  8
22
 66
1
 10
0.0000
 20
0.0000
 30
0.0000
 40
0.0635
 41
0.0635
 70
0
  0
VERTEX
  8
22
 10
21.5555
 20
9.0109
 30
0.0000
 42
1.0000
  0
VERTEX
  8
22
 10
21.5500
 20
9.0742
 30
0.0000
  0
SEQEND
  8
0
  0
POLYLINE
  8
22
 66
1
 10
0.0000
 20
0.0000
 30
0.0000
 40
0.1270
 41
0.1270
 70
0
  0
VERTEX
  8
22
 10
21.3916
 20
9.0284
 30
0.0000
  0
VERTEX
  8
22
 10
21.1710
 20
8.7655
 30
0.0000
  0
SEQEND
  8
0
  0
POLYLINE
  8
22
 66
1
 10
0.0000
 20
0.0000
 30
0.0000
 40
0.0635
 41
0.0635
 70
0
  0
VERTEX
  8
22
 10
21.1467
 20
8.7859
 30
0.0000
 42
1.0000
  0
VERTEX
  8
22
 10
21.1953
 20
8.7451
 30
0.0000
  0
SEQEND
  8
0
  0
POLYLINE
  8
22
 66
1
 10
0.0000
 20
0.0000
 30
0.0000
 40
0.0635
 41
0.0635
 70
0
  0
VERTEX
  8
22
 10
21.4159
 20
9.0080
 30
0.0000
 42
1.0000
  0
VERTEX
  8
22
 10
21.3673
 20
9.0488
 30
0.0000
  0
SEQEND
  8
0
  0
POLYLINE
  8
22
 66
1
 10
0.0000
 20
0.0000
 30
0.0000
 40
0.1270
 41
0.1270
 70
0
  0
VERTEX
  8
22
 10
21.1140
 20
7.9857
 30
0.0000
  0
VERTEX
  8
22
 10
21.2610
 20
8.1610
 30
0.0000
  0
SEQEND
  8
0
  0
POLYLINE
  8
22
 66
1
 10
0.0000
 20
0.0000
 30
0.0000
 40
0.0635
 41
0.0635
 70
0
  0
VERTEX
  8
22
 10
21.2854
 20
8.1406
 30
0.0000
 42
1.0000
  0
VERTEX
  8
22
 10
21.2367
 20
8.1814
 30
0.0000
  0
SEQEND
  8
0
  0
POLYLINE
  8
22
 66
1
 10
0.0000
 20
0.0000
 30
0.0000
 40
0.0635
 41
0.0635
 70
0
  0
VERTEX
  8
22
 10
21.0897
 20
8.0061
 30
0.0000
 42
1.0000
  0
VERTEX
  8
22
 10
21.1383
 20
7.9653
 30
0.0000
  0
SEQEND
  8
0
  0
POLYLINE
  8
22
 66
1
 10
0.0000
 20
0.0000
 30
0.0000
 40
0.1270
 41
0.1270
 70
0
  0
VERTEX
  8
22
 10
21.2610
 20
8.1610
 30
0.0000
  0
VERTEX
  8
22
 10
21.2469
 20
8.3221
 30
0.0000
  0
SEQEND
  8
0
  0
POLYLINE
  8
22
 66
1
 10
0.0000
 20
0.0000
 30
0.0000
 40
0.0635
 41
0.0635
 70
0
  0
VERTEX
  8
22
 10
21.2786
 20
8.3249
 30
0.0000
 42
1.0000
  0
VERTEX
  8
22
 10
21.2153
 20
8.3194
 30
0.0000
  0
SEQEND
  8
0
  0
POLYLINE
  8
22
 66
1
 10
0.0000
 20
0.0000
 30
0.0000
 40
0.0635
 41
0.0635
 70
0
  0
VERTEX
  8
22
 10
21.2294
 20
8.1582
 30
0.0000
 42
1.0000
  0
VERTEX
  8
22
 10
21.2927
 20
8.1637
 30
0.0000
  0
SEQEND
  8
0
  0
POLYLINE
  8
22
 66
1
 10
0.0000
 20
0.0000
 30
0.0000
 40
0.1270
 41
0.1270
 70
0
  0
VERTEX
  8
22
 10
21.2469
 20
8.3221
 30
0.0000
  0
VERTEX
  8
22
 10
21.0717
 20
8.4692
 30
0.0000
  0
SEQEND
  8
0
  0
POLYLINE
  8
22
 66
1
 10
0.0000
 20
0.0000
 30
0.0000
 40
0.0635
 41
0.0635
 70
0
  0
VERTEX
  8
22
 10
21.0921
 20
8.4935
 30
0.0000
 42
1.0000
  0
VERTEX
  8
22
 10
21.0513
 20
8.4449
 30
0.0000
  0
SEQEND
  8
0
  0
POLYLINE
  8
22
 66
1
 10
0.0000
 20
0.0000
 30
0.0000
 40
0.0635
 41
0.0635
 70
0
  0
VERTEX
  8
22
 10
21.2265
 20
8.2978
 30
0.0000
 42
1.0000
  0
VERTEX
  8
22
 10
21.2674
 20
8.3465
 30
0.0000
  0
SEQEND
  8
0
  0
POLYLINE
  8
22
 66
1
 10
0.0000
 20
0.0000
 30
0.0000
 40
0.1270
 41
0.1270
 70
0
  0
VERTEX
  8
22
 10
21.0717
 20
8.4692
 30
0.0000
  0
VERTEX
  8
22
 10
20.9105
 20
8.4551
 30
0.0000
  0
SEQEND
  8
0
  0
POLYLINE
  8
22
 66
1
 10
0.0000
 20
0.0000
 30
0.0000
 40
0.0635
 41
0.0635
 70
0
  0
VERTEX
  8
22
 10
20.9077
 20
8.4867
 30
0.0000
 42
1.0000
  0
VERTEX
  8
22
 10
20.9133
 20
8.4235
 30
0.0000
  0
SEQEND
  8
0
  0
POLYLINE
  8
22
 66
1
 10
0.0000
 20
0.0000
 30
0.0000
 40
0.0635
 41
0.0635
 70
0
  0
VERTEX
  8
22
 10
21.0744
 20
8.4376
 30
0.0000
 42
1.0000
  0
VERTEX
  8
22
 10
21.0689
 20
8.5008
 30
0.0000
  0
SEQEND
  8
0
  0
POLYLINE
  8
22
 66
1
 10
0.0000
 20
0.0000
 30
0.0000
 40
0.1270
 41
0.1270
 70
0
  0
VERTEX
  8
22
 10
20.9105
 20
8.4551
 30
0.0000
  0
VERTEX
  8
22
 10
20.7634
 20
8.2798
 30
0.0000
  0
SEQEND
  8
0
  0
POLYLINE
  8
22
 66
1
 10
0.0000
 20
0.0000
 30
0.0000
 40
0.0635
 41
0.0635
 70
0
  0
VERTEX
  8
22
 10
20.7391
 20
8.3003
 30
0.0000
 42
1.0000
  0
VERTEX
  8
22
 10
20.7878
 20
8.2594
 30
0.0000
  0
SEQEND
  8
0
  0
POLYLINE
  8
22
 66
1
 10
0.0000
 20
0.0000
 30
0.0000
 40
0.0635
 41
0.0635
 70
0
  0
VERTEX
  8
22
 10
20.9348
 20
8.4347
 30
0.0000
 42
1.0000
  0
VERTEX
  8
22
 10
20.8862
 20
8.4755
 30
0.0000
  0
SEQEND
  8
0
  0
POLYLINE
  8
22
 66
1
 10
0.0000
 20
0.0000
 30
0.0000
 40
0.1270
 41
0.1270
 70
0
  0
VERTEX
  8
22
 10
20.7634
 20
8.2798
 30
0.0000
  0
VERTEX
  8
22
 10
20.7775
 20
8.1187
 30
0.0000
  0
SEQEND
  8
0
  0
POLYLINE
  8
22
 66
1
 10
0.0000
 20
0.0000
 30
0.0000
 40
0.0635
 41
0.0635
 70
0
  0
VERTEX
  8
22
 10
20.7459
 20
8.1159
 30
0.0000
 42
1.0000
  0
VERTEX
  8
22
 10
20.8092
 20
8.1214
 30
0.0000
  0
SEQEND
  8
0
  0
POLYLINE
  8
22
 66
1
 10
0.0000
 20
0.0000
 30
0.0000
 40
0.0635
 41
0.0635
 70
0
  0
VERTEX
  8
22
 10
20.7951
 20
8.2826
 30
0.0000
 42
1.0000
  0
VERTEX
  8
22
 10
20.7318
 20
8.2771
 30
0.0000
  0
SEQEND
  8
0
  0
POLYLINE
  8
22
 66
1
 10
0.0000
 20
0.0000
 30
0.0000
 40
0.1270
 41
0.1270
 70
0
  0
VERTEX
  8
22
 10
20.7775
 20
8.1187
 30
0.0000
  0
VERTEX
  8
22
 10
20.8652
 20
8.0451
 30
0.0000
  0
SEQEND
  8
0
  0
POLYLINE
  8
22
 66
1
 10
0.0000
 20
0.0000
 30
0.0000
 40
0.0635
 41
0.0635
 70
0
  0
VERTEX
  8
22
 10
20.8448
 20
8.0208
 30
0.0000
 42
1.0000
  0
VERTEX
  8
22
 10
20.8856
 20
8.0695
 30
0.0000
  0
SEQEND
  8
0
  0
POLYLINE
  8
22
 66
1
 10
0.0000
 20
0.0000
 30
0.0000
 40
0.0635
 41
0.0635
 70
0
  0
VERTEX
  8
22
 10
20.7980
 20
8.1430
 30
0.0000
 42
1.0000
  0
VERTEX
  8
22
 10
20.7571
 20
8.0944
 30
0.0000
  0
SEQEND
  8
0
  0
POLYLINE
  8
22
 66
1
 10
0.0000
 20
0.0000
 30
0.0000
 40
0.1270
 41
0.1270
 70
0
  0
VERTEX
  8
22
 10
20.8652
 20
8.0451
 30
0.0000
  0
VERTEX
  8
22
 10
21.1593
 20
8.3957
 30
0.0000
  0
SEQEND
  8
0
  0
POLYLINE
  8
22
 66
1
 10
0.0000
 20
0.0000
 30
0.0000
 40
0.0635
 41
0.0635
 70
0
  0
VERTEX
  8
22
 10
21.1836
 20
8.3753
 30
0.0000
 42
1.0000
  0
VERTEX
  8
22
 10
21.1350
 20
8.4161
 30
0.0000
  0
SEQEND
  8
0
  0
POLYLINE
  8
22
 66
1
 10
0.0000
 20
0.0000
 30
0.0000
 40
0.0635
 41
0.0635
 70
0
  0
VERTEX
  8
22
 10
20.8409
 20
8.0655
 30
0.0000
 42
1.0000
  0
VERTEX
  8
22
 10
20.8895
 20
8.0247
 30
0.0000
  0
SEQEND
  8
0
  0
POLYLINE
  8
22
 66
1
 10
0.0000
 20
0.0000
 30
0.0000
 40
0.1270
 41
0.1270
 70
0
  0
VERTEX
  8
22
 10
20.4294
 20
7.8818
 30
0.0000
  0
VERTEX
  8
22
 10
20.2824
 20
7.7065
 30
0.0000
  0
SEQEND
  8
0
  0
POLYLINE
  8
22
 66
1
 10
0.0000
 20
0.0000
 30
0.0000
 40
0.0635
 41
0.0635
 70
0
  0
VERTEX
  8
22
 10
20.2581
 20
7.7269
 30
0.0000
 42
1.0000
  0
VERTEX
  8
22
 10
20.3067
 20
7.6861
 30
0.0000
  0
SEQEND
  8
0
  0
POLYLINE
  8
22
 66
1
 10
0.0000
 20
0.0000
 30
0.0000
 40
0.0635
 41
0.0635
 70
0
  0
VERTEX
  8
22
 10
20.4538
 20
7.8614
 30
0.0000
 42
1.0000
  0
VERTEX
  8
22
 10
20.4051
 20
7.9022
 30
0.0000
  0
SEQEND
  8
0
  0
POLYLINE
  8
22
 66
1
 10
0.0000
 20
0.0000
 30
0.0000
 40
0.1270
 41
0.1270
 70
0
  0
VERTEX
  8
22
 10
20.2824
 20
7.7065
 30
0.0000
  0
VERTEX
  8
22
 10
20.2965
 20
7.5454
 30
0.0000
  0
SEQEND
  8
0
  0
POLYLINE
  8
22
 66
1
 10
0.0000
 20
0.0000
 30
0.0000
 40
0.0635
 41
0.0635
 70
0
  0
VERTEX
  8
22
 10
20.2648
 20
7.5426
 30
0.0000
 42
1.0000
  0
VERTEX
  8
22
 10
20.3281
 20
7.5481
 30
0.0000
  0
SEQEND
  8
0
  0
POLYLINE
  8
22
 66
1
 10
0.0000
 20
0.0000
 30
0.0000
 40
0.0635
 41
0.0635
 70
0
  0
VERTEX
  8
22
 10
20.3140
 20
7.7093
 30
0.0000
 42
1.0000
  0
VERTEX
  8
22
 10
20.2507
 20
7.7038
 30
0.0000
  0
SEQEND
  8
0
  0
POLYLINE
  8
22
 66
1
 10
0.0000
 20
0.0000
 30
0.0000
 40
0.1270
 41
0.1270
 70
0
  0
VERTEX
  8
22
 10
20.2965
 20
7.5454
 30
0.0000
  0
VERTEX
  8
22
 10
20.5594
 20
7.3248
 30
0.0000
  0
SEQEND
  8
0
  0
POLYLINE
  8
22
 66
1
 10
0.0000
 20
0.0000
 30
0.0000
 40
0.0635
 41
0.0635
 70
0
  0
VERTEX
  8
22
 10
20.5390
 20
7.3004
 30
0.0000
 42
1.0000
  0
VERTEX
  8
22
 10
20.5798
 20
7.3491
 30
0.0000
  0
SEQEND
  8
0
  0
POLYLINE
  8
22
 66
1
 10
0.0000
 20
0.0000
 30
0.0000
 40
0.0635
 41
0.0635
 70
0
  0
VERTEX
  8
22
 10
20.3169
 20
7.5697
 30
0.0000
 42
1.0000
  0
VERTEX
  8
22
 10
20.2761
 20
7.5210
 30
0.0000
  0
SEQEND
  8
0
  0
POLYLINE
  8
22
 66
1
 10
0.0000
 20
0.0000
 30
0.0000
 40
0.1270
 41
0.1270
 70
0
  0
VERTEX
  8
22
 10
20.5594
 20
7.3248
 30
0.0000
  0
VERTEX
  8
22
 10
20.7800
 20
7.5877
 30
0.0000
  0
SEQEND
  8
0
  0
POLYLINE
  8
22
 66
1
 10
0.0000
 20
0.0000
 30
0.0000
 40
0.0635
 41
0.0635
 70
0
  0
VERTEX
  8
22
 10
20.8043
 20
7.5672
 30
0.0000
 42
1.0000
  0
VERTEX
  8
22
 10
20.7557
 20
7.6081
 30
0.0000
  0
SEQEND
  8
0
  0
POLYLINE
  8
22
 66
1
 10
0.0000
 20
0.0000
 30
0.0000
 40
0.0635
 41
0.0635
 70
0
  0
VERTEX
  8
22
 10
20.5351
 20
7.3452
 30
0.0000
 42
1.0000
  0
VERTEX
  8
22
 10
20.5837
 20
7.3043
 30
0.0000
  0
SEQEND
  8
0
  0
POLYLINE
  8
22
 66
1
 10
0.0000
 20
0.0000
 30
0.0000
 40
0.1270
 41
0.1270
 70
0
  0
VERTEX
  8
22
 10
20.7800
 20
7.5877
 30
0.0000
  0
VERTEX
  8
22
 10
20.7659
 20
7.7488
 30
0.0000
  0
SEQEND
  8
0
  0
POLYLINE
  8
22
 66
1
 10
0.0000
 20
0.0000
 30
0.0000
 40
0.0635
 41
0.0635
 70
0
  0
VERTEX
  8
22
 10
20.7975
 20
7.7516
 30
0.0000
 42
1.0000
  0
VERTEX
  8
22
 10
20.7342
 20
7.7461
 30
0.0000
  0
SEQEND
  8
0
  0
POLYLINE
  8
22
 66
1
 10
0.0000
 20
0.0000
 30
0.0000
 40
0.0635
 41
0.0635
 70
0
  0
VERTEX
  8
22
 10
20.7483
 20
7.5849
 30
0.0000
 42
1.0000
  0
VERTEX
  8
22
 10
20.8116
 20
7.5904
 30
0.0000
  0
SEQEND
  8
0
  0
POLYLINE
  8
22
 66
1
 10
0.0000
 20
0.0000
 30
0.0000
 40
0.1270
 41
0.1270
 70
0
  0
VERTEX
  8
22
 10
20.7659
 20
7.7488
 30
0.0000
  0
VERTEX
  8
22
 10
20.6047
 20
7.7347
 30
0.0000
  0
SEQEND
  8
0
  0
POLYLINE
  8
22
 66
1
 10
0.0000
 20
0.0000
 30
0.0000
 40
0.0635
 41
0.0635
 70
0
  0
VERTEX
  8
22
 10
20.6019
 20
7.7664
 30
0.0000
 42
1.0000
  0
VERTEX
  8
22
 10
20.6075
 20
7.7031
 30
0.0000
  0
SEQEND
  8
0
  0
POLYLINE
  8
22
 66
1
 10
0.0000
 20
0.0000
 30
0.0000
 40
0.0635
 41
0.0635
 70
0
  0
VERTEX
  8
22
 10
20.7686
 20
7.7172
 30
0.0000
 42
1.0000
  0
VERTEX
  8
22
 10
20.7631
 20
7.7805
 30
0.0000
  0
SEQEND
  8
0
  0
POLYLINE
  8
22
 66
1
 10
0.0000
 20
0.0000
 30
0.0000
 40
0.1270
 41
0.1270
 70
0
  0
VERTEX
  8
22
 10
20.6047
 20
7.7347
 30
0.0000
  0
VERTEX
  8
22
 10
20.3841
 20
7.4718
 30
0.0000
  0
SEQEND
  8
0
  0
POLYLINE
  8
22
 66
1
 10
0.0000
 20
0.0000
 30
0.0000
 40
0.0635
 41
0.0635
 70
0
  0
VERTEX
  8
22
 10
20.3598
 20
7.4922
 30
0.0000
 42
1.0000
  0
VERTEX
  8
22
 10
20.4084
 20
7.4514
 30
0.0000
  0
SEQEND
  8
0
  0
POLYLINE
  8
22
 66
1
 10
0.0000
 20
0.0000
 30
0.0000
 40
0.0635
 41
0.0635
 70
0
  0
VERTEX
  8
22
 10
20.6290
 20
7.7143
 30
0.0000
 42
1.0000
  0
VERTEX
  8
22
 10
20.5804
 20
7.7551
 30
0.0000
  0
SEQEND
  8
0
  0
POLYLINE
  8
22
 66
1
 10
0.0000
 20
0.0000
 30
0.0000
 40
0.1270
 41
0.1270
 70
0
  0
VERTEX
  8
22
 10
20.3724
 20
7.1020
 30
0.0000
  0
VERTEX
  8
22
 10
20.0219
 20
7.3961
 30
0.0000
  0
SEQEND
  8
0
  0
POLYLINE
  8
22
 66
1
 10
0.0000
 20
0.0000
 30
0.0000
 40
0.0635
 41
0.0635
 70
0
  0
VERTEX
  8
22
 10
20.0423
 20
7.4204
 30
0.0000
 42
1.0000
  0
VERTEX
  8
22
 10
20.0015
 20
7.3718
 30
0.0000
  0
SEQEND
  8
0
  0
POLYLINE
  8
22
 66
1
 10
0.0000
 20
0.0000
 30
0.0000
 40
0.0635
 41
0.0635
 70
0
  0
VERTEX
  8
22
 10
20.3520
 20
7.0776
 30
0.0000
 42
1.0000
  0
VERTEX
  8
22
 10
20.3928
 20
7.1263
 30
0.0000
  0
SEQEND
  8
0
  0
POLYLINE
  8
22
 66
1
 10
0.0000
 20
0.0000
 30
0.0000
 40
0.1270
 41
0.1270
 70
0
  0
VERTEX
  8
22
 10
20.1972
 20
7.2490
 30
0.0000
  0
VERTEX
  8
22
 10
19.8748
 20
7.2208
 30
0.0000
  0
SEQEND
  8
0
  0
POLYLINE
  8
22
 66
1
 10
0.0000
 20
0.0000
 30
0.0000
 40
0.0635
 41
0.0635
 70
0
  0
VERTEX
  8
22
 10
19.8721
 20
7.2525
 30
0.0000
 42
1.0000
  0
VERTEX
  8
22
 10
19.8776
 20
7.1892
 30
0.0000
  0
SEQEND
  8
0
  0
POLYLINE
  8
22
 66
1
 10
0.0000
 20
0.0000
 30
0.0000
 40
0.0635
 41
0.0635
 70
0
  0
VERTEX
  8
22
 10
20.1999
 20
7.2174
 30
0.0000
 42
1.0000
  0
VERTEX
  8
22
 10
20.1944
 20
7.2807
 30
0.0000
  0
SEQEND
  8
0
  0
POLYLINE
  8
22
 66
1
 10
0.0000
 20
0.0000
 30
0.0000
 40
0.1270
 41
0.1270
 70
0
  0
VERTEX
  8
22
 10
19.8748
 20
7.2208
 30
0.0000
  0
VERTEX
  8
22
 10
19.8013
 20
7.1332
 30
0.0000
  0
SEQEND
  8
0
  0
POLYLINE
  8
22
 66
1
 10
0.0000
 20
0.0000
 30
0.0000
 40
0.0635
 41
0.0635
 70
0
  0
VERTEX
  8
22
 10
19.7770
 20
7.1536
 30
0.0000
 42
1.0000
  0
VERTEX
  8
22
 10
19.8256
 20
7.1128
 30
0.0000
  0
SEQEND
  8
0
  0
POLYLINE
  8
22
 66
1
 10
0.0000
 20
0.0000
 30
0.0000
 40
0.0635
 41
0.0635
 70
0
  0
VERTEX
  8
22
 10
19.8992
 20
7.2004
 30
0.0000
 42
1.0000
  0
VERTEX
  8
22
 10
19.8505
 20
7.2412
 30
0.0000
  0
SEQEND
  8
0
  0
POLYLINE
  8
22
 66
1
 10
0.0000
 20
0.0000
 30
0.0000
 40
0.1270
 41
0.1270
 70
0
  0
VERTEX
  8
22
 10
19.3269
 20
6.5678
 30
0.0000
  0
VERTEX
  8
22
 10
19.5475
 20
6.8307
 30
0.0000
  0
SEQEND
  8
0
  0
POLYLINE
  8
22
 66
1
 10
0.0000
 20
0.0000
 30
0.0000
 40
0.0635
 41
0.0635
 70
0
  0
VERTEX
  8
22
 10
19.5718
 20
6.8103
 30
0.0000
 42
1.0000
  0
VERTEX
  8
22
 10
19.5232
 20
6.8511
 30
0.0000
  0
SEQEND
  8
0
  0
POLYLINE
  8
22
 66
1
 10
0.0000
 20
0.0000
 30
0.0000
 40
0.0635
 41
0.0635
 70
0
  0
VERTEX
  8
22
 10
19.3026
 20
6.5882
 30
0.0000
 42
1.0000
  0
VERTEX
  8
22
 10
19.3512
 20
6.5474
 30
0.0000
  0
SEQEND
  8
0
  0
POLYLINE
  8
22
 66
1
 10
0.0000
 20
0.0000
 30
0.0000
 40
0.1270
 41
0.1270
 70
0
  0
VERTEX
  8
22
 10
19.5475
 20
6.8307
 30
0.0000
  0
VERTEX
  8
22
 10
19.7086
 20
6.8448
 30
0.0000
  0
SEQEND
  8
0
  0
POLYLINE
  8
22
 66
1
 10
0.0000
 20
0.0000
 30
0.0000
 40
0.0635
 41
0.0635
 70
0
  0
VERTEX
  8
22
 10
19.7114
 20
6.8132
 30
0.0000
 42
1.0000
  0
VERTEX
  8
22
 10
19.7059
 20
6.8764
 30
0.0000
  0
SEQEND
  8
0
  0
POLYLINE
  8
22
 66
1
 10
0.0000
 20
0.0000
 30
0.0000
 40
0.0635
 41
0.0635
 70
0
  0
VERTEX
  8
22
 10
19.5447
 20
6.8623
 30
0.0000
 42
1.0000
  0
VERTEX
  8
22
 10
19.5502
 20
6.7991
 30
0.0000
  0
SEQEND
  8
0
  0
POLYLINE
  8
22
 66
1
 10
0.0000
 20
0.0000
 30
0.0000
 40
0.1270
 41
0.1270
 70
0
  0
VERTEX
  8
22
 10
19.7086
 20
6.8448
 30
0.0000
  0
VERTEX
  8
22
 10
19.8839
 20
6.6977
 30
0.0000
  0
SEQEND
  8
0
  0
POLYLINE
  8
22
 66
1
 10
0.0000
 20
0.0000
 30
0.0000
 40
0.0635
 41
0.0635
 70
0
  0
VERTEX
  8
22
 10
19.8635
 20
6.6734
 30
0.0000
 42
1.0000
  0
VERTEX
  8
22
 10
19.9043
 20
6.7221
 30
0.0000
  0
SEQEND
  8
0
  0
POLYLINE
  8
22
 66
1
 10
0.0000
 20
0.0000
 30
0.0000
 40
0.0635
 41
0.0635
 70
0
  0
VERTEX
  8
22
 10
19.7291
 20
6.8691
 30
0.0000
 42
1.0000
  0
VERTEX
  8
22
 10
19.6882
 20
6.8205
 30
0.0000
  0
SEQEND
  8
0
  0
POLYLINE
  8
22
 66
1
 10
0.0000
 20
0.0000
 30
0.0000
 40
0.1270
 41
0.1270
 70
0
  0
VERTEX
  8
22
 10
19.8839
 20
6.6977
 30
0.0000
  0
VERTEX
  8
22
 10
19.8980
 20
6.5366
 30
0.0000
  0
SEQEND
  8
0
  0
POLYLINE
  8
22
 66
1
 10
0.0000
 20
0.0000
 30
0.0000
 40
0.0635
 41
0.0635
 70
0
  0
VERTEX
  8
22
 10
19.8664
 20
6.5338
 30
0.0000
 42
1.0000
  0
VERTEX
  8
22
 10
19.9296
 20
6.5393
 30
0.0000
  0
SEQEND
  8
0
  0
POLYLINE
  8
22
 66
1
 10
0.0000
 20
0.0000
 30
0.0000
 40
0.0635
 41
0.0635
 70
0
  0
VERTEX
  8
22
 10
19.9155
 20
6.7005
 30
0.0000
 42
1.0000
  0
VERTEX
  8
22
 10
19.8523
 20
6.6950
 30
0.0000
  0
SEQEND
  8
0
  0
POLYLINE
  8
22
 66
1
 10
0.0000
 20
0.0000
 30
0.0000
 40
0.1270
 41
0.1270
 70
0
  0
VERTEX
  8
22
 10
19.8980
 20
6.5366
 30
0.0000
  0
VERTEX
  8
22
 10
19.6774
 20
6.2737
 30
0.0000
  0
SEQEND
  8
0
  0
POLYLINE
  8
22
 66
1
 10
0.0000
 20
0.0000
 30
0.0000
 40
0.0635
 41
0.0635
 70
0
  0
VERTEX
  8
22
 10
19.6531
 20
6.2941
 30
0.0000
 42
1.0000
  0
VERTEX
  8
22
 10
19.7017
 20
6.2533
 30
0.0000
  0
SEQEND
  8
0
  0
POLYLINE
  8
22
 66
1
 10
0.0000
 20
0.0000
 30
0.0000
 40
0.0635
 41
0.0635
 70
0
  0
VERTEX
  8
22
 10
19.9223
 20
6.5162
 30
0.0000
 42
1.0000
  0
VERTEX
  8
22
 10
19.8737
 20
6.5570
 30
0.0000
  0
SEQEND
  8
0
  0
POLYLINE
  8
22
 66
1
 10
0.0000
 20
0.0000
 30
0.0000
 40
0.1270
 41
0.1270
 70
0
  0
VERTEX
  8
22
 10
18.9647
 20
6.4921
 30
0.0000
  0
VERTEX
  8
22
 10
19.4905
 20
6.0509
 30
0.0000
  0
SEQEND
  8
0
  0
POLYLINE
  8
22
 66
1
 10
0.0000
 20
0.0000
 30
0.0000
 40
0.0635
 41
0.0635
 70
0
  0
VERTEX
  8
22
 10
19.4701
 20
6.0266
 30
0.0000
 42
1.0000
  0
VERTEX
  8
22
 10
19.5109
 20
6.0752
 30
0.0000
  0
SEQEND
  8
0
  0
POLYLINE
  8
22
 66
1
 10
0.0000
 20
0.0000
 30
0.0000
 40
0.0635
 41
0.0635
 70
0
  0
VERTEX
  8
22
 10
18.9851
 20
6.5164
 30
0.0000
 42
1.0000
  0
VERTEX
  8
22
 10
18.9443
 20
6.4678
 30
0.0000
  0
SEQEND
  8
0
  0
POLYLINE
  8
22
 66
1
 10
0.0000
 20
0.0000
 30
0.0000
 40
0.1270
 41
0.1270
 70
0
  0
VERTEX
  8
22
 10
19.2276
 20
6.2715
 30
0.0000
  0
VERTEX
  8
22
 10
19.0664
 20
6.2574
 30
0.0000
  0
SEQEND
  8
0
  0
POLYLINE
  8
22
 66
1
 10
0.0000
 20
0.0000
 30
0.0000
 40
0.0635
 41
0.0635
 70
0
  0
VERTEX
  8
22
 10
19.0636
 20
6.2890
 30
0.0000
 42
1.0000
  0
VERTEX
  8
22
 10
19.0692
 20
6.2258
 30
0.0000
  0
SEQEND
  8
0
  0
POLYLINE
  8
22
 66
1
 10
0.0000
 20
0.0000
 30
0.0000
 40
0.0635
 41
0.0635
 70
0
  0
VERTEX
  8
22
 10
19.2303
 20
6.2398
 30
0.0000
 42
1.0000
  0
VERTEX
  8
22
 10
19.2248
 20
6.3031
 30
0.0000
  0
SEQEND
  8
0
  0
POLYLINE
  8
22
 66
1
 10
0.0000
 20
0.0000
 30
0.0000
 40
0.1270
 41
0.1270
 70
0
  0
VERTEX
  8
22
 10
19.0664
 20
6.2574
 30
0.0000
  0
VERTEX
  8
22
 10
18.9193
 20
6.0821
 30
0.0000
  0
SEQEND
  8
0
  0
POLYLINE
  8
22
 66
1
 10
0.0000
 20
0.0000
 30
0.0000
 40
0.0635
 41
0.0635
 70
0
  0
VERTEX
  8
22
 10
18.8950
 20
6.1025
 30
0.0000
 42
1.0000
  0
VERTEX
  8
22
 10
18.9437
 20
6.0617
 30
0.0000
  0
SEQEND
  8
0
  0
POLYLINE
  8
22
 66
1
 10
0.0000
 20
0.0000
 30
0.0000
 40
0.0635
 41
0.0635
 70
0
  0
VERTEX
  8
22
 10
19.0907
 20
6.2370
 30
0.0000
 42
1.0000
  0
VERTEX
  8
22
 10
19.0421
 20
6.2778
 30
0.0000
  0
SEQEND
  8
0
  0
POLYLINE
  8
22
 66
1
 10
0.0000
 20
0.0000
 30
0.0000
 40
0.1270
 41
0.1270
 70
0
  0
VERTEX
  8
22
 10
18.9193
 20
6.0821
 30
0.0000
  0
VERTEX
  8
22
 10
18.9334
 20
5.9209
 30
0.0000
  0
SEQEND
  8
0
  0
POLYLINE
  8
22
 66
1
 10
0.0000
 20
0.0000
 30
0.0000
 40
0.0635
 41
0.0635
 70
0
  0
VERTEX
  8
22
 10
18.9018
 20
5.9182
 30
0.0000
 42
1.0000
  0
VERTEX
  8
22
 10
18.9651
 20
5.9237
 30
0.0000
  0
SEQEND
  8
0
  0
POLYLINE
  8
22
 66
1
 10
0.0000
 20
0.0000
 30
0.0000
 40
0.0635
 41
0.0635
 70
0
  0
VERTEX
  8
22
 10
18.9510
 20
6.0849
 30
0.0000
 42
1.0000
  0
VERTEX
  8
22
 10
18.8877
 20
6.0793
 30
0.0000
  0
SEQEND
  8
0
  0
POLYLINE
  8
22
 66
1
 10
0.0000
 20
0.0000
 30
0.0000
 40
0.1270
 41
0.1270
 70
0
  0
VERTEX
  8
22
 10
18.9334
 20
5.9209
 30
0.0000
  0
VERTEX
  8
22
 10
19.1963
 20
5.7003
 30
0.0000
  0
SEQEND
  8
0
  0
POLYLINE
  8
22
 66
1
 10
0.0000
 20
0.0000
 30
0.0000
 40
0.0635
 41
0.0635
 70
0
  0
VERTEX
  8
22
 10
19.1759
 20
5.6760
 30
0.0000
 42
1.0000
  0
VERTEX
  8
22
 10
19.2167
 20
5.7247
 30
0.0000
  0
SEQEND
  8
0
  0
POLYLINE
  8
22
 66
1
 10
0.0000
 20
0.0000
 30
0.0000
 40
0.0635
 41
0.0635
 70
0
  0
VERTEX
  8
22
 10
18.9538
 20
5.9453
 30
0.0000
 42
1.0000
  0
VERTEX
  8
22
 10
18.9130
 20
5.8966
 30
0.0000
  0
SEQEND
  8
0
  0
POLYLINE
  8
22
 66
1
 10
0.0000
 20
0.0000
 30
0.0000
 40
0.1270
 41
0.1270
 70
0
  0
VERTEX
  8
22
 10
18.0025
 20
5.3454
 30
0.0000
  0
VERTEX
  8
22
 10
18.4407
 20
4.9778
 30
0.0000
  0
SEQEND
  8
0
  0
POLYLINE
  8
22
 66
1
 10
0.0000
 20
0.0000
 30
0.0000
 40
0.0635
 41
0.0635
 70
0
  0
VERTEX
  8
22
 10
18.4203
 20
4.9534
 30
0.0000
 42
1.0000
  0
VERTEX
  8
22
 10
18.4611
 20
5.0021
 30
0.0000
  0
SEQEND
  8
0
  0
POLYLINE
  8
22
 66
1
 10
0.0000
 20
0.0000
 30
0.0000
 40
0.0635
 41
0.0635
 70
0
  0
VERTEX
  8
22
 10
18.0229
 20
5.3698
 30
0.0000
 42
1.0000
  0
VERTEX
  8
22
 10
17.9821
 20
5.3211
 30
0.0000
  0
SEQEND
  8
0
  0
POLYLINE
  8
22
 66
1
 10
0.0000
 20
0.0000
 30
0.0000
 40
0.1270
 41
0.1270
 70
0
  0
VERTEX
  8
22
 10
18.4407
 20
4.9778
 30
0.0000
  0
VERTEX
  8
22
 10
18.4548
 20
4.8166
 30
0.0000
  0
SEQEND
  8
0
  0
POLYLINE
  8
22
 66
1
 10
0.0000
 20
0.0000
 30
0.0000
 40
0.0635
 41
0.0635
 70
0
  0
VERTEX
  8
22
 10
18.4232
 20
4.8138
 30
0.0000
 42
1.0000
  0
VERTEX
  8
22
 10
18.4864
 20
4.8194
 30
0.0000
  0
SEQEND
  8
0
  0
POLYLINE
  8
22
 66
1
 10
0.0000
 20
0.0000
 30
0.0000
 40
0.0635
 41
0.0635
 70
0
  0
VERTEX
  8
22
 10
18.4723
 20
4.9805
 30
0.0000
 42
1.0000
  0
VERTEX
  8
22
 10
18.4091
 20
4.9750
 30
0.0000
  0
SEQEND
  8
0
  0
POLYLINE
  8
22
 66
1
 10
0.0000
 20
0.0000
 30
0.0000
 40
0.1270
 41
0.1270
 70
0
  0
VERTEX
  8
22
 10
18.4548
 20
4.8166
 30
0.0000
  0
VERTEX
  8
22
 10
18.3077
 20
4.6413
 30
0.0000
  0
SEQEND
  8
0
  0
POLYLINE
  8
22
 66
1
 10
0.0000
 20
0.0000
 30
0.0000
 40
0.0635
 41
0.0635
 70
0
  0
VERTEX
  8
22
 10
18.2834
 20
4.6617
 30
0.0000
 42
1.0000
  0
VERTEX
  8
22
 10
18.3321
 20
4.6209
 30
0.0000
  0
SEQEND
  8
0
  0
POLYLINE
  8
22
 66
1
 10
0.0000
 20
0.0000
 30
0.0000
 40
0.0635
 41
0.0635
 70
0
  0
VERTEX
  8
22
 10
18.4791
 20
4.7962
 30
0.0000
 42
1.0000
  0
VERTEX
  8
22
 10
18.4305
 20
4.8370
 30
0.0000
  0
SEQEND
  8
0
  0
POLYLINE
  8
22
 66
1
 10
0.0000
 20
0.0000
 30
0.0000
 40
0.1270
 41
0.1270
 70
0
  0
VERTEX
  8
22
 10
18.3077
 20
4.6413
 30
0.0000
  0
VERTEX
  8
22
 10
18.1466
 20
4.6272
 30
0.0000
  0
SEQEND
  8
0
  0
POLYLINE
  8
22
 66
1
 10
0.0000
 20
0.0000
 30
0.0000
 40
0.0635
 41
0.0635
 70
0
  0
VERTEX
  8
22
 10
18.1438
 20
4.6589
 30
0.0000
 42
1.0000
  0
VERTEX
  8
22
 10
18.1493
 20
4.5956
 30
0.0000
  0
SEQEND
  8
0
  0
POLYLINE
  8
22
 66
1
 10
0.0000
 20
0.0000
 30
0.0000
 40
0.0635
 41
0.0635
 70
0
  0
VERTEX
  8
22
 10
18.3105
 20
4.6097
 30
0.0000
 42
1.0000
  0
VERTEX
  8
22
 10
18.3050
 20
4.6730
 30
0.0000
  0
SEQEND
  8
0
  0
POLYLINE
  8
22
 66
1
 10
0.0000
 20
0.0000
 30
0.0000
 40
0.1270
 41
0.1270
 70
0
  0
VERTEX
  8
22
 10
18.1466
 20
4.6272
 30
0.0000
  0
VERTEX
  8
22
 10
17.7084
 20
4.9949
 30
0.0000
  0
SEQEND
  8
0
  0
POLYLINE
  8
22
 66
1
 10
0.0000
 20
0.0000
 30
0.0000
 40
0.0635
 41
0.0635
 70
0
  0
VERTEX
  8
22
 10
17.7288
 20
5.0192
 30
0.0000
 42
1.0000
  0
VERTEX
  8
22
 10
17.6880
 20
4.9706
 30
0.0000
  0
SEQEND
  8
0
  0
POLYLINE
  8
22
 66
1
 10
0.0000
 20
0.0000
 30
0.0000
 40
0.0635
 41
0.0635
 70
0
  0
VERTEX
  8
22
 10
18.1262
 20
4.6029
 30
0.0000
 42
1.0000
  0
VERTEX
  8
22
 10
18.1670
 20
4.6516
 30
0.0000
  0
SEQEND
  8
0
  0
POLYLINE
  8
22
 66
1
 10
0.0000
 20
0.0000
 30
0.0000
 40
0.1270
 41
0.1270
 70
0
  0
VERTEX
  8
22
 10
18.0473
 20
4.3309
 30
0.0000
  0
VERTEX
  8
22
 10
17.8267
 20
4.0680
 30
0.0000
  0
SEQEND
  8
0
  0
POLYLINE
  8
22
 66
1
 10
0.0000
 20
0.0000
 30
0.0000
 40
0.0635
 41
0.0635
 70
0
  0
VERTEX
  8
22
 10
17.8023
 20
4.0884
 30
0.0000
 42
1.0000
  0
VERTEX
  8
22
 10
17.8510
 20
4.0476
 30
0.0000
  0
SEQEND
  8
0
  0
POLYLINE
  8
22
 66
1
 10
0.0000
 20
0.0000
 30
0.0000
 40
0.0635
 41
0.0635
 70
0
  0
VERTEX
  8
22
 10
18.0716
 20
4.3105
 30
0.0000
 42
1.0000
  0
VERTEX
  8
22
 10
18.0229
 20
4.3513
 30
0.0000
  0
SEQEND
  8
0
  0
POLYLINE
  8
22
 66
1
 10
0.0000
 20
0.0000
 30
0.0000
 40
0.1270
 41
0.1270
 70
0
  0
VERTEX
  8
22
 10
17.8267
 20
4.0680
 30
0.0000
  0
VERTEX
  8
22
 10
17.6655
 20
4.0539
 30
0.0000
  0
SEQEND
  8
0
  0
POLYLINE
  8
22
 66
1
 10
0.0000
 20
0.0000
 30
0.0000
 40
0.0635
 41
0.0635
 70
0
  0
VERTEX
  8
22
 10
17.6627
 20
4.0855
 30
0.0000
 42
1.0000
  0
VERTEX
  8
22
 10
17.6683
 20
4.0223
 30
0.0000
  0
SEQEND
  8
0
  0
POLYLINE
  8
22
 66
1
 10
0.0000
 20
0.0000
 30
0.0000
 40
0.0635
 41
0.0635
 70
0
  0
VERTEX
  8
22
 10
17.8294
 20
4.0364
 30
0.0000
 42
1.0000
  0
VERTEX
  8
22
 10
17.8239
 20
4.0996
 30
0.0000
  0
SEQEND
  8
0
  0
POLYLINE
  8
22
 66
1
 10
0.0000
 20
0.0000
 30
0.0000
 40
0.1270
 41
0.1270
 70
0
  0
VERTEX
  8
22
 10
17.6655
 20
4.0539
 30
0.0000
  0
VERTEX
  8
22
 10
17.6514
 20
4.2151
 30
0.0000
  0
SEQEND
  8
0
  0
POLYLINE
  8
22
 66
1
 10
0.0000
 20
0.0000
 30
0.0000
 40
0.0635
 41
0.0635
 70
0
  0
VERTEX
  8
22
 10
17.6830
 20
4.2178
 30
0.0000
 42
1.0000
  0
VERTEX
  8
22
 10
17.6198
 20
4.2123
 30
0.0000
  0
SEQEND
  8
0
  0
POLYLINE
  8
22
 66
1
 10
0.0000
 20
0.0000
 30
0.0000
 40
0.0635
 41
0.0635
 70
0
  0
VERTEX
  8
22
 10
17.6339
 20
4.0511
 30
0.0000
 42
1.0000
  0
VERTEX
  8
22
 10
17.6971
 20
4.0567
 30
0.0000
  0
SEQEND
  8
0
  0
POLYLINE
  8
22
 66
1
 10
0.0000
 20
0.0000
 30
0.0000
 40
0.1270
 41
0.1270
 70
0
  0
VERTEX
  8
22
 10
17.6514
 20
4.2151
 30
0.0000
  0
VERTEX
  8
22
 10
17.7985
 20
4.3903
 30
0.0000
  0
SEQEND
  8
0
  0
POLYLINE
  8
22
 66
1
 10
0.0000
 20
0.0000
 30
0.0000
 40
0.0635
 41
0.0635
 70
0
  0
VERTEX
  8
22
 10
17.8228
 20
4.3699
 30
0.0000
 42
1.0000
  0
VERTEX
  8
22
 10
17.7741
 20
4.4108
 30
0.0000
  0
SEQEND
  8
0
  0
POLYLINE
  8
22
 66
1
 10
0.0000
 20
0.0000
 30
0.0000
 40
0.0635
 41
0.0635
 70
0
  0
VERTEX
  8
22
 10
17.6271
 20
4.2355
 30
0.0000
 42
1.0000
  0
VERTEX
  8
22
 10
17.6757
 20
4.1947
 30
0.0000
  0
SEQEND
  8
0
  0
POLYLINE
  8
22
 66
1
 10
0.0000
 20
0.0000
 30
0.0000
 40
0.1270
 41
0.1270
 70
0
  0
VERTEX
  8
22
 10
17.7985
 20
4.3903
 30
0.0000
  0
VERTEX
  8
22
 10
17.7844
 20
4.5515
 30
0.0000
  0
SEQEND
  8
0
  0
POLYLINE
  8
22
 66
1
 10
0.0000
 20
0.0000
 30
0.0000
 40
0.0635
 41
0.0635
 70
0
  0
VERTEX
  8
22
 10
17.8160
 20
4.5543
 30
0.0000
 42
1.0000
  0
VERTEX
  8
22
 10
17.7527
 20
4.5487
 30
0.0000
  0
SEQEND
  8
0
  0
POLYLINE
  8
22
 66
1
 10
0.0000
 20
0.0000
 30
0.0000
 40
0.0635
 41
0.0635
 70
0
  0
VERTEX
  8
22
 10
17.7668
 20
4.3876
 30
0.0000
 42
1.0000
  0
VERTEX
  8
22
 10
17.8301
 20
4.3931
 30
0.0000
  0
SEQEND
  8
0
  0
POLYLINE
  8
22
 66
1
 10
0.0000
 20
0.0000
 30
0.0000
 40
0.1270
 41
0.1270
 70
0
  0
VERTEX
  8
22
 10
17.7844
 20
4.5515
 30
0.0000
  0
VERTEX
  8
22
 10
17.6232
 20
4.5374
 30
0.0000
  0
SEQEND
  8
0
  0
POLYLINE
  8
22
 66
1
 10
0.0000
 20
0.0000
 30
0.0000
 40
0.0635
 41
0.0635
 70
0
  0
VERTEX
  8
22
 10
17.6204
 20
4.5690
 30
0.0000
 42
1.0000
  0
VERTEX
  8
22
 10
17.6260
 20
4.5058
 30
0.0000
  0
SEQEND
  8
0
  0
POLYLINE
  8
22
 66
1
 10
0.0000
 20
0.0000
 30
0.0000
 40
0.0635
 41
0.0635
 70
0
  0
VERTEX
  8
22
 10
17.7871
 20
4.5199
 30
0.0000
 42
1.0000
  0
VERTEX
  8
22
 10
17.7816
 20
4.5831
 30
0.0000
  0
SEQEND
  8
0
  0
POLYLINE
  8
22
 66
1
 10
0.0000
 20
0.0000
 30
0.0000
 40
0.1270
 41
0.1270
 70
0
  0
VERTEX
  8
22
 10
17.6232
 20
4.5374
 30
0.0000
  0
VERTEX
  8
22
 10
17.4026
 20
4.2745
 30
0.0000
  0
SEQEND
  8
0
  0
POLYLINE
  8
22
 66
1
 10
0.0000
 20
0.0000
 30
0.0000
 40
0.0635
 41
0.0635
 70
0
  0
VERTEX
  8
22
 10
17.3783
 20
4.2949
 30
0.0000
 42
1.0000
  0
VERTEX
  8
22
 10
17.4269
 20
4.2541
 30
0.0000
  0
SEQEND
  8
0
  0
POLYLINE
  8
22
 66
1
 10
0.0000
 20
0.0000
 30
0.0000
 40
0.0635
 41
0.0635
 70
0
  0
VERTEX
  8
22
 10
17.6475
 20
4.5170
 30
0.0000
 42
1.0000
  0
VERTEX
  8
22
 10
17.5989
 20
4.5578
 30
0.0000
  0
SEQEND
  8
0
  0
POLYLINE
  8
22
 66
1
 10
0.0000
 20
0.0000
 30
0.0000
 40
0.1270
 41
0.1270
 70
0
  0
VERTEX
  8
22
 10
17.3456
 20
3.4947
 30
0.0000
  0
VERTEX
  8
22
 10
17.4927
 20
3.6700
 30
0.0000
  0
SEQEND
  8
0
  0
POLYLINE
  8
22
 66
1
 10
0.0000
 20
0.0000
 30
0.0000
 40
0.0635
 41
0.0635
 70
0
  0
VERTEX
  8
22
 10
17.5170
 20
3.6496
 30
0.0000
 42
1.0000
  0
VERTEX
  8
22
 10
17.4683
 20
3.6904
 30
0.0000
  0
SEQEND
  8
0
  0
POLYLINE
  8
22
 66
1
 10
0.0000
 20
0.0000
 30
0.0000
 40
0.0635
 41
0.0635
 70
0
  0
VERTEX
  8
22
 10
17.3213
 20
3.5151
 30
0.0000
 42
1.0000
  0
VERTEX
  8
22
 10
17.3699
 20
3.4743
 30
0.0000
  0
SEQEND
  8
0
  0
POLYLINE
  8
22
 66
1
 10
0.0000
 20
0.0000
 30
0.0000
 40
0.1270
 41
0.1270
 70
0
  0
VERTEX
  8
22
 10
17.4927
 20
3.6700
 30
0.0000
  0
VERTEX
  8
22
 10
17.4786
 20
3.8311
 30
0.0000
  0
SEQEND
  8
0
  0
POLYLINE
  8
22
 66
1
 10
0.0000
 20
0.0000
 30
0.0000
 40
0.0635
 41
0.0635
 70
0
  0
VERTEX
  8
22
 10
17.5102
 20
3.8339
 30
0.0000
 42
1.0000
  0
VERTEX
  8
22
 10
17.4469
 20
3.8284
 30
0.0000
  0
SEQEND
  8
0
  0
POLYLINE
  8
22
 66
1
 10
0.0000
 20
0.0000
 30
0.0000
 40
0.0635
 41
0.0635
 70
0
  0
VERTEX
  8
22
 10
17.4610
 20
3.6672
 30
0.0000
 42
1.0000
  0
VERTEX
  8
22
 10
17.5243
 20
3.6727
 30
0.0000
  0
SEQEND
  8
0
  0
POLYLINE
  8
22
 66
1
 10
0.0000
 20
0.0000
 30
0.0000
 40
0.1270
 41
0.1270
 70
0
  0
VERTEX
  8
22
 10
17.4786
 20
3.8311
 30
0.0000
  0
VERTEX
  8
22
 10
17.3033
 20
3.9782
 30
0.0000
  0
SEQEND
  8
0
  0
POLYLINE
  8
22
 66
1
 10
0.0000
 20
0.0000
 30
0.0000
 40
0.0635
 41
0.0635
 70
0
  0
VERTEX
  8
22
 10
17.3237
 20
4.0025
 30
0.0000
 42
1.0000
  0
VERTEX
  8
22
 10
17.2829
 20
3.9539
 30
0.0000
  0
SEQEND
  8
0
  0
POLYLINE
  8
22
 66
1
 10
0.0000
 20
0.0000
 30
0.0000
 40
0.0635
 41
0.0635
 70
0
  0
VERTEX
  8
22
 10
17.4581
 20
3.8068
 30
0.0000
 42
1.0000
  0
VERTEX
  8
22
 10
17.4990
 20
3.8554
 30
0.0000
  0
SEQEND
  8
0
  0
POLYLINE
  8
22
 66
1
 10
0.0000
 20
0.0000
 30
0.0000
 40
0.1270
 41
0.1270
 70
0
  0
VERTEX
  8
22
 10
17.3033
 20
3.9782
 30
0.0000
  0
VERTEX
  8
22
 10
17.1421
 20
3.9641
 30
0.0000
  0
SEQEND
  8
0
  0
POLYLINE
  8
22
 66
1
 10
0.0000
 20
0.0000
 30
0.0000
 40
0.0635
 41
0.0635
 70
0
  0
VERTEX
  8
22
 10
17.1394
 20
3.9957
 30
0.0000
 42
1.0000
  0
VERTEX
  8
22
 10
17.1449
 20
3.9325
 30
0.0000
  0
SEQEND
  8
0
  0
POLYLINE
  8
22
 66
1
 10
0.0000
 20
0.0000
 30
0.0000
 40
0.0635
 41
0.0635
 70
0
  0
VERTEX
  8
22
 10
17.3061
 20
3.9466
 30
0.0000
 42
1.0000
  0
VERTEX
  8
22
 10
17.3005
 20
4.0098
 30
0.0000
  0
SEQEND
  8
0
  0
POLYLINE
  8
22
 66
1
 10
0.0000
 20
0.0000
 30
0.0000
 40
0.1270
 41
0.1270
 70
0
  0
VERTEX
  8
22
 10
17.1421
 20
3.9641
 30
0.0000
  0
VERTEX
  8
22
 10
16.9951
 20
3.7888
 30
0.0000
  0
SEQEND
  8
0
  0
POLYLINE
  8
22
 66
1
 10
0.0000
 20
0.0000
 30
0.0000
 40
0.0635
 41
0.0635
 70
0
  0
VERTEX
  8
22
 10
16.9707
 20
3.8092
 30
0.0000
 42
1.0000
  0
VERTEX
  8
22
 10
17.0194
 20
3.7684
 30
0.0000
  0
SEQEND
  8
0
  0
POLYLINE
  8
22
 66
1
 10
0.0000
 20
0.0000
 30
0.0000
 40
0.0635
 41
0.0635
 70
0
  0
VERTEX
  8
22
 10
17.1664
 20
3.9437
 30
0.0000
 42
1.0000
  0
VERTEX
  8
22
 10
17.1178
 20
3.9845
 30
0.0000
  0
SEQEND
  8
0
  0
POLYLINE
  8
22
 66
1
 10
0.0000
 20
0.0000
 30
0.0000
 40
0.1270
 41
0.1270
 70
0
  0
VERTEX
  8
22
 10
16.9951
 20
3.7888
 30
0.0000
  0
VERTEX
  8
22
 10
17.0092
 20
3.6277
 30
0.0000
  0
SEQEND
  8
0
  0
POLYLINE
  8
22
 66
1
 10
0.0000
 20
0.0000
 30
0.0000
 40
0.0635
 41
0.0635
 70
0
  0
VERTEX
  8
22
 10
16.9775
 20
3.6249
 30
0.0000
 42
1.0000
  0
VERTEX
  8
22
 10
17.0408
 20
3.6304
 30
0.0000
  0
SEQEND
  8
0
  0
POLYLINE
  8
22
 66
1
 10
0.0000
 20
0.0000
 30
0.0000
 40
0.0635
 41
0.0635
 70
0
  0
VERTEX
  8
22
 10
17.0267
 20
3.7916
 30
0.0000
 42
1.0000
  0
VERTEX
  8
22
 10
16.9634
 20
3.7861
 30
0.0000
  0
SEQEND
  8
0
  0
POLYLINE
  8
22
 66
1
 10
0.0000
 20
0.0000
 30
0.0000
 40
0.1270
 41
0.1270
 70
0
  0
VERTEX
  8
22
 10
17.0092
 20
3.6277
 30
0.0000
  0
VERTEX
  8
22
 10
17.0968
 20
3.5541
 30
0.0000
  0
SEQEND
  8
0
  0
POLYLINE
  8
22
 66
1
 10
0.0000
 20
0.0000
 30
0.0000
 40
0.0635
 41
0.0635
 70
0
  0
VERTEX
  8
22
 10
17.0764
 20
3.5298
 30
0.0000
 42
1.0000
  0
VERTEX
  8
22
 10
17.1172
 20
3.5784
 30
0.0000
  0
SEQEND
  8
0
  0
POLYLINE
  8
22
 66
1
 10
0.0000
 20
0.0000
 30
0.0000
 40
0.0635
 41
0.0635
 70
0
  0
VERTEX
  8
22
 10
17.0296
 20
3.6520
 30
0.0000
 42
1.0000
  0
VERTEX
  8
22
 10
16.9887
 20
3.6033
 30
0.0000
  0
SEQEND
  8
0
  0
POLYLINE
  8
22
 66
1
 10
0.0000
 20
0.0000
 30
0.0000
 40
0.1270
 41
0.1270
 70
0
  0
VERTEX
  8
22
 10
17.0968
 20
3.5541
 30
0.0000
  0
VERTEX
  8
22
 10
17.3909
 20
3.9047
 30
0.0000
  0
SEQEND
  8
0
  0
POLYLINE
  8
22
 66
1
 10
0.0000
 20
0.0000
 30
0.0000
 40
0.0635
 41
0.0635
 70
0
  0
VERTEX
  8
22
 10
17.4152
 20
3.8843
 30
0.0000
 42
1.0000
  0
VERTEX
  8
22
 10
17.3666
 20
3.9251
 30
0.0000
  0
SEQEND
  8
0
  0
POLYLINE
  8
22
 66
1
 10
0.0000
 20
0.0000
 30
0.0000
 40
0.0635
 41
0.0635
 70
0
  0
VERTEX
  8
22
 10
17.0725
 20
3.5745
 30
0.0000
 42
1.0000
  0
VERTEX
  8
22
 10
17.1211
 20
3.5337
 30
0.0000
  0
SEQEND
  8
0
  0
POLYLINE
  8
22
 66
1
 10
0.0000
 20
0.0000
 30
0.0000
 40
0.1270
 41
0.1270
 70
0
  0
VERTEX
  8
22
 10
15.8576
 20
2.7893
 30
0.0000
  0
VERTEX
  8
22
 10
16.0047
 20
2.9645
 30
0.0000
  0
SEQEND
  8
0
  0
POLYLINE
  8
22
 66
1
 10
0.0000
 20
0.0000
 30
0.0000
 40
0.0635
 41
0.0635
 70
0
  0
VERTEX
  8
22
 10
16.0290
 20
2.9441
 30
0.0000
 42
1.0000
  0
VERTEX
  8
22
 10
15.9804
 20
2.9849
 30
0.0000
  0
SEQEND
  8
0
  0
POLYLINE
  8
22
 66
1
 10
0.0000
 20
0.0000
 30
0.0000
 40
0.0635
 41
0.0635
 70
0
  0
VERTEX
  8
22
 10
15.8333
 20
2.8097
 30
0.0000
 42
1.0000
  0
VERTEX
  8
22
 10
15.8820
 20
2.7688
 30
0.0000
  0
SEQEND
  8
0
  0
POLYLINE
  8
22
 66
1
 10
0.0000
 20
0.0000
 30
0.0000
 40
0.1270
 41
0.1270
 70
0
  0
VERTEX
  8
22
 10
16.0047
 20
2.9645
 30
0.0000
  0
VERTEX
  8
22
 10
16.1659
 20
2.9786
 30
0.0000
  0
SEQEND
  8
0
  0
POLYLINE
  8
22
 66
1
 10
0.0000
 20
0.0000
 30
0.0000
 40
0.0635
 41
0.0635
 70
0
  0
VERTEX
  8
22
 10
16.1686
 20
2.9470
 30
0.0000
 42
1.0000
  0
VERTEX
  8
22
 10
16.1631
 20
3.0102
 30
0.0000
  0
SEQEND
  8
0
  0
POLYLINE
  8
22
 66
1
 10
0.0000
 20
0.0000
 30
0.0000
 40
0.0635
 41
0.0635
 70
0
  0
VERTEX
  8
22
 10
16.0019
 20
2.9961
 30
0.0000
 42
1.0000
  0
VERTEX
  8
22
 10
16.0075
 20
2.9329
 30
0.0000
  0
SEQEND
  8
0
  0
POLYLINE
  8
22
 66
1
 10
0.0000
 20
0.0000
 30
0.0000
 40
0.1270
 41
0.1270
 70
0
  0
VERTEX
  8
22
 10
16.1659
 20
2.9786
 30
0.0000
  0
VERTEX
  8
22
 10
16.5164
 20
2.6845
 30
0.0000
  0
SEQEND
  8
0
  0
POLYLINE
  8
22
 66
1
 10
0.0000
 20
0.0000
 30
0.0000
 40
0.0635
 41
0.0635
 70
0
  0
VERTEX
  8
22
 10
16.4960
 20
2.6602
 30
0.0000
 42
1.0000
  0
VERTEX
  8
22
 10
16.5368
 20
2.7088
 30
0.0000
  0
SEQEND
  8
0
  0
POLYLINE
  8
22
 66
1
 10
0.0000
 20
0.0000
 30
0.0000
 40
0.0635
 41
0.0635
 70
0
  0
VERTEX
  8
22
 10
16.1863
 20
3.0029
 30
0.0000
 42
1.0000
  0
VERTEX
  8
22
 10
16.1455
 20
2.9543
 30
0.0000
  0
SEQEND
  8
0
  0
POLYLINE
  8
22
 66
1
 10
0.0000
 20
0.0000
 30
0.0000
 40
0.1270
 41
0.1270
 70
0
  0
VERTEX
  8
22
 10
16.5164
 20
2.6845
 30
0.0000
  0
VERTEX
  8
22
 10
16.5305
 20
2.5233
 30
0.0000
  0
SEQEND
  8
0
  0
POLYLINE
  8
22
 66
1
 10
0.0000
 20
0.0000
 30
0.0000
 40
0.0635
 41
0.0635
 70
0
  0
VERTEX
  8
22
 10
16.4989
 20
2.5205
 30
0.0000
 42
1.0000
  0
VERTEX
  8
22
 10
16.5621
 20
2.5261
 30
0.0000
  0
SEQEND
  8
0
  0
POLYLINE
  8
22
 66
1
 10
0.0000
 20
0.0000
 30
0.0000
 40
0.0635
 41
0.0635
 70
0
  0
VERTEX
  8
22
 10
16.5480
 20
2.6872
 30
0.0000
 42
1.0000
  0
VERTEX
  8
22
 10
16.4848
 20
2.6817
 30
0.0000
  0
SEQEND
  8
0
  0
POLYLINE
  8
22
 66
1
 10
0.0000
 20
0.0000
 30
0.0000
 40
0.1270
 41
0.1270
 70
0
  0
VERTEX
  8
22
 10
16.5305
 20
2.5233
 30
0.0000
  0
VERTEX
  8
22
 10
16.3834
 20
2.3481
 30
0.0000
  0
SEQEND
  8
0
  0
POLYLINE
  8
22
 66
1
 10
0.0000
 20
0.0000
 30
0.0000
 40
0.0635
 41
0.0635
 70
0
  0
VERTEX
  8
22
 10
16.3591
 20
2.3685
 30
0.0000
 42
1.0000
  0
VERTEX
  8
22
 10
16.4078
 20
2.3276
 30
0.0000
  0
SEQEND
  8
0
  0
POLYLINE
  8
22
 66
1
 10
0.0000
 20
0.0000
 30
0.0000
 40
0.0635
 41
0.0635
 70
0
  0
VERTEX
  8
22
 10
16.5548
 20
2.5029
 30
0.0000
 42
1.0000
  0
VERTEX
  8
22
 10
16.5062
 20
2.5437
 30
0.0000
  0
SEQEND
  8
0
  0
POLYLINE
  8
22
 66
1
 10
0.0000
 20
0.0000
 30
0.0000
 40
0.1270
 41
0.1270
 70
0
  0
VERTEX
  8
22
 10
16.3834
 20
2.3481
 30
0.0000
  0
VERTEX
  8
22
 10
16.2223
 20
2.3339
 30
0.0000
  0
SEQEND
  8
0
  0
POLYLINE
  8
22
 66
1
 10
0.0000
 20
0.0000
 30
0.0000
 40
0.0635
 41
0.0635
 70
0
  0
VERTEX
  8
22
 10
16.2195
 20
2.3656
 30
0.0000
 42
1.0000
  0
VERTEX
  8
22
 10
16.2250
 20
2.3023
 30
0.0000
  0
SEQEND
  8
0
  0
POLYLINE
  8
22
 66
1
 10
0.0000
 20
0.0000
 30
0.0000
 40
0.0635
 41
0.0635
 70
0
  0
VERTEX
  8
22
 10
16.3862
 20
2.3164
 30
0.0000
 42
1.0000
  0
VERTEX
  8
22
 10
16.3807
 20
2.3797
 30
0.0000
  0
SEQEND
  8
0
  0
POLYLINE
  8
22
 66
1
 10
0.0000
 20
0.0000
 30
0.0000
 40
0.1270
 41
0.1270
 70
0
  0
VERTEX
  8
22
 10
16.2223
 20
2.3339
 30
0.0000
  0
VERTEX
  8
22
 10
15.8717
 20
2.6281
 30
0.0000
  0
SEQEND
  8
0
  0
POLYLINE
  8
22
 66
1
 10
0.0000
 20
0.0000
 30
0.0000
 40
0.0635
 41
0.0635
 70
0
  0
VERTEX
  8
22
 10
15.8921
 20
2.6524
 30
0.0000
 42
1.0000
  0
VERTEX
  8
22
 10
15.8513
 20
2.6038
 30
0.0000
  0
SEQEND
  8
0
  0
POLYLINE
  8
22
 66
1
 10
0.0000
 20
0.0000
 30
0.0000
 40
0.0635
 41
0.0635
 70
0
  0
VERTEX
  8
22
 10
16.2019
 20
2.3096
 30
0.0000
 42
1.0000
  0
VERTEX
  8
22
 10
16.2427
 20
2.3583
 30
0.0000
  0
SEQEND
  8
0
  0
POLYLINE
  8
22
 66
1
 10
0.0000
 20
0.0000
 30
0.0000
 40
0.1270
 41
0.1270
 70
0
  0
VERTEX
  8
22
 10
15.8717
 20
2.6281
 30
0.0000
  0
VERTEX
  8
22
 10
15.8576
 20
2.7893
 30
0.0000
  0
SEQEND
  8
0
  0
POLYLINE
  8
22
 66
1
 10
0.0000
 20
0.0000
 30
0.0000
 40
0.0635
 41
0.0635
 70
0
  0
VERTEX
  8
22
 10
15.8893
 20
2.7920
 30
0.0000
 42
1.0000
  0
VERTEX
  8
22
 10
15.8260
 20
2.7865
 30
0.0000
  0
SEQEND
  8
0
  0
POLYLINE
  8
22
 66
1
 10
0.0000
 20
0.0000
 30
0.0000
 40
0.0635
 41
0.0635
 70
0
  0
VERTEX
  8
22
 10
15.8401
 20
2.6253
 30
0.0000
 42
1.0000
  0
VERTEX
  8
22
 10
15.9034
 20
2.6308
 30
0.0000
  0
SEQEND
  8
0
  0
POLYLINE
  8
22
 66
1
 10
0.0000
 20
0.0000
 30
0.0000
 40
0.1270
 41
0.1270
 70
0
  0
VERTEX
  8
22
 10
16.1230
 20
2.0376
 30
0.0000
  0
VERTEX
  8
22
 10
15.7724
 20
2.3318
 30
0.0000
  0
SEQEND
  8
0
  0
POLYLINE
  8
22
 66
1
 10
0.0000
 20
0.0000
 30
0.0000
 40
0.0635
 41
0.0635
 70
0
  0
VERTEX
  8
22
 10
15.7928
 20
2.3561
 30
0.0000
 42
1.0000
  0
VERTEX
  8
22
 10
15.7520
 20
2.3074
 30
0.0000
  0
SEQEND
  8
0
  0
POLYLINE
  8
22
 66
1
 10
0.0000
 20
0.0000
 30
0.0000
 40
0.0635
 41
0.0635
 70
0
  0
VERTEX
  8
22
 10
16.1026
 20
2.0133
 30
0.0000
 42
1.0000
  0
VERTEX
  8
22
 10
16.1434
 20
2.0620
 30
0.0000
  0
SEQEND
  8
0
  0
POLYLINE
  8
22
 66
1
 10
0.0000
 20
0.0000
 30
0.0000
 40
0.1270
 41
0.1270
 70
0
  0
VERTEX
  8
22
 10
15.7724
 20
2.3318
 30
0.0000
  0
VERTEX
  8
22
 10
15.5518
 20
2.0689
 30
0.0000
  0
SEQEND
  8
0
  0
POLYLINE
  8
22
 66
1
 10
0.0000
 20
0.0000
 30
0.0000
 40
0.0635
 41
0.0635
 70
0
  0
VERTEX
  8
22
 10
15.5275
 20
2.0893
 30
0.0000
 42
1.0000
  0
VERTEX
  8
22
 10
15.5762
 20
2.0485
 30
0.0000
  0
SEQEND
  8
0
  0
POLYLINE
  8
22
 66
1
 10
0.0000
 20
0.0000
 30
0.0000
 40
0.0635
 41
0.0635
 70
0
  0
VERTEX
  8
22
 10
15.7968
 20
2.3114
 30
0.0000
 42
1.0000
  0
VERTEX
  8
22
 10
15.7481
 20
2.3522
 30
0.0000
  0
SEQEND
  8
0
  0
POLYLINE
  8
22
 66
1
 10
0.0000
 20
0.0000
 30
0.0000
 40
0.1270
 41
0.1270
 70
0
  0
VERTEX
  8
22
 10
15.5518
 20
2.0689
 30
0.0000
  0
VERTEX
  8
22
 10
15.5659
 20
1.9077
 30
0.0000
  0
SEQEND
  8
0
  0
POLYLINE
  8
22
 66
1
 10
0.0000
 20
0.0000
 30
0.0000
 40
0.0635
 41
0.0635
 70
0
  0
VERTEX
  8
22
 10
15.5343
 20
1.9049
 30
0.0000
 42
1.0000
  0
VERTEX
  8
22
 10
15.5976
 20
1.9105
 30
0.0000
  0
SEQEND
  8
0
  0
POLYLINE
  8
22
 66
1
 10
0.0000
 20
0.0000
 30
0.0000
 40
0.0635
 41
0.0635
 70
0
  0
VERTEX
  8
22
 10
15.5835
 20
2.0716
 30
0.0000
 42
1.0000
  0
VERTEX
  8
22
 10
15.5202
 20
2.0661
 30
0.0000
  0
SEQEND
  8
0
  0
POLYLINE
  8
22
 66
1
 10
0.0000
 20
0.0000
 30
0.0000
 40
0.1270
 41
0.1270
 70
0
  0
VERTEX
  8
22
 10
15.5659
 20
1.9077
 30
0.0000
  0
VERTEX
  8
22
 10
15.8288
 20
1.6871
 30
0.0000
  0
SEQEND
  8
0
  0
POLYLINE
  8
22
 66
1
 10
0.0000
 20
0.0000
 30
0.0000
 40
0.0635
 41
0.0635
 70
0
  0
VERTEX
  8
22
 10
15.8084
 20
1.6628
 30
0.0000
 42
1.0000
  0
VERTEX
  8
22
 10
15.8492
 20
1.7114
 30
0.0000
  0
SEQEND
  8
0
  0
POLYLINE
  8
22
 66
1
 10
0.0000
 20
0.0000
 30
0.0000
 40
0.0635
 41
0.0635
 70
0
  0
VERTEX
  8
22
 10
15.5863
 20
1.9320
 30
0.0000
 42
1.0000
  0
VERTEX
  8
22
 10
15.5455
 20
1.8834
 30
0.0000
  0
SEQEND
  8
0
  0
POLYLINE
  8
22
 66
1
 10
0.0000
 20
0.0000
 30
0.0000
 40
0.1270
 41
0.1270
 70
0
  0
VERTEX
  8
22
 10
15.1161
 20
1.9055
 30
0.0000
  0
VERTEX
  8
22
 10
15.0426
 20
1.8179
 30
0.0000
  0
SEQEND
  8
0
  0
POLYLINE
  8
22
 66
1
 10
0.0000
 20
0.0000
 30
0.0000
 40
0.0635
 41
0.0635
 70
0
  0
VERTEX
  8
22
 10
15.0182
 20
1.8383
 30
0.0000
 42
1.0000
  0
VERTEX
  8
22
 10
15.0669
 20
1.7975
 30
0.0000
  0
SEQEND
  8
0
  0
POLYLINE
  8
22
 66
1
 10
0.0000
 20
0.0000
 30
0.0000
 40
0.0635
 41
0.0635
 70
0
  0
VERTEX
  8
22
 10
15.1404
 20
1.8851
 30
0.0000
 42
1.0000
  0
VERTEX
  8
22
 10
15.0918
 20
1.9259
 30
0.0000
  0
SEQEND
  8
0
  0
POLYLINE
  8
22
 66
1
 10
0.0000
 20
0.0000
 30
0.0000
 40
0.1270
 41
0.1270
 70
0
  0
VERTEX
  8
22
 10
15.0426
 20
1.8179
 30
0.0000
  0
VERTEX
  8
22
 10
15.5684
 20
1.3767
 30
0.0000
  0
SEQEND
  8
0
  0
POLYLINE
  8
22
 66
1
 10
0.0000
 20
0.0000
 30
0.0000
 40
0.0635
 41
0.0635
 70
0
  0
VERTEX
  8
22
 10
15.5480
 20
1.3523
 30
0.0000
 42
1.0000
  0
VERTEX
  8
22
 10
15.5888
 20
1.4010
 30
0.0000
  0
SEQEND
  8
0
  0
POLYLINE
  8
22
 66
1
 10
0.0000
 20
0.0000
 30
0.0000
 40
0.0635
 41
0.0635
 70
0
  0
VERTEX
  8
22
 10
15.0630
 20
1.8422
 30
0.0000
 42
1.0000
  0
VERTEX
  8
22
 10
15.0222
 20
1.7935
 30
0.0000
  0
SEQEND
  8
0
  0
POLYLINE
  8
22
 66
1
 10
0.0000
 20
0.0000
 30
0.0000
 40
0.1270
 41
0.1270
 70
0
  0
VERTEX
  8
22
 10
15.6419
 20
1.4643
 30
0.0000
  0
VERTEX
  8
22
 10
15.4948
 20
1.2890
 30
0.0000
  0
SEQEND
  8
0
  0
POLYLINE
  8
22
 66
1
 10
0.0000
 20
0.0000
 30
0.0000
 40
0.0635
 41
0.0635
 70
0
  0
VERTEX
  8
22
 10
15.4705
 20
1.3094
 30
0.0000
 42
1.0000
  0
VERTEX
  8
22
 10
15.5192
 20
1.2686
 30
0.0000
  0
SEQEND
  8
0
  0
POLYLINE
  8
22
 66
1
 10
0.0000
 20
0.0000
 30
0.0000
 40
0.0635
 41
0.0635
 70
0
  0
VERTEX
  8
22
 10
15.6662
 20
1.4439
 30
0.0000
 42
1.0000
  0
VERTEX
  8
22
 10
15.6176
 20
1.4847
 30
0.0000
  0
SEQEND
  8
0
  0
POLYLINE
  8
22
 66
1
 10
0.0000
 20
0.0000
 30
0.0000
 40
0.1270
 41
0.1270
 70
0
  0
VERTEX
  8
22
 10
14.9707
 20
1.3762
 30
0.0000
  0
VERTEX
  8
22
 10
15.2336
 20
1.1556
 30
0.0000
  0
SEQEND
  8
0
  0
POLYLINE
  8
22
 66
1
 10
0.0000
 20
0.0000
 30
0.0000
 40
0.0635
 41
0.0635
 70
0
  0
VERTEX
  8
22
 10
15.2131
 20
1.1313
 30
0.0000
 42
1.0000
  0
VERTEX
  8
22
 10
15.2540
 20
1.1799
 30
0.0000
  0
SEQEND
  8
0
  0
POLYLINE
  8
22
 66
1
 10
0.0000
 20
0.0000
 30
0.0000
 40
0.0635
 41
0.0635
 70
0
  0
VERTEX
  8
22
 10
14.9911
 20
1.4005
 30
0.0000
 42
1.0000
  0
VERTEX
  8
22
 10
14.9502
 20
1.3519
 30
0.0000
  0
SEQEND
  8
0
  0
POLYLINE
  8
22
 66
1
 10
0.0000
 20
0.0000
 30
0.0000
 40
0.1270
 41
0.1270
 70
0
  0
VERTEX
  8
22
 10
15.2336
 20
1.1556
 30
0.0000
  0
VERTEX
  8
22
 10
15.2477
 20
0.9945
 30
0.0000
  0
SEQEND
  8
0
  0
POLYLINE
  8
22
 66
1
 10
0.0000
 20
0.0000
 30
0.0000
 40
0.0635
 41
0.0635
 70
0
  0
VERTEX
  8
22
 10
15.2160
 20
0.9917
 30
0.0000
 42
1.0000
  0
VERTEX
  8
22
 10
15.2793
 20
0.9972
 30
0.0000
  0
SEQEND
  8
0
  0
POLYLINE
  8
22
 66
1
 10
0.0000
 20
0.0000
 30
0.0000
 40
0.0635
 41
0.0635
 70
0
  0
VERTEX
  8
22
 10
15.2652
 20
1.1584
 30
0.0000
 42
1.0000
  0
VERTEX
  8
22
 10
15.2019
 20
1.1529
 30
0.0000
  0
SEQEND
  8
0
  0
POLYLINE
  8
22
 66
1
 10
0.0000
 20
0.0000
 30
0.0000
 40
0.1270
 41
0.1270
 70
0
  0
VERTEX
  8
22
 10
15.2477
 20
0.9945
 30
0.0000
  0
VERTEX
  8
22
 10
15.0271
 20
0.7316
 30
0.0000
  0
SEQEND
  8
0
  0
POLYLINE
  8
22
 66
1
 10
0.0000
 20
0.0000
 30
0.0000
 40
0.0635
 41
0.0635
 70
0
  0
VERTEX
  8
22
 10
15.0027
 20
0.7520
 30
0.0000
 42
1.0000
  0
VERTEX
  8
22
 10
15.0514
 20
0.7111
 30
0.0000
  0
SEQEND
  8
0
  0
POLYLINE
  8
22
 66
1
 10
0.0000
 20
0.0000
 30
0.0000
 40
0.0635
 41
0.0635
 70
0
  0
VERTEX
  8
22
 10
15.2720
 20
0.9740
 30
0.0000
 42
1.0000
  0
VERTEX
  8
22
 10
15.2233
 20
1.0149
 30
0.0000
  0
SEQEND
  8
0
  0
POLYLINE
  8
22
 66
1
 10
0.0000
 20
0.0000
 30
0.0000
 40
0.1270
 41
0.1270
 70
0
  0
VERTEX
  8
22
 10
14.6765
 20
1.0257
 30
0.0000
  0
VERTEX
  8
22
 10
15.1147
 20
0.6580
 30
0.0000
  0
SEQEND
  8
0
  0
POLYLINE
  8
22
 66
1
 10
0.0000
 20
0.0000
 30
0.0000
 40
0.0635
 41
0.0635
 70
0
  0
VERTEX
  8
22
 10
15.0943
 20
0.6337
 30
0.0000
 42
1.0000
  0
VERTEX
  8
22
 10
15.1351
 20
0.6823
 30
0.0000
  0
SEQEND
  8
0
  0
POLYLINE
  8
22
 66
1
 10
0.0000
 20
0.0000
 30
0.0000
 40
0.0635
 41
0.0635
 70
0
  0
VERTEX
  8
22
 10
14.6969
 20
1.0500
 30
0.0000
 42
1.0000
  0
VERTEX
  8
22
 10
14.6561
 20
1.0014
 30
0.0000
  0
SEQEND
  8
0
  0
POLYLINE
  8
22
 66
1
 10
0.0000
 20
0.0000
 30
0.0000
 40
0.1270
 41
0.1270
 70
0
  0
VERTEX
  8
22
 10
15.1147
 20
0.6580
 30
0.0000
  0
VERTEX
  8
22
 10
15.2759
 20
0.6721
 30
0.0000
  0
SEQEND
  8
0
  0
POLYLINE
  8
22
 66
1
 10
0.0000
 20
0.0000
 30
0.0000
 40
0.0635
 41
0.0635
 70
0
  0
VERTEX
  8
22
 10
15.2786
 20
0.6405
 30
0.0000
 42
1.0000
  0
VERTEX
  8
22
 10
15.2731
 20
0.7038
 30
0.0000
  0
SEQEND
  8
0
  0
POLYLINE
  8
22
 66
1
 10
0.0000
 20
0.0000
 30
0.0000
 40
0.0635
 41
0.0635
 70
0
  0
VERTEX
  8
22
 10
15.1119
 20
0.6897
 30
0.0000
 42
1.0000
  0
VERTEX
  8
22
 10
15.1175
 20
0.6264
 30
0.0000
  0
SEQEND
  8
0
  0
POLYLINE
  8
22
 66
1
 10
0.0000
 20
0.0000
 30
0.0000
 40
0.1270
 41
0.1270
 70
0
  0
VERTEX
  8
22
 10
15.2759
 20
0.6721
 30
0.0000
  0
VERTEX
  8
22
 10
15.3494
 20
0.7598
 30
0.0000
  0
SEQEND
  8
0
  0
POLYLINE
  8
22
 66
1
 10
0.0000
 20
0.0000
 30
0.0000
 40
0.0635
 41
0.0635
 70
0
  0
VERTEX
  8
22
 10
15.3737
 20
0.7393
 30
0.0000
 42
1.0000
  0
VERTEX
  8
22
 10
15.3251
 20
0.7802
 30
0.0000
  0
SEQEND
  8
0
  0
POLYLINE
  8
22
 66
1
 10
0.0000
 20
0.0000
 30
0.0000
 40
0.0635
 41
0.0635
 70
0
  0
VERTEX
  8
22
 10
15.2515
 20
0.6925
 30
0.0000
 42
1.0000
  0
VERTEX
  8
22
 10
15.3002
 20
0.6517
 30
0.0000
  0
SEQEND
  8
0
  0
POLYLINE
  8
22
 66
1
 10
0.0000
 20
0.0000
 30
0.0000
 40
0.1524
 41
0.1524
 70
0
  0
VERTEX
  8
22
 10
11.0000
 20
1.2876
 30
0.0000
 42
1.0000
  0
VERTEX
  8
22
 10
11.0000
 20
3.4876
 30
0.0000
 42
1.0000
  0
VERTEX
  8
22
 10
11.0000
 20
1.2876
 30
0.0000
  0
SEQEND
  8
0
  0
CIRCLE
  8
20
 10
2.0000
 20
9.5000
 30
0.0000
 40
1.1000
  0
CIRCLE
  8
20
 10
20.0000
 20
9.5000
 30
0.0000
 40
1.1000
  0
POLYLINE
  8
22
 66
1
 10
0.0000
 20
0.0000
 30
0.0000
 40
0.1270
 41
0.1270
 70
0
  0
VERTEX
  8
22
 10
19.8900
 20
20.1110
 30
0.0000
  0
VERTEX
  8
22
 10
2.1100
 20
20.1110
 30
0.0000
  0
SEQEND
  8
0
  0
POLYLINE
  8
22
 66
1
 10
0.0000
 20
0.0000
 30
0.0000
 40
0.0635
 41
0.0635
 70
0
  0
VERTEX
  8
22
 10
2.1100
 20
20.1427
 30
0.0000
 42
1.0000
  0
VERTEX
  8
22
 10
2.1100
 20
20.0793
 30
0.0000
  0
SEQEND
  8
0
  0
POLYLINE
  8
22
 66
1
 10
0.0000
 20
0.0000
 30
0.0000
 40
0.0635
 41
0.0635
 70
0
  0
VERTEX
  8
22
 10
19.8900
 20
20.0793
 30
0.0000
 42
1.0000
  0
VERTEX
  8
22
 10
19.8900
 20
20.1427
 30
0.0000
  0
SEQEND
  8
0
  0
POLYLINE
  8
22
 66
1
 10
0.0000
 20
0.0000
 30
0.0000
 40
0.1270
 41
0.1270
 70
0
  0
VERTEX
  8
22
 10
2.1100
 20
13.7610
 30
0.0000
  0
VERTEX
  8
22
 10
2.1100
 20
20.1110
 30
0.0000
  0
SEQEND
  8
0
  0
POLYLINE
  8
22
 66
1
 10
0.0000
 20
0.0000
 30
0.0000
 40
0.0635
 41
0.0635
 70
0
  0
VERTEX
  8
22
 10
2.1418
 20
20.1110
 30
0.0000
 42
1.0000
  0
VERTEX
  8
22
 10
2.0783
 20
20.1110
 30
0.0000
  0
SEQEND
  8
0
  0
POLYLINE
  8
22
 66
1
 10
0.0000
 20
0.0000
 30
0.0000
 40
0.0635
 41
0.0635
 70
0
  0
VERTEX
  8
22
 10
2.0783
 20
13.7610
 30
0.0000
 42
1.0000
  0
VERTEX
  8
22
 10
2.1418
 20
13.7610
 30
0.0000
  0
SEQEND
  8
0
  0
POLYLINE
  8
22
 66
1
 10
0.0000
 20
0.0000
 30
0.0000
 40
0.1270
 41
0.1270
 70
0
  0
VERTEX
  8
22
 10
19.8900
 20
20.1110
 30
0.0000
  0
VERTEX
  8
22
 10
19.8900
 20
13.7610
 30
0.0000
  0
SEQEND
  8
0
  0
POLYLINE
  8
22
 66
1
 10
0.0000
 20
0.0000
 30
0.0000
 40
0.0635
 41
0.0635
 70
0
  0
VERTEX
  8
22
 10
19.8583
 20
13.7610
 30
0.0000
 42
1.0000
  0
VERTEX
  8
22
 10
19.9217
 20
13.7610
 30
0.0000
  0
SEQEND
  8
0
  0
POLYLINE
  8
22
 66
1
 10
0.0000
 20
0.0000
 30
0.0000
 40
0.0635
 41
0.0635
 70
0
  0
VERTEX
  8
22
 10
19.9217
 20
20.1110
 30
0.0000
 42
1.0000
  0
VERTEX
  8
22
 10
19.8583
 20
20.1110
 30
0.0000
  0
SEQEND
  8
0
  0
POLYLINE
  8
22
 66
1
 10
0.0000
 20
0.0000
 30
0.0000
 40
0.1270
 41
0.1270
 70
0
  0
VERTEX
  8
22
 10
21.1600
 20
21.3810
 30
0.0000
  0
VERTEX
  8
22
 10
19.8900
 20
21.3810
 30
0.0000
  0
SEQEND
  8
0
  0
POLYLINE
  8
22
 66
1
 10
0.0000
 20
0.0000
 30
0.0000
 40
0.0635
 41
0.0635
 70
0
  0
VERTEX
  8
22
 10
19.8900
 20
21.4127
 30
0.0000
 42
1.0000
  0
VERTEX
  8
22
 10
19.8900
 20
21.3493
 30
0.0000
  0
SEQEND
  8
0
  0
POLYLINE
  8
22
 66
1
 10
0.0000
 20
0.0000
 30
0.0000
 40
0.0635
 41
0.0635
 70
0
  0
VERTEX
  8
22
 10
21.1600
 20
21.3493
 30
0.0000
 42
1.0000
  0
VERTEX
  8
22
 10
21.1600
 20
21.4127
 30
0.0000
  0
SEQEND
  8
0
  0
POLYLINE
  8
22
 66
1
 10
0.0000
 20
0.0000
 30
0.0000
 40
0.1270
 41
0.1270
 70
0
  0
VERTEX
  8
22
 10
0.8400
 20
12.4910
 30
0.0000
  0
VERTEX
  8
22
 10
5.5390
 20
12.4910
 30
0.0000
  0
SEQEND
  8
0
  0
POLYLINE
  8
22
 66
1
 10
0.0000
 20
0.0000
 30
0.0000
 40
0.0635
 41
0.0635
 70
0
  0
VERTEX
  8
22
 10
5.5390
 20
12.4593
 30
0.0000
 42
1.0000
  0
VERTEX
  8
22
 10
5.5390
 20
12.5228
 30
0.0000
  0
SEQEND
  8
0
  0
POLYLINE
  8
22
 66
1
 10
0.0000
 20
0.0000
 30
0.0000
 40
0.0635
 41
0.0635
 70
0
  0
VERTEX
  8
22
 10
0.8400
 20
12.5228
 30
0.0000
 42
1.0000
  0
VERTEX
  8
22
 10
0.8400
 20
12.4593
 30
0.0000
  0
SEQEND
  8
0
  0
POLYLINE
  8
22
 66
1
 10
0.0000
 20
0.0000
 30
0.0000
 40
0.1270
 41
0.1270
 70
0
  0
VERTEX
  8
22
 10
0.8400
 20
12.4910
 30
0.0000
  0
VERTEX
  8
22
 10
0.8400
 20
21.3810
 30
0.0000
  0
SEQEND
  8
0
  0
POLYLINE
  8
22
 66
1
 10
0.0000
 20
0.0000
 30
0.0000
 40
0.0635
 41
0.0635
 70
0
  0
VERTEX
  8
22
 10
0.8718
 20
21.3810
 30
0.0000
 42
1.0000
  0
VERTEX
  8
22
 10
0.8083
 20
21.3810
 30
0.0000
  0
SEQEND
  8
0
  0
POLYLINE
  8
22
 66
1
 10
0.0000
 20
0.0000
 30
0.0000
 40
0.0635
 41
0.0635
 70
0
  0
VERTEX
  8
22
 10
0.8083
 20
12.4910
 30
0.0000
 42
1.0000
  0
VERTEX
  8
22
 10
0.8718
 20
12.4910
 30
0.0000
  0
SEQEND
  8
0
  0
POLYLINE
  8
22
 66
1
 10
0.0000
 20
0.0000
 30
0.0000
 40
0.1270
 41
0.1270
 70
0
  0
VERTEX
  8
22
 10
21.1600
 20
21.3810
 30
0.0000
  0
VERTEX
  8
22
 10
21.1600
 20
12.4910
 30
0.0000
  0
SEQEND
  8
0
  0
POLYLINE
  8
22
 66
1
 10
0.0000
 20
0.0000
 30
0.0000
 40
0.0635
 41
0.0635
 70
0
  0
VERTEX
  8
22
 10
21.1283
 20
12.4910
 30
0.0000
 42
1.0000
  0
VERTEX
  8
22
 10
21.1917
 20
12.4910
 30
0.0000
  0
SEQEND
  8
0
  0
POLYLINE
  8
22
 66
1
 10
0.0000
 20
0.0000
 30
0.0000
 40
0.0635
 41
0.0635
 70
0
  0
VERTEX
  8
22
 10
21.1917
 20
21.3810
 30
0.0000
 42
1.0000
  0
VERTEX
  8
22
 10
21.1283
 20
21.3810
 30
0.0000
  0
SEQEND
  8
0
  0
POLYLINE
  8
22
 66
1
 10
0.0000
 20
0.0000
 30
0.0000
 40
0.1270
 41
0.1270
 70
0
  0
VERTEX
  8
22
 10
2.1100
 20
13.7610
 30
0.0000
  0
VERTEX
  8
22
 10
6.4280
 20
13.7610
 30
0.0000
  0
SEQEND
  8
0
  0
POLYLINE
  8
22
 66
1
 10
0.0000
 20
0.0000
 30
0.0000
 40
0.0635
 41
0.0635
 70
0
  0
VERTEX
  8
22
 10
6.4280
 20
13.7293
 30
0.0000
 42
1.0000
  0
VERTEX
  8
22
 10
6.4280
 20
13.7928
 30
0.0000
  0
SEQEND
  8
0
  0
POLYLINE
  8
22
 66
1
 10
0.0000
 20
0.0000
 30
0.0000
 40
0.0635
 41
0.0635
 70
0
  0
VERTEX
  8
22
 10
2.1100
 20
13.7928
 30
0.0000
 42
1.0000
  0
VERTEX
  8
22
 10
2.1100
 20
13.7293
 30
0.0000
  0
SEQEND
  8
0
  0
POLYLINE
  8
22
 66
1
 10
0.0000
 20
0.0000
 30
0.0000
 40
0.1270
 41
0.1270
 70
0
  0
VERTEX
  8
22
 10
8.9680
 20
14.5230
 30
0.0000
  0
VERTEX
  8
22
 10
13.0320
 20
14.5230
 30
0.0000
  0
SEQEND
  8
0
  0
POLYLINE
  8
22
 66
1
 10
0.0000
 20
0.0000
 30
0.0000
 40
0.0635
 41
0.0635
 70
0
  0
VERTEX
  8
22
 10
13.0320
 20
14.4913
 30
0.0000
 42
1.0000
  0
VERTEX
  8
22
 10
13.0320
 20
14.5548
 30
0.0000
  0
SEQEND
  8
0
  0
POLYLINE
  8
22
 66
1
 10
0.0000
 20
0.0000
 30
0.0000
 40
0.0635
 41
0.0635
 70
0
  0
VERTEX
  8
22
 10
8.9680
 20
14.5548
 30
0.0000
 42
1.0000
  0
VERTEX
  8
22
 10
8.9680
 20
14.4913
 30
0.0000
  0
SEQEND
  8
0
  0
POLYLINE
  8
22
 66
1
 10
0.0000
 20
0.0000
 30
0.0000
 40
0.1270
 41
0.1270
 70
0
  0
VERTEX
  8
22
 10
13.0320
 20
13.7610
 30
0.0000
  0
VERTEX
  8
22
 10
13.0320
 20
14.5230
 30
0.0000
  0
SEQEND
  8
0
  0
POLYLINE
  8
22
 66
1
 10
0.0000
 20
0.0000
 30
0.0000
 40
0.0635
 41
0.0635
 70
0
  0
VERTEX
  8
22
 10
13.0638
 20
14.5230
 30
0.0000
 42
1.0000
  0
VERTEX
  8
22
 10
13.0002
 20
14.5230
 30
0.0000
  0
SEQEND
  8
0
  0
POLYLINE
  8
22
 66
1
 10
0.0000
 20
0.0000
 30
0.0000
 40
0.0635
 41
0.0635
 70
0
  0
VERTEX
  8
22
 10
13.0002
 20
13.7610
 30
0.0000
 42
1.0000
  0
VERTEX
  8
22
 10
13.0638
 20
13.7610
 30
0.0000
  0
SEQEND
  8
0
  0
POLYLINE
  8
22
 66
1
 10
0.0000
 20
0.0000
 30
0.0000
 40
0.1270
 41
0.1270
 70
0
  0
VERTEX
  8
22
 10
13.0320
 20
13.7610
 30
0.0000
  0
VERTEX
  8
22
 10
19.8900
 20
13.7610
 30
0.0000
  0
SEQEND
  8
0
  0
POLYLINE
  8
22
 66
1
 10
0.0000
 20
0.0000
 30
0.0000
 40
0.0635
 41
0.0635
 70
0
  0
VERTEX
  8
22
 10
19.8900
 20
13.7293
 30
0.0000
 42
1.0000
  0
VERTEX
  8
22
 10
19.8900
 20
13.7928
 30
0.0000
  0
SEQEND
  8
0
  0
POLYLINE
  8
22
 66
1
 10
0.0000
 20
0.0000
 30
0.0000
 40
0.0635
 41
0.0635
 70
0
  0
VERTEX
  8
22
 10
13.0320
 20
13.7928
 30
0.0000
 42
1.0000
  0
VERTEX
  8
22
 10
13.0320
 20
13.7293
 30
0.0000
  0
SEQEND
  8
0
  0
POLYLINE
  8
22
 66
1
 10
0.0000
 20
0.0000
 30
0.0000
 40
0.1270
 41
0.1270
 70
0
  0
VERTEX
  8
22
 10
13.0320
 20
13.7610
 30
0.0000
  0
VERTEX
  8
22
 10
13.0320
 20
13.5070
 30
0.0000
  0
SEQEND
  8
0
  0
POLYLINE
  8
22
 66
1
 10
0.0000
 20
0.0000
 30
0.0000
 40
0.0635
 41
0.0635
 70
0
  0
VERTEX
  8
22
 10
13.0002
 20
13.5070
 30
0.0000
 42
1.0000
  0
VERTEX
  8
22
 10
13.0638
 20
13.5070
 30
0.0000
  0
SEQEND
  8
0
  0
POLYLINE
  8
22
 66
1
 10
0.0000
 20
0.0000
 30
0.0000
 40
0.0635
 41
0.0635
 70
0
  0
VERTEX
  8
22
 10
13.0638
 20
13.7610
 30
0.0000
 42
1.0000
  0
VERTEX
  8
22
 10
13.0002
 20
13.7610
 30
0.0000
  0
SEQEND
  8
0
  0
POLYLINE
  8
22
 66
1
 10
0.0000
 20
0.0000
 30
0.0000
 40
0.1270
 41
0.1270
 70
0
  0
VERTEX
  8
22
 10
8.9680
 20
14.5230
 30
0.0000
  0
VERTEX
  8
22
 10
8.9680
 20
13.7610
 30
0.0000
  0
SEQEND
  8
0
  0
POLYLINE
  8
22
 66
1
 10
0.0000
 20
0.0000
 30
0.0000
 40
0.0635
 41
0.0635
 70
0
  0
VERTEX
  8
22
 10
8.9362
 20
13.7610
 30
0.0000
 42
1.0000
  0
VERTEX
  8
22
 10
8.9998
 20
13.7610
 30
0.0000
  0
SEQEND
  8
0
  0
POLYLINE
  8
22
 66
1
 10
0.0000
 20
0.0000
 30
0.0000
 40
0.0635
 41
0.0635
 70
0
  0
VERTEX
  8
22
 10
8.9998
 20
14.5230
 30
0.0000
 42
1.0000
  0
VERTEX
  8
22
 10
8.9362
 20
14.5230
 30
0.0000
  0
SEQEND
  8
0
  0
POLYLINE
  8
22
 66
1
 10
0.0000
 20
0.0000
 30
0.0000
 40
0.1270
 41
0.1270
 70
0
  0
VERTEX
  8
22
 10
8.9680
 20
13.7610
 30
0.0000
  0
VERTEX
  8
22
 10
8.9680
 20
13.5070
 30
0.0000
  0
SEQEND
  8
0
  0
POLYLINE
  8
22
 66
1
 10
0.0000
 20
0.0000
 30
0.0000
 40
0.0635
 41
0.0635
 70
0
  0
VERTEX
  8
22
 10
8.9362
 20
13.5070
 30
0.0000
 42
1.0000
  0
VERTEX
  8
22
 10
8.9998
 20
13.5070
 30
0.0000
  0
SEQEND
  8
0
  0
POLYLINE
  8
22
 66
1
 10
0.0000
 20
0.0000
 30
0.0000
 40
0.0635
 41
0.0635
 70
0
  0
VERTEX
  8
22
 10
8.9998
 20
13.7610
 30
0.0000
 42
1.0000
  0
VERTEX
  8
22
 10
8.9362
 20
13.7610
 30
0.0000
  0
SEQEND
  8
0
  0
POLYLINE
  8
22
 66
1
 10
0.0000
 20
0.0000
 30
0.0000
 40
0.1270
 41
0.1270
 70
0
  0
VERTEX
  8
22
 10
2.1100
 20
21.3810
 30
0.0000
  0
VERTEX
  8
22
 10
2.1100
 20
21.6350
 30
0.0000
  0
SEQEND
  8
0
  0
POLYLINE
  8
22
 66
1
 10
0.0000
 20
0.0000
 30
0.0000
 40
0.0635
 41
0.0635
 70
0
  0
VERTEX
  8
22
 10
2.1418
 20
21.6350
 30
0.0000
 42
1.0000
  0
VERTEX
  8
22
 10
2.0783
 20
21.6350
 30
0.0000
  0
SEQEND
  8
0
  0
POLYLINE
  8
22
 66
1
 10
0.0000
 20
0.0000
 30
0.0000
 40
0.0635
 41
0.0635
 70
0
  0
VERTEX
  8
22
 10
2.0783
 20
21.3810
 30
0.0000
 42
1.0000
  0
VERTEX
  8
22
 10
2.1418
 20
21.3810
 30
0.0000
  0
SEQEND
  8
0
  0
POLYLINE
  8
22
 66
1
 10
0.0000
 20
0.0000
 30
0.0000
 40
0.1270
 41
0.1270
 70
0
  0
VERTEX
  8
22
 10
2.1100
 20
21.6350
 30
0.0000
  0
VERTEX
  8
22
 10
3.3800
 20
21.6350
 30
0.0000
  0
SEQEND
  8
0
  0
POLYLINE
  8
22
 66
1
 10
0.0000
 20
0.0000
 30
0.0000
 40
0.0635
 41
0.0635
 70
0
  0
VERTEX
  8
22
 10
3.3800
 20
21.6033
 30
0.0000
 42
1.0000
  0
VERTEX
  8
22
 10
3.3800
 20
21.6668
 30
0.0000
  0
SEQEND
  8
0
  0
POLYLINE
  8
22
 66
1
 10
0.0000
 20
0.0000
 30
0.0000
 40
0.0635
 41
0.0635
 70
0
  0
VERTEX
  8
22
 10
2.1100
 20
21.6668
 30
0.0000
 42
1.0000
  0
VERTEX
  8
22
 10
2.1100
 20
21.6033
 30
0.0000
  0
SEQEND
  8
0
  0
POLYLINE
  8
22
 66
1
 10
0.0000
 20
0.0000
 30
0.0000
 40
0.1270
 41
0.1270
 70
0
  0
VERTEX
  8
22
 10
3.3800
 20
21.3810
 30
0.0000
  0
VERTEX
  8
22
 10
3.3800
 20
21.6350
 30
0.0000
  0
SEQEND
  8
0
  0
POLYLINE
  8
22
 66
1
 10
0.0000
 20
0.0000
 30
0.0000
 40
0.0635
 41
0.0635
 70
0
  0
VERTEX
  8
22
 10
3.4118
 20
21.6350
 30
0.0000
 42
1.0000
  0
VERTEX
  8
22
 10
3.3483
 20
21.6350
 30
0.0000
  0
SEQEND
  8
0
  0
POLYLINE
  8
22
 66
1
 10
0.0000
 20
0.0000
 30
0.0000
 40
0.0635
 41
0.0635
 70
0
  0
VERTEX
  8
22
 10
3.3483
 20
21.3810
 30
0.0000
 42
1.0000
  0
VERTEX
  8
22
 10
3.4118
 20
21.3810
 30
0.0000
  0
SEQEND
  8
0
  0
POLYLINE
  8
22
 66
1
 10
0.0000
 20
0.0000
 30
0.0000
 40
0.1270
 41
0.1270
 70
0
  0
VERTEX
  8
22
 10
2.1100
 20
21.3810
 30
0.0000
  0
VERTEX
  8
22
 10
0.8400
 20
21.3810
 30
0.0000
  0
SEQEND
  8
0
  0
POLYLINE
  8
22
 66
1
 10
0.0000
 20
0.0000
 30
0.0000
 40
0.0635
 41
0.0635
 70
0
  0
VERTEX
  8
22
 10
0.8400
 20
21.4127
 30
0.0000
 42
1.0000
  0
VERTEX
  8
22
 10
0.8400
 20
21.3493
 30
0.0000
  0
SEQEND
  8
0
  0
POLYLINE
  8
22
 66
1
 10
0.0000
 20
0.0000
 30
0.0000
 40
0.0635
 41
0.0635
 70
0
  0
VERTEX
  8
22
 10
2.1100
 20
21.3493
 30
0.0000
 42
1.0000
  0
VERTEX
  8
22
 10
2.1100
 20
21.4127
 30
0.0000
  0
SEQEND
  8
0
  0
POLYLINE
  8
22
 66
1
 10
0.0000
 20
0.0000
 30
0.0000
 40
0.1270
 41
0.1270
 70
0
  0
VERTEX
  8
22
 10
10.3650
 20
21.6350
 30
0.0000
  0
VERTEX
  8
22
 10
11.6350
 20
21.6350
 30
0.0000
  0
SEQEND
  8
0
  0
POLYLINE
  8
22
 66
1
 10
0.0000
 20
0.0000
 30
0.0000
 40
0.0635
 41
0.0635
 70
0
  0
VERTEX
  8
22
 10
11.6350
 20
21.6033
 30
0.0000
 42
1.0000
  0
VERTEX
  8
22
 10
11.6350
 20
21.6668
 30
0.0000
  0
SEQEND
  8
0
  0
POLYLINE
  8
22
 66
1
 10
0.0000
 20
0.0000
 30
0.0000
 40
0.0635
 41
0.0635
 70
0
  0
VERTEX
  8
22
 10
10.3650
 20
21.6668
 30
0.0000
 42
1.0000
  0
VERTEX
  8
22
 10
10.3650
 20
21.6033
 30
0.0000
  0
SEQEND
  8
0
  0
POLYLINE
  8
22
 66
1
 10
0.0000
 20
0.0000
 30
0.0000
 40
0.1270
 41
0.1270
 70
0
  0
VERTEX
  8
22
 10
10.3650
 20
21.6350
 30
0.0000
  0
VERTEX
  8
22
 10
10.3650
 20
21.3810
 30
0.0000
  0
SEQEND
  8
0
  0
POLYLINE
  8
22
 66
1
 10
0.0000
 20
0.0000
 30
0.0000
 40
0.0635
 41
0.0635
 70
0
  0
VERTEX
  8
22
 10
10.3332
 20
21.3810
 30
0.0000
 42
1.0000
  0
VERTEX
  8
22
 10
10.3968
 20
21.3810
 30
0.0000
  0
SEQEND
  8
0
  0
POLYLINE
  8
22
 66
1
 10
0.0000
 20
0.0000
 30
0.0000
 40
0.0635
 41
0.0635
 70
0
  0
VERTEX
  8
22
 10
10.3968
 20
21.6350
 30
0.0000
 42
1.0000
  0
VERTEX
  8
22
 10
10.3332
 20
21.6350
 30
0.0000
  0
SEQEND
  8
0
  0
POLYLINE
  8
22
 66
1
 10
0.0000
 20
0.0000
 30
0.0000
 40
0.1270
 41
0.1270
 70
0
  0
VERTEX
  8
22
 10
10.3650
 20
21.3810
 30
0.0000
  0
VERTEX
  8
22
 10
3.3800
 20
21.3810
 30
0.0000
  0
SEQEND
  8
0
  0
POLYLINE
  8
22
 66
1
 10
0.0000
 20
0.0000
 30
0.0000
 40
0.0635
 41
0.0635
 70
0
  0
VERTEX
  8
22
 10
3.3800
 20
21.4127
 30
0.0000
 42
1.0000
  0
VERTEX
  8
22
 10
3.3800
 20
21.3493
 30
0.0000
  0
SEQEND
  8
0
  0
POLYLINE
  8
22
 66
1
 10
0.0000
 20
0.0000
 30
0.0000
 40
0.0635
 41
0.0635
 70
0
  0
VERTEX
  8
22
 10
10.3650
 20
21.3493
 30
0.0000
 42
1.0000
  0
VERTEX
  8
22
 10
10.3650
 20
21.4127
 30
0.0000
  0
SEQEND
  8
0
  0
POLYLINE
  8
22
 66
1
 10
0.0000
 20
0.0000
 30
0.0000
 40
0.1270
 41
0.1270
 70
0
  0
VERTEX
  8
22
 10
11.6350
 20
21.6350
 30
0.0000
  0
VERTEX
  8
22
 10
11.6350
 20
21.3810
 30
0.0000
  0
SEQEND
  8
0
  0
POLYLINE
  8
22
 66
1
 10
0.0000
 20
0.0000
 30
0.0000
 40
0.0635
 41
0.0635
 70
0
  0
VERTEX
  8
22
 10
11.6032
 20
21.3810
 30
0.0000
 42
1.0000
  0
VERTEX
  8
22
 10
11.6668
 20
21.3810
 30
0.0000
  0
SEQEND
  8
0
  0
POLYLINE
  8
22
 66
1
 10
0.0000
 20
0.0000
 30
0.0000
 40
0.0635
 41
0.0635
 70
0
  0
VERTEX
  8
22
 10
11.6668
 20
21.6350
 30
0.0000
 42
1.0000
  0
VERTEX
  8
22
 10
11.6032
 20
21.6350
 30
0.0000
  0
SEQEND
  8
0
  0
POLYLINE
  8
22
 66
1
 10
0.0000
 20
0.0000
 30
0.0000
 40
0.1270
 41
0.1270
 70
0
  0
VERTEX
  8
22
 10
18.6200
 20
21.6350
 30
0.0000
  0
VERTEX
  8
22
 10
19.8900
 20
21.6350
 30
0.0000
  0
SEQEND
  8
0
  0
POLYLINE
  8
22
 66
1
 10
0.0000
 20
0.0000
 30
0.0000
 40
0.0635
 41
0.0635
 70
0
  0
VERTEX
  8
22
 10
19.8900
 20
21.6033
 30
0.0000
 42
1.0000
  0
VERTEX
  8
22
 10
19.8900
 20
21.6668
 30
0.0000
  0
SEQEND
  8
0
  0
POLYLINE
  8
22
 66
1
 10
0.0000
 20
0.0000
 30
0.0000
 40
0.0635
 41
0.0635
 70
0
  0
VERTEX
  8
22
 10
18.6200
 20
21.6668
 30
0.0000
 42
1.0000
  0
VERTEX
  8
22
 10
18.6200
 20
21.6033
 30
0.0000
  0
SEQEND
  8
0
  0
POLYLINE
  8
22
 66
1
 10
0.0000
 20
0.0000
 30
0.0000
 40
0.1270
 41
0.1270
 70
0
  0
VERTEX
  8
22
 10
19.8900
 20
21.6350
 30
0.0000
  0
VERTEX
  8
22
 10
19.8900
 20
21.3810
 30
0.0000
  0
SEQEND
  8
0
  0
POLYLINE
  8
22
 66
1
 10
0.0000
 20
0.0000
 30
0.0000
 40
0.0635
 41
0.0635
 70
0
  0
VERTEX
  8
22
 10
19.8583
 20
21.3810
 30
0.0000
 42
1.0000
  0
VERTEX
  8
22
 10
19.9217
 20
21.3810
 30
0.0000
  0
SEQEND
  8
0
  0
POLYLINE
  8
22
 66
1
 10
0.0000
 20
0.0000
 30
0.0000
 40
0.0635
 41
0.0635
 70
0
  0
VERTEX
  8
22
 10
19.9217
 20
21.6350
 30
0.0000
 42
1.0000
  0
VERTEX
  8
22
 10
19.8583
 20
21.6350
 30
0.0000
  0
SEQEND
  8
0
  0
POLYLINE
  8
22
 66
1
 10
0.0000
 20
0.0000
 30
0.0000
 40
0.1270
 41
0.1270
 70
0
  0
VERTEX
  8
22
 10
18.6200
 20
21.6350
 30
0.0000
  0
VERTEX
  8
22
 10
18.6200
 20
21.3810
 30
0.0000
  0
SEQEND
  8
0
  0
POLYLINE
  8
22
 66
1
 10
0.0000
 20
0.0000
 30
0.0000
 40
0.0635
 41
0.0635
 70
0
  0
VERTEX
  8
22
 10
18.5883
 20
21.3810
 30
0.0000
 42
1.0000
  0
VERTEX
  8
22
 10
18.6517
 20
21.3810
 30
0.0000
  0
SEQEND
  8
0
  0
POLYLINE
  8
22
 66
1
 10
0.0000
 20
0.0000
 30
0.0000
 40
0.0635
 41
0.0635
 70
0
  0
VERTEX
  8
22
 10
18.6517
 20
21.6350
 30
0.0000
 42
1.0000
  0
VERTEX
  8
22
 10
18.5883
 20
21.6350
 30
0.0000
  0
SEQEND
  8
0
  0
POLYLINE
  8
22
 66
1
 10
0.0000
 20
0.0000
 30
0.0000
 40
0.1270
 41
0.1270
 70
0
  0
VERTEX
  8
22
 10
18.6200
 20
21.3810
 30
0.0000
  0
VERTEX
  8
22
 10
11.6350
 20
21.3810
 30
0.0000
  0
SEQEND
  8
0
  0
POLYLINE
  8
22
 66
1
 10
0.0000
 20
0.0000
 30
0.0000
 40
0.0635
 41
0.0635
 70
0
  0
VERTEX
  8
22
 10
11.6350
 20
21.4127
 30
0.0000
 42
1.0000
  0
VERTEX
  8
22
 10
11.6350
 20
21.3493
 30
0.0000
  0
SEQEND
  8
0
  0
POLYLINE
  8
22
 66
1
 10
0.0000
 20
0.0000
 30
0.0000
 40
0.0635
 41
0.0635
 70
0
  0
VERTEX
  8
22
 10
18.6200
 20
21.3493
 30
0.0000
 42
1.0000
  0
VERTEX
  8
22
 10
18.6200
 20
21.4127
 30
0.0000
  0
SEQEND
  8
0
  0
POLYLINE
  8
22
 66
1
 10
0.0000
 20
0.0000
 30
0.0000
 40
0.1270
 41
0.1270
 70
0
  0
VERTEX
  8
22
 10
8.8410
 20
12.4910
 30
0.0000
  0
VERTEX
  8
22
 10
8.9680
 20
12.4910
 30
0.0000
  0
SEQEND
  8
0
  0
POLYLINE
  8
22
 66
1
 10
0.0000
 20
0.0000
 30
0.0000
 40
0.0635
 41
0.0635
 70
0
  0
VERTEX
  8
22
 10
8.9680
 20
12.4593
 30
0.0000
 42
1.0000
  0
VERTEX
  8
22
 10
8.9680
 20
12.5228
 30
0.0000
  0
SEQEND
  8
0
  0
POLYLINE
  8
22
 66
1
 10
0.0000
 20
0.0000
 30
0.0000
 40
0.0635
 41
0.0635
 70
0
  0
VERTEX
  8
22
 10
8.8410
 20
12.5228
 30
0.0000
 42
1.0000
  0
VERTEX
  8
22
 10
8.8410
 20
12.4593
 30
0.0000
  0
SEQEND
  8
0
  0
POLYLINE
  8
22
 66
1
 10
0.0000
 20
0.0000
 30
0.0000
 40
0.1270
 41
0.1270
 70
0
  0
VERTEX
  8
22
 10
8.9680
 20
12.4910
 30
0.0000
  0
VERTEX
  8
22
 10
13.0320
 20
12.4910
 30
0.0000
  0
SEQEND
  8
0
  0
POLYLINE
  8
22
 66
1
 10
0.0000
 20
0.0000
 30
0.0000
 40
0.0635
 41
0.0635
 70
0
  0
VERTEX
  8
22
 10
13.0320
 20
12.4593
 30
0.0000
 42
1.0000
  0
VERTEX
  8
22
 10
13.0320
 20
12.5228
 30
0.0000
  0
SEQEND
  8
0
  0
POLYLINE
  8
22
 66
1
 10
0.0000
 20
0.0000
 30
0.0000
 40
0.0635
 41
0.0635
 70
0
  0
VERTEX
  8
22
 10
8.9680
 20
12.5228
 30
0.0000
 42
1.0000
  0
VERTEX
  8
22
 10
8.9680
 20
12.4593
 30
0.0000
  0
SEQEND
  8
0
  0
POLYLINE
  8
22
 66
1
 10
0.0000
 20
0.0000
 30
0.0000
 40
0.1270
 41
0.1270
 70
0
  0
VERTEX
  8
22
 10
7.9520
 20
13.7610
 30
0.0000
  0
VERTEX
  8
22
 10
7.9520
 20
13.5070
 30
0.0000
  0
SEQEND
  8
0
  0
POLYLINE
  8
22
 66
1
 10
0.0000
 20
0.0000
 30
0.0000
 40
0.0635
 41
0.0635
 70
0
  0
VERTEX
  8
22
 10
7.9203
 20
13.5070
 30
0.0000
 42
1.0000
  0
VERTEX
  8
22
 10
7.9837
 20
13.5070
 30
0.0000
  0
SEQEND
  8
0
  0
POLYLINE
  8
22
 66
1
 10
0.0000
 20
0.0000
 30
0.0000
 40
0.0635
 41
0.0635
 70
0
  0
VERTEX
  8
22
 10
7.9837
 20
13.7610
 30
0.0000
 42
1.0000
  0
VERTEX
  8
22
 10
7.9203
 20
13.7610
 30
0.0000
  0
SEQEND
  8
0
  0
POLYLINE
  8
22
 66
1
 10
0.0000
 20
0.0000
 30
0.0000
 40
0.1270
 41
0.1270
 70
0
  0
VERTEX
  8
22
 10
7.9520
 20
13.7610
 30
0.0000
  0
VERTEX
  8
22
 10
8.9680
 20
13.7610
 30
0.0000
  0
SEQEND
  8
0
  0
POLYLINE
  8
22
 66
1
 10
0.0000
 20
0.0000
 30
0.0000
 40
0.0635
 41
0.0635
 70
0
  0
VERTEX
  8
22
 10
8.9680
 20
13.7293
 30
0.0000
 42
1.0000
  0
VERTEX
  8
22
 10
8.9680
 20
13.7928
 30
0.0000
  0
SEQEND
  8
0
  0
POLYLINE
  8
22
 66
1
 10
0.0000
 20
0.0000
 30
0.0000
 40
0.0635
 41
0.0635
 70
0
  0
VERTEX
  8
22
 10
7.9520
 20
13.7928
 30
0.0000
 42
1.0000
  0
VERTEX
  8
22
 10
7.9520
 20
13.7293
 30
0.0000
  0
SEQEND
  8
0
  0
POLYLINE
  8
22
 66
1
 10
0.0000
 20
0.0000
 30
0.0000
 40
0.1270
 41
0.1270
 70
0
  0
VERTEX
  8
22
 10
6.4280
 20
13.7610
 30
0.0000
  0
VERTEX
  8
22
 10
6.4280
 20
13.5070
 30
0.0000
  0
SEQEND
  8
0
  0
POLYLINE
  8
22
 66
1
 10
0.0000
 20
0.0000
 30
0.0000
 40
0.0635
 41
0.0635
 70
0
  0
VERTEX
  8
22
 10
6.3963
 20
13.5070
 30
0.0000
 42
1.0000
  0
VERTEX
  8
22
 10
6.4597
 20
13.5070
 30
0.0000
  0
SEQEND
  8
0
  0
POLYLINE
  8
22
 66
1
 10
0.0000
 20
0.0000
 30
0.0000
 40
0.0635
 41
0.0635
 70
0
  0
VERTEX
  8
22
 10
6.4597
 20
13.7610
 30
0.0000
 42
1.0000
  0
VERTEX
  8
22
 10
6.3963
 20
13.7610
 30
0.0000
  0
SEQEND
  8
0
  0
POLYLINE
  8
22
 66
1
 10
0.0000
 20
0.0000
 30
0.0000
 40
0.1270
 41
0.1270
 70
0
  0
VERTEX
  8
22
 10
6.4280
 20
13.7610
 30
0.0000
  0
VERTEX
  8
22
 10
7.9520
 20
13.7610
 30
0.0000
  0
SEQEND
  8
0
  0
POLYLINE
  8
22
 66
1
 10
0.0000
 20
0.0000
 30
0.0000
 40
0.0635
 41
0.0635
 70
0
  0
VERTEX
  8
22
 10
7.9520
 20
13.7293
 30
0.0000
 42
1.0000
  0
VERTEX
  8
22
 10
7.9520
 20
13.7928
 30
0.0000
  0
SEQEND
  8
0
  0
POLYLINE
  8
22
 66
1
 10
0.0000
 20
0.0000
 30
0.0000
 40
0.0635
 41
0.0635
 70
0
  0
VERTEX
  8
22
 10
6.4280
 20
13.7928
 30
0.0000
 42
1.0000
  0
VERTEX
  8
22
 10
6.4280
 20
13.7293
 30
0.0000
  0
SEQEND
  8
0
  0
POLYLINE
  8
22
 66
1
 10
0.0000
 20
0.0000
 30
0.0000
 40
0.1270
 41
0.1270
 70
0
  0
VERTEX
  8
22
 10
8.8410
 20
12.4910
 30
0.0000
  0
VERTEX
  8
22
 10
8.4600
 20
12.9990
 30
0.0000
  0
SEQEND
  8
0
  0
POLYLINE
  8
22
 66
1
 10
0.0000
 20
0.0000
 30
0.0000
 40
0.0635
 41
0.0635
 70
0
  0
VERTEX
  8
22
 10
8.4854
 20
13.0181
 30
0.0000
 42
1.0000
  0
VERTEX
  8
22
 10
8.4346
 20
12.9800
 30
0.0000
  0
SEQEND
  8
0
  0
POLYLINE
  8
22
 66
1
 10
0.0000
 20
0.0000
 30
0.0000
 40
0.0635
 41
0.0635
 70
0
  0
VERTEX
  8
22
 10
8.8156
 20
12.4720
 30
0.0000
 42
1.0000
  0
VERTEX
  8
22
 10
8.8664
 20
12.5101
 30
0.0000
  0
SEQEND
  8
0
  0
POLYLINE
  8
22
 66
1
 10
0.0000
 20
0.0000
 30
0.0000
 40
0.1270
 41
0.1270
 70
0
  0
VERTEX
  8
22
 10
5.9200
 20
12.9990
 30
0.0000
  0
VERTEX
  8
22
 10
5.5390
 20
12.4910
 30
0.0000
  0
SEQEND
  8
0
  0
POLYLINE
  8
22
 66
1
 10
0.0000
 20
0.0000
 30
0.0000
 40
0.0635
 41
0.0635
 70
0
  0
VERTEX
  8
22
 10
5.5136
 20
12.5101
 30
0.0000
 42
1.0000
  0
VERTEX
  8
22
 10
5.5644
 20
12.4720
 30
0.0000
  0
SEQEND
  8
0
  0
POLYLINE
  8
22
 66
1
 10
0.0000
 20
0.0000
 30
0.0000
 40
0.0635
 41
0.0635
 70
0
  0
VERTEX
  8
22
 10
5.9454
 20
12.9800
 30
0.0000
 42
1.0000
  0
VERTEX
  8
22
 10
5.8946
 20
13.0181
 30
0.0000
  0
SEQEND
  8
0
  0
POLYLINE
  8
22
 66
1
 10
0.0000
 20
0.0000
 30
0.0000
 40
0.1270
 41
0.1270
 70
0
  0
VERTEX
  8
22
 10
5.9200
 20
12.9990
 30
0.0000
  0
VERTEX
  8
22
 10
6.4280
 20
12.9990
 30
0.0000
  0
SEQEND
  8
0
  0
POLYLINE
  8
22
 66
1
 10
0.0000
 20
0.0000
 30
0.0000
 40
0.0635
 41
0.0635
 70
0
  0
VERTEX
  8
22
 10
6.4280
 20
12.9672
 30
0.0000
 42
1.0000
  0
VERTEX
  8
22
 10
6.4280
 20
13.0308
 30
0.0000
  0
SEQEND
  8
0
  0
POLYLINE
  8
22
 66
1
 10
0.0000
 20
0.0000
 30
0.0000
 40
0.0635
 41
0.0635
 70
0
  0
VERTEX
  8
22
 10
5.9200
 20
13.0308
 30
0.0000
 42
1.0000
  0
VERTEX
  8
22
 10
5.9200
 20
12.9672
 30
0.0000
  0
SEQEND
  8
0
  0
POLYLINE
  8
22
 66
1
 10
0.0000
 20
0.0000
 30
0.0000
 40
0.0508
 41
0.0508
 70
0
  0
VERTEX
  8
22
 10
7.9520
 20
13.5070
 30
0.0000
  0
VERTEX
  8
22
 10
8.9680
 20
13.5070
 30
0.0000
  0
SEQEND
  8
0
  0
POLYLINE
  8
22
 66
1
 10
0.0000
 20
0.0000
 30
0.0000
 40
0.0254
 41
0.0254
 70
0
  0
VERTEX
  8
22
 10
8.9680
 20
13.4943
 30
0.0000
 42
1.0000
  0
VERTEX
  8
22
 10
8.9680
 20
13.5197
 30
0.0000
  0
SEQEND
  8
0
  0
POLYLINE
  8
22
 66
1
 10
0.0000
 20
0.0000
 30
0.0000
 40
0.0254
 41
0.0254
 70
0
  0
VERTEX
  8
22
 10
7.9520
 20
13.5197
 30
0.0000
 42
1.0000
  0
VERTEX
  8
22
 10
7.9520
 20
13.4943
 30
0.0000
  0
SEQEND
  8
0
  0
POLYLINE
  8
22
 66
1
 10
0.0000
 20
0.0000
 30
0.0000
 40
0.1270
 41
0.1270
 70
0
  0
VERTEX
  8
22
 10
8.9680
 20
13.5070
 30
0.0000
  0
VERTEX
  8
22
 10
8.9680
 20
12.4910
 30
0.0000
  0
SEQEND
  8
0
  0
POLYLINE
  8
22
 66
1
 10
0.0000
 20
0.0000
 30
0.0000
 40
0.0635
 41
0.0635
 70
0
  0
VERTEX
  8
22
 10
8.9362
 20
12.4910
 30
0.0000
 42
1.0000
  0
VERTEX
  8
22
 10
8.9998
 20
12.4910
 30
0.0000
  0
SEQEND
  8
0
  0
POLYLINE
  8
22
 66
1
 10
0.0000
 20
0.0000
 30
0.0000
 40
0.0635
 41
0.0635
 70
0
  0
VERTEX
  8
22
 10
8.9998
 20
13.5070
 30
0.0000
 42
1.0000
  0
VERTEX
  8
22
 10
8.9362
 20
13.5070
 30
0.0000
  0
SEQEND
  8
0
  0
POLYLINE
  8
22
 66
1
 10
0.0000
 20
0.0000
 30
0.0000
 40
0.0508
 41
0.0508
 70
0
  0
VERTEX
  8
22
 10
6.4280
 20
13.5070
 30
0.0000
  0
VERTEX
  8
22
 10
1.8560
 20
13.5070
 30
0.0000
  0
SEQEND
  8
0
  0
POLYLINE
  8
22
 66
1
 10
0.0000
 20
0.0000
 30
0.0000
 40
0.0254
 41
0.0254
 70
0
  0
VERTEX
  8
22
 10
1.8560
 20
13.5197
 30
0.0000
 42
1.0000
  0
VERTEX
  8
22
 10
1.8560
 20
13.4943
 30
0.0000
  0
SEQEND
  8
0
  0
POLYLINE
  8
22
 66
1
 10
0.0000
 20
0.0000
 30
0.0000
 40
0.0254
 41
0.0254
 70
0
  0
VERTEX
  8
22
 10
6.4280
 20
13.4943
 30
0.0000
 42
1.0000
  0
VERTEX
  8
22
 10
6.4280
 20
13.5197
 30
0.0000
  0
SEQEND
  8
0
  0
POLYLINE
  8
22
 66
1
 10
0.0000
 20
0.0000
 30
0.0000
 40
0.0508
 41
0.0508
 70
0
  0
VERTEX
  8
22
 10
1.8560
 20
13.5070
 30
0.0000
  0
VERTEX
  8
22
 10
1.8560
 20
20.3650
 30
0.0000
  0
SEQEND
  8
0
  0
POLYLINE
  8
22
 66
1
 10
0.0000
 20
0.0000
 30
0.0000
 40
0.0254
 41
0.0254
 70
0
  0
VERTEX
  8
22
 10
1.8687
 20
20.3650
 30
0.0000
 42
1.0000
  0
VERTEX
  8
22
 10
1.8433
 20
20.3650
 30
0.0000
  0
SEQEND
  8
0
  0
POLYLINE
  8
22
 66
1
 10
0.0000
 20
0.0000
 30
0.0000
 40
0.0254
 41
0.0254
 70
0
  0
VERTEX
  8
22
 10
1.8433
 20
13.5070
 30
0.0000
 42
1.0000
  0
VERTEX
  8
22
 10
1.8687
 20
13.5070
 30
0.0000
  0
SEQEND
  8
0
  0
POLYLINE
  8
22
 66
1
 10
0.0000
 20
0.0000
 30
0.0000
 40
0.0508
 41
0.0508
 70
0
  0
VERTEX
  8
22
 10
1.8560
 20
20.3650
 30
0.0000
  0
VERTEX
  8
22
 10
20.1440
 20
20.3650
 30
0.0000
  0
SEQEND
  8
0
  0
POLYLINE
  8
22
 66
1
 10
0.0000
 20
0.0000
 30
0.0000
 40
0.0254
 41
0.0254
 70
0
  0
VERTEX
  8
22
 10
20.1440
 20
20.3523
 30
0.0000
 42
1.0000
  0
VERTEX
  8
22
 10
20.1440
 20
20.3777
 30
0.0000
  0
SEQEND
  8
0
  0
POLYLINE
  8
22
 66
1
 10
0.0000
 20
0.0000
 30
0.0000
 40
0.0254
 41
0.0254
 70
0
  0
VERTEX
  8
22
 10
1.8560
 20
20.3777
 30
0.0000
 42
1.0000
  0
VERTEX
  8
22
 10
1.8560
 20
20.3523
 30
0.0000
  0
SEQEND
  8
0
  0
POLYLINE
  8
22
 66
1
 10
0.0000
 20
0.0000
 30
0.0000
 40
0.0508
 41
0.0508
 70
0
  0
VERTEX
  8
22
 10
20.1440
 20
20.3650
 30
0.0000
  0
VERTEX
  8
22
 10
20.1440
 20
13.5070
 30
0.0000
  0
SEQEND
  8
0
  0
POLYLINE
  8
22
 66
1
 10
0.0000
 20
0.0000
 30
0.0000
 40
0.0254
 41
0.0254
 70
0
  0
VERTEX
  8
22
 10
20.1313
 20
13.5070
 30
0.0000
 42
1.0000
  0
VERTEX
  8
22
 10
20.1567
 20
13.5070
 30
0.0000
  0
SEQEND
  8
0
  0
POLYLINE
  8
22
 66
1
 10
0.0000
 20
0.0000
 30
0.0000
 40
0.0254
 41
0.0254
 70
0
  0
VERTEX
  8
22
 10
20.1567
 20
20.3650
 30
0.0000
 42
1.0000
  0
VERTEX
  8
22
 10
20.1313
 20
20.3650
 30
0.0000
  0
SEQEND
  8
0
  0
POLYLINE
  8
22
 66
1
 10
0.0000
 20
0.0000
 30
0.0000
 40
0.0508
 41
0.0508
 70
0
  0
VERTEX
  8
22
 10
20.1440
 20
13.5070
 30
0.0000
  0
VERTEX
  8
22
 10
13.0320
 20
13.5070
 30
0.0000
  0
SEQEND
  8
0
  0
POLYLINE
  8
22
 66
1
 10
0.0000
 20
0.0000
 30
0.0000
 40
0.0254
 41
0.0254
 70
0
  0
VERTEX
  8
22
 10
13.0320
 20
13.5197
 30
0.0000
 42
1.0000
  0
VERTEX
  8
22
 10
13.0320
 20
13.4943
 30
0.0000
  0
SEQEND
  8
0
  0
POLYLINE
  8
22
 66
1
 10
0.0000
 20
0.0000
 30
0.0000
 40
0.0254
 41
0.0254
 70
0
  0
VERTEX
  8
22
 10
20.1440
 20
13.4943
 30
0.0000
 42
1.0000
  0
VERTEX
  8
22
 10
20.1440
 20
13.5197
 30
0.0000
  0
SEQEND
  8
0
  0
POLYLINE
  8
22
 66
1
 10
0.0000
 20
0.0000
 30
0.0000
 40
0.1270
 41
0.1270
 70
0
  0
VERTEX
  8
22
 10
13.0320
 20
13.5070
 30
0.0000
  0
VERTEX
  8
22
 10
13.0320
 20
12.4910
 30
0.0000
  0
SEQEND
  8
0
  0
POLYLINE
  8
22
 66
1
 10
0.0000
 20
0.0000
 30
0.0000
 40
0.0635
 41
0.0635
 70
0
  0
VERTEX
  8
22
 10
13.0002
 20
12.4910
 30
0.0000
 42
1.0000
  0
VERTEX
  8
22
 10
13.0638
 20
12.4910
 30
0.0000
  0
SEQEND
  8
0
  0
POLYLINE
  8
22
 66
1
 10
0.0000
 20
0.0000
 30
0.0000
 40
0.0635
 41
0.0635
 70
0
  0
VERTEX
  8
22
 10
13.0638
 20
13.5070
 30
0.0000
 42
1.0000
  0
VERTEX
  8
22
 10
13.0002
 20
13.5070
 30
0.0000
  0
SEQEND
  8
0
  0
POLYLINE
  8
22
 66
1
 10
0.0000
 20
0.0000
 30
0.0000
 40
0.1270
 41
0.1270
 70
0
  0
VERTEX
  8
22
 10
7.9520
 20
13.5070
 30
0.0000
  0
VERTEX
  8
22
 10
7.9520
 20
12.9990
 30
0.0000
  0
SEQEND
  8
0
  0
POLYLINE
  8
22
 66
1
 10
0.0000
 20
0.0000
 30
0.0000
 40
0.0635
 41
0.0635
 70
0
  0
VERTEX
  8
22
 10
7.9203
 20
12.9990
 30
0.0000
 42
1.0000
  0
VERTEX
  8
22
 10
7.9837
 20
12.9990
 30
0.0000
  0
SEQEND
  8
0
  0
POLYLINE
  8
22
 66
1
 10
0.0000
 20
0.0000
 30
0.0000
 40
0.0635
 41
0.0635
 70
0
  0
VERTEX
  8
22
 10
7.9837
 20
13.5070
 30
0.0000
 42
1.0000
  0
VERTEX
  8
22
 10
7.9203
 20
13.5070
 30
0.0000
  0
SEQEND
  8
0
  0
POLYLINE
  8
22
 66
1
 10
0.0000
 20
0.0000
 30
0.0000
 40
0.1270
 41
0.1270
 70
0
  0
VERTEX
  8
22
 10
7.9520
 20
12.9990
 30
0.0000
  0
VERTEX
  8
22
 10
8.4600
 20
12.9990
 30
0.0000
  0
SEQEND
  8
0
  0
POLYLINE
  8
22
 66
1
 10
0.0000
 20
0.0000
 30
0.0000
 40
0.0635
 41
0.0635
 70
0
  0
VERTEX
  8
22
 10
8.4600
 20
12.9672
 30
0.0000
 42
1.0000
  0
VERTEX
  8
22
 10
8.4600
 20
13.0308
 30
0.0000
  0
SEQEND
  8
0
  0
POLYLINE
  8
22
 66
1
 10
0.0000
 20
0.0000
 30
0.0000
 40
0.0635
 41
0.0635
 70
0
  0
VERTEX
  8
22
 10
7.9520
 20
13.0308
 30
0.0000
 42
1.0000
  0
VERTEX
  8
22
 10
7.9520
 20
12.9672
 30
0.0000
  0
SEQEND
  8
0
  0
POLYLINE
  8
22
 66
1
 10
0.0000
 20
0.0000
 30
0.0000
 40
0.1270
 41
0.1270
 70
0
  0
VERTEX
  8
22
 10
6.4280
 20
13.5070
 30
0.0000
  0
VERTEX
  8
22
 10
6.4280
 20
12.9990
 30
0.0000
  0
SEQEND
  8
0
  0
POLYLINE
  8
22
 66
1
 10
0.0000
 20
0.0000
 30
0.0000
 40
0.0635
 41
0.0635
 70
0
  0
VERTEX
  8
22
 10
6.3963
 20
12.9990
 30
0.0000
 42
1.0000
  0
VERTEX
  8
22
 10
6.4597
 20
12.9990
 30
0.0000
  0
SEQEND
  8
0
  0
POLYLINE
  8
22
 66
1
 10
0.0000
 20
0.0000
 30
0.0000
 40
0.0635
 41
0.0635
 70
0
  0
VERTEX
  8
22
 10
6.4597
 20
13.5070
 30
0.0000
 42
1.0000
  0
VERTEX
  8
22
 10
6.3963
 20
13.5070
 30
0.0000
  0
SEQEND
  8
0
  0
POLYLINE
  8
22
 66
1
 10
0.0000
 20
0.0000
 30
0.0000
 40
0.1270
 41
0.1270
 70
0
  0
VERTEX
  8
22
 10
6.4280
 20
12.9990
 30
0.0000
  0
VERTEX
  8
22
 10
7.9520
 20
12.9990
 30
0.0000
  0
SEQEND
  8
0
  0
POLYLINE
  8
22
 66
1
 10
0.0000
 20
0.0000
 30
0.0000
 40
0.0635
 41
0.0635
 70
0
  0
VERTEX
  8
22
 10
7.9520
 20
12.9672
 30
0.0000
 42
1.0000
  0
VERTEX
  8
22
 10
7.9520
 20
13.0308
 30
0.0000
  0
SEQEND
  8
0
  0
POLYLINE
  8
22
 66
1
 10
0.0000
 20
0.0000
 30
0.0000
 40
0.0635
 41
0.0635
 70
0
  0
VERTEX
  8
22
 10
6.4280
 20
13.0308
 30
0.0000
 42
1.0000
  0
VERTEX
  8
22
 10
6.4280
 20
12.9672
 30
0.0000
  0
SEQEND
  8
0
  0
POLYLINE
  8
22
 66
1
 10
0.0000
 20
0.0000
 30
0.0000
 40
0.1270
 41
0.1270
 70
0
  0
VERTEX
  8
22
 10
13.0320
 20
12.4910
 30
0.0000
  0
VERTEX
  8
22
 10
15.4450
 20
12.4910
 30
0.0000
  0
SEQEND
  8
0
  0
POLYLINE
  8
22
 66
1
 10
0.0000
 20
0.0000
 30
0.0000
 40
0.0635
 41
0.0635
 70
0
  0
VERTEX
  8
22
 10
15.4450
 20
12.4593
 30
0.0000
 42
1.0000
  0
VERTEX
  8
22
 10
15.4450
 20
12.5228
 30
0.0000
  0
SEQEND
  8
0
  0
POLYLINE
  8
22
 66
1
 10
0.0000
 20
0.0000
 30
0.0000
 40
0.0635
 41
0.0635
 70
0
  0
VERTEX
  8
22
 10
13.0320
 20
12.5228
 30
0.0000
 42
1.0000
  0
VERTEX
  8
22
 10
13.0320
 20
12.4593
 30
0.0000
  0
SEQEND
  8
0
  0
POLYLINE
  8
22
 66
1
 10
0.0000
 20
0.0000
 30
0.0000
 40
0.1270
 41
0.1270
 70
0
  0
VERTEX
  8
22
 10
15.4450
 20
12.6180
 30
0.0000
  0
VERTEX
  8
22
 10
15.4450
 20
12.4910
 30
0.0000
  0
SEQEND
  8
0
  0
POLYLINE
  8
22
 66
1
 10
0.0000
 20
0.0000
 30
0.0000
 40
0.0635
 41
0.0635
 70
0
  0
VERTEX
  8
22
 10
15.4132
 20
12.4910
 30
0.0000
 42
1.0000
  0
VERTEX
  8
22
 10
15.4768
 20
12.4910
 30
0.0000
  0
SEQEND
  8
0
  0
POLYLINE
  8
22
 66
1
 10
0.0000
 20
0.0000
 30
0.0000
 40
0.0635
 41
0.0635
 70
0
  0
VERTEX
  8
22
 10
15.4768
 20
12.6180
 30
0.0000
 42
1.0000
  0
VERTEX
  8
22
 10
15.4132
 20
12.6180
 30
0.0000
  0
SEQEND
  8
0
  0
POLYLINE
  8
22
 66
1
 10
0.0000
 20
0.0000
 30
0.0000
 40
0.1270
 41
0.1270
 70
0
  0
VERTEX
  8
22
 10
15.4450
 20
12.6180
 30
0.0000
  0
VERTEX
  8
22
 10
16.7150
 20
12.6180
 30
0.0000
  0
SEQEND
  8
0
  0
POLYLINE
  8
22
 66
1
 10
0.0000
 20
0.0000
 30
0.0000
 40
0.0635
 41
0.0635
 70
0
  0
VERTEX
  8
22
 10
16.7150
 20
12.5862
 30
0.0000
 42
1.0000
  0
VERTEX
  8
22
 10
16.7150
 20
12.6498
 30
0.0000
  0
SEQEND
  8
0
  0
POLYLINE
  8
22
 66
1
 10
0.0000
 20
0.0000
 30
0.0000
 40
0.0635
 41
0.0635
 70
0
  0
VERTEX
  8
22
 10
15.4450
 20
12.6498
 30
0.0000
 42
1.0000
  0
VERTEX
  8
22
 10
15.4450
 20
12.5862
 30
0.0000
  0
SEQEND
  8
0
  0
POLYLINE
  8
22
 66
1
 10
0.0000
 20
0.0000
 30
0.0000
 40
0.1270
 41
0.1270
 70
0
  0
VERTEX
  8
22
 10
16.7150
 20
12.4910
 30
0.0000
  0
VERTEX
  8
22
 10
16.7150
 20
12.6180
 30
0.0000
  0
SEQEND
  8
0
  0
POLYLINE
  8
22
 66
1
 10
0.0000
 20
0.0000
 30
0.0000
 40
0.0635
 41
0.0635
 70
0
  0
VERTEX
  8
22
 10
16.7467
 20
12.6180
 30
0.0000
 42
1.0000
  0
VERTEX
  8
22
 10
16.6833
 20
12.6180
 30
0.0000
  0
SEQEND
  8
0
  0
POLYLINE
  8
22
 66
1
 10
0.0000
 20
0.0000
 30
0.0000
 40
0.0635
 41
0.0635
 70
0
  0
VERTEX
  8
22
 10
16.6833
 20
12.4910
 30
0.0000
 42
1.0000
  0
VERTEX
  8
22
 10
16.7467
 20
12.4910
 30
0.0000
  0
SEQEND
  8
0
  0
POLYLINE
  8
22
 66
1
 10
0.0000
 20
0.0000
 30
0.0000
 40
0.1270
 41
0.1270
 70
0
  0
VERTEX
  8
22
 10
16.7150
 20
12.4910
 30
0.0000
  0
VERTEX
  8
22
 10
21.1600
 20
12.4910
 30
0.0000
  0
SEQEND
  8
0
  0
POLYLINE
  8
22
 66
1
 10
0.0000
 20
0.0000
 30
0.0000
 40
0.0635
 41
0.0635
 70
0
  0
VERTEX
  8
22
 10
21.1600
 20
12.4593
 30
0.0000
 42
1.0000
  0
VERTEX
  8
22
 10
21.1600
 20
12.5228
 30
0.0000
  0
SEQEND
  8
0
  0
POLYLINE
  8
22
 66
1
 10
0.0000
 20
0.0000
 30
0.0000
 40
0.0635
 41
0.0635
 70
0
  0
VERTEX
  8
22
 10
16.7150
 20
12.5228
 30
0.0000
 42
1.0000
  0
VERTEX
  8
22
 10
16.7150
 20
12.4593
 30
0.0000
  0
SEQEND
  8
0
  0
POLYLINE
  8
22
 66
1
 10
0.0000
 20
0.0000
 30
0.0000
 40
0.1270
 41
0.1270
 70
0
  0
VERTEX
  8
22
 10
11.9525
 20
13.6982
 30
0.0000
  0
VERTEX
  8
22
 10
11.5712
 20
14.0795
 30
0.0000
  0
SEQEND
  8
0
  0
POLYLINE
  8
22
 66
1
 10
0.0000
 20
0.0000
 30
0.0000
 40
0.0635
 41
0.0635
 70
0
  0
VERTEX
  8
22
 10
11.5936
 20
14.1019
 30
0.0000
 42
1.0000
  0
VERTEX
  8
22
 10
11.5487
 20
14.0570
 30
0.0000
  0
SEQEND
  8
0
  0
POLYLINE
  8
22
 66
1
 10
0.0000
 20
0.0000
 30
0.0000
 40
0.0635
 41
0.0635
 70
0
  0
VERTEX
  8
22
 10
11.9300
 20
13.6757
 30
0.0000
 42
1.0000
  0
VERTEX
  8
22
 10
11.9750
 20
13.7206
 30
0.0000
  0
SEQEND
  8
0
  0
POLYLINE
  8
22
 66
1
 10
0.0000
 20
0.0000
 30
0.0000
 40
0.1270
 41
0.1270
 70
0
  0
VERTEX
  8
22
 10
11.5712
 20
14.0795
 30
0.0000
  0
VERTEX
  8
22
 10
11.5712
 20
12.9355
 30
0.0000
  0
SEQEND
  8
0
  0
POLYLINE
  8
22
 66
1
 10
0.0000
 20
0.0000
 30
0.0000
 40
0.0635
 41
0.0635
 70
0
  0
VERTEX
  8
22
 10
11.5394
 20
12.9355
 30
0.0000
 42
1.0000
  0
VERTEX
  8
22
 10
11.6029
 20
12.9355
 30
0.0000
  0
SEQEND
  8
0
  0
POLYLINE
  8
22
 66
1
 10
0.0000
 20
0.0000
 30
0.0000
 40
0.0635
 41
0.0635
 70
0
  0
VERTEX
  8
22
 10
11.6029
 20
14.0795
 30
0.0000
 42
1.0000
  0
VERTEX
  8
22
 10
11.5394
 20
14.0795
 30
0.0000
  0
SEQEND
  8
0
  0
POLYLINE
  8
22
 66
1
 10
0.0000
 20
0.0000
 30
0.0000
 40
0.1270
 41
0.1270
 70
0
  0
VERTEX
  8
22
 10
11.9525
 20
12.9355
 30
0.0000
  0
VERTEX
  8
22
 10
11.1898
 20
12.9355
 30
0.0000
  0
SEQEND
  8
0
  0
POLYLINE
  8
22
 66
1
 10
0.0000
 20
0.0000
 30
0.0000
 40
0.0635
 41
0.0635
 70
0
  0
VERTEX
  8
22
 10
11.1898
 20
12.9673
 30
0.0000
 42
1.0000
  0
VERTEX
  8
22
 10
11.1898
 20
12.9038
 30
0.0000
  0
SEQEND
  8
0
  0
POLYLINE
  8
22
 66
1
 10
0.0000
 20
0.0000
 30
0.0000
 40
0.0635
 41
0.0635
 70
0
  0
VERTEX
  8
22
 10
11.9525
 20
12.9038
 30
0.0000
 42
1.0000
  0
VERTEX
  8
22
 10
11.9525
 20
12.9673
 30
0.0000
  0
SEQEND
  8
0
  0
POLYLINE
  8
22
 66
1
 10
0.0000
 20
0.0000
 30
0.0000
 40
0.1270
 41
0.1270
 70
0
  0
VERTEX
  8
22
 10
10.7831
 20
13.1262
 30
0.0000
  0
VERTEX
  8
22
 10
10.7831
 20
13.8888
 30
0.0000
  0
SEQEND
  8
0
  0
POLYLINE
  8
22
 66
1
 10
0.0000
 20
0.0000
 30
0.0000
 40
0.0635
 41
0.0635
 70
0
  0
VERTEX
  8
22
 10
10.8149
 20
13.8888
 30
0.0000
 42
1.0000
  0
VERTEX
  8
22
 10
10.7514
 20
13.8888
 30
0.0000
  0
SEQEND
  8
0
  0
POLYLINE
  8
22
 66
1
 10
0.0000
 20
0.0000
 30
0.0000
 40
0.0635
 41
0.0635
 70
0
  0
VERTEX
  8
22
 10
10.7514
 20
13.1262
 30
0.0000
 42
1.0000
  0
VERTEX
  8
22
 10
10.8149
 20
13.1262
 30
0.0000
  0
SEQEND
  8
0
  0
POLYLINE
  8
22
 66
1
 10
0.0000
 20
0.0000
 30
0.0000
 40
0.1270
 41
0.1270
 70
0
  0
VERTEX
  8
22
 10
10.7831
 20
13.8888
 30
0.0000
  0
VERTEX
  8
22
 10
10.5924
 20
14.0795
 30
0.0000
  0
SEQEND
  8
0
  0
POLYLINE
  8
22
 66
1
 10
0.0000
 20
0.0000
 30
0.0000
 40
0.0635
 41
0.0635
 70
0
  0
VERTEX
  8
22
 10
10.6149
 20
14.1019
 30
0.0000
 42
1.0000
  0
VERTEX
  8
22
 10
10.5700
 20
14.0570
 30
0.0000
  0
SEQEND
  8
0
  0
POLYLINE
  8
22
 66
1
 10
0.0000
 20
0.0000
 30
0.0000
 40
0.0635
 41
0.0635
 70
0
  0
VERTEX
  8
22
 10
10.7607
 20
13.8664
 30
0.0000
 42
1.0000
  0
VERTEX
  8
22
 10
10.8056
 20
13.9113
 30
0.0000
  0
SEQEND
  8
0
  0
POLYLINE
  8
22
 66
1
 10
0.0000
 20
0.0000
 30
0.0000
 40
0.1270
 41
0.1270
 70
0
  0
VERTEX
  8
22
 10
10.5924
 20
14.0795
 30
0.0000
  0
VERTEX
  8
22
 10
10.2111
 20
14.0795
 30
0.0000
  0
SEQEND
  8
0
  0
POLYLINE
  8
22
 66
1
 10
0.0000
 20
0.0000
 30
0.0000
 40
0.0635
 41
0.0635
 70
0
  0
VERTEX
  8
22
 10
10.2111
 20
14.1112
 30
0.0000
 42
1.0000
  0
VERTEX
  8
22
 10
10.2111
 20
14.0477
 30
0.0000
  0
SEQEND
  8
0
  0
POLYLINE
  8
22
 66
1
 10
0.0000
 20
0.0000
 30
0.0000
 40
0.0635
 41
0.0635
 70
0
  0
VERTEX
  8
22
 10
10.5924
 20
14.0477
 30
0.0000
 42
1.0000
  0
VERTEX
  8
22
 10
10.5924
 20
14.1112
 30
0.0000
  0
SEQEND
  8
0
  0
POLYLINE
  8
22
 66
1
 10
0.0000
 20
0.0000
 30
0.0000
 40
0.1270
 41
0.1270
 70
0
  0
VERTEX
  8
22
 10
10.2111
 20
14.0795
 30
0.0000
  0
VERTEX
  8
22
 10
10.0205
 20
13.8888
 30
0.0000
  0
SEQEND
  8
0
  0
POLYLINE
  8
22
 66
1
 10
0.0000
 20
0.0000
 30
0.0000
 40
0.0635
 41
0.0635
 70
0
  0
VERTEX
  8
22
 10
9.9980
 20
13.9113
 30
0.0000
 42
1.0000
  0
VERTEX
  8
22
 10
10.0429
 20
13.8664
 30
0.0000
  0
SEQEND
  8
0
  0
POLYLINE
  8
22
 66
1
 10
0.0000
 20
0.0000
 30
0.0000
 40
0.0635
 41
0.0635
 70
0
  0
VERTEX
  8
22
 10
10.2336
 20
14.0570
 30
0.0000
 42
1.0000
  0
VERTEX
  8
22
 10
10.1887
 20
14.1019
 30
0.0000
  0
SEQEND
  8
0
  0
POLYLINE
  8
22
 66
1
 10
0.0000
 20
0.0000
 30
0.0000
 40
0.1270
 41
0.1270
 70
0
  0
VERTEX
  8
22
 10
10.0205
 20
13.8888
 30
0.0000
  0
VERTEX
  8
22
 10
10.0205
 20
13.1262
 30
0.0000
  0
SEQEND
  8
0
  0
POLYLINE
  8
22
 66
1
 10
0.0000
 20
0.0000
 30
0.0000
 40
0.0635
 41
0.0635
 70
0
  0
VERTEX
  8
22
 10
9.9887
 20
13.1262
 30
0.0000
 42
1.0000
  0
VERTEX
  8
22
 10
10.0522
 20
13.1262
 30
0.0000
  0
SEQEND
  8
0
  0
POLYLINE
  8
22
 66
1
 10
0.0000
 20
0.0000
 30
0.0000
 40
0.0635
 41
0.0635
 70
0
  0
VERTEX
  8
22
 10
10.0522
 20
13.8888
 30
0.0000
 42
1.0000
  0
VERTEX
  8
22
 10
9.9887
 20
13.8888
 30
0.0000
  0
SEQEND
  8
0
  0
POLYLINE
  8
22
 66
1
 10
0.0000
 20
0.0000
 30
0.0000
 40
0.1270
 41
0.1270
 70
0
  0
VERTEX
  8
22
 10
10.0205
 20
13.1262
 30
0.0000
  0
VERTEX
  8
22
 10
10.2111
 20
12.9355
 30
0.0000
  0
SEQEND
  8
0
  0
POLYLINE
  8
22
 66
1
 10
0.0000
 20
0.0000
 30
0.0000
 40
0.0635
 41
0.0635
 70
0
  0
VERTEX
  8
22
 10
10.1887
 20
12.9130
 30
0.0000
 42
1.0000
  0
VERTEX
  8
22
 10
10.2336
 20
12.9580
 30
0.0000
  0
SEQEND
  8
0
  0
POLYLINE
  8
22
 66
1
 10
0.0000
 20
0.0000
 30
0.0000
 40
0.0635
 41
0.0635
 70
0
  0
VERTEX
  8
22
 10
10.0429
 20
13.1486
 30
0.0000
 42
1.0000
  0
VERTEX
  8
22
 10
9.9980
 20
13.1037
 30
0.0000
  0
SEQEND
  8
0
  0
POLYLINE
  8
22
 66
1
 10
0.0000
 20
0.0000
 30
0.0000
 40
0.1270
 41
0.1270
 70
0
  0
VERTEX
  8
22
 10
10.2111
 20
12.9355
 30
0.0000
  0
VERTEX
  8
22
 10
10.5924
 20
12.9355
 30
0.0000
  0
SEQEND
  8
0
  0
POLYLINE
  8
22
 66
1
 10
0.0000
 20
0.0000
 30
0.0000
 40
0.0635
 41
0.0635
 70
0
  0
VERTEX
  8
22
 10
10.5924
 20
12.9038
 30
0.0000
 42
1.0000
  0
VERTEX
  8
22
 10
10.5924
 20
12.9673
 30
0.0000
  0
SEQEND
  8
0
  0
POLYLINE
  8
22
 66
1
 10
0.0000
 20
0.0000
 30
0.0000
 40
0.0635
 41
0.0635
 70
0
  0
VERTEX
  8
22
 10
10.2111
 20
12.9673
 30
0.0000
 42
1.0000
  0
VERTEX
  8
22
 10
10.2111
 20
12.9038
 30
0.0000
  0
SEQEND
  8
0
  0
POLYLINE
  8
22
 66
1
 10
0.0000
 20
0.0000
 30
0.0000
 40
0.1270
 41
0.1270
 70
0
  0
VERTEX
  8
22
 10
10.5924
 20
12.9355
 30
0.0000
  0
VERTEX
  8
22
 10
10.7831
 20
13.1262
 30
0.0000
  0
SEQEND
  8
0
  0
POLYLINE
  8
22
 66
1
 10
0.0000
 20
0.0000
 30
0.0000
 40
0.0635
 41
0.0635
 70
0
  0
VERTEX
  8
22
 10
10.8056
 20
13.1037
 30
0.0000
 42
1.0000
  0
VERTEX
  8
22
 10
10.7607
 20
13.1486
 30
0.0000
  0
SEQEND
  8
0
  0
POLYLINE
  8
22
 66
1
 10
0.0000
 20
0.0000
 30
0.0000
 40
0.0635
 41
0.0635
 70
0
  0
VERTEX
  8
22
 10
10.5700
 20
12.9580
 30
0.0000
 42
1.0000
  0
VERTEX
  8
22
 10
10.6149
 20
12.9130
 30
0.0000
  0
SEQEND
  8
0
  0
POLYLINE
  8
22
 66
1
 10
0.0000
 20
0.0000
 30
0.0000
 40
0.1270
 41
0.1270
 70
0
  0
VERTEX
  8
22
 10
10.7831
 20
13.1262
 30
0.0000
  0
VERTEX
  8
22
 10
10.0205
 20
13.8888
 30
0.0000
  0
SEQEND
  8
0
  0
POLYLINE
  8
22
 66
1
 10
0.0000
 20
0.0000
 30
0.0000
 40
0.0635
 41
0.0635
 70
0
  0
VERTEX
  8
22
 10
10.0429
 20
13.9113
 30
0.0000
 42
1.0000
  0
VERTEX
  8
22
 10
9.9980
 20
13.8664
 30
0.0000
  0
SEQEND
  8
0
  0
POLYLINE
  8
22
 66
1
 10
0.0000
 20
0.0000
 30
0.0000
 40
0.0635
 41
0.0635
 70
0
  0
VERTEX
  8
22
 10
10.7607
 20
13.1037
 30
0.0000
 42
1.0000
  0
VERTEX
  8
22
 10
10.8056
 20
13.1486
 30
0.0000
  0
SEQEND
  8
0
  0
POLYLINE
  8
22
 66
1
 10
0.0000
 20
0.0000
 30
0.0000
 40
0.1270
 41
0.1270
 70
0
  0
VERTEX
  8
22
 10
18.5565
 20
15.8572
 30
0.0000
  0
VERTEX
  8
22
 10
18.1752
 20
16.2385
 30
0.0000
  0
SEQEND
  8
0
  0
POLYLINE
  8
22
 66
1
 10
0.0000
 20
0.0000
 30
0.0000
 40
0.0635
 41
0.0635
 70
0
  0
VERTEX
  8
22
 10
18.1976
 20
16.2609
 30
0.0000
 42
1.0000
  0
VERTEX
  8
22
 10
18.1527
 20
16.2160
 30
0.0000
  0
SEQEND
  8
0
  0
POLYLINE
  8
22
 66
1
 10
0.0000
 20
0.0000
 30
0.0000
 40
0.0635
 41
0.0635
 70
0
  0
VERTEX
  8
22
 10
18.5340
 20
15.8347
 30
0.0000
 42
1.0000
  0
VERTEX
  8
22
 10
18.5790
 20
15.8796
 30
0.0000
  0
SEQEND
  8
0
  0
POLYLINE
  8
22
 66
1
 10
0.0000
 20
0.0000
 30
0.0000
 40
0.1270
 41
0.1270
 70
0
  0
VERTEX
  8
22
 10
18.1752
 20
16.2385
 30
0.0000
  0
VERTEX
  8
22
 10
18.1752
 20
15.0945
 30
0.0000
  0
SEQEND
  8
0
  0
POLYLINE
  8
22
 66
1
 10
0.0000
 20
0.0000
 30
0.0000
 40
0.0635
 41
0.0635
 70
0
  0
VERTEX
  8
22
 10
18.1434
 20
15.0945
 30
0.0000
 42
1.0000
  0
VERTEX
  8
22
 10
18.2069
 20
15.0945
 30
0.0000
  0
SEQEND
  8
0
  0
POLYLINE
  8
22
 66
1
 10
0.0000
 20
0.0000
 30
0.0000
 40
0.0635
 41
0.0635
 70
0
  0
VERTEX
  8
22
 10
18.2069
 20
16.2385
 30
0.0000
 42
1.0000
  0
VERTEX
  8
22
 10
18.1434
 20
16.2385
 30
0.0000
  0
SEQEND
  8
0
  0
POLYLINE
  8
22
 66
1
 10
0.0000
 20
0.0000
 30
0.0000
 40
0.1270
 41
0.1270
 70
0
  0
VERTEX
  8
22
 10
18.5565
 20
15.0945
 30
0.0000
  0
VERTEX
  8
22
 10
17.7939
 20
15.0945
 30
0.0000
  0
SEQEND
  8
0
  0
POLYLINE
  8
22
 66
1
 10
0.0000
 20
0.0000
 30
0.0000
 40
0.0635
 41
0.0635
 70
0
  0
VERTEX
  8
22
 10
17.7939
 20
15.1263
 30
0.0000
 42
1.0000
  0
VERTEX
  8
22
 10
17.7939
 20
15.0627
 30
0.0000
  0
SEQEND
  8
0
  0
POLYLINE
  8
22
 66
1
 10
0.0000
 20
0.0000
 30
0.0000
 40
0.0635
 41
0.0635
 70
0
  0
VERTEX
  8
22
 10
18.5565
 20
15.0627
 30
0.0000
 42
1.0000
  0
VERTEX
  8
22
 10
18.5565
 20
15.1263
 30
0.0000
  0
SEQEND
  8
0
  0
POLYLINE
  8
22
 66
1
 10
0.0000
 20
0.0000
 30
0.0000
 40
0.1270
 41
0.1270
 70
0
  0
VERTEX
  8
22
 10
17.7939
 20
17.6345
 30
0.0000
  0
VERTEX
  8
22
 10
18.5565
 20
17.6345
 30
0.0000
  0
SEQEND
  8
0
  0
POLYLINE
  8
22
 66
1
 10
0.0000
 20
0.0000
 30
0.0000
 40
0.0635
 41
0.0635
 70
0
  0
VERTEX
  8
22
 10
18.5565
 20
17.6028
 30
0.0000
 42
1.0000
  0
VERTEX
  8
22
 10
18.5565
 20
17.6662
 30
0.0000
  0
SEQEND
  8
0
  0
POLYLINE
  8
22
 66
1
 10
0.0000
 20
0.0000
 30
0.0000
 40
0.0635
 41
0.0635
 70
0
  0
VERTEX
  8
22
 10
17.7939
 20
17.6662
 30
0.0000
 42
1.0000
  0
VERTEX
  8
22
 10
17.7939
 20
17.6028
 30
0.0000
  0
SEQEND
  8
0
  0
POLYLINE
  8
22
 66
1
 10
0.0000
 20
0.0000
 30
0.0000
 40
0.1270
 41
0.1270
 70
0
  0
VERTEX
  8
22
 10
18.5565
 20
17.6345
 30
0.0000
  0
VERTEX
  8
22
 10
17.7939
 20
18.3971
 30
0.0000
  0
SEQEND
  8
0
  0
POLYLINE
  8
22
 66
1
 10
0.0000
 20
0.0000
 30
0.0000
 40
0.0635
 41
0.0635
 70
0
  0
VERTEX
  8
22
 10
17.8163
 20
18.4196
 30
0.0000
 42
1.0000
  0
VERTEX
  8
22
 10
17.7714
 20
18.3747
 30
0.0000
  0
SEQEND
  8
0
  0
POLYLINE
  8
22
 66
1
 10
0.0000
 20
0.0000
 30
0.0000
 40
0.0635
 41
0.0635
 70
0
  0
VERTEX
  8
22
 10
18.5340
 20
17.6120
 30
0.0000
 42
1.0000
  0
VERTEX
  8
22
 10
18.5790
 20
17.6570
 30
0.0000
  0
SEQEND
  8
0
  0
POLYLINE
  8
22
 66
1
 10
0.0000
 20
0.0000
 30
0.0000
 40
0.1270
 41
0.1270
 70
0
  0
VERTEX
  8
22
 10
17.7939
 20
18.3971
 30
0.0000
  0
VERTEX
  8
22
 10
17.7939
 20
18.5878
 30
0.0000
  0
SEQEND
  8
0
  0
POLYLINE
  8
22
 66
1
 10
0.0000
 20
0.0000
 30
0.0000
 40
0.0635
 41
0.0635
 70
0
  0
VERTEX
  8
22
 10
17.8256
 20
18.5878
 30
0.0000
 42
1.0000
  0
VERTEX
  8
22
 10
17.7621
 20
18.5878
 30
0.0000
  0
SEQEND
  8
0
  0
POLYLINE
  8
22
 66
1
 10
0.0000
 20
0.0000
 30
0.0000
 40
0.0635
 41
0.0635
 70
0
  0
VERTEX
  8
22
 10
17.7621
 20
18.3971
 30
0.0000
 42
1.0000
  0
VERTEX
  8
22
 10
17.8256
 20
18.3971
 30
0.0000
  0
SEQEND
  8
0
  0
POLYLINE
  8
22
 66
1
 10
0.0000
 20
0.0000
 30
0.0000
 40
0.1270
 41
0.1270
 70
0
  0
VERTEX
  8
22
 10
17.7939
 20
18.5878
 30
0.0000
  0
VERTEX
  8
22
 10
17.9845
 20
18.7785
 30
0.0000
  0
SEQEND
  8
0
  0
POLYLINE
  8
22
 66
1
 10
0.0000
 20
0.0000
 30
0.0000
 40
0.0635
 41
0.0635
 70
0
  0
VERTEX
  8
22
 10
18.0070
 20
18.7560
 30
0.0000
 42
1.0000
  0
VERTEX
  8
22
 10
17.9621
 20
18.8009
 30
0.0000
  0
SEQEND
  8
0
  0
POLYLINE
  8
22
 66
1
 10
0.0000
 20
0.0000
 30
0.0000
 40
0.0635
 41
0.0635
 70
0
  0
VERTEX
  8
22
 10
17.7714
 20
18.6103
 30
0.0000
 42
1.0000
  0
VERTEX
  8
22
 10
17.8163
 20
18.5654
 30
0.0000
  0
SEQEND
  8
0
  0
POLYLINE
  8
22
 66
1
 10
0.0000
 20
0.0000
 30
0.0000
 40
0.1270
 41
0.1270
 70
0
  0
VERTEX
  8
22
 10
17.9845
 20
18.7785
 30
0.0000
  0
VERTEX
  8
22
 10
18.3658
 20
18.7785
 30
0.0000
  0
SEQEND
  8
0
  0
POLYLINE
  8
22
 66
1
 10
0.0000
 20
0.0000
 30
0.0000
 40
0.0635
 41
0.0635
 70
0
  0
VERTEX
  8
22
 10
18.3658
 20
18.7467
 30
0.0000
 42
1.0000
  0
VERTEX
  8
22
 10
18.3658
 20
18.8102
 30
0.0000
  0
SEQEND
  8
0
  0
POLYLINE
  8
22
 66
1
 10
0.0000
 20
0.0000
 30
0.0000
 40
0.0635
 41
0.0635
 70
0
  0
VERTEX
  8
22
 10
17.9845
 20
18.8102
 30
0.0000
 42
1.0000
  0
VERTEX
  8
22
 10
17.9845
 20
18.7467
 30
0.0000
  0
SEQEND
  8
0
  0
POLYLINE
  8
22
 66
1
 10
0.0000
 20
0.0000
 30
0.0000
 40
0.1270
 41
0.1270
 70
0
  0
VERTEX
  8
22
 10
18.3658
 20
18.7785
 30
0.0000
  0
VERTEX
  8
22
 10
18.5565
 20
18.5878
 30
0.0000
  0
SEQEND
  8
0
  0
POLYLINE
  8
22
 66
1
 10
0.0000
 20
0.0000
 30
0.0000
 40
0.0635
 41
0.0635
 70
0
  0
VERTEX
  8
22
 10
18.5340
 20
18.5654
 30
0.0000
 42
1.0000
  0
VERTEX
  8
22
 10
18.5790
 20
18.6103
 30
0.0000
  0
SEQEND
  8
0
  0
POLYLINE
  8
22
 66
1
 10
0.0000
 20
0.0000
 30
0.0000
 40
0.0635
 41
0.0635
 70
0
  0
VERTEX
  8
22
 10
18.3883
 20
18.8009
 30
0.0000
 42
1.0000
  0
VERTEX
  8
22
 10
18.3434
 20
18.7560
 30
0.0000
  0
SEQEND
  8
0
  0
ENDSEC
  0
EOF
